<?xml version="1.0" encoding="UTF-8" standalone="no"?>
<svg
   width="1em"
   height="1em"
   viewBox="0 0 24 24"
   version="1.1"
   id="svg2"
   sodipodi:docname="tdesign-map-location.svg"
   xmlns:inkscape="http://www.inkscape.org/namespaces/inkscape"
   xmlns:sodipodi="http://sodipodi.sourceforge.net/DTD/sodipodi-0.dtd"
   xmlns="http://www.w3.org/2000/svg"
   xmlns:svg="http://www.w3.org/2000/svg">
  <defs
     id="defs2" />
  <sodipodi:namedview
     id="namedview2"
     pagecolor="#ffffff"
     bordercolor="#000000"
     borderopacity="0.25"
     inkscape:showpageshadow="2"
     inkscape:pageopacity="0.0"
     inkscape:pagecheckerboard="0"
     inkscape:deskcolor="#d1d1d1" />
  <!-- Icon from TDesign Icons by TDesign - https://github.com/Tencent/tdesign-icons/blob/main/LICENSE -->
  <g
     fill="none"
     id="g2">
    <path
       d="M21.75 16.75c0 3.253-3.75 5.75-3.75 5.75s-3.75-2.497-3.75-5.75a3.75 3.75 0 1 1 7.5 0"
       id="path1" />
    <path
       stroke="currentColor"
       stroke-linecap="square"
       stroke-width="2"
       d="M15 6.5L9 3L3 6.5V20l6-2.5m6-11L21 4v6m-6-3.5V10m-6 7.5v-14m0 14l1.5.875M17.75 17h.5m3.5-.25c0 3.253-3.75 5.75-3.75 5.75s-3.75-2.497-3.75-5.75a3.75 3.75 0 1 1 7.5 0Z"
       id="path2" />
  </g>
</svg>
