<?xml version="1.0" encoding="UTF-8" standalone="no"?>
<svg
   width="1em"
   height="1em"
   viewBox="0 0 24 24"
   version="1.1"
   id="svg2"
   sodipodi:docname="tdesign-map-grid-filled.svg"
   xmlns:inkscape="http://www.inkscape.org/namespaces/inkscape"
   xmlns:sodipodi="http://sodipodi.sourceforge.net/DTD/sodipodi-0.dtd"
   xmlns="http://www.w3.org/2000/svg"
   xmlns:svg="http://www.w3.org/2000/svg">
  <defs
     id="defs2" />
  <sodipodi:namedview
     id="namedview2"
     pagecolor="#ffffff"
     bordercolor="#000000"
     borderopacity="0.25"
     inkscape:showpageshadow="2"
     inkscape:pageopacity="0.0"
     inkscape:pagecheckerboard="0"
     inkscape:deskcolor="#d1d1d1" />
  <!-- Icon from TDesign Icons by TDesign - https://github.com/Tencent/tdesign-icons/blob/main/LICENSE -->
  <path
     fill="currentColor"
     d="M9 11V9h2v2zm4 0V9h2v2zm0 2h2v2h-2zm-2 0v2H9v-2z"
     id="path1" />
  <path
     fill="currentColor"
     d="M22 2H2v20h20zM9 7h2V6h2v1h2V6h2v1h1v2h-1v2h1v2h-1v2h1v2h-1v1h-2v-1h-2v1h-2v-1H9v1H7v-1H6v-2h1v-2H6v-2h1V9H6V7h1V6h2z"
     id="path2" />
</svg>
