<?xml version="1.0" encoding="UTF-8" standalone="no"?>
<svg
   width="1em"
   height="1em"
   viewBox="0 0 24 24"
   version="1.1"
   id="svg4"
   sodipodi:docname="tdesign-gesture-press.svg"
   xmlns:inkscape="http://www.inkscape.org/namespaces/inkscape"
   xmlns:sodipodi="http://sodipodi.sourceforge.net/DTD/sodipodi-0.dtd"
   xmlns="http://www.w3.org/2000/svg"
   xmlns:svg="http://www.w3.org/2000/svg">
  <defs
     id="defs4" />
  <sodipodi:namedview
     id="namedview4"
     pagecolor="#ffffff"
     bordercolor="#000000"
     borderopacity="0.25"
     inkscape:showpageshadow="2"
     inkscape:pageopacity="0.0"
     inkscape:pagecheckerboard="0"
     inkscape:deskcolor="#d1d1d1" />
  <!-- Icon from TDesign Icons by TDesign - https://github.com/Tencent/tdesign-icons/blob/main/LICENSE -->
  <g
     fill="none"
     id="g4">
    <path
       d="M9.244 16.351V7.566a1.756 1.756 0 0 1 3.512 0v3.954h2.158a1.76 1.76 0 0 1 .885.24l3.625 2.115a1.76 1.76 0 0 1 .781 2.073l-1.782 5.35a1.76 1.76 0 0 1-1.667 1.202H9.671c-.546 0-1.06-.254-1.393-.686L4.416 16.79l.544-.816a.88.88 0 0 1 .922-.37z"
       id="path1" />
    <path
       d="M15.394 11.586a6 6 0 1 0-6.15 1.653V7.566a1.756 1.756 0 0 1 3.512 0v3.954h2.158q.245 0 .48.066"
       id="path2" />
    <path
       stroke="currentColor"
       stroke-linecap="square"
       stroke-width="2"
       d="M15.644 11.3a6 6 0 1 0-6.793 1.803"
       id="path3" />
    <path
       stroke="currentColor"
       stroke-linecap="square"
       stroke-width="2"
       d="M9.244 16.351V7.566a1.756 1.756 0 0 1 3.512 0v3.954h2.158a1.76 1.76 0 0 1 .885.24l3.625 2.115a1.76 1.76 0 0 1 .781 2.073l-1.782 5.35a1.76 1.76 0 0 1-1.667 1.202H9.671c-.546 0-1.06-.254-1.393-.686L4.416 16.79l.544-.816a.88.88 0 0 1 .922-.37z"
       id="path4" />
  </g>
</svg>
