<?xml version="1.0" encoding="UTF-8" standalone="no"?>
<svg
   width="1em"
   height="1em"
   viewBox="0 0 24 24"
   version="1.1"
   id="svg3"
   sodipodi:docname="tdesign-hourglass.svg"
   xmlns:inkscape="http://www.inkscape.org/namespaces/inkscape"
   xmlns:sodipodi="http://sodipodi.sourceforge.net/DTD/sodipodi-0.dtd"
   xmlns="http://www.w3.org/2000/svg"
   xmlns:svg="http://www.w3.org/2000/svg">
  <defs
     id="defs3" />
  <sodipodi:namedview
     id="namedview3"
     pagecolor="#ffffff"
     bordercolor="#000000"
     borderopacity="0.25"
     inkscape:showpageshadow="2"
     inkscape:pageopacity="0.0"
     inkscape:pagecheckerboard="0"
     inkscape:deskcolor="#d1d1d1" />
  <!-- Icon from TDesign Icons by TDesign - https://github.com/Tencent/tdesign-icons/blob/main/LICENSE -->
  <g
     fill="none"
     id="g3">
    <path
       d="M19 21H5v-2a7 7 0 1 1 14 0z"
       id="path1" />
    <path
       d="M5 3h14v2A7 7 0 1 1 5 5z"
       id="path2" />
    <path
       stroke="currentColor"
       stroke-width="2"
       d="M12 12a7 7 0 0 1 7 7v2H5v-2a7 7 0 0 1 7-7Zm0 0a7 7 0 0 1-7-7V3h14v2a7 7 0 0 1-7 7Z"
       id="path3" />
  </g>
</svg>
