<?xml version="1.0" encoding="UTF-8" standalone="no"?>
<svg
   width="1em"
   height="1em"
   viewBox="0 0 24 24"
   version="1.1"
   id="svg1"
   sodipodi:docname="tdesign-gesture-typing-filled.svg"
   xmlns:inkscape="http://www.inkscape.org/namespaces/inkscape"
   xmlns:sodipodi="http://sodipodi.sourceforge.net/DTD/sodipodi-0.dtd"
   xmlns="http://www.w3.org/2000/svg"
   xmlns:svg="http://www.w3.org/2000/svg">
  <defs
     id="defs1" />
  <sodipodi:namedview
     id="namedview1"
     pagecolor="#ffffff"
     bordercolor="#000000"
     borderopacity="0.25"
     inkscape:showpageshadow="2"
     inkscape:pageopacity="0.0"
     inkscape:pagecheckerboard="0"
     inkscape:deskcolor="#d1d1d1" />
  <!-- Icon from TDesign Icons by TDesign - https://github.com/Tencent/tdesign-icons/blob/main/LICENSE -->
  <path
     fill="currentColor"
     d="M4 0a2 2 0 1 0 0 4a2 2 0 0 0 0-4m7 0a2 2 0 1 0 0 4a2 2 0 0 0 0-4m7 0a2 2 0 1 0 0 4a2 2 0 0 0 0-4M4 6a2 2 0 1 0 0 4a2 2 0 0 0 0-4m14 0a2 2 0 1 0 0 4a2 2 0 0 0 0-4m-7-.689a2.26 2.26 0 0 0-2.26 2.26v8.064l-2.677-.53a1.88 1.88 0 0 0-1.927.802l-.95 1.425l4.299 5.592A2.76 2.76 0 0 0 9.67 24h7.086c1.187 0 2.24-.76 2.615-1.885l1.783-5.35a2.76 2.76 0 0 0-1.226-3.253l-3.625-2.116a2.76 2.76 0 0 0-1.39-.376H13.26V7.572A2.26 2.26 0 0 0 11 5.311"
     id="path1" />
</svg>
