<?xml version="1.0" encoding="UTF-8" standalone="no"?>
<svg
   width="1em"
   height="1em"
   viewBox="0 0 24 24"
   version="1.1"
   id="svg1"
   sodipodi:docname="tdesign-braces.svg"
   xmlns:inkscape="http://www.inkscape.org/namespaces/inkscape"
   xmlns:sodipodi="http://sodipodi.sourceforge.net/DTD/sodipodi-0.dtd"
   xmlns="http://www.w3.org/2000/svg"
   xmlns:svg="http://www.w3.org/2000/svg">
  <defs
     id="defs1" />
  <sodipodi:namedview
     id="namedview1"
     pagecolor="#ffffff"
     bordercolor="#000000"
     borderopacity="0.25"
     inkscape:showpageshadow="2"
     inkscape:pageopacity="0.0"
     inkscape:pagecheckerboard="0"
     inkscape:deskcolor="#d1d1d1" />
  <!-- Icon from TDesign Icons by TDesign - https://github.com/Tencent/tdesign-icons/blob/main/LICENSE -->
  <path
     fill="none"
     stroke="currentColor"
     stroke-linecap="square"
     stroke-width="2"
     d="M6 20h-.1a2.4 2.4 0 0 1-2.4-2.4V14a2 2 0 0 0-2-2m0 0h-.1m.1 0a2 2 0 0 0 2-2V6.4A2.4 2.4 0 0 1 5.9 4H6m12 16h.1a2.4 2.4 0 0 0 2.4-2.4V14a2 2 0 0 1 2-2m0 0h.1m-.1 0a2 2 0 0 1-2-2V6.4A2.4 2.4 0 0 0 18.1 4H18"
     id="path1" />
</svg>
