<?xml version="1.0" encoding="UTF-8" standalone="no"?>
<svg
   width="1em"
   height="1em"
   viewBox="0 0 24 24"
   version="1.1"
   id="svg1"
   sodipodi:docname="tdesign-wave-bye-filled.svg"
   xmlns:inkscape="http://www.inkscape.org/namespaces/inkscape"
   xmlns:sodipodi="http://sodipodi.sourceforge.net/DTD/sodipodi-0.dtd"
   xmlns="http://www.w3.org/2000/svg"
   xmlns:svg="http://www.w3.org/2000/svg">
  <defs
     id="defs1" />
  <sodipodi:namedview
     id="namedview1"
     pagecolor="#ffffff"
     bordercolor="#000000"
     borderopacity="0.25"
     inkscape:showpageshadow="2"
     inkscape:pageopacity="0.0"
     inkscape:pagecheckerboard="0"
     inkscape:deskcolor="#d1d1d1" />
  <!-- Icon from TDesign Icons by TDesign - https://github.com/Tencent/tdesign-icons/blob/main/LICENSE -->
  <path
     fill="currentColor"
     d="M10.317 4.64a1.373 1.373 0 0 1 1.944.003l5.254 5.282l-.445-1.095c-.56-1.38 1.006-2.65 2.24-1.819c.19.127.347.295.461.49l2.38 4.076a7.19 7.19 0 0 1-1.125 8.709l-.844.844a7.19 7.19 0 0 1-10.168 0L4.98 16.095a1.375 1.375 0 0 1 1.944-1.945l1.604 1.604l.531-.531l-3.69-3.69a1.375 1.375 0 0 1 1.944-1.945l3.69 3.69l.53-.53l-5.056-5.057A1.375 1.375 0 1 1 8.42 5.747l5.057 5.057l.53-.53l-3.691-3.692a1.373 1.373 0 0 1 0-1.942m7.664-3.094l.823.567a12.1 12.1 0 0 1 3.084 3.085l.567.823l-1.646 1.135l-.568-.824a10.1 10.1 0 0 0-2.572-2.572l-.824-.568zM3.191 16.844l.568.824a10.1 10.1 0 0 0 2.573 2.572l.823.568l-1.135 1.646l-.823-.567a12.1 12.1 0 0 1-3.085-3.084l-.567-.824z"
     id="path1" />
</svg>
