<?xml version="1.0" encoding="UTF-8" standalone="no"?>
<svg
   width="1em"
   height="1em"
   viewBox="0 0 24 24"
   version="1.1"
   id="svg2"
   sodipodi:docname="tdesign-lemon-slice.svg"
   xmlns:inkscape="http://www.inkscape.org/namespaces/inkscape"
   xmlns:sodipodi="http://sodipodi.sourceforge.net/DTD/sodipodi-0.dtd"
   xmlns="http://www.w3.org/2000/svg"
   xmlns:svg="http://www.w3.org/2000/svg">
  <defs
     id="defs2" />
  <sodipodi:namedview
     id="namedview2"
     pagecolor="#ffffff"
     bordercolor="#000000"
     borderopacity="0.25"
     inkscape:showpageshadow="2"
     inkscape:pageopacity="0.0"
     inkscape:pagecheckerboard="0"
     inkscape:deskcolor="#d1d1d1" />
  <!-- Icon from TDesign Icons by TDesign - https://github.com/Tencent/tdesign-icons/blob/main/LICENSE -->
  <g
     fill="none"
     id="g2">
    <path
       d="M22 10.488c0-2.93-2.065-6.582-4-8.488l-7.5 7.5L3 17c1.906 1.935 5.557 4 8.488 4a10.48 10.48 0 0 0 7.433-3.079A10.48 10.48 0 0 0 22 10.488"
       id="path1" />
    <path
       stroke="currentColor"
       stroke-linecap="square"
       stroke-width="2"
       d="m10.763 9.763l7.887 7.887m-7.61-8.104l10.71.92m-11.188-.247l.905 10.531M22 10.488c0-2.93-2.065-6.582-4-8.488L3 17c1.906 1.935 5.557 4 8.488 4C17.294 21 22 16.294 22 10.488Z"
       id="path2" />
  </g>
</svg>
