<?xml version="1.0" encoding="UTF-8" standalone="no"?>
<svg
   width="1em"
   height="1em"
   viewBox="0 0 24 24"
   version="1.1"
   id="svg2"
   sodipodi:docname="tdesign-map-search-1.svg"
   xmlns:inkscape="http://www.inkscape.org/namespaces/inkscape"
   xmlns:sodipodi="http://sodipodi.sourceforge.net/DTD/sodipodi-0.dtd"
   xmlns="http://www.w3.org/2000/svg"
   xmlns:svg="http://www.w3.org/2000/svg">
  <defs
     id="defs2" />
  <sodipodi:namedview
     id="namedview2"
     pagecolor="#ffffff"
     bordercolor="#000000"
     borderopacity="0.25"
     inkscape:showpageshadow="2"
     inkscape:pageopacity="0.0"
     inkscape:pagecheckerboard="0"
     inkscape:deskcolor="#d1d1d1" />
  <!-- Icon from TDesign Icons by TDesign - https://github.com/Tencent/tdesign-icons/blob/main/LICENSE -->
  <g
     fill="none"
     id="g2">
    <path
       d="M12 5.09c0 2.41-3 4.377-3 4.377S6 7.5 6 5.09C6 3.383 7.236 2 9 2c1.75 0 3 1.383 3 3.09m9 11.16a3.75 3.75 0 1 1-7.5 0a3.75 3.75 0 0 1 7.5 0"
       id="path1" />
    <path
       stroke="currentColor"
       stroke-linecap="square"
       stroke-width="2"
       d="M12 5.2h9v4.3M6 5.2H3V19h7m-1-4.5l-3-1.9L3.375 14M12 5.09c0 2.41-3 4.377-3 4.377S6 7.5 6 5.09C6 3.383 7.236 2 9 2c1.75 0 3 1.383 3 3.09Zm7.904 13.81l1.596 1.6m-.5-4.25a3.75 3.75 0 1 1-7.5 0a3.75 3.75 0 0 1 7.5 0Z"
       id="path2" />
  </g>
</svg>
