<?xml version="1.0" encoding="UTF-8" standalone="no"?>
<svg
   width="1em"
   height="1em"
   viewBox="0 0 24 24"
   version="1.1"
   id="svg3"
   sodipodi:docname="tdesign-cloudy-night-rain.svg"
   xmlns:inkscape="http://www.inkscape.org/namespaces/inkscape"
   xmlns:sodipodi="http://sodipodi.sourceforge.net/DTD/sodipodi-0.dtd"
   xmlns="http://www.w3.org/2000/svg"
   xmlns:svg="http://www.w3.org/2000/svg">
  <defs
     id="defs3" />
  <sodipodi:namedview
     id="namedview3"
     pagecolor="#ffffff"
     bordercolor="#000000"
     borderopacity="0.25"
     inkscape:showpageshadow="2"
     inkscape:pageopacity="0.0"
     inkscape:pagecheckerboard="0"
     inkscape:deskcolor="#d1d1d1" />
  <!-- Icon from TDesign Icons by TDesign - https://github.com/Tencent/tdesign-icons/blob/main/LICENSE -->
  <g
     fill="none"
     id="g3">
    <path
       d="M15.512 11.322h-.075c-.354-2.034-1.933-3.669-3.983-4.175a5.6 5.6 0 0 0-1.425-.162A5.51 5.51 0 0 1 15.032 2q-.02.237-.02.48a5.505 5.505 0 0 0 5.985 5.484a5.5 5.5 0 0 1-2.712 4.277a4.6 4.6 0 0 0-2.773-.92"
       id="path1" />
    <path
       stroke="currentColor"
       stroke-linecap="square"
       stroke-width="2"
       d="M15.512 11.322h-.075c-.354-2.034-1.933-3.669-3.983-4.175a5.6 5.6 0 0 0-1.425-.162A5.51 5.51 0 0 1 15.032 2q-.02.237-.02.48a5.505 5.505 0 0 0 5.985 5.484a5.5 5.5 0 0 1-2.712 4.277a4.6 4.6 0 0 0-2.773-.92Zm-2.516 3.655H13v.003h-.004zm.004 5h.004v.003H13zm-5-3h.004v.003H8zm0 5h.004v.003H8z"
       id="path2" />
    <path
       stroke="currentColor"
       stroke-linecap="square"
       stroke-width="2"
       d="M4.002 19.636C2.815 19.068 2 17.889 2 16.526c0-1.648 1.193-3.027 2.793-3.381q-.09-.466-.09-.956c0-2.874 2.42-5.205 5.405-5.205c.465 0 .916.057 1.347.163c2.049.507 3.629 2.14 3.983 4.175h.074c.819 0 1.586.21 2.247.577c1.35.75 2.258 2.153 2.258 3.76c0 1.779-1.112 3.308-2.703 3.977"
       id="path3" />
  </g>
</svg>
