<?xml version="1.0" encoding="UTF-8" standalone="no"?>
<svg
   width="1em"
   height="1em"
   viewBox="0 0 24 24"
   version="1.1"
   id="svg2"
   sodipodi:docname="tdesign-watermelon-filled.svg"
   xmlns:inkscape="http://www.inkscape.org/namespaces/inkscape"
   xmlns:sodipodi="http://sodipodi.sourceforge.net/DTD/sodipodi-0.dtd"
   xmlns="http://www.w3.org/2000/svg"
   xmlns:svg="http://www.w3.org/2000/svg">
  <defs
     id="defs2" />
  <sodipodi:namedview
     id="namedview2"
     pagecolor="#ffffff"
     bordercolor="#000000"
     borderopacity="0.25"
     inkscape:showpageshadow="2"
     inkscape:pageopacity="0.0"
     inkscape:pagecheckerboard="0"
     inkscape:deskcolor="#d1d1d1" />
  <!-- Icon from TDesign Icons by TDesign - https://github.com/Tencent/tdesign-icons/blob/main/LICENSE -->
  <path
     fill="currentColor"
     d="m17.5 1.086l.708.707c1.802 1.803 2.338 4.733 2.293 7.206V9c-.007 6.347-5.15 11.491-11.498 11.5c-2.48.051-5.163-.674-7.12-2.215l-.886-.697zm-.998 7.412h-2.004v2.004h2.004zm-3 3h-2.004v2.004h2.004zm-3 3H8.498v2.004h2.004z"
     id="path1" />
  <path
     fill="currentColor"
     d="M21.5 9.5c0 6.627-5.373 12-12 12c-1.593 0-3.114-.31-4.505-.874q.45.26.918.494c1.594.796 3.397 1.38 5.075 1.38c6.358 0 11.512-5.154 11.512-11.512c0-1.678-.583-3.481-1.38-5.075q-.234-.47-.496-.922c.565 1.392.876 2.914.876 4.509"
     id="path2" />
</svg>
