<?xml version="1.0" encoding="UTF-8" standalone="no"?>
<svg
   width="1em"
   height="1em"
   viewBox="0 0 24 24"
   version="1.1"
   id="svg4"
   sodipodi:docname="tdesign-camera-1.svg"
   xmlns:inkscape="http://www.inkscape.org/namespaces/inkscape"
   xmlns:sodipodi="http://sodipodi.sourceforge.net/DTD/sodipodi-0.dtd"
   xmlns="http://www.w3.org/2000/svg"
   xmlns:svg="http://www.w3.org/2000/svg">
  <defs
     id="defs4" />
  <sodipodi:namedview
     id="namedview4"
     pagecolor="#ffffff"
     bordercolor="#000000"
     borderopacity="0.25"
     inkscape:showpageshadow="2"
     inkscape:pageopacity="0.0"
     inkscape:pagecheckerboard="0"
     inkscape:deskcolor="#d1d1d1" />
  <!-- Icon from TDesign Icons by TDesign - https://github.com/Tencent/tdesign-icons/blob/main/LICENSE -->
  <g
     fill="none"
     id="g4">
    <path
       d="M20 10a8 8 0 1 1-16 0a8 8 0 0 1 16 0"
       id="path1" />
    <path
       d="M15 10a3 3 0 1 1-6 0a3 3 0 0 1 6 0"
       id="path2" />
    <path
       stroke="currentColor"
       stroke-linecap="square"
       stroke-width="2"
       d="M12 18a8 8 0 0 1-3-.581L8 22m4-4a8 8 0 0 0 3-.581L16 22m-4-4a8 8 0 1 0 0-16a8 8 0 0 0 0 16Zm4 4H8m8 0h2M8 22H6"
       id="path3" />
    <path
       stroke="currentColor"
       stroke-width="2"
       d="M15 10a3 3 0 1 1-6 0a3 3 0 0 1 6 0Z"
       id="path4" />
  </g>
</svg>
