<?xml version="1.0" encoding="UTF-8" standalone="no"?>
<svg
   width="1em"
   height="1em"
   viewBox="0 0 24 24"
   version="1.1"
   id="svg4"
   sodipodi:docname="tdesign-map-bubble.svg"
   xmlns:inkscape="http://www.inkscape.org/namespaces/inkscape"
   xmlns:sodipodi="http://sodipodi.sourceforge.net/DTD/sodipodi-0.dtd"
   xmlns="http://www.w3.org/2000/svg"
   xmlns:svg="http://www.w3.org/2000/svg">
  <defs
     id="defs4" />
  <sodipodi:namedview
     id="namedview4"
     pagecolor="#ffffff"
     bordercolor="#000000"
     borderopacity="0.25"
     inkscape:showpageshadow="2"
     inkscape:pageopacity="0.0"
     inkscape:pagecheckerboard="0"
     inkscape:deskcolor="#d1d1d1" />
  <!-- Icon from TDesign Icons by TDesign - https://github.com/Tencent/tdesign-icons/blob/main/LICENSE -->
  <g
     fill="none"
     id="g4">
    <path
       d="M3 6.5V20l6-2.5l6 3.5l6-3.5V4l-6 2.5L9 3z"
       id="path1" />
    <path
       d="M14.75 10.25a.75.75 0 1 1-1.5 0a.75.75 0 0 1 1.5 0m2.5 4.5a.75.75 0 1 1-1.5 0a.75.75 0 0 1 1.5 0m-9-5.5a.75.75 0 1 1-1.5 0a.75.75 0 0 1 1.5 0m2.5 4.5a.75.75 0 1 1-1.5 0a.75.75 0 0 1 1.5 0"
       id="path2" />
    <path
       stroke="currentColor"
       stroke-width="2"
       d="M3 6.5V20l6-2.5l6 3.5l6-3.5V4l-6 2.5L9 3z"
       id="path3" />
    <path
       stroke="currentColor"
       stroke-width="2"
       d="M14.75 10.25a.75.75 0 1 1-1.5 0a.75.75 0 0 1 1.5 0Zm2.5 4.5a.75.75 0 1 1-1.5 0a.75.75 0 0 1 1.5 0Zm-9-5.5a.75.75 0 1 1-1.5 0a.75.75 0 0 1 1.5 0Zm2.5 4.5a.75.75 0 1 1-1.5 0a.75.75 0 0 1 1.5 0Z"
       id="path4" />
  </g>
</svg>
