<?xml version="1.0" encoding="UTF-8" standalone="no"?>
<svg
   width="1em"
   height="1em"
   viewBox="0 0 24 24"
   version="1.1"
   id="svg3"
   sodipodi:docname="tdesign-cooperate.svg"
   xmlns:inkscape="http://www.inkscape.org/namespaces/inkscape"
   xmlns:sodipodi="http://sodipodi.sourceforge.net/DTD/sodipodi-0.dtd"
   xmlns="http://www.w3.org/2000/svg"
   xmlns:svg="http://www.w3.org/2000/svg">
  <defs
     id="defs3" />
  <sodipodi:namedview
     id="namedview3"
     pagecolor="#ffffff"
     bordercolor="#000000"
     borderopacity="0.25"
     inkscape:showpageshadow="2"
     inkscape:pageopacity="0.0"
     inkscape:pagecheckerboard="0"
     inkscape:deskcolor="#d1d1d1" />
  <!-- Icon from TDesign Icons by TDesign - https://github.com/Tencent/tdesign-icons/blob/main/LICENSE -->
  <g
     fill="none"
     id="g3">
    <path
       d="M1.5 10.5L12 21l7.5-7.5L15 9l-3 3l-3-3l3-3l-3-3z"
       id="path1" />
    <path
       d="m15 3l-3 3l-3 3l3 3l3-3l4.5 4.5l3-3z"
       id="path2" />
    <path
       stroke="currentColor"
       stroke-linecap="square"
       stroke-width="2"
       d="M12 6L9 3l-7.5 7.5L12 21l7.5-7.5M12 6L9 9l3 3l3-3l4.5 4.5M12 6l3-3l7.5 7.5l-3 3m-5.132 5.132L12 16.264m4.736-.001l-2.368-2.369"
       id="path3" />
  </g>
</svg>
