<?xml version="1.0" encoding="UTF-8" standalone="no"?>
<svg
   width="1em"
   height="1em"
   viewBox="0 0 24 24"
   version="1.1"
   id="svg2"
   sodipodi:docname="tdesign-grape.svg"
   xmlns:inkscape="http://www.inkscape.org/namespaces/inkscape"
   xmlns:sodipodi="http://sodipodi.sourceforge.net/DTD/sodipodi-0.dtd"
   xmlns="http://www.w3.org/2000/svg"
   xmlns:svg="http://www.w3.org/2000/svg">
  <defs
     id="defs2" />
  <sodipodi:namedview
     id="namedview2"
     pagecolor="#ffffff"
     bordercolor="#000000"
     borderopacity="0.25"
     inkscape:showpageshadow="2"
     inkscape:pageopacity="0.0"
     inkscape:pagecheckerboard="0"
     inkscape:deskcolor="#d1d1d1" />
  <!-- Icon from TDesign Icons by TDesign - https://github.com/Tencent/tdesign-icons/blob/main/LICENSE -->
  <g
     fill="none"
     id="g2">
    <path
       d="M3 17.824A3.177 3.177 0 0 0 6.176 21c1.34 0 2.498-.903 2.966-2.075a3.17 3.17 0 0 0 2.329 1.016c1.675 0 3.06-1.278 3.18-2.923a3.176 3.176 0 0 0 5.29-2.371c0-.565-.135-1.107-.393-1.567a3.177 3.177 0 0 0-3.133-5.516c.204-.42.35-.89.35-1.388a3.177 3.177 0 0 0-5.851-1.714a3.2 3.2 0 0 0-1.561-.403A3.176 3.176 0 0 0 7 9.369a3.17 3.17 0 0 0-1.926 5.489A3.16 3.16 0 0 0 3 17.823"
       id="path1" />
    <path
       stroke="currentColor"
       stroke-linecap="square"
       stroke-width="2"
       d="M10.914 4.462a3.2 3.2 0 0 0-1.561-.403a3.176 3.176 0 1 0 0 6.353m10.195 2.668c.258.46.393 1.002.393 1.567a3.176 3.176 0 0 1-5.29 2.371c-1.556-1.388-1.358-3.908.421-5.018m1.785-4.95c1.32-1.503 2.73-2.828 4.643-3.55m-15 5.946a3.17 3.17 0 0 0-2.441 3.083c0 .92.39 1.749 1.015 2.329a3.17 3.17 0 0 0 3.026.729m1.75-1.533a3.16 3.16 0 0 0-1.556 2.71a3.176 3.176 0 0 0 3.177 3.177a3.18 3.18 0 0 0 3.107-2.441M4.55 15.108A3.15 3.15 0 0 0 3 17.823A3.176 3.176 0 0 0 6.176 21c.994 0 1.888-.497 2.474-1.232m4.45-5.172c-.973.177-2-.12-2.727-.793a3.17 3.17 0 0 1-1.02-2.332c0-1.184.64-2.203 1.599-2.746M13.588 3a3.177 3.177 0 0 1 3.177 3.176c0 .498-.146.969-.35 1.388a3.2 3.2 0 0 0-1.452 1.466c-.416.2-.882.323-1.375.323a3.177 3.177 0 0 1 0-6.353ZM21 10.412a3.177 3.177 0 1 0-6.353 0a3.177 3.177 0 0 0 6.353 0Z"
       id="path2" />
  </g>
</svg>
