<?xml version="1.0" encoding="UTF-8" standalone="no"?>
<svg
   width="1em"
   height="1em"
   viewBox="0 0 24 24"
   version="1.1"
   id="svg4"
   sodipodi:docname="tdesign-rocket.svg"
   xmlns:inkscape="http://www.inkscape.org/namespaces/inkscape"
   xmlns:sodipodi="http://sodipodi.sourceforge.net/DTD/sodipodi-0.dtd"
   xmlns="http://www.w3.org/2000/svg"
   xmlns:svg="http://www.w3.org/2000/svg">
  <defs
     id="defs4" />
  <sodipodi:namedview
     id="namedview4"
     pagecolor="#ffffff"
     bordercolor="#000000"
     borderopacity="0.25"
     inkscape:showpageshadow="2"
     inkscape:pageopacity="0.0"
     inkscape:pagecheckerboard="0"
     inkscape:deskcolor="#d1d1d1" />
  <!-- Icon from TDesign Icons by TDesign - https://github.com/Tencent/tdesign-icons/blob/main/LICENSE -->
  <g
     fill="none"
     id="g4">
    <path
       d="m5.636 12.706l5.657 5.657l8.263-8.263A8 8 0 0 0 21.9 4.443V2.1h-2.343A8 8 0 0 0 13.9 4.443z"
       id="path1" />
    <path
       d="m17.657 18.363l-.707-5.657l-5.657 5.657l3.182 3.182zM5.636 6.342l5.657.707l-5.657 5.657l-3.182-3.182z"
       id="path2" />
    <path
       stroke="currentColor"
       stroke-linecap="square"
       stroke-width="2"
       d="M4.222 16.949L2.1 19.07m4.949.707L4.929 21.9m12.728-3.536l-.707-5.657l-5.657 5.657l3.182 3.182zM5.637 6.343l5.656.706l-5.657 5.657l-3.182-3.182z"
       id="path3" />
    <path
       stroke="currentColor"
       stroke-linecap="square"
       stroke-width="2"
       d="m11.293 7.05l-5.657 5.656m0 0l5.657 5.657m-5.657-5.657l8.263-8.263A8 8 0 0 1 19.556 2.1H21.9v2.343a8 8 0 0 1-2.343 5.657l-8.263 8.263m5.656-5.657l-5.656 5.657"
       id="path4" />
  </g>
</svg>
