<?xml version="1.0" encoding="UTF-8" standalone="no"?>
<svg
   width="1em"
   height="1em"
   viewBox="0 0 24 24"
   version="1.1"
   id="svg2"
   sodipodi:docname="tdesign-file-unknown-filled.svg"
   xmlns:inkscape="http://www.inkscape.org/namespaces/inkscape"
   xmlns:sodipodi="http://sodipodi.sourceforge.net/DTD/sodipodi-0.dtd"
   xmlns="http://www.w3.org/2000/svg"
   xmlns:svg="http://www.w3.org/2000/svg">
  <defs
     id="defs2" />
  <sodipodi:namedview
     id="namedview2"
     pagecolor="#ffffff"
     bordercolor="#000000"
     borderopacity="0.25"
     inkscape:showpageshadow="2"
     inkscape:pageopacity="0.0"
     inkscape:pagecheckerboard="0"
     inkscape:deskcolor="#d1d1d1" />
  <!-- Icon from TDesign Icons by TDesign - https://github.com/Tencent/tdesign-icons/blob/main/LICENSE -->
  <path
     fill="currentColor"
     d="M15.414 1H3v22h10.846A6.5 6.5 0 0 1 21 12.232V6.586zM14.5 7.5V3L19 7.5z"
     id="path1" />
  <path
     fill="currentColor"
     d="M18 15c-.93 0-1.5.656-1.5 1.249v1h-2v-1C14.5 14.358 16.17 13 18 13s3.5 1.358 3.5 3.249a3.13 3.13 0 0 1-1.027 2.3L19 19.939v.683h-2v-1.546l2.112-1.993c.256-.235.388-.53.388-.834c0-.593-.57-1.249-1.5-1.249m-1 6.996h2.003V24h-2.004z"
     id="path2" />
</svg>
