<?xml version="1.0" encoding="UTF-8" standalone="no"?>
<svg
   width="1em"
   height="1em"
   viewBox="0 0 24 24"
   version="1.1"
   id="svg1"
   sodipodi:docname="tdesign-gesture-ranslation-filled.svg"
   xmlns:inkscape="http://www.inkscape.org/namespaces/inkscape"
   xmlns:sodipodi="http://sodipodi.sourceforge.net/DTD/sodipodi-0.dtd"
   xmlns="http://www.w3.org/2000/svg"
   xmlns:svg="http://www.w3.org/2000/svg">
  <defs
     id="defs1" />
  <sodipodi:namedview
     id="namedview1"
     pagecolor="#ffffff"
     bordercolor="#000000"
     borderopacity="0.25"
     inkscape:showpageshadow="2"
     inkscape:pageopacity="0.0"
     inkscape:pagecheckerboard="0"
     inkscape:deskcolor="#d1d1d1" />
  <!-- Icon from TDesign Icons by TDesign - https://github.com/Tencent/tdesign-icons/blob/main/LICENSE -->
  <path
     fill="currentColor"
     d="M10.75 1.5a1.5 1.5 0 0 1 3 0V10h.75V3.686a1.5 1.5 0 0 1 3 0V10h.75V7.022a1.5 1.5 0 1 1 3 0V15a8 8 0 0 1-8 8h-1.351a8 8 0 0 1-7.738-5.968l-1.498-5.706a1.669 1.669 0 0 1 3.03-1.307L7 12.113V3.686a1.5 1.5 0 1 1 3 0V10h.75z"
     id="path1" />
</svg>
