<?xml version="1.0" encoding="UTF-8" standalone="no"?>
<svg
   width="1em"
   height="1em"
   viewBox="0 0 24 24"
   version="1.1"
   id="svg2"
   sodipodi:docname="tdesign-history-setting.svg"
   xmlns:inkscape="http://www.inkscape.org/namespaces/inkscape"
   xmlns:sodipodi="http://sodipodi.sourceforge.net/DTD/sodipodi-0.dtd"
   xmlns="http://www.w3.org/2000/svg"
   xmlns:svg="http://www.w3.org/2000/svg">
  <defs
     id="defs2" />
  <sodipodi:namedview
     id="namedview2"
     pagecolor="#ffffff"
     bordercolor="#000000"
     borderopacity="0.25"
     inkscape:showpageshadow="2"
     inkscape:pageopacity="0.0"
     inkscape:pagecheckerboard="0"
     inkscape:deskcolor="#d1d1d1" />
  <!-- Icon from TDesign Icons by TDesign - https://github.com/Tencent/tdesign-icons/blob/main/LICENSE -->
  <g
     fill="none"
     id="g2">
    <path
       d="M21 18.5a2.5 2.5 0 1 1-5 0a2.5 2.5 0 0 1 5 0"
       id="path1" />
    <path
       stroke="currentColor"
       stroke-linecap="square"
       stroke-width="2"
       d="M21.5 12A9.5 9.5 0 0 0 12 2.5c-1.628 0-3.16.41-4.5 1.131A9.54 9.54 0 0 0 3.38 8M12 7v5l1.25 1.25M12 21.5A9.5 9.5 0 0 1 2.552 13M2.5 3.5v5h5m11 7.5a2.5 2.5 0 1 0 0 5a2.5 2.5 0 0 0 0-5Zm0 0v-.995m0 6.995v-.995m-2.167-3.754l-.862-.497m6.058 3.497l-.862-.497m0-2.503l.862-.498m-6.058 3.498l.862-.498"
       id="path2" />
  </g>
</svg>
