<?xml version="1.0" encoding="UTF-8" standalone="no"?>
<svg
   width="1em"
   height="1em"
   viewBox="0 0 24 24"
   version="1.1"
   id="svg2"
   sodipodi:docname="tdesign-palette-1.svg"
   xmlns:inkscape="http://www.inkscape.org/namespaces/inkscape"
   xmlns:sodipodi="http://sodipodi.sourceforge.net/DTD/sodipodi-0.dtd"
   xmlns="http://www.w3.org/2000/svg"
   xmlns:svg="http://www.w3.org/2000/svg">
  <defs
     id="defs2" />
  <sodipodi:namedview
     id="namedview2"
     pagecolor="#ffffff"
     bordercolor="#000000"
     borderopacity="0.25"
     inkscape:showpageshadow="2"
     inkscape:pageopacity="0.0"
     inkscape:pagecheckerboard="0"
     inkscape:deskcolor="#d1d1d1" />
  <!-- Icon from TDesign Icons by TDesign - https://github.com/Tencent/tdesign-icons/blob/main/LICENSE -->
  <g
     fill="none"
     id="g2">
    <path
       d="M15.889 6.938c0 2.174-1.741 3.937-3.889 3.937S8.111 9.112 8.111 6.938S9.852 3 12 3s3.889 1.763 3.889 3.938M9.778 17.063c0 2.174-1.741 3.937-3.89 3.937C3.742 21 2 19.237 2 17.063s1.741-3.938 3.889-3.938s3.889 1.763 3.889 3.938m12.222 0C22 19.237 20.259 21 18.11 21s-3.889-1.763-3.889-3.937s1.741-3.938 3.89-3.938c2.147 0 3.888 1.763 3.888 3.938"
       id="path1" />
    <path
       stroke="currentColor"
       stroke-width="2"
       d="M15.889 6.938c0 2.174-1.741 3.937-3.889 3.937S8.111 9.112 8.111 6.938S9.852 3 12 3s3.889 1.763 3.889 3.938ZM9.778 17.063c0 2.174-1.741 3.937-3.89 3.937C3.742 21 2 19.237 2 17.063s1.741-3.938 3.889-3.938s3.889 1.763 3.889 3.938Zm12.222 0C22 19.237 20.259 21 18.11 21s-3.889-1.763-3.889-3.937s1.741-3.938 3.89-3.938c2.147 0 3.888 1.763 3.888 3.938Z"
       id="path2" />
  </g>
</svg>
