<?xml version="1.0" encoding="UTF-8" standalone="no"?>
<svg
   width="1em"
   height="1em"
   viewBox="0 0 24 24"
   version="1.1"
   id="svg2"
   sodipodi:docname="tdesign-palace-4-filled.svg"
   xmlns:inkscape="http://www.inkscape.org/namespaces/inkscape"
   xmlns:sodipodi="http://sodipodi.sourceforge.net/DTD/sodipodi-0.dtd"
   xmlns="http://www.w3.org/2000/svg"
   xmlns:svg="http://www.w3.org/2000/svg">
  <defs
     id="defs2" />
  <sodipodi:namedview
     id="namedview2"
     pagecolor="#ffffff"
     bordercolor="#000000"
     borderopacity="0.25"
     inkscape:showpageshadow="2"
     inkscape:pageopacity="0.0"
     inkscape:pagecheckerboard="0"
     inkscape:deskcolor="#d1d1d1" />
  <!-- Icon from TDesign Icons by TDesign - https://github.com/Tencent/tdesign-icons/blob/main/LICENSE -->
  <path
     fill="currentColor"
     d="m6 1.698l4 3.334V9h4V5.032l4-3.334l4 3.334V22h-6.5v-3.5a3.5 3.5 0 1 0-7 0V22H2V5.032zM20 9V5.968l-2-1.666l-2 1.666V9zM4 9h4V5.968L6 4.302L4 5.968z"
     id="path1" />
  <path
     fill="currentColor"
     d="M12 17a1.5 1.5 0 0 0-1.5 1.5V22h3v-3.5A1.5 1.5 0 0 0 12 17"
     id="path2" />
</svg>
