<?xml version="1.0" encoding="UTF-8" standalone="no"?>
<svg
   width="1em"
   height="1em"
   viewBox="0 0 24 24"
   version="1.1"
   id="svg3"
   sodipodi:docname="tdesign-logo-figma-filled.svg"
   xmlns:inkscape="http://www.inkscape.org/namespaces/inkscape"
   xmlns:sodipodi="http://sodipodi.sourceforge.net/DTD/sodipodi-0.dtd"
   xmlns="http://www.w3.org/2000/svg"
   xmlns:svg="http://www.w3.org/2000/svg">
  <defs
     id="defs3" />
  <sodipodi:namedview
     id="namedview3"
     pagecolor="#ffffff"
     bordercolor="#000000"
     borderopacity="0.25"
     inkscape:showpageshadow="2"
     inkscape:pageopacity="0.0"
     inkscape:pagecheckerboard="0"
     inkscape:deskcolor="#d1d1d1" />
  <!-- Icon from TDesign Icons by TDesign - https://github.com/Tencent/tdesign-icons/blob/main/LICENSE -->
  <path
     fill="currentColor"
     d="M8.166.5a3.833 3.833 0 1 0 0 7.667H12V.5z"
     id="path1" />
  <path
     fill="currentColor"
     d="M8.166 8.167a3.833 3.833 0 0 0-.049 7.666c-2.091.009-3.784 1.74-3.784 3.833c0 2.1 1.735 3.834 3.833 3.834c2.099 0 3.834-1.701 3.834-3.8V8.167zm11.501-3.834A3.833 3.833 0 0 0 15.834.5H12v7.667h3.834a3.833 3.833 0 0 0 3.833-3.834"
     id="path2" />
  <path
     fill="currentColor"
     d="M19.667 12A3.834 3.834 0 1 0 12 12a3.834 3.834 0 0 0 7.667 0"
     id="path3" />
</svg>
