<?xml version="1.0" encoding="UTF-8" standalone="no"?>
<svg
   width="1em"
   height="1em"
   viewBox="0 0 24 24"
   version="1.1"
   id="svg2"
   sodipodi:docname="tdesign-file-blocked-filled.svg"
   xmlns:inkscape="http://www.inkscape.org/namespaces/inkscape"
   xmlns:sodipodi="http://sodipodi.sourceforge.net/DTD/sodipodi-0.dtd"
   xmlns="http://www.w3.org/2000/svg"
   xmlns:svg="http://www.w3.org/2000/svg">
  <defs
     id="defs2" />
  <sodipodi:namedview
     id="namedview2"
     pagecolor="#ffffff"
     bordercolor="#000000"
     borderopacity="0.25"
     inkscape:showpageshadow="2"
     inkscape:pageopacity="0.0"
     inkscape:pagecheckerboard="0"
     inkscape:deskcolor="#d1d1d1" />
  <!-- Icon from TDesign Icons by TDesign - https://github.com/Tencent/tdesign-icons/blob/main/LICENSE -->
  <path
     fill="currentColor"
     d="M15.414 1H3v22h10.101A7 7 0 0 1 21 11.674V6.586zM14.5 7.5V3L19 7.5z"
     id="path1" />
  <path
     fill="currentColor"
     d="M18 14.5a3.5 3.5 0 0 0-3.08 5.165l4.745-4.744A3.5 3.5 0 0 0 18 14.5m3.08 1.835l-4.745 4.744a3.5 3.5 0 0 0 4.745-4.745M12.5 18a5.5 5.5 0 1 1 11 0a5.5 5.5 0 0 1-11 0"
     id="path2" />
</svg>
