<?xml version="1.0" encoding="UTF-8" standalone="no"?>
<svg
   width="1em"
   height="1em"
   viewBox="0 0 24 24"
   version="1.1"
   id="svg1"
   sodipodi:docname="tdesign-support-filled.svg"
   xmlns:inkscape="http://www.inkscape.org/namespaces/inkscape"
   xmlns:sodipodi="http://sodipodi.sourceforge.net/DTD/sodipodi-0.dtd"
   xmlns="http://www.w3.org/2000/svg"
   xmlns:svg="http://www.w3.org/2000/svg">
  <defs
     id="defs1" />
  <sodipodi:namedview
     id="namedview1"
     pagecolor="#ffffff"
     bordercolor="#000000"
     borderopacity="0.25"
     inkscape:showpageshadow="2"
     inkscape:pageopacity="0.0"
     inkscape:pagecheckerboard="0"
     inkscape:deskcolor="#d1d1d1" />
  <!-- Icon from TDesign Icons by TDesign - https://github.com/Tencent/tdesign-icons/blob/main/LICENSE -->
  <path
     fill="currentColor"
     d="M4.96 3.546L9.615 8.2a4.49 4.49 0 0 1 4.773 0l4.652-4.652a11 11 0 0 0-14.078 0M20.454 4.96L15.8 9.615a4.49 4.49 0 0 1 0 4.772l4.653 4.653a11 11 0 0 0 0-14.078M19.04 20.454L14.387 15.8a4.49 4.49 0 0 1-4.773 0L4.96 20.455a11 11 0 0 0 14.079 0M3.547 19.04L8.2 14.385a4.49 4.49 0 0 1 0-4.772L3.547 4.96a11 11 0 0 0 0 14.078"
     id="path1" />
</svg>
