<?xml version="1.0" encoding="UTF-8" standalone="no"?>
<svg
   width="1em"
   height="1em"
   viewBox="0 0 24 24"
   version="1.1"
   id="svg1"
   sodipodi:docname="tdesign-contrast-1-filled.svg"
   xmlns:inkscape="http://www.inkscape.org/namespaces/inkscape"
   xmlns:sodipodi="http://sodipodi.sourceforge.net/DTD/sodipodi-0.dtd"
   xmlns="http://www.w3.org/2000/svg"
   xmlns:svg="http://www.w3.org/2000/svg">
  <defs
     id="defs1" />
  <sodipodi:namedview
     id="namedview1"
     pagecolor="#ffffff"
     bordercolor="#000000"
     borderopacity="0.25"
     inkscape:showpageshadow="2"
     inkscape:pageopacity="0.0"
     inkscape:pagecheckerboard="0"
     inkscape:deskcolor="#d1d1d1" />
  <!-- Icon from TDesign Icons by TDesign - https://github.com/Tencent/tdesign-icons/blob/main/LICENSE -->
  <path
     fill="currentColor"
     d="M13 3.055V4.84l2.184-1.26A9 9 0 0 0 13 3.054m4.255 1.638L13 7.149v4.042l6.693-3.864a9.05 9.05 0 0 0-2.438-2.634m3.284 4.455L13 13.5v4.042l7.95-4.59a9.1 9.1 0 0 0-.411-3.804m-.326 6.539L13 19.85v1.094a9.01 9.01 0 0 0 7.213-5.258M1 12C1 5.925 5.925 1 12 1s11 4.925 11 11s-4.925 11-11 11S1 18.075 1 12"
     id="path1" />
</svg>
