<?xml version="1.0" encoding="UTF-8" standalone="no"?>
<svg
   width="1em"
   height="1em"
   viewBox="0 0 24 24"
   version="1.1"
   id="svg3"
   sodipodi:docname="tdesign-gesture-applause.svg"
   xmlns:inkscape="http://www.inkscape.org/namespaces/inkscape"
   xmlns:sodipodi="http://sodipodi.sourceforge.net/DTD/sodipodi-0.dtd"
   xmlns="http://www.w3.org/2000/svg"
   xmlns:svg="http://www.w3.org/2000/svg">
  <defs
     id="defs3" />
  <sodipodi:namedview
     id="namedview3"
     pagecolor="#ffffff"
     bordercolor="#000000"
     borderopacity="0.25"
     inkscape:showpageshadow="2"
     inkscape:pageopacity="0.0"
     inkscape:pagecheckerboard="0"
     inkscape:deskcolor="#d1d1d1" />
  <!-- Icon from TDesign Icons by TDesign - https://github.com/Tencent/tdesign-icons/blob/main/LICENSE -->
  <g
     fill="none"
     id="g3">
    <path
       d="m17.49 13.995l1.714 1.715l-4.115 4.116l-2.235-2.235a2.9 2.9 0 0 1-.852-2.057V3.955a1.652 1.652 0 0 1 3.269-.345zm-10.981 0L4.794 15.71l4.116 4.116l2.234-2.235a2.9 2.9 0 0 0 .852-2.057V3.955a1.653 1.653 0 0 0-3.268-.345zm12.695 1.715l-4.115 4.116l2.058 2.057l4.115-4.115z"
       id="path1" />
    <path
       d="m4.794 15.71l4.116 4.116l-2.058 2.057l-4.116-4.115z"
       id="path2" />
    <path
       stroke="currentColor"
       stroke-linecap="square"
       stroke-width="2"
       d="m19.204 15.71l-1.715-1.715L15.27 3.61a1.653 1.653 0 0 0-3.268.345v11.579c0 .771.307 1.512.852 2.057l2.235 2.235m4.115-4.116l-4.115 4.116m4.115-4.116l2.058 2.058l-4.116 4.115l-2.057-2.057M4.794 15.71l1.715-1.715L8.728 3.61a1.653 1.653 0 0 1 3.268.345v11.579a2.9 2.9 0 0 1-.852 2.057L8.91 19.826M4.794 15.71l4.116 4.116M4.794 15.71l-2.058 2.058l4.116 4.115l2.058-2.057M4 3L3 2m1 5L3 8m17-5l1-1m-1 5l1 1"
       id="path3" />
  </g>
</svg>
