<?xml version="1.0" encoding="UTF-8" standalone="no"?>
<svg
   width="1em"
   height="1em"
   viewBox="0 0 24 24"
   version="1.1"
   id="svg1"
   sodipodi:docname="tdesign-bean-filled.svg"
   xmlns:inkscape="http://www.inkscape.org/namespaces/inkscape"
   xmlns:sodipodi="http://sodipodi.sourceforge.net/DTD/sodipodi-0.dtd"
   xmlns="http://www.w3.org/2000/svg"
   xmlns:svg="http://www.w3.org/2000/svg">
  <defs
     id="defs1" />
  <sodipodi:namedview
     id="namedview1"
     pagecolor="#ffffff"
     bordercolor="#000000"
     borderopacity="0.25"
     inkscape:showpageshadow="2"
     inkscape:pageopacity="0.0"
     inkscape:pagecheckerboard="0"
     inkscape:deskcolor="#d1d1d1" />
  <!-- Icon from TDesign Icons by TDesign - https://github.com/Tencent/tdesign-icons/blob/main/LICENSE -->
  <path
     fill="currentColor"
     d="M17.55 2.174c-1.628-.657-3.088-.668-4.348-.203c-1.238.456-2.18 1.332-2.873 2.271c-.485.658-.786 1.397-1.035 2.007l-.11.27c-.29.695-.561 1.246-1.024 1.708c-.456.456-1.003.727-1.7 1.018l-.271.113c-.611.25-1.35.553-2.01 1.035c-.961.703-1.852 1.648-2.309 2.89c-.465 1.266-.437 2.724.24 4.346c1.178 2.817 3.988 4.446 7.085 4.69c3.113.246 6.61-.884 9.392-3.665c2.946-2.947 4.105-6.457 3.815-9.558c-.29-3.09-2.035-5.786-4.852-6.922m-10.782 8.86a3 3 0 0 1-.193-.212l.164-.068l.301-.124c.723-.303 1.505-.666 2.181-1.342c.683-.683 1.046-1.468 1.347-2.192l.123-.299l.089-.214q.12.097.23.208a3 3 0 1 1-4.242 4.243"
     id="path1" />
</svg>
