<?xml version="1.0" encoding="UTF-8" standalone="no"?>
<svg
   width="1em"
   height="1em"
   viewBox="0 0 24 24"
   version="1.1"
   id="svg2"
   sodipodi:docname="tdesign-map-information-1-filled.svg"
   xmlns:inkscape="http://www.inkscape.org/namespaces/inkscape"
   xmlns:sodipodi="http://sodipodi.sourceforge.net/DTD/sodipodi-0.dtd"
   xmlns="http://www.w3.org/2000/svg"
   xmlns:svg="http://www.w3.org/2000/svg">
  <defs
     id="defs2" />
  <sodipodi:namedview
     id="namedview2"
     pagecolor="#ffffff"
     bordercolor="#000000"
     borderopacity="0.25"
     inkscape:showpageshadow="2"
     inkscape:pageopacity="0.0"
     inkscape:pagecheckerboard="0"
     inkscape:deskcolor="#d1d1d1" />
  <!-- Icon from TDesign Icons by TDesign - https://github.com/Tencent/tdesign-icons/blob/main/LICENSE -->
  <path
     fill="currentColor"
     d="m12 14.214l.016-.011c.424-.293.846-.583 1.244-.911c.401-.33.938-.808 1.478-1.399C15.782 10.752 17 9.014 17 7A5 5 0 0 0 7 7c0 2.012 1.218 3.751 2.262 4.893c.54.59 1.077 1.069 1.477 1.399c.399.327.82.618 1.245.91zM13.5 7a1.5 1.5 0 1 1-3 0a1.5 1.5 0 0 1 3 0"
     id="path1" />
  <path
     fill="currentColor"
     d="M7 10H2v11.498l6.926-2.888L15 22.158l7-4.084V10h-5v2h3v4.926l-5 2.916l-5.925-3.461L4 18.497V12h3z"
     id="path2" />
</svg>
