<?xml version="1.0" encoding="UTF-8" standalone="no"?>
<svg
   width="1em"
   height="1em"
   viewBox="0 0 24 24"
   version="1.1"
   id="svg1"
   sodipodi:docname="tdesign-camera-2-filled.svg"
   xmlns:inkscape="http://www.inkscape.org/namespaces/inkscape"
   xmlns:sodipodi="http://sodipodi.sourceforge.net/DTD/sodipodi-0.dtd"
   xmlns="http://www.w3.org/2000/svg"
   xmlns:svg="http://www.w3.org/2000/svg">
  <defs
     id="defs1" />
  <sodipodi:namedview
     id="namedview1"
     pagecolor="#ffffff"
     bordercolor="#000000"
     borderopacity="0.25"
     inkscape:showpageshadow="2"
     inkscape:pageopacity="0.0"
     inkscape:pagecheckerboard="0"
     inkscape:deskcolor="#d1d1d1" />
  <!-- Icon from TDesign Icons by TDesign - https://github.com/Tencent/tdesign-icons/blob/main/LICENSE -->
  <path
     fill="currentColor"
     d="M3 10.5a9 9 0 1 1 10 8.945v1.506a9.94 9.94 0 0 0 4.75-1.769l.818-.575l1.151 1.635l-.817.576A11.95 11.95 0 0 1 12 23a11.95 11.95 0 0 1-6.902-2.182l-.818-.576l1.152-1.635l.818.575A9.94 9.94 0 0 0 11 20.951v-1.506A9 9 0 0 1 3 10.5m4.5 0a4.5 4.5 0 1 0 9 0a4.5 4.5 0 0 0-9 0m2 0a2.5 2.5 0 1 0 5 0a2.5 2.5 0 0 0-5 0"
     id="path1" />
</svg>
