<?xml version="1.0" encoding="UTF-8" standalone="no"?>
<svg
   width="1em"
   height="1em"
   viewBox="0 0 24 24"
   version="1.1"
   id="svg4"
   sodipodi:docname="tdesign-cloudy-night.svg"
   xmlns:inkscape="http://www.inkscape.org/namespaces/inkscape"
   xmlns:sodipodi="http://sodipodi.sourceforge.net/DTD/sodipodi-0.dtd"
   xmlns="http://www.w3.org/2000/svg"
   xmlns:svg="http://www.w3.org/2000/svg">
  <defs
     id="defs4" />
  <sodipodi:namedview
     id="namedview4"
     pagecolor="#ffffff"
     bordercolor="#000000"
     borderopacity="0.25"
     inkscape:showpageshadow="2"
     inkscape:pageopacity="0.0"
     inkscape:pagecheckerboard="0"
     inkscape:deskcolor="#d1d1d1" />
  <!-- Icon from TDesign Icons by TDesign - https://github.com/Tencent/tdesign-icons/blob/main/LICENSE -->
  <g
     fill="none"
     id="g4">
    <path
       d="M2 16.548c0 1.917 1.614 3.47 3.604 3.47h9.91c2.489 0 4.506-1.942 4.506-4.337c0-1.389-.678-2.625-1.732-3.419a4.6 4.6 0 0 0-2.848-.919c-.354-2.035-1.934-3.67-3.984-4.176a5.6 5.6 0 0 0-1.347-.163c-2.986 0-5.406 2.331-5.406 5.206q0 .49.09.956C3.194 13.52 2 14.9 2 16.548"
       id="path1" />
    <path
       d="M15.515 11.343h-.075c-.354-2.035-1.934-3.67-3.984-4.176a5.6 5.6 0 0 0-1.425-.162a5.51 5.51 0 0 1 5.004-4.985A5.506 5.506 0 0 0 21 7.985a5.5 5.5 0 0 1-2.711 4.277a4.6 4.6 0 0 0-2.774-.92"
       id="path2" />
    <path
       stroke="currentColor"
       stroke-linecap="square"
       stroke-width="2"
       d="M10.1 6.502a5.51 5.51 0 0 1 4.935-4.482A5.506 5.506 0 0 0 21 7.985a5.5 5.5 0 0 1-2.202 3.94"
       id="path3" />
    <path
       stroke="currentColor"
       stroke-linecap="square"
       stroke-width="2"
       d="M2 16.548c0 1.917 1.614 3.47 3.604 3.47h9.91c2.489 0 4.506-1.942 4.506-4.337c0-1.389-.678-2.625-1.732-3.419a4.6 4.6 0 0 0-2.848-.919c-.354-2.035-1.934-3.67-3.984-4.176a5.6 5.6 0 0 0-1.347-.163c-2.986 0-5.406 2.331-5.406 5.206q0 .49.09.956C3.194 13.52 2 14.9 2 16.548Z"
       id="path4" />
  </g>
</svg>
