<?xml version="1.0" encoding="UTF-8" standalone="no"?>
<svg
   width="1em"
   height="1em"
   viewBox="0 0 24 24"
   version="1.1"
   id="svg4"
   sodipodi:docname="tdesign-eggplant.svg"
   xmlns:inkscape="http://www.inkscape.org/namespaces/inkscape"
   xmlns:sodipodi="http://sodipodi.sourceforge.net/DTD/sodipodi-0.dtd"
   xmlns="http://www.w3.org/2000/svg"
   xmlns:svg="http://www.w3.org/2000/svg">
  <defs
     id="defs4" />
  <sodipodi:namedview
     id="namedview4"
     pagecolor="#ffffff"
     bordercolor="#000000"
     borderopacity="0.25"
     inkscape:showpageshadow="2"
     inkscape:pageopacity="0.0"
     inkscape:pagecheckerboard="0"
     inkscape:deskcolor="#d1d1d1" />
  <!-- Icon from TDesign Icons by TDesign - https://github.com/Tencent/tdesign-icons/blob/main/LICENSE -->
  <g
     fill="none"
     id="g4">
    <path
       d="M4.252 19.75c-2.831-2.831-2.128-6.36-.003-8.485s4.598-1.77 6.01-3.181a101 101 0 0 1 2.598-2.464l1.115.52l.53 3.359l3.36.53l.519 1.113s-1.447 1.58-2.465 2.599c-1.412 1.412-1.068 3.887-3.182 6.01c-2.114 2.121-5.651 2.83-8.482-.002"
       id="path1" />
    <path
       d="M19.098 12.682L17.86 10.03l-3.359-.53l-.53-3.36l-2.653-1.237a5.5 5.5 0 1 1 7.78 7.78"
       id="path2" />
    <path
       stroke="currentColor"
       stroke-linecap="square"
       stroke-width="2"
       d="M12.35 6.088c-.55.51-1.437 1.341-2.091 1.996c-1.412 1.412-3.886 1.057-6.01 3.181c-2.125 2.125-2.828 5.654.003 8.485s6.368 2.122 8.482 0s1.77-4.597 3.182-6.01a84 84 0 0 0 1.984-2.077"
       id="path3" />
    <path
       stroke="currentColor"
       stroke-linecap="square"
       stroke-width="2"
       d="m19.2 4.675l.958-.479m-5.657 5.303l-.53-3.36l-2.653-1.236a5.5 5.5 0 0 1 7.78 7.78L17.86 10.03z"
       id="path4" />
  </g>
</svg>
