<?xml version="1.0" encoding="UTF-8" standalone="no"?>
<svg
   width="1em"
   height="1em"
   viewBox="0 0 24 24"
   version="1.1"
   id="svg1"
   sodipodi:docname="tdesign-sunny-filled.svg"
   xmlns:inkscape="http://www.inkscape.org/namespaces/inkscape"
   xmlns:sodipodi="http://sodipodi.sourceforge.net/DTD/sodipodi-0.dtd"
   xmlns="http://www.w3.org/2000/svg"
   xmlns:svg="http://www.w3.org/2000/svg">
  <defs
     id="defs1" />
  <sodipodi:namedview
     id="namedview1"
     pagecolor="#ffffff"
     bordercolor="#000000"
     borderopacity="0.25"
     inkscape:showpageshadow="2"
     inkscape:pageopacity="0.0"
     inkscape:pagecheckerboard="0"
     inkscape:deskcolor="#d1d1d1" />
  <!-- Icon from TDesign Icons by TDesign - https://github.com/Tencent/tdesign-icons/blob/main/LICENSE -->
  <path
     fill="currentColor"
     d="M13 1v3h-2V1zm7.485 3.928L18.364 7.05L16.95 5.636l2.121-2.122zM4.93 3.514l2.12 2.122L5.636 7.05L3.515 4.929zM6 12a6 6 0 1 1 12 0a6 6 0 0 1-12 0m-5-1h3v2H1zm19 0h3v2h-3zM7.05 18.363l-2.12 2.123l-1.415-1.416l2.121-2.122zm11.314-1.414l2.121 2.122l-1.414 1.414l-2.121-2.121zM13 20v3h-2v-3z"
     id="path1" />
</svg>
