<?xml version="1.0" encoding="UTF-8" standalone="no"?>
<svg
   width="1em"
   height="1em"
   viewBox="0 0 24 24"
   version="1.1"
   id="svg4"
   sodipodi:docname="tdesign-brightness-1.svg"
   xmlns:inkscape="http://www.inkscape.org/namespaces/inkscape"
   xmlns:sodipodi="http://sodipodi.sourceforge.net/DTD/sodipodi-0.dtd"
   xmlns="http://www.w3.org/2000/svg"
   xmlns:svg="http://www.w3.org/2000/svg">
  <defs
     id="defs4" />
  <sodipodi:namedview
     id="namedview4"
     pagecolor="#ffffff"
     bordercolor="#000000"
     borderopacity="0.25"
     inkscape:showpageshadow="2"
     inkscape:pageopacity="0.0"
     inkscape:pagecheckerboard="0"
     inkscape:deskcolor="#d1d1d1" />
  <!-- Icon from TDesign Icons by TDesign - https://github.com/Tencent/tdesign-icons/blob/main/LICENSE -->
  <g
     fill="none"
     id="g4">
    <path
       d="M4.575 8.925L1.5 12l3.075 3.075v4.35h4.35L12 22.5l3.075-3.075h4.35v-4.35L22.5 12l-3.075-3.075v-4.35h-4.35L12 1.5L8.925 4.575h-4.35z"
       id="path1" />
    <path
       d="M10.438 16.75A7.96 7.96 0 0 0 12 12a7.96 7.96 0 0 0-1.562-4.75a5 5 0 1 1 0 9.502"
       id="path2" />
    <path
       stroke="currentColor"
       stroke-width="2"
       d="M4.575 8.925L1.5 12l3.075 3.075v4.35h4.35L12 22.5l3.075-3.075h4.35v-4.35L22.5 12l-3.075-3.075v-4.35h-4.35L12 1.5L8.925 4.575h-4.35z"
       id="path3" />
    <path
       stroke="currentColor"
       stroke-width="2"
       d="M10.438 16.75A7.96 7.96 0 0 0 12 12a7.96 7.96 0 0 0-1.562-4.75a5 5 0 1 1 0 9.502Z"
       id="path4" />
  </g>
</svg>
