<?xml version="1.0" encoding="UTF-8" standalone="no"?>
<svg
   width="1em"
   height="1em"
   viewBox="0 0 24 24"
   version="1.1"
   id="svg1"
   sodipodi:docname="tdesign-rice-filled.svg"
   xmlns:inkscape="http://www.inkscape.org/namespaces/inkscape"
   xmlns:sodipodi="http://sodipodi.sourceforge.net/DTD/sodipodi-0.dtd"
   xmlns="http://www.w3.org/2000/svg"
   xmlns:svg="http://www.w3.org/2000/svg">
  <defs
     id="defs1" />
  <sodipodi:namedview
     id="namedview1"
     pagecolor="#ffffff"
     bordercolor="#000000"
     borderopacity="0.25"
     inkscape:showpageshadow="2"
     inkscape:pageopacity="0.0"
     inkscape:pagecheckerboard="0"
     inkscape:deskcolor="#d1d1d1" />
  <!-- Icon from TDesign Icons by TDesign - https://github.com/Tencent/tdesign-icons/blob/main/LICENSE -->
  <path
     fill="currentColor"
     d="M12 4C8.855 4 6.17 5.211 5.493 7.714A15 15 0 0 0 5.057 10h13.886a15 15 0 0 0-.435-2.282C17.831 5.212 15.148 4 12 4m-8.952 6c.08-.886.257-1.859.514-2.809C4.605 3.341 8.564 2 12 2c3.44 0 7.397 1.343 8.439 5.196c.256.948.433 1.92.513 2.804H22v2c0 5.523-4.477 10-10 10S2 17.523 2 12v-2zm7.95-5.002h2.004v2.004h-2.004zm-3 2h2.004v2.004H7.998zm6 0h2.004v2.004h-2.004z"
     id="path1" />
</svg>
