<?xml version="1.0" encoding="UTF-8" standalone="no"?>
<svg
   width="1em"
   height="1em"
   viewBox="0 0 24 24"
   version="1.1"
   id="svg2"
   sodipodi:docname="tdesign-dam-1.svg"
   xmlns:inkscape="http://www.inkscape.org/namespaces/inkscape"
   xmlns:sodipodi="http://sodipodi.sourceforge.net/DTD/sodipodi-0.dtd"
   xmlns="http://www.w3.org/2000/svg"
   xmlns:svg="http://www.w3.org/2000/svg">
  <defs
     id="defs2" />
  <sodipodi:namedview
     id="namedview2"
     pagecolor="#ffffff"
     bordercolor="#000000"
     borderopacity="0.25"
     inkscape:showpageshadow="2"
     inkscape:pageopacity="0.0"
     inkscape:pagecheckerboard="0"
     inkscape:deskcolor="#d1d1d1" />
  <!-- Icon from TDesign Icons by TDesign - https://github.com/Tencent/tdesign-icons/blob/main/LICENSE -->
  <g
     fill="none"
     id="g2">
    <path
       d="M8 21V10.1a4 4 0 1 1 8 0V21h4V10.1C20 5.626 16.474 2 12 2s-8 3.626-8 8.1V21z"
       id="path1" />
    <path
       stroke="currentColor"
       stroke-linecap="square"
       stroke-width="2"
       d="M8 21V10.1a4 4 0 1 1 8 0V21m-8 0H4m4 0h1m-6 0h1m0 0V10.1C4 5.626 7.526 2 12 2s8 3.626 8 8.1V21m0 0h1m-1 0h-4m0 0h-1"
       id="path2" />
  </g>
</svg>
