<?xml version="1.0" encoding="UTF-8" standalone="no"?>
<svg
   width="1em"
   height="1em"
   viewBox="0 0 24 24"
   version="1.1"
   id="svg2"
   sodipodi:docname="tdesign-user-time.svg"
   xmlns:inkscape="http://www.inkscape.org/namespaces/inkscape"
   xmlns:sodipodi="http://sodipodi.sourceforge.net/DTD/sodipodi-0.dtd"
   xmlns="http://www.w3.org/2000/svg"
   xmlns:svg="http://www.w3.org/2000/svg">
  <defs
     id="defs2" />
  <sodipodi:namedview
     id="namedview2"
     pagecolor="#ffffff"
     bordercolor="#000000"
     borderopacity="0.25"
     inkscape:showpageshadow="2"
     inkscape:pageopacity="0.0"
     inkscape:pagecheckerboard="0"
     inkscape:deskcolor="#d1d1d1" />
  <!-- Icon from TDesign Icons by TDesign - https://github.com/Tencent/tdesign-icons/blob/main/LICENSE -->
  <g
     fill="none"
     id="g2">
    <path
       d="M16 7.5a4.5 4.5 0 1 1-9 0a4.5 4.5 0 0 1 9 0M13.5 18a4.5 4.5 0 1 0 9 0a4.5 4.5 0 0 0-9 0"
       id="path1" />
    <path
       stroke="currentColor"
       stroke-linecap="square"
       stroke-width="2"
       d="M10 15H8a5 5 0 0 0-5 5v1h7.05M16 7.5a4.5 4.5 0 1 1-9 0a4.5 4.5 0 0 1 9 0Zm2 9.252V18l1 1m-1 3.5a4.5 4.5 0 1 1 0-9a4.5 4.5 0 0 1 0 9Z"
       id="path2" />
  </g>
</svg>
