<?xml version="1.0" encoding="UTF-8" standalone="no"?>
<svg
   width="1em"
   height="1em"
   viewBox="0 0 24 24"
   version="1.1"
   id="svg1"
   sodipodi:docname="tdesign-map-connection-filled.svg"
   xmlns:inkscape="http://www.inkscape.org/namespaces/inkscape"
   xmlns:sodipodi="http://sodipodi.sourceforge.net/DTD/sodipodi-0.dtd"
   xmlns="http://www.w3.org/2000/svg"
   xmlns:svg="http://www.w3.org/2000/svg">
  <defs
     id="defs1" />
  <sodipodi:namedview
     id="namedview1"
     pagecolor="#ffffff"
     bordercolor="#000000"
     borderopacity="0.25"
     inkscape:showpageshadow="2"
     inkscape:pageopacity="0.0"
     inkscape:pagecheckerboard="0"
     inkscape:deskcolor="#d1d1d1" />
  <!-- Icon from TDesign Icons by TDesign - https://github.com/Tencent/tdesign-icons/blob/main/LICENSE -->
  <path
     fill="currentColor"
     d="M2 6a4 4 0 0 1 7.874-1h8.209l.081.014a5.45 5.45 0 0 1 2.32 1.005C21.288 6.637 22 7.614 22 9s-.71 2.363-1.517 2.981a5.45 5.45 0 0 1-2.319 1.005l-.081.014H6c-.237 0-.772.148-1.25.53c-.447.358-.75.842-.75 1.47s.303 1.112.75 1.47c.478.382 1.013.53 1.25.53h11v-2.5l4.667 3.5L17 21.5V19H6c-.763 0-1.728-.352-2.5-.97C2.697 17.389 2 16.373 2 15s.697-2.388 1.5-3.03C4.272 11.351 5.237 11 6 11h11.91c.374-.075.917-.27 1.357-.606c.444-.34.733-.78.733-1.394s-.29-1.053-.733-1.394A3.5 3.5 0 0 0 17.91 7H9.874A4.002 4.002 0 0 1 2 6"
     id="path1" />
</svg>
