<?xml version="1.0" encoding="UTF-8" standalone="no"?>
<svg
   width="1em"
   height="1em"
   viewBox="0 0 24 24"
   version="1.1"
   id="svg1"
   sodipodi:docname="tdesign-panorama-horizontal-filled.svg"
   xmlns:inkscape="http://www.inkscape.org/namespaces/inkscape"
   xmlns:sodipodi="http://sodipodi.sourceforge.net/DTD/sodipodi-0.dtd"
   xmlns="http://www.w3.org/2000/svg"
   xmlns:svg="http://www.w3.org/2000/svg">
  <defs
     id="defs1" />
  <sodipodi:namedview
     id="namedview1"
     pagecolor="#ffffff"
     bordercolor="#000000"
     borderopacity="0.25"
     inkscape:showpageshadow="2"
     inkscape:pageopacity="0.0"
     inkscape:pagecheckerboard="0"
     inkscape:deskcolor="#d1d1d1" />
  <!-- Icon from TDesign Icons by TDesign - https://github.com/Tencent/tdesign-icons/blob/main/LICENSE -->
  <path
     fill="currentColor"
     d="M1 20.844V3.156l1.287.386h.002l.009.003l.038.012l.158.045a42 42 0 0 0 2.827.668c1.84.368 4.27.73 6.68.73c2.409 0 4.838-.362 6.678-.73a42 42 0 0 0 2.827-.668l.158-.045l.039-.012l.01-.003L23 3.156v17.688l-1.287-.386h-.002l-.008-.003l-.039-.011a22 22 0 0 0-.772-.21a42 42 0 0 0-2.213-.503C16.84 19.362 14.41 19 12 19s-4.838.363-6.679.73a42 42 0 0 0-2.827.668l-.158.046l-.038.01l-.009.003h-.001z"
     id="path1" />
</svg>
