<?xml version="1.0" encoding="UTF-8" standalone="no"?>
<svg
   width="1em"
   height="1em"
   viewBox="0 0 24 24"
   version="1.1"
   id="svg2"
   sodipodi:docname="tdesign-castle-2.svg"
   xmlns:inkscape="http://www.inkscape.org/namespaces/inkscape"
   xmlns:sodipodi="http://sodipodi.sourceforge.net/DTD/sodipodi-0.dtd"
   xmlns="http://www.w3.org/2000/svg"
   xmlns:svg="http://www.w3.org/2000/svg">
  <defs
     id="defs2" />
  <sodipodi:namedview
     id="namedview2"
     pagecolor="#ffffff"
     bordercolor="#000000"
     borderopacity="0.25"
     inkscape:showpageshadow="2"
     inkscape:pageopacity="0.0"
     inkscape:pagecheckerboard="0"
     inkscape:deskcolor="#d1d1d1" />
  <!-- Icon from TDesign Icons by TDesign - https://github.com/Tencent/tdesign-icons/blob/main/LICENSE -->
  <g
     fill="none"
     id="g2">
    <path
       d="M12 4a5 5 0 0 1 5 5v12H7V9a5 5 0 0 1 5-5m10 17v-7a4 4 0 0 0-4-4h-1v11zM2 21h5V10H6a4 4 0 0 0-4 4z"
       id="path1" />
    <path
       stroke="currentColor"
       stroke-linecap="square"
       stroke-width="2"
       d="M12 21v-5m10-2v7h-5V10h1a4 4 0 0 1 4 4ZM7 21H2v-7a4 4 0 0 1 4-4h1zm5-17a5 5 0 0 0-5 5h10a5 5 0 0 0-5-5Zm0 0V3M7 9.85V21h10V9.85"
       id="path2" />
  </g>
</svg>
