<?xml version="1.0" encoding="UTF-8" standalone="no"?>
<svg
   width="1em"
   height="1em"
   viewBox="0 0 24 24"
   version="1.1"
   id="svg2"
   sodipodi:docname="tdesign-money-filled.svg"
   xmlns:inkscape="http://www.inkscape.org/namespaces/inkscape"
   xmlns:sodipodi="http://sodipodi.sourceforge.net/DTD/sodipodi-0.dtd"
   xmlns="http://www.w3.org/2000/svg"
   xmlns:svg="http://www.w3.org/2000/svg">
  <defs
     id="defs2" />
  <sodipodi:namedview
     id="namedview2"
     pagecolor="#ffffff"
     bordercolor="#000000"
     borderopacity="0.25"
     inkscape:showpageshadow="2"
     inkscape:pageopacity="0.0"
     inkscape:pagecheckerboard="0"
     inkscape:deskcolor="#d1d1d1" />
  <!-- Icon from TDesign Icons by TDesign - https://github.com/Tencent/tdesign-icons/blob/main/LICENSE -->
  <path
     fill="currentColor"
     d="M13.5 16a1.5 1.5 0 1 1-3 0a1.5 1.5 0 0 1 3 0"
     id="path1" />
  <path
     fill="currentColor"
     d="m14.347.66l3.18 4.456l2.097-.715L21.538 10h.962v12h-21V10h.51v-.01l.648.006zM9.397 10h10.028l-1.037-3.033l-1.522.487zM7.839 8.417L15.55 5.79l-1.604-2.25zM5.5 12h-2v2a2 2 0 0 0 2-2m10 4a3.5 3.5 0 1 0-7 0a3.5 3.5 0 0 0 7 0m5 4v-2a2 2 0 0 0-2 2zm-2-8a2 2 0 0 0 2 2v-2zm-15 8h2a2 2 0 0 0-2-2z"
     id="path2" />
</svg>
