<?xml version="1.0" encoding="UTF-8" standalone="no"?>
<svg
   width="1em"
   height="1em"
   viewBox="0 0 24 24"
   version="1.1"
   id="svg1"
   sodipodi:docname="tdesign-fog-night-filled.svg"
   xmlns:inkscape="http://www.inkscape.org/namespaces/inkscape"
   xmlns:sodipodi="http://sodipodi.sourceforge.net/DTD/sodipodi-0.dtd"
   xmlns="http://www.w3.org/2000/svg"
   xmlns:svg="http://www.w3.org/2000/svg">
  <defs
     id="defs1" />
  <sodipodi:namedview
     id="namedview1"
     pagecolor="#ffffff"
     bordercolor="#000000"
     borderopacity="0.25"
     inkscape:showpageshadow="2"
     inkscape:pageopacity="0.0"
     inkscape:pagecheckerboard="0"
     inkscape:deskcolor="#d1d1d1" />
  <!-- Icon from TDesign Icons by TDesign - https://github.com/Tencent/tdesign-icons/blob/main/LICENSE -->
  <path
     fill="currentColor"
     d="m10.916.585l-.45 1.675c-.3 1.116-.27 2.337.07 3.604a7 7 0 0 0 9.84 4.476l1.541-.752l-.104 1.71c-.062 1.034-.374 2.06-.919 3.15l-.276.552H2.828l-.304-.746l-.113-.288a8 8 0 0 1-.24-.684C.74 7.947 3.906 2.464 9.24 1.034zM2 17h6v2H2zm8 0h12v2H10zm7 4h5v2h-5zM2 21h13v2H2z"
     id="path1" />
</svg>
