<?xml version="1.0" encoding="UTF-8" standalone="no"?>
<svg
   width="1em"
   height="1em"
   viewBox="0 0 24 24"
   version="1.1"
   id="svg4"
   sodipodi:docname="tdesign-logo-instagram.svg"
   xmlns:inkscape="http://www.inkscape.org/namespaces/inkscape"
   xmlns:sodipodi="http://sodipodi.sourceforge.net/DTD/sodipodi-0.dtd"
   xmlns="http://www.w3.org/2000/svg"
   xmlns:svg="http://www.w3.org/2000/svg">
  <defs
     id="defs4" />
  <sodipodi:namedview
     id="namedview4"
     pagecolor="#ffffff"
     bordercolor="#000000"
     borderopacity="0.25"
     inkscape:showpageshadow="2"
     inkscape:pageopacity="0.0"
     inkscape:pagecheckerboard="0"
     inkscape:deskcolor="#d1d1d1" />
  <!-- Icon from TDesign Icons by TDesign - https://github.com/Tencent/tdesign-icons/blob/main/LICENSE -->
  <g
     fill="none"
     id="g4">
    <path
       d="M2 12c0-3.738 0-5.608.804-7A6 6 0 0 1 5 2.804C6.392 2 8.262 2 12 2s5.608 0 7 .804A6 6 0 0 1 21.196 5C22 6.392 22 8.262 22 12s0 5.608-.804 7A6 6 0 0 1 19 21.196C17.608 22 15.739 22 12 22s-5.608 0-7-.804A6 6 0 0 1 2.804 19C2 17.608 2 15.739 2 12"
       id="path1" />
    <path
       d="M16.5 12a4.5 4.5 0 1 1-9 0a4.5 4.5 0 0 1 9 0"
       id="path2" />
    <path
       stroke="currentColor"
       stroke-width="2"
       d="M2 12c0-3.738 0-5.608.804-7A6 6 0 0 1 5 2.804C6.392 2 8.262 2 12 2s5.608 0 7 .804A6 6 0 0 1 21.196 5C22 6.392 22 8.262 22 12s0 5.608-.804 7A6 6 0 0 1 19 21.196C17.608 22 15.739 22 12 22s-5.608 0-7-.804A6 6 0 0 1 2.804 19C2 17.608 2 15.739 2 12Z"
       id="path3" />
    <path
       stroke="currentColor"
       stroke-linejoin="round"
       stroke-width="2"
       d="M17.75 6.25h.004v.004h-.004zM16.5 12a4.5 4.5 0 1 1-9 0a4.5 4.5 0 0 1 9 0Z"
       id="path4" />
  </g>
</svg>
