<?xml version="1.0" encoding="UTF-8" standalone="no"?>
<svg
   width="1em"
   height="1em"
   viewBox="0 0 24 24"
   version="1.1"
   id="svg1"
   sodipodi:docname="tdesign-user-blocked-filled.svg"
   xmlns:inkscape="http://www.inkscape.org/namespaces/inkscape"
   xmlns:sodipodi="http://sodipodi.sourceforge.net/DTD/sodipodi-0.dtd"
   xmlns="http://www.w3.org/2000/svg"
   xmlns:svg="http://www.w3.org/2000/svg">
  <defs
     id="defs1" />
  <sodipodi:namedview
     id="namedview1"
     pagecolor="#ffffff"
     bordercolor="#000000"
     borderopacity="0.25"
     inkscape:showpageshadow="2"
     inkscape:pageopacity="0.0"
     inkscape:pagecheckerboard="0"
     inkscape:deskcolor="#d1d1d1" />
  <!-- Icon from TDesign Icons by TDesign - https://github.com/Tencent/tdesign-icons/blob/main/LICENSE -->
  <path
     fill="currentColor"
     d="M11.5 2a5.5 5.5 0 1 0 0 11a5.5 5.5 0 0 0 0-11m1 16a5.5 5.5 0 1 1 11 0a5.5 5.5 0 0 1-11 0m5.5-3.5a3.5 3.5 0 0 0-3.08 5.165l4.745-4.744A3.5 3.5 0 0 0 18 14.5m3.08 1.835l-4.745 4.744a3.5 3.5 0 0 0 4.745-4.745M12.255 14A6.97 6.97 0 0 0 11 18c0 1.487.464 2.866 1.255 4H2v-2a6 6 0 0 1 6-6z"
     id="path1" />
</svg>
