<?xml version="1.0" encoding="UTF-8" standalone="no"?>
<svg
   width="1em"
   height="1em"
   viewBox="0 0 24 24"
   version="1.1"
   id="svg2"
   sodipodi:docname="tdesign-surprised-1-filled.svg"
   xmlns:inkscape="http://www.inkscape.org/namespaces/inkscape"
   xmlns:sodipodi="http://sodipodi.sourceforge.net/DTD/sodipodi-0.dtd"
   xmlns="http://www.w3.org/2000/svg"
   xmlns:svg="http://www.w3.org/2000/svg">
  <defs
     id="defs2" />
  <sodipodi:namedview
     id="namedview2"
     pagecolor="#ffffff"
     bordercolor="#000000"
     borderopacity="0.25"
     inkscape:showpageshadow="2"
     inkscape:pageopacity="0.0"
     inkscape:pagecheckerboard="0"
     inkscape:deskcolor="#d1d1d1" />
  <!-- Icon from TDesign Icons by TDesign - https://github.com/Tencent/tdesign-icons/blob/main/LICENSE -->
  <path
     fill="currentColor"
     d="M11 15.5c0-1.048.644-1.5 1-1.5s1 .452 1 1.5s-.644 1.5-1 1.5s-1-.452-1-1.5"
     id="path1" />
  <path
     fill="currentColor"
     d="M12 23C5.925 23 1 18.075 1 12S5.925 1 12 1s11 4.925 11 11s-4.925 11-11 11M9 12V8H7v4zm8 0V8h-2v4zm-5 0c-1.854 0-3 1.787-3 3.5s1.146 3.5 3 3.5s3-1.787 3-3.5s-1.146-3.5-3-3.5"
     id="path2" />
</svg>
