<?xml version="1.0" encoding="UTF-8" standalone="no"?>
<svg
   width="1em"
   height="1em"
   viewBox="0 0 24 24"
   version="1.1"
   id="svg2"
   sodipodi:docname="tdesign-service.svg"
   xmlns:inkscape="http://www.inkscape.org/namespaces/inkscape"
   xmlns:sodipodi="http://sodipodi.sourceforge.net/DTD/sodipodi-0.dtd"
   xmlns="http://www.w3.org/2000/svg"
   xmlns:svg="http://www.w3.org/2000/svg">
  <defs
     id="defs2" />
  <sodipodi:namedview
     id="namedview2"
     pagecolor="#ffffff"
     bordercolor="#000000"
     borderopacity="0.25"
     inkscape:showpageshadow="2"
     inkscape:pageopacity="0.0"
     inkscape:pagecheckerboard="0"
     inkscape:deskcolor="#d1d1d1" />
  <!-- Icon from TDesign Icons by TDesign - https://github.com/Tencent/tdesign-icons/blob/main/LICENSE -->
  <g
     fill="none"
     id="g2">
    <path
       d="M3 12h4v6H5c-1.105 0-2-.827-2-1.846zm18 0h-4v6h2c1.105 0 2-.827 2-1.846zm-10.75 9.5a.75.75 0 0 1 .75-.75h2a.75.75 0 0 1 0 1.5h-2a.75.75 0 0 1-.75-.75"
       id="path1" />
    <path
       stroke="currentColor"
       stroke-width="2"
       d="M21 12v-1a9 9 0 1 0-18 0v1m18 0h-4v6h2c1.105 0 2-.827 2-1.846zM3 12h4v6H5m-2-6v4.154C3 17.174 3.895 18 5 18m5.25 3.5H8a3 3 0 0 1-3-3V18m5.25 3.5c0 .414.336.75.75.75h2a.75.75 0 0 0 0-1.5h-2a.75.75 0 0 0-.75.75Z"
       id="path2" />
  </g>
</svg>
