<?xml version="1.0" encoding="UTF-8" standalone="no"?>
<svg
   width="1em"
   height="1em"
   viewBox="0 0 24 24"
   version="1.1"
   id="svg2"
   sodipodi:docname="tdesign-image-1.svg"
   xmlns:inkscape="http://www.inkscape.org/namespaces/inkscape"
   xmlns:sodipodi="http://sodipodi.sourceforge.net/DTD/sodipodi-0.dtd"
   xmlns="http://www.w3.org/2000/svg"
   xmlns:svg="http://www.w3.org/2000/svg">
  <defs
     id="defs2" />
  <sodipodi:namedview
     id="namedview2"
     pagecolor="#ffffff"
     bordercolor="#000000"
     borderopacity="0.25"
     inkscape:showpageshadow="2"
     inkscape:pageopacity="0.0"
     inkscape:pagecheckerboard="0"
     inkscape:deskcolor="#d1d1d1" />
  <!-- Icon from TDesign Icons by TDesign - https://github.com/Tencent/tdesign-icons/blob/main/LICENSE -->
  <g
     fill="none"
     id="g2">
    <path
       d="M13.5 17L9 10L2 21h20l-6-8z"
       id="path1" />
    <path
       id="circle1"
       d="M 20,6 A 3,3 0 0 1 17,9 3,3 0 0 1 14,6 3,3 0 0 1 17,3 3,3 0 0 1 20,6 Z" />
    <path
       stroke="currentColor"
       stroke-width="2"
       d="M13.5 17L9 10L2 21h20l-6-8z"
       id="path2" />
    <path
       id="circle2"
       style="stroke:currentColor;stroke-width:2"
       d="M 20,6 A 3,3 0 0 1 17,9 3,3 0 0 1 14,6 3,3 0 0 1 17,3 3,3 0 0 1 20,6 Z" />
  </g>
</svg>
