<?xml version="1.0" encoding="UTF-8" standalone="no"?>
<svg
   width="1em"
   height="1em"
   viewBox="0 0 24 24"
   version="1.1"
   id="svg4"
   sodipodi:docname="tdesign-rice.svg"
   xmlns:inkscape="http://www.inkscape.org/namespaces/inkscape"
   xmlns:sodipodi="http://sodipodi.sourceforge.net/DTD/sodipodi-0.dtd"
   xmlns="http://www.w3.org/2000/svg"
   xmlns:svg="http://www.w3.org/2000/svg">
  <defs
     id="defs4" />
  <sodipodi:namedview
     id="namedview4"
     pagecolor="#ffffff"
     bordercolor="#000000"
     borderopacity="0.25"
     inkscape:showpageshadow="2"
     inkscape:pageopacity="0.0"
     inkscape:pagecheckerboard="0"
     inkscape:deskcolor="#d1d1d1" />
  <!-- Icon from TDesign Icons by TDesign - https://github.com/Tencent/tdesign-icons/blob/main/LICENSE -->
  <g
     fill="none"
     id="g4">
    <path
       d="M3 11h18v1a9 9 0 1 1-18 0zm17 0H4c0-1.009.187-2.288.528-3.547C5.388 4.276 8.709 3 12 3c3.293 0 6.614 1.278 7.474 4.457C19.814 8.715 20 9.992 20 11"
       id="path1" />
    <g
       stroke="currentColor"
       stroke-linecap="square"
       stroke-width="2"
       id="g3">
      <path
         d="M20 11H4c0-1.009.187-2.288.528-3.547C5.388 4.276 8.709 3 12 3c3.293 0 6.614 1.278 7.474 4.457C19.814 8.715 20 9.992 20 11Z"
         id="path2" />
      <path
         d="M8.998 7.998h.004v.004h-.004zm3-2h.004v.004h-.004zm3 2h.004v.004h-.004z"
         id="path3" />
    </g>
    <path
       stroke="currentColor"
       stroke-linecap="square"
       stroke-width="2"
       d="M3 11h18v1a9 9 0 1 1-18 0z"
       id="path4" />
  </g>
</svg>
