<?xml version="1.0" encoding="UTF-8" standalone="no"?>
<svg
   width="1em"
   height="1em"
   viewBox="0 0 24 24"
   version="1.1"
   id="svg2"
   sodipodi:docname="tdesign-music.svg"
   xmlns:inkscape="http://www.inkscape.org/namespaces/inkscape"
   xmlns:sodipodi="http://sodipodi.sourceforge.net/DTD/sodipodi-0.dtd"
   xmlns="http://www.w3.org/2000/svg"
   xmlns:svg="http://www.w3.org/2000/svg">
  <defs
     id="defs2" />
  <sodipodi:namedview
     id="namedview2"
     pagecolor="#ffffff"
     bordercolor="#000000"
     borderopacity="0.25"
     inkscape:showpageshadow="2"
     inkscape:pageopacity="0.0"
     inkscape:pagecheckerboard="0"
     inkscape:deskcolor="#d1d1d1" />
  <!-- Icon from TDesign Icons by TDesign - https://github.com/Tencent/tdesign-icons/blob/main/LICENSE -->
  <g
     fill="none"
     id="g2">
    <path
       d="M7 19a2 2 0 1 1-4 0a2 2 0 0 1 4 0m12-1a2 2 0 1 1-4 0a2 2 0 0 1 4 0"
       id="path1" />
    <path
       stroke="currentColor"
       stroke-width="2"
       d="M7 19v-9m0 9a2 2 0 1 1-4 0a2 2 0 0 1 4 0Zm12-1V9m0 9a2 2 0 1 1-4 0a2 2 0 0 1 4 0ZM7 10V5l12-1v5M7 10l12-1"
       id="path2" />
  </g>
</svg>
