<?xml version="1.0" encoding="UTF-8" standalone="no"?>
<svg
   width="1em"
   height="1em"
   viewBox="0 0 24 24"
   version="1.1"
   id="svg2"
   sodipodi:docname="tdesign-browse-gallery-filled.svg"
   xmlns:inkscape="http://www.inkscape.org/namespaces/inkscape"
   xmlns:sodipodi="http://sodipodi.sourceforge.net/DTD/sodipodi-0.dtd"
   xmlns="http://www.w3.org/2000/svg"
   xmlns:svg="http://www.w3.org/2000/svg">
  <defs
     id="defs2" />
  <sodipodi:namedview
     id="namedview2"
     pagecolor="#ffffff"
     bordercolor="#000000"
     borderopacity="0.25"
     inkscape:showpageshadow="2"
     inkscape:pageopacity="0.0"
     inkscape:pagecheckerboard="0"
     inkscape:deskcolor="#d1d1d1" />
  <!-- Icon from TDesign Icons by TDesign - https://github.com/Tencent/tdesign-icons/blob/main/LICENSE -->
  <path
     fill="currentColor"
     d="m20.102 2.308l-.692-.722l-1.443 1.385l.692.721A11.96 11.96 0 0 1 22 12c0 3.225-1.27 6.15-3.34 8.308l-.693.721l1.443 1.385l.692-.722A13.96 13.96 0 0 0 24 12c0-3.761-1.485-7.178-3.898-9.692"
     id="path1" />
  <path
     fill="currentColor"
     d="M10 2c5.523 0 10 4.477 10 10s-4.477 10-10 10S0 17.523 0 12S4.477 2 10 2m3 14.414L14.414 15L11 11.586V6.5H9v5.914z"
     id="path2" />
</svg>
