<?xml version="1.0" encoding="UTF-8" standalone="no"?>
<svg
   width="1em"
   height="1em"
   viewBox="0 0 24 24"
   version="1.1"
   id="svg2"
   sodipodi:docname="tdesign-gesture-press-filled.svg"
   xmlns:inkscape="http://www.inkscape.org/namespaces/inkscape"
   xmlns:sodipodi="http://sodipodi.sourceforge.net/DTD/sodipodi-0.dtd"
   xmlns="http://www.w3.org/2000/svg"
   xmlns:svg="http://www.w3.org/2000/svg">
  <defs
     id="defs2" />
  <sodipodi:namedview
     id="namedview2"
     pagecolor="#ffffff"
     bordercolor="#000000"
     borderopacity="0.25"
     inkscape:showpageshadow="2"
     inkscape:pageopacity="0.0"
     inkscape:pagecheckerboard="0"
     inkscape:deskcolor="#d1d1d1" />
  <!-- Icon from TDesign Icons by TDesign - https://github.com/Tencent/tdesign-icons/blob/main/LICENSE -->
  <path
     fill="currentColor"
     d="M17.5 7a6.5 6.5 0 0 1-.521 2.554a4.26 4.26 0 0 0-2.065-.534h-.154V7.07a3.76 3.76 0 1 0-7.52 0v5.233A6.5 6.5 0 1 1 17.5 7"
     id="path1" />
  <path
     fill="currentColor"
     d="M14.914 10.52a2.76 2.76 0 0 1 1.39.375l3.624 2.116a2.76 2.76 0 0 1 1.226 3.252l-1.783 5.35a2.76 2.76 0 0 1-2.615 1.886H9.67a2.76 2.76 0 0 1-2.185-1.076L3.187 16.83l.95-1.425a1.88 1.88 0 0 1 1.926-.801l2.677.529V7.07a2.26 2.26 0 0 1 4.52 0v3.45z"
     id="path2" />
</svg>
