<?xml version="1.0" encoding="UTF-8" standalone="no"?>
<svg
   width="1em"
   height="1em"
   viewBox="0 0 24 24"
   version="1.1"
   id="svg1"
   sodipodi:docname="tdesign-hourglass-filled.svg"
   xmlns:inkscape="http://www.inkscape.org/namespaces/inkscape"
   xmlns:sodipodi="http://sodipodi.sourceforge.net/DTD/sodipodi-0.dtd"
   xmlns="http://www.w3.org/2000/svg"
   xmlns:svg="http://www.w3.org/2000/svg">
  <defs
     id="defs1" />
  <sodipodi:namedview
     id="namedview1"
     pagecolor="#ffffff"
     bordercolor="#000000"
     borderopacity="0.25"
     inkscape:showpageshadow="2"
     inkscape:pageopacity="0.0"
     inkscape:pagecheckerboard="0"
     inkscape:deskcolor="#d1d1d1" />
  <!-- Icon from TDesign Icons by TDesign - https://github.com/Tencent/tdesign-icons/blob/main/LICENSE -->
  <path
     fill="currentColor"
     d="M4 2h16v3a8 8 0 0 1-4.124 7A8 8 0 0 1 20 19v3H4v-3a8 8 0 0 1 4.124-7A8 8 0 0 1 4 5zm14 3V4H6v1c0 .892.195 1.739.544 2.5h10.912c.35-.761.544-1.608.544-2.5m-6.998 8.083A6 6 0 0 0 6 19v1h1.1a5.01 5.01 0 0 1 3.902-3.9zm1.996 3.017A5.01 5.01 0 0 1 16.9 20H18v-1a6 6 0 0 0-5.002-5.917z"
     id="path1" />
</svg>
