<?xml version="1.0" encoding="UTF-8" standalone="no"?>
<svg
   width="1em"
   height="1em"
   viewBox="0 0 24 24"
   version="1.1"
   id="svg2"
   sodipodi:docname="tdesign-filter-3.svg"
   xmlns:inkscape="http://www.inkscape.org/namespaces/inkscape"
   xmlns:sodipodi="http://sodipodi.sourceforge.net/DTD/sodipodi-0.dtd"
   xmlns="http://www.w3.org/2000/svg"
   xmlns:svg="http://www.w3.org/2000/svg">
  <defs
     id="defs2" />
  <sodipodi:namedview
     id="namedview2"
     pagecolor="#ffffff"
     bordercolor="#000000"
     borderopacity="0.25"
     inkscape:showpageshadow="2"
     inkscape:pageopacity="0.0"
     inkscape:pagecheckerboard="0"
     inkscape:deskcolor="#d1d1d1" />
  <!-- Icon from TDesign Icons by TDesign - https://github.com/Tencent/tdesign-icons/blob/main/LICENSE -->
  <g
     fill="none"
     id="g2">
    <path
       d="m12 3l2.736 6.264L21 12l-6.264 2.736L12 21l-2.736-6.264L3 12l6.264-2.736z"
       id="path1" />
    <path
       stroke="currentColor"
       stroke-width="2"
       d="m12 3l2.736 6.264L21 12l-6.264 2.736L12 21l-2.736-6.264L3 12l6.264-2.736zm9.125 1l.041.083l.084.042l-.084.042l-.041.083l-.041-.083L21 4.125l.084-.042zM19.75 18l.582 1.168l1.168.582l-1.168.582l-.582 1.168l-.582-1.168L18 19.75l1.168-.582z"
       id="path2" />
  </g>
</svg>
