<?xml version="1.0" encoding="UTF-8" standalone="no"?>
<svg
   width="1.05em"
   height="1em"
   viewBox="0 0 25 24"
   version="1.1"
   id="svg2"
   sodipodi:docname="tdesign-data-search-filled.svg"
   xmlns:inkscape="http://www.inkscape.org/namespaces/inkscape"
   xmlns:sodipodi="http://sodipodi.sourceforge.net/DTD/sodipodi-0.dtd"
   xmlns="http://www.w3.org/2000/svg"
   xmlns:svg="http://www.w3.org/2000/svg">
  <defs
     id="defs2" />
  <sodipodi:namedview
     id="namedview2"
     pagecolor="#ffffff"
     bordercolor="#000000"
     borderopacity="0.25"
     inkscape:showpageshadow="2"
     inkscape:pageopacity="0.0"
     inkscape:pagecheckerboard="0"
     inkscape:deskcolor="#d1d1d1" />
  <!-- Icon from TDesign Icons by TDesign - https://github.com/Tencent/tdesign-icons/blob/main/LICENSE -->
  <path
     fill="currentColor"
     d="M2.226 2h20v9h-20zm6.002 4.5H6.224v2.004h2.004zM2.226 13h16.75a5.25 5.25 0 0 0-3.674 9H2.226zm6.002 2.5H6.224v2.004h2.004z"
     id="path1" />
  <path
     fill="currentColor"
     d="M18.976 14.5a3.75 3.75 0 1 0 1.85 7.013l1.65 1.651l1.415-1.414l-1.651-1.651a3.75 3.75 0 0 0-3.263-5.599m-1.75 3.75a1.75 1.75 0 1 1 3.5 0a1.75 1.75 0 0 1-3.5 0"
     id="path2" />
</svg>
