<?xml version="1.0" encoding="UTF-8" standalone="no"?>
<svg
   width="1em"
   height="1em"
   viewBox="0 0 24 24"
   version="1.1"
   id="svg2"
   sodipodi:docname="tdesign-saving-pot-filled.svg"
   xmlns:inkscape="http://www.inkscape.org/namespaces/inkscape"
   xmlns:sodipodi="http://sodipodi.sourceforge.net/DTD/sodipodi-0.dtd"
   xmlns="http://www.w3.org/2000/svg"
   xmlns:svg="http://www.w3.org/2000/svg">
  <defs
     id="defs2" />
  <sodipodi:namedview
     id="namedview2"
     pagecolor="#ffffff"
     bordercolor="#000000"
     borderopacity="0.25"
     inkscape:showpageshadow="2"
     inkscape:pageopacity="0.0"
     inkscape:pagecheckerboard="0"
     inkscape:deskcolor="#d1d1d1" />
  <!-- Icon from TDesign Icons by TDesign - https://github.com/Tencent/tdesign-icons/blob/main/LICENSE -->
  <path
     fill="currentColor"
     d="M10.802 22.5H5.198l-.788-3.544C3.09 18.37 1.444 17.353.295 16.21L0 15.916V8.501h1.934l.953-1.59l-1.248-3.12l1.134-.265c1.114-.258 2.57-.193 3.994.592l.02-.011a23 23 0 0 1 .712-.408a15 15 0 0 1 1.504-.741c.457-.185.892-.34 1.314-.468a6.5 6.5 0 0 0 12.25 4.35l.093.16c2.465 4.268 1.425 9.596-2.226 12.657l-.632 2.844h-5.604l-.445-2h-2.506zM4.5 11.5h2.004V9.496H4.5z"
     id="path1" />
  <path
     fill="currentColor"
     d="M16.5 0a4.5 4.5 0 1 1 0 9a4.5 4.5 0 0 1 0-9"
     id="path2" />
</svg>
