<?xml version="1.0" encoding="UTF-8" standalone="no"?>
<svg
   width="1em"
   height="1em"
   viewBox="0 0 24 24"
   version="1.1"
   id="svg3"
   sodipodi:docname="tdesign-logo-figma.svg"
   xmlns:inkscape="http://www.inkscape.org/namespaces/inkscape"
   xmlns:sodipodi="http://sodipodi.sourceforge.net/DTD/sodipodi-0.dtd"
   xmlns="http://www.w3.org/2000/svg"
   xmlns:svg="http://www.w3.org/2000/svg">
  <defs
     id="defs3" />
  <sodipodi:namedview
     id="namedview3"
     pagecolor="#ffffff"
     bordercolor="#000000"
     borderopacity="0.25"
     inkscape:showpageshadow="2"
     inkscape:pageopacity="0.0"
     inkscape:pagecheckerboard="0"
     inkscape:deskcolor="#d1d1d1" />
  <!-- Icon from TDesign Icons by TDesign - https://github.com/Tencent/tdesign-icons/blob/main/LICENSE -->
  <g
     fill="none"
     id="g3">
    <path
       d="M12 1.5h3.5a3.5 3.5 0 1 1 0 7H12zM5 5a3.5 3.5 0 0 1 3.5-3.5H12v7H8.5A3.5 3.5 0 0 1 5 5m0 7a3.5 3.5 0 0 1 3.5-3.5H12v7H8.5A3.5 3.5 0 0 1 5 12m0 7a3.5 3.5 0 0 1 3.5-3.5H12V19a3.5 3.5 0 1 1-7 0"
       id="path1" />
    <path
       d="M19 12a3.5 3.5 0 1 1-7 0a3.5 3.5 0 0 1 7 0"
       id="path2" />
    <path
       stroke="currentColor"
       stroke-width="2"
       d="M12 1.5v7m0-7h3.5a3.5 3.5 0 1 1 0 7m-3.5-7H8.5a3.5 3.5 0 1 0 0 7m3.5 0h3.5m-3.5 0H8.5m3.5 0v7m3.5-7a3.5 3.5 0 1 0 0 7a3.5 3.5 0 0 0 0-7Zm-7 0a3.5 3.5 0 1 0 0 7m3.5 0H8.5m3.5 0V19a3.5 3.5 0 1 1-3.5-3.5"
       id="path3" />
  </g>
</svg>
