<?xml version="1.0" encoding="UTF-8" standalone="no"?>
<svg
   width="1em"
   height="1em"
   viewBox="0 0 24 24"
   version="1.1"
   id="svg2"
   sodipodi:docname="tdesign-shop-4-filled.svg"
   xmlns:inkscape="http://www.inkscape.org/namespaces/inkscape"
   xmlns:sodipodi="http://sodipodi.sourceforge.net/DTD/sodipodi-0.dtd"
   xmlns="http://www.w3.org/2000/svg"
   xmlns:svg="http://www.w3.org/2000/svg">
  <defs
     id="defs2" />
  <sodipodi:namedview
     id="namedview2"
     pagecolor="#ffffff"
     bordercolor="#000000"
     borderopacity="0.25"
     inkscape:showpageshadow="2"
     inkscape:pageopacity="0.0"
     inkscape:pagecheckerboard="0"
     inkscape:deskcolor="#d1d1d1" />
  <!-- Icon from TDesign Icons by TDesign - https://github.com/Tencent/tdesign-icons/blob/main/LICENSE -->
  <path
     fill="currentColor"
     d="M21 7h1v2h-1v11h1v2h-5.5v-5.5a4.5 4.5 0 1 0-9 0V22H2v-2h1V9H2V7h1V6a4 4 0 0 1 4-4h10a4 4 0 0 1 4 4zM7 4a2 2 0 0 0-2 2v1h3V4zm3 0v3h4V4zm6 0v3h3V6a2 2 0 0 0-2-2z"
     id="path1" />
  <path
     fill="currentColor"
     d="M12 14a2.5 2.5 0 0 0-2.5 2.5V22h5v-5.5A2.5 2.5 0 0 0 12 14"
     id="path2" />
</svg>
