<?xml version="1.0" encoding="UTF-8" standalone="no"?>
<svg
   width="1em"
   height="1em"
   viewBox="0 0 24 24"
   version="1.1"
   id="svg3"
   sodipodi:docname="tdesign-hotspot-wave-filled.svg"
   xmlns:inkscape="http://www.inkscape.org/namespaces/inkscape"
   xmlns:sodipodi="http://sodipodi.sourceforge.net/DTD/sodipodi-0.dtd"
   xmlns="http://www.w3.org/2000/svg"
   xmlns:svg="http://www.w3.org/2000/svg">
  <defs
     id="defs3" />
  <sodipodi:namedview
     id="namedview3"
     pagecolor="#ffffff"
     bordercolor="#000000"
     borderopacity="0.25"
     inkscape:showpageshadow="2"
     inkscape:pageopacity="0.0"
     inkscape:pagecheckerboard="0"
     inkscape:deskcolor="#d1d1d1" />
  <!-- Icon from TDesign Icons by TDesign - https://github.com/Tencent/tdesign-icons/blob/main/LICENSE -->
  <path
     fill="currentColor"
     d="M13 0h-1v2h1a7 7 0 0 1 7 7v1h2V9a9 9 0 0 0-9-9m-3 2H4v22h16V12h-2v6H6V4h4zm3.004 18v2.004H11V20z"
     id="path1" />
  <path
     fill="currentColor"
     d="M13 4h-1v2h1a3 3 0 0 1 3 3v1h2V9a5 5 0 0 0-5-5"
     id="path2" />
  <path
     fill="currentColor"
     d="M14.004 8H12v2.004h2.004z"
     id="path3" />
</svg>
