<?xml version="1.0" encoding="UTF-8" standalone="no"?>
<svg
   width="1em"
   height="1em"
   viewBox="0 0 24 24"
   version="1.1"
   id="svg1"
   sodipodi:docname="tdesign-ferris-wheel.svg"
   xmlns:inkscape="http://www.inkscape.org/namespaces/inkscape"
   xmlns:sodipodi="http://sodipodi.sourceforge.net/DTD/sodipodi-0.dtd"
   xmlns="http://www.w3.org/2000/svg"
   xmlns:svg="http://www.w3.org/2000/svg">
  <defs
     id="defs1" />
  <sodipodi:namedview
     id="namedview1"
     pagecolor="#ffffff"
     bordercolor="#000000"
     borderopacity="0.25"
     inkscape:showpageshadow="2"
     inkscape:pageopacity="0.0"
     inkscape:pagecheckerboard="0"
     inkscape:deskcolor="#d1d1d1" />
  <!-- Icon from TDesign Icons by TDesign - https://github.com/Tencent/tdesign-icons/blob/main/LICENSE -->
  <path
     fill="none"
     stroke="currentColor"
     stroke-linecap="square"
     stroke-width="2"
     d="M9 22h6m-6 0v-4.674M9 22H5.999m9 0v-4.674M15 22h3m-9-4.674L12 11l3 6.326m-6 0c.91.432 1.927.674 3 .674a7 7 0 0 0 3-.674M21 11h-2m0 0a7 7 0 0 0-7-7m7 7a7 7 0 1 1-14 0m0 0H3m2 0a7 7 0 0 1 7-7m0 0V2m7.792 4.499l-1.732 1m-12.124 7l-1.732 1m15.588 0l-1.732-1m-12.125-7l-1.732-1M16.5 3.204l-1 1.732m-7 0l-1-1.731"
     id="path1" />
</svg>
