<?xml version="1.0" encoding="UTF-8" standalone="no"?>
<svg
   width="1em"
   height="1em"
   viewBox="0 0 24 24"
   version="1.1"
   id="svg2"
   sodipodi:docname="tdesign-file-pdf.svg"
   xmlns:inkscape="http://www.inkscape.org/namespaces/inkscape"
   xmlns:sodipodi="http://sodipodi.sourceforge.net/DTD/sodipodi-0.dtd"
   xmlns="http://www.w3.org/2000/svg"
   xmlns:svg="http://www.w3.org/2000/svg">
  <defs
     id="defs2" />
  <sodipodi:namedview
     id="namedview2"
     pagecolor="#ffffff"
     bordercolor="#000000"
     borderopacity="0.25"
     inkscape:showpageshadow="2"
     inkscape:pageopacity="0.0"
     inkscape:pagecheckerboard="0"
     inkscape:deskcolor="#d1d1d1" />
  <!-- Icon from TDesign Icons by TDesign - https://github.com/Tencent/tdesign-icons/blob/main/LICENSE -->
  <g
     fill="none"
     stroke="currentColor"
     stroke-linecap="square"
     stroke-width="2"
     id="g2">
    <path
       d="M20 10V7l-5-5H4v20h16M14 2v6h6"
       id="path1" />
    <path
       d="M7 16v-3h2.714c.158 0 .286.128.286.286v2.428a.286.286 0 0 1-.286.286zm0 0v3m13.667-6h-2.381a.286.286 0 0 0-.286.286V16m0 0h2.667M18 16v3m-5.5-6v6h2.714a.286.286 0 0 0 .286-.286v-5.428a.286.286 0 0 0-.286-.286z"
       id="path2" />
  </g>
</svg>
