<?xml version="1.0" encoding="UTF-8" standalone="no"?>
<svg
   width="1em"
   height="1em"
   viewBox="0 0 24 24"
   version="1.1"
   id="svg4"
   sodipodi:docname="tdesign-cloudy-day.svg"
   xmlns:inkscape="http://www.inkscape.org/namespaces/inkscape"
   xmlns:sodipodi="http://sodipodi.sourceforge.net/DTD/sodipodi-0.dtd"
   xmlns="http://www.w3.org/2000/svg"
   xmlns:svg="http://www.w3.org/2000/svg">
  <defs
     id="defs4" />
  <sodipodi:namedview
     id="namedview4"
     pagecolor="#ffffff"
     bordercolor="#000000"
     borderopacity="0.25"
     inkscape:showpageshadow="2"
     inkscape:pageopacity="0.0"
     inkscape:pagecheckerboard="0"
     inkscape:deskcolor="#d1d1d1" />
  <!-- Icon from TDesign Icons by TDesign - https://github.com/Tencent/tdesign-icons/blob/main/LICENSE -->
  <g
     fill="none"
     id="g4">
    <path
       d="M2 16.533C2 18.448 3.522 20 5.4 20h9.35c2.347 0 4.25-1.94 4.25-4.333c0-.59-.116-1.154-.326-1.667c-.64-1.566-2.156-2.667-3.924-2.667h-.07C14.275 8.875 12.177 7 9.65 7c-2.817 0-5.1 2.328-5.1 5.2q.001.49.086.955C3.126 13.508 2 14.887 2 16.533"
       id="path1" />
    <path
       d="M14.75 11.333h-.07c-.38-2.304-2.246-4.095-4.56-4.311a4.002 4.002 0 0 1 7.767.031Q18.186 7 18.5 7a3.5 3.5 0 0 1 3.5 3.5c0 1.763-1.826 3.5-3.326 3.5c-.64-1.566-2.156-2.667-3.924-2.667"
       id="path2" />
    <path
       stroke="currentColor"
       stroke-width="2"
       d="M14.75 11.333h-.07c-.38-2.304-2.246-4.095-4.56-4.311a4.002 4.002 0 0 1 7.767.031Q18.186 7 18.5 7a3.5 3.5 0 0 1 3.5 3.5c0 1.763-1.826 3.5-3.326 3.5c-.64-1.566-2.156-2.667-3.924-2.667Z"
       id="path3" />
    <path
       stroke="currentColor"
       stroke-width="2"
       d="M2 16.533C2 18.448 3.522 20 5.4 20h9.35c2.347 0 4.25-1.94 4.25-4.333c0-.59-.116-1.154-.326-1.667c-.64-1.566-2.156-2.667-3.924-2.667h-.07C14.275 8.875 12.177 7 9.65 7c-2.817 0-5.1 2.328-5.1 5.2q.001.49.086.955C3.126 13.508 2 14.887 2 16.533Z"
       id="path4" />
  </g>
</svg>
