<?xml version="1.0" encoding="UTF-8" standalone="no"?>
<svg
   width="1em"
   height="1em"
   viewBox="0 0 24 24"
   version="1.1"
   id="svg4"
   sodipodi:docname="tdesign-shop-5.svg"
   xmlns:inkscape="http://www.inkscape.org/namespaces/inkscape"
   xmlns:sodipodi="http://sodipodi.sourceforge.net/DTD/sodipodi-0.dtd"
   xmlns="http://www.w3.org/2000/svg"
   xmlns:svg="http://www.w3.org/2000/svg">
  <defs
     id="defs4" />
  <sodipodi:namedview
     id="namedview4"
     pagecolor="#ffffff"
     bordercolor="#000000"
     borderopacity="0.25"
     inkscape:showpageshadow="2"
     inkscape:pageopacity="0.0"
     inkscape:pagecheckerboard="0"
     inkscape:deskcolor="#d1d1d1" />
  <!-- Icon from TDesign Icons by TDesign - https://github.com/Tencent/tdesign-icons/blob/main/LICENSE -->
  <g
     fill="none"
     id="g4">
    <path
       d="M20.743 5.23c.17.51.292 1.054.149 1.572a3 3 0 0 1-.739 1.287L20 8.236V21H4V8.236l-.112-.106A3 3 0 0 1 3 6l1-3h16z"
       id="path1" />
    <path
       d="M15 14H9v7h6z"
       id="path2" />
    <path
       stroke="currentColor"
       stroke-width="2"
       d="M15 14H9v7h6z"
       id="path3" />
    <path
       stroke="currentColor"
       stroke-linecap="square"
       stroke-width="2"
       d="M15 6a3 3 0 0 0 3 3m-3-3a3 3 0 1 1-6 0m6 0V3m3 6c.672 0 1.293-.221 1.793-.595L20 8.236M18 9c.768 0 1.47-.289 2-.764m0 0V21m0-12.764a3 3 0 0 0 .892-1.434c.143-.518.021-1.062-.149-1.572L20 3h-5m5 18H4m16 0h1M4 21V8.236M4 21H3M4 8.236A3 3 0 0 0 9 6M4 8.236A3 3 0 0 1 3 6l1-3h5m0 3V3m0 0h6"
       id="path4" />
  </g>
</svg>
