<?xml version="1.0" encoding="UTF-8" standalone="no"?>
<svg
   width="1em"
   height="1em"
   viewBox="0 0 24 24"
   version="1.1"
   id="svg2"
   sodipodi:docname="tdesign-pearl-of-the-orient.svg"
   xmlns:inkscape="http://www.inkscape.org/namespaces/inkscape"
   xmlns:sodipodi="http://sodipodi.sourceforge.net/DTD/sodipodi-0.dtd"
   xmlns="http://www.w3.org/2000/svg"
   xmlns:svg="http://www.w3.org/2000/svg">
  <defs
     id="defs2" />
  <sodipodi:namedview
     id="namedview2"
     pagecolor="#ffffff"
     bordercolor="#000000"
     borderopacity="0.25"
     inkscape:showpageshadow="2"
     inkscape:pageopacity="0.0"
     inkscape:pagecheckerboard="0"
     inkscape:deskcolor="#d1d1d1" />
  <!-- Icon from TDesign Icons by TDesign - https://github.com/Tencent/tdesign-icons/blob/main/LICENSE -->
  <g
     fill="none"
     id="g2">
    <path
       d="M14 6a2 2 0 1 1-4 0a2 2 0 0 1 4 0m1 11a3 3 0 0 1-3 3c-1.625 0-3-1.363-3-3a3 3 0 1 1 6 0"
       id="path1" />
    <path
       stroke="currentColor"
       stroke-linecap="square"
       stroke-width="2"
       d="M12 8a2 2 0 1 0 0-4m0 4a2 2 0 1 1 0-4m0 4v6m0-10l-.002-2M12 14a3 3 0 0 0-3 3c0 .763.255 1.426.754 1.989c.198.223.428.417.684.573M12 14a3 3 0 0 1 1.56 5.563m-3.122-.001L9.001 22H9zm0 0c.455.278.99.438 1.562.438a3 3 0 0 0 1.56-.437m0 0L14.999 22H15z"
       id="path2" />
  </g>
</svg>
