<?xml version="1.0" encoding="UTF-8" standalone="no"?>
<svg
   width="1em"
   height="1em"
   viewBox="0 0 24 24"
   version="1.1"
   id="svg4"
   sodipodi:docname="tdesign-cucumber.svg"
   xmlns:inkscape="http://www.inkscape.org/namespaces/inkscape"
   xmlns:sodipodi="http://sodipodi.sourceforge.net/DTD/sodipodi-0.dtd"
   xmlns="http://www.w3.org/2000/svg"
   xmlns:svg="http://www.w3.org/2000/svg">
  <defs
     id="defs4" />
  <sodipodi:namedview
     id="namedview4"
     pagecolor="#ffffff"
     bordercolor="#000000"
     borderopacity="0.25"
     inkscape:showpageshadow="2"
     inkscape:pageopacity="0.0"
     inkscape:pagecheckerboard="0"
     inkscape:deskcolor="#d1d1d1" />
  <!-- Icon from TDesign Icons by TDesign - https://github.com/Tencent/tdesign-icons/blob/main/LICENSE -->
  <g
     fill="none"
     id="g4">
    <path
       d="M3.5 19.394C2.05 17.244 2.554 13.445 8 8c5.536-5.536 9.37-5.964 11.5-4.427c.392.283.729.63 1 1.032c1.449 2.151.945 5.95-4.5 11.395c-5.536 5.536-9.37 5.964-11.5 4.426a4.1 4.1 0 0 1-1-1.032"
       id="path1" />
    <path
       d="M3.5 19.394c3.171-6.38 9.702-12.693 16-15.82a4.1 4.1 0 0 1 1 1.031c-3.165 5.675-9.998 12.757-16 15.82a4.1 4.1 0 0 1-1-1.031"
       id="path2" />
    <path
       stroke="currentColor"
       stroke-linecap="square"
       stroke-width="2"
       d="M3.5 19.394c3.171-6.38 9.702-12.693 16-15.82a4.1 4.1 0 0 1 1 1.031c-3.165 5.675-9.998 12.757-16 15.82a4.1 4.1 0 0 1-1-1.031Z"
       id="path3" />
    <path
       stroke="currentColor"
       stroke-linecap="square"
       stroke-width="2"
       d="M3.5 19.394C2.05 17.244 2.554 13.445 8 8c5.536-5.536 9.37-5.964 11.5-4.427c.392.283.729.63 1 1.032c1.449 2.151.945 5.95-4.5 11.395c-5.536 5.536-9.37 5.964-11.5 4.426a4.1 4.1 0 0 1-1-1.032Z"
       id="path4" />
  </g>
</svg>
