<?xml version="1.0" encoding="UTF-8" standalone="no"?>
<svg
   width="1em"
   height="1em"
   viewBox="0 0 24 24"
   version="1.1"
   id="svg2"
   sodipodi:docname="tdesign-sound-filled.svg"
   xmlns:inkscape="http://www.inkscape.org/namespaces/inkscape"
   xmlns:sodipodi="http://sodipodi.sourceforge.net/DTD/sodipodi-0.dtd"
   xmlns="http://www.w3.org/2000/svg"
   xmlns:svg="http://www.w3.org/2000/svg">
  <defs
     id="defs2" />
  <sodipodi:namedview
     id="namedview2"
     pagecolor="#ffffff"
     bordercolor="#000000"
     borderopacity="0.25"
     inkscape:showpageshadow="2"
     inkscape:pageopacity="0.0"
     inkscape:pagecheckerboard="0"
     inkscape:deskcolor="#d1d1d1" />
  <!-- Icon from TDesign Icons by TDesign - https://github.com/Tencent/tdesign-icons/blob/main/LICENSE -->
  <path
     fill="currentColor"
     d="M5 6.5v11H1v-11zm2 11.71l8 4.5V1.29l-8 4.5zM21.581 7.78l-.602-.799l-1.596 1.206l.602.798a5 5 0 0 1-.002 6.03l-.603.797l1.595 1.206l.603-.797a7 7 0 0 0 .003-8.442"
     id="path1" />
  <path
     fill="currentColor"
     d="m18.789 9.889l-.603-.798l-1.596 1.205l.603.798a1.5 1.5 0 0 1 0 1.809l-.604.797l1.595 1.207l.603-.798a3.5 3.5 0 0 0 .002-4.22"
     id="path2" />
</svg>
