<?xml version="1.0" encoding="UTF-8" standalone="no"?>
<svg
   width="1em"
   height="1em"
   viewBox="0 0 24 24"
   version="1.1"
   id="svg3"
   sodipodi:docname="tdesign-file-excel.svg"
   xmlns:inkscape="http://www.inkscape.org/namespaces/inkscape"
   xmlns:sodipodi="http://sodipodi.sourceforge.net/DTD/sodipodi-0.dtd"
   xmlns="http://www.w3.org/2000/svg"
   xmlns:svg="http://www.w3.org/2000/svg">
  <defs
     id="defs3" />
  <sodipodi:namedview
     id="namedview3"
     pagecolor="#ffffff"
     bordercolor="#000000"
     borderopacity="0.25"
     inkscape:showpageshadow="2"
     inkscape:pageopacity="0.0"
     inkscape:pagecheckerboard="0"
     inkscape:deskcolor="#d1d1d1" />
  <!-- Icon from TDesign Icons by TDesign - https://github.com/Tencent/tdesign-icons/blob/main/LICENSE -->
  <g
     fill="none"
     id="g3">
    <path
       d="M4 22h16V8h-6V2H4z"
       id="path1" />
    <path
       stroke="currentColor"
       stroke-width="2"
       d="M14 2v6h6m-6-6h1l5 5v1m-6-6H4v20h16V8"
       id="path2" />
    <path
       stroke="currentColor"
       stroke-linecap="square"
       stroke-width="2"
       d="M14 11v.646a1 1 0 0 1-.306.72L12 14m-2-3v.646a1 1 0 0 0 .306.72L12 14m0 0l-1.694 1.634a1 1 0 0 0-.306.72V17m2-3l1.694 1.634a1 1 0 0 1 .306.72V17"
       id="path3" />
  </g>
</svg>
