<?xml version="1.0" encoding="UTF-8" standalone="no"?>
<svg
   width="1em"
   height="1em"
   viewBox="0 0 24 24"
   version="1.1"
   id="svg2"
   sodipodi:docname="tdesign-airplay-wave-filled.svg"
   xmlns:inkscape="http://www.inkscape.org/namespaces/inkscape"
   xmlns:sodipodi="http://sodipodi.sourceforge.net/DTD/sodipodi-0.dtd"
   xmlns="http://www.w3.org/2000/svg"
   xmlns:svg="http://www.w3.org/2000/svg">
  <defs
     id="defs2" />
  <sodipodi:namedview
     id="namedview2"
     pagecolor="#ffffff"
     bordercolor="#000000"
     borderopacity="0.25"
     inkscape:showpageshadow="2"
     inkscape:pageopacity="0.0"
     inkscape:pagecheckerboard="0"
     inkscape:deskcolor="#d1d1d1" />
  <!-- Icon from TDesign Icons by TDesign - https://github.com/Tencent/tdesign-icons/blob/main/LICENSE -->
  <path
     fill="currentColor"
     d="M23 3H1l.001 17h6.964L12 15.964L16.036 20H23zm-6.05 8.383a7 7 0 0 0-9.899 0l-.707.707l-1.414-1.414l.707-.707a9 9 0 0 1 12.728 0l.707.707l-1.414 1.414zm-2.828 2.828a3 3 0 0 0-4.243 0l-.707.707l-1.414-1.414l.707-.707a5 5 0 0 1 7.071 0l.707.707l-1.414 1.414z"
     id="path1" />
  <path
     fill="currentColor"
     d="M15.914 22L12 18.086L8.086 22z"
     id="path2" />
</svg>
