<?xml version="1.0" encoding="UTF-8" standalone="no"?>
<svg
   width="1em"
   height="1em"
   viewBox="0 0 24 24"
   version="1.1"
   id="svg1"
   sodipodi:docname="tdesign-gesture-pray-filled.svg"
   xmlns:inkscape="http://www.inkscape.org/namespaces/inkscape"
   xmlns:sodipodi="http://sodipodi.sourceforge.net/DTD/sodipodi-0.dtd"
   xmlns="http://www.w3.org/2000/svg"
   xmlns:svg="http://www.w3.org/2000/svg">
  <defs
     id="defs1" />
  <sodipodi:namedview
     id="namedview1"
     pagecolor="#ffffff"
     bordercolor="#000000"
     borderopacity="0.25"
     inkscape:showpageshadow="2"
     inkscape:pageopacity="0.0"
     inkscape:pagecheckerboard="0"
     inkscape:deskcolor="#d1d1d1" />
  <!-- Icon from TDesign Icons by TDesign - https://github.com/Tencent/tdesign-icons/blob/main/LICENSE -->
  <path
     fill="currentColor"
     d="M10.357 3.302a.65.65 0 0 0-.651.516l-2.28 10.675l-1.218 1.217l2.702 2.7l1.527-1.527a1.9 1.9 0 0 0 .56-1.35V3.953a.653.653 0 0 0-.64-.652M7.75 3.4A2.653 2.653 0 0 1 12 1.882a2.652 2.652 0 0 1 4.25 1.519l2.156 10.096l4.27 4.27l-5.53 5.53l-4.999-4.999q-.075-.076-.148-.156a4 4 0 0 1-.148.156l-4.999 5l-5.53-5.53l4.27-4.271zm6.543.417a.652.652 0 0 0-1.291.137v11.578c0 .507.201.993.56 1.35l1.527 1.528l2.7-2.701l-1.216-1.217z"
     id="path1" />
</svg>
