<?xml version="1.0" encoding="UTF-8" standalone="no"?>
<svg
   width="1em"
   height="1em"
   viewBox="0 0 24 24"
   version="1.1"
   id="svg1"
   sodipodi:docname="tdesign-sensors-2.svg"
   xmlns:inkscape="http://www.inkscape.org/namespaces/inkscape"
   xmlns:sodipodi="http://sodipodi.sourceforge.net/DTD/sodipodi-0.dtd"
   xmlns="http://www.w3.org/2000/svg"
   xmlns:svg="http://www.w3.org/2000/svg">
  <defs
     id="defs1" />
  <sodipodi:namedview
     id="namedview1"
     pagecolor="#ffffff"
     bordercolor="#000000"
     borderopacity="0.25"
     inkscape:showpageshadow="2"
     inkscape:pageopacity="0.0"
     inkscape:pagecheckerboard="0"
     inkscape:deskcolor="#d1d1d1" />
  <!-- Icon from TDesign Icons by TDesign - https://github.com/Tencent/tdesign-icons/blob/main/LICENSE -->
  <path
     fill="none"
     stroke="currentColor"
     stroke-linecap="square"
     stroke-width="2"
     d="M4.929 4.929A9.97 9.97 0 0 0 2 11.999a9.97 9.97 0 0 0 2.929 7.072M7.757 7.757A5.98 5.98 0 0 0 6 12c0 1.656.672 3.156 1.757 4.242M12 10v4m4.242-6.243A5.98 5.98 0 0 1 18 12a5.98 5.98 0 0 1-1.758 4.242m2.83-11.313A9.97 9.97 0 0 1 22 11.999a9.97 9.97 0 0 1-2.929 7.072"
     id="path1" />
</svg>
