<?xml version="1.0" encoding="UTF-8" standalone="no"?>
<svg
   width="1em"
   height="1em"
   viewBox="0 0 24 24"
   version="1.1"
   id="svg1"
   sodipodi:docname="tdesign-smile-filled.svg"
   xmlns:inkscape="http://www.inkscape.org/namespaces/inkscape"
   xmlns:sodipodi="http://sodipodi.sourceforge.net/DTD/sodipodi-0.dtd"
   xmlns="http://www.w3.org/2000/svg"
   xmlns:svg="http://www.w3.org/2000/svg">
  <defs
     id="defs1" />
  <sodipodi:namedview
     id="namedview1"
     pagecolor="#ffffff"
     bordercolor="#000000"
     borderopacity="0.25"
     inkscape:showpageshadow="2"
     inkscape:pageopacity="0.0"
     inkscape:pagecheckerboard="0"
     inkscape:deskcolor="#d1d1d1" />
  <!-- Icon from TDesign Icons by TDesign - https://github.com/Tencent/tdesign-icons/blob/main/LICENSE -->
  <path
     fill="currentColor"
     d="M12 23C5.925 23 1 18.075 1 12S5.925 1 12 1s11 4.925 11 11s-4.925 11-11 11M9 12V8H7v4zm8 0V8h-2v4zm-7.6 2.5l-.5-.866l-1.731 1.001l.5.866A5 5 0 0 0 12 18a5 5 0 0 0 4.33-2.5l.501-.865l-1.731-1.001l-.5.865A3 3 0 0 1 12 16a3 3 0 0 1-2.6-1.5"
     id="path1" />
</svg>
