<?xml version="1.0" encoding="UTF-8" standalone="no"?>
<svg
   width="1em"
   height="1em"
   viewBox="0 0 24 24"
   version="1.1"
   id="svg2"
   sodipodi:docname="tdesign-system-blocked-filled.svg"
   xmlns:inkscape="http://www.inkscape.org/namespaces/inkscape"
   xmlns:sodipodi="http://sodipodi.sourceforge.net/DTD/sodipodi-0.dtd"
   xmlns="http://www.w3.org/2000/svg"
   xmlns:svg="http://www.w3.org/2000/svg">
  <defs
     id="defs2" />
  <sodipodi:namedview
     id="namedview2"
     pagecolor="#ffffff"
     bordercolor="#000000"
     borderopacity="0.25"
     inkscape:showpageshadow="2"
     inkscape:pageopacity="0.0"
     inkscape:pagecheckerboard="0"
     inkscape:deskcolor="#d1d1d1" />
  <!-- Icon from TDesign Icons by TDesign - https://github.com/Tencent/tdesign-icons/blob/main/LICENSE -->
  <path
     fill="currentColor"
     d="M23 2H1v16h10.518a6.97 6.97 0 0 1 .92-4.002H3v-10h18v6.962c.734.28 1.409.681 2 1.178zM3 20h8.96c.28.734.681 1.409 1.178 2H3z"
     id="path1" />
  <path
     fill="currentColor"
     d="M18.5 12a5.5 5.5 0 1 0 0 11a5.5 5.5 0 0 0 0-11M15 17.5a3.5 3.5 0 0 1 5.165-3.08l-4.744 4.745A3.5 3.5 0 0 1 15 17.5m1.835 3.08l4.744-4.745a3.5 3.5 0 0 1-4.745 4.745"
     id="path2" />
</svg>
