<?xml version="1.0" encoding="UTF-8" standalone="no"?>
<svg
   width="1em"
   height="1em"
   viewBox="0 0 24 24"
   version="1.1"
   id="svg2"
   sodipodi:docname="tdesign-fill-color-1.svg"
   xmlns:inkscape="http://www.inkscape.org/namespaces/inkscape"
   xmlns:sodipodi="http://sodipodi.sourceforge.net/DTD/sodipodi-0.dtd"
   xmlns="http://www.w3.org/2000/svg"
   xmlns:svg="http://www.w3.org/2000/svg">
  <defs
     id="defs2" />
  <sodipodi:namedview
     id="namedview2"
     pagecolor="#ffffff"
     bordercolor="#000000"
     borderopacity="0.25"
     inkscape:showpageshadow="2"
     inkscape:pageopacity="0.0"
     inkscape:pagecheckerboard="0"
     inkscape:deskcolor="#d1d1d1" />
  <!-- Icon from TDesign Icons by TDesign - https://github.com/Tencent/tdesign-icons/blob/main/LICENSE -->
  <g
     fill="none"
     id="g2">
    <path
       d="m3.588 14.122l6.29 6.29a3 3 0 0 0 4.243 0L21.535 13H2.88c.144.41.38.794.708 1.121"
       id="path1" />
    <path
       stroke="currentColor"
       stroke-linecap="square"
       stroke-width="2"
       d="M12 8L6 2m15 11H3.5M12 1.467L22.534 12l-8.413 8.413a3 3 0 0 1-4.242 0l-6.291-6.291a3 3 0 0 1 0-4.243zm9.22 20.543c.293.37.767.37 1.06 0s.293-.97 0-1.34l-.53-.67l-.53.67c-.293.37-.293.97 0 1.34Z"
       id="path2" />
  </g>
</svg>
