<?xml version="1.0" encoding="UTF-8" standalone="no"?>
<svg
   width="1em"
   height="1em"
   viewBox="0 0 24 24"
   version="1.1"
   id="svg3"
   sodipodi:docname="tdesign-palace.svg"
   xmlns:inkscape="http://www.inkscape.org/namespaces/inkscape"
   xmlns:sodipodi="http://sodipodi.sourceforge.net/DTD/sodipodi-0.dtd"
   xmlns="http://www.w3.org/2000/svg"
   xmlns:svg="http://www.w3.org/2000/svg">
  <defs
     id="defs3" />
  <sodipodi:namedview
     id="namedview3"
     pagecolor="#ffffff"
     bordercolor="#000000"
     borderopacity="0.25"
     inkscape:showpageshadow="2"
     inkscape:pageopacity="0.0"
     inkscape:pagecheckerboard="0"
     inkscape:deskcolor="#d1d1d1" />
  <!-- Icon from TDesign Icons by TDesign - https://github.com/Tencent/tdesign-icons/blob/main/LICENSE -->
  <g
     fill="none"
     id="g3">
    <path
       d="M12 4a3 3 0 0 1 3 3v1h2v3h3v10H4V11h3V8h2V7a3 3 0 0 1 3-3"
       id="path1" />
    <path
       d="M9 18a3 3 0 1 1 6 0v3H9z"
       id="path2" />
    <path
       stroke="currentColor"
       stroke-linecap="square"
       stroke-width="2"
       d="M9 18a3 3 0 0 1 3-3v0a3 3 0 0 1 3 3v3H9zm6-10V7a3 3 0 0 0-3-3m3 4h2m-2 0H9m0 0V7a3 3 0 0 1 3-3M9 8H7m10 0v3m0-3h1m-1 3H7m10 0h3M7 11V8m0 3H4m3-3H6m-2 3v10m0-10H3m1 10H3m1 0h16m0-10v10m0-10h1m-1 10h1M12 4V3"
       id="path3" />
  </g>
</svg>
