<?xml version="1.0" encoding="UTF-8" standalone="no"?>
<svg
   width="1em"
   height="1em"
   viewBox="0 0 24 24"
   version="1.1"
   id="svg2"
   sodipodi:docname="tdesign-vehicle-filled.svg"
   xmlns:inkscape="http://www.inkscape.org/namespaces/inkscape"
   xmlns:sodipodi="http://sodipodi.sourceforge.net/DTD/sodipodi-0.dtd"
   xmlns="http://www.w3.org/2000/svg"
   xmlns:svg="http://www.w3.org/2000/svg">
  <defs
     id="defs2" />
  <sodipodi:namedview
     id="namedview2"
     pagecolor="#ffffff"
     bordercolor="#000000"
     borderopacity="0.25"
     inkscape:showpageshadow="2"
     inkscape:pageopacity="0.0"
     inkscape:pagecheckerboard="0"
     inkscape:deskcolor="#d1d1d1" />
  <!-- Icon from TDesign Icons by TDesign - https://github.com/Tencent/tdesign-icons/blob/main/LICENSE -->
  <path
     fill="currentColor"
     d="M2 3a2 2 0 0 0-2 2v13a2 2 0 0 0 2 2h.586l-.5.5L3.5 21.914L5.414 20H8v-8H2V5h11v2h2V5a2 2 0 0 0-2-2zm1 12h2.004v2.004H3z"
     id="path1" />
  <path
     fill="currentColor"
     d="M21.677 8H11.323L9 13.807V21.5h2V20h11v1.5h2v-7.693zm-.554 4h-9.246l.8-2h7.646zM12 15h2.004v2.004H12zm9.004 0v2.004H19V15z"
     id="path2" />
</svg>
