<?xml version="1.0" encoding="UTF-8" standalone="no"?>
<svg
   width="1em"
   height="1em"
   viewBox="0 0 24 24"
   version="1.1"
   id="svg4"
   sodipodi:docname="tdesign-city-ancient.svg"
   xmlns:inkscape="http://www.inkscape.org/namespaces/inkscape"
   xmlns:sodipodi="http://sodipodi.sourceforge.net/DTD/sodipodi-0.dtd"
   xmlns="http://www.w3.org/2000/svg"
   xmlns:svg="http://www.w3.org/2000/svg">
  <defs
     id="defs4" />
  <sodipodi:namedview
     id="namedview4"
     pagecolor="#ffffff"
     bordercolor="#000000"
     borderopacity="0.25"
     inkscape:showpageshadow="2"
     inkscape:pageopacity="0.0"
     inkscape:pagecheckerboard="0"
     inkscape:deskcolor="#d1d1d1" />
  <!-- Icon from TDesign Icons by TDesign - https://github.com/Tencent/tdesign-icons/blob/main/LICENSE -->
  <g
     fill="none"
     id="g4">
    <path
       d="M12.002 2c.02.033 3.06 5.057 4.998 5.777V12h3v9H4v-9h3.002V7.777c1.945-.723 5-5.777 5-5.777"
       id="path1" />
    <path
       d="M15 16H9v5h6z"
       id="path2" />
    <path
       stroke="currentColor"
       stroke-linecap="square"
       stroke-width="2"
       d="M15 16H9v5h6z"
       id="path3" />
    <path
       stroke="currentColor"
       stroke-linecap="square"
       stroke-width="2"
       d="M20 12v9H4v-9m16 0h1m-1 0H4m0 0H3m3-4c.267 0 .612-.078 1.002-.223c1.945-.723 5-5.777 5-5.777S15.056 7.055 17 7.778c.389.144.733.222 1 .222M7.002 8H17m.001.3V12m-10-3.7V12"
       id="path4" />
  </g>
</svg>
