<?xml version="1.0" encoding="UTF-8" standalone="no"?>
<svg
   width="1em"
   height="1em"
   viewBox="0 0 24 24"
   version="1.1"
   id="svg2"
   sodipodi:docname="tdesign-gesture-right.svg"
   xmlns:inkscape="http://www.inkscape.org/namespaces/inkscape"
   xmlns:sodipodi="http://sodipodi.sourceforge.net/DTD/sodipodi-0.dtd"
   xmlns="http://www.w3.org/2000/svg"
   xmlns:svg="http://www.w3.org/2000/svg">
  <defs
     id="defs2" />
  <sodipodi:namedview
     id="namedview2"
     pagecolor="#ffffff"
     bordercolor="#000000"
     borderopacity="0.25"
     inkscape:showpageshadow="2"
     inkscape:pageopacity="0.0"
     inkscape:pagecheckerboard="0"
     inkscape:deskcolor="#d1d1d1" />
  <!-- Icon from TDesign Icons by TDesign - https://github.com/Tencent/tdesign-icons/blob/main/LICENSE -->
  <g
     fill="none"
     id="g2">
    <path
       d="M15 12.25h4.5a2 2 0 1 0 0-4h-10l.851-3.831a1 1 0 0 0-.421-1.05L9 2.75l-5.72 4.4a2 2 0 0 0-.78 1.585v8.073a2 2 0 0 0 1.368 1.898l6.09 2.03a2 2 0 0 0 2.36-.89l2.41-4.129A2 2 0 0 0 15 14.709z"
       id="path1" />
    <path
       stroke="currentColor"
       stroke-linecap="square"
       stroke-width="2"
       d="M15 12.25h4.5a2 2 0 1 0 0-4h-10l.851-3.831a1 1 0 0 0-.421-1.05L9 2.75l-5.72 4.4a2 2 0 0 0-.78 1.585v8.073a2 2 0 0 0 1.368 1.898l6.09 2.03a2 2 0 0 0 2.36-.89l2.41-4.129A2 2 0 0 0 15 14.709z"
       id="path2" />
  </g>
</svg>
