<?xml version="1.0" encoding="UTF-8" standalone="no"?>
<svg
   width="1em"
   height="1em"
   viewBox="0 0 24 24"
   version="1.1"
   id="svg3"
   sodipodi:docname="tdesign-map-collection.svg"
   xmlns:inkscape="http://www.inkscape.org/namespaces/inkscape"
   xmlns:sodipodi="http://sodipodi.sourceforge.net/DTD/sodipodi-0.dtd"
   xmlns="http://www.w3.org/2000/svg"
   xmlns:svg="http://www.w3.org/2000/svg">
  <defs
     id="defs3" />
  <sodipodi:namedview
     id="namedview3"
     pagecolor="#ffffff"
     bordercolor="#000000"
     borderopacity="0.25"
     inkscape:showpageshadow="2"
     inkscape:pageopacity="0.0"
     inkscape:pagecheckerboard="0"
     inkscape:deskcolor="#d1d1d1" />
  <!-- Icon from TDesign Icons by TDesign - https://github.com/Tencent/tdesign-icons/blob/main/LICENSE -->
  <g
     fill="none"
     id="g3">
    <path
       d="m18 12.5l1.587 2.316l2.693.793l-1.712 2.225l.077 2.807L18 19.7l-2.645.94l.077-2.806l-1.712-2.225l2.693-.793z"
       id="path1" />
    <path
       stroke="currentColor"
       stroke-linecap="square"
       stroke-width="2"
       d="M15 6.5L9 3L3 6.5V20l6-2.5m6-11L21 4v5.5m-6-3v3m-6 8v-14m0 14l1.5.875"
       id="path2" />
    <path
       stroke="currentColor"
       stroke-width="2"
       d="m18 12.5l1.587 2.316l2.693.793l-1.712 2.225l.077 2.807L18 19.7l-2.645.94l.077-2.806l-1.712-2.225l2.693-.793z"
       id="path3" />
  </g>
</svg>
