<?xml version="1.0" encoding="UTF-8" standalone="no"?>
<svg
   width="1em"
   height="1em"
   viewBox="0 0 24 24"
   version="1.1"
   id="svg1"
   sodipodi:docname="tdesign-panorama-vertical-filled.svg"
   xmlns:inkscape="http://www.inkscape.org/namespaces/inkscape"
   xmlns:sodipodi="http://sodipodi.sourceforge.net/DTD/sodipodi-0.dtd"
   xmlns="http://www.w3.org/2000/svg"
   xmlns:svg="http://www.w3.org/2000/svg">
  <defs
     id="defs1" />
  <sodipodi:namedview
     id="namedview1"
     pagecolor="#ffffff"
     bordercolor="#000000"
     borderopacity="0.25"
     inkscape:showpageshadow="2"
     inkscape:pageopacity="0.0"
     inkscape:pagecheckerboard="0"
     inkscape:deskcolor="#d1d1d1" />
  <!-- Icon from TDesign Icons by TDesign - https://github.com/Tencent/tdesign-icons/blob/main/LICENSE -->
  <path
     fill="currentColor"
     d="M3.156 1h17.688l-.386 1.287v.002l-.003.009l-.011.038a22 22 0 0 0-.21.772c-.137.533-.32 1.296-.503 2.213C19.362 7.161 19 9.591 19 12s.363 4.838.73 6.679a42 42 0 0 0 .668 2.827l.046.158l.01.038l.003.01l.387 1.288H3.156l.386-1.287v-.002l.003-.009l.012-.038l.045-.158a42 42 0 0 0 .668-2.827c.368-1.84.73-4.27.73-6.679s-.362-4.838-.73-6.679a42 42 0 0 0-.668-2.827l-.045-.158l-.012-.038l-.002-.01z"
     id="path1" />
</svg>
