<?xml version="1.0" encoding="UTF-8" standalone="no"?>
<svg
   width="1em"
   height="1em"
   viewBox="0 0 24 24"
   version="1.1"
   id="svg2"
   sodipodi:docname="tdesign-moon-rising-filled.svg"
   xmlns:inkscape="http://www.inkscape.org/namespaces/inkscape"
   xmlns:sodipodi="http://sodipodi.sourceforge.net/DTD/sodipodi-0.dtd"
   xmlns="http://www.w3.org/2000/svg"
   xmlns:svg="http://www.w3.org/2000/svg">
  <defs
     id="defs2" />
  <sodipodi:namedview
     id="namedview2"
     pagecolor="#ffffff"
     bordercolor="#000000"
     borderopacity="0.25"
     inkscape:showpageshadow="2"
     inkscape:pageopacity="0.0"
     inkscape:pagecheckerboard="0"
     inkscape:deskcolor="#d1d1d1" />
  <!-- Icon from TDesign Icons by TDesign - https://github.com/Tencent/tdesign-icons/blob/main/LICENSE -->
  <path
     fill="currentColor"
     d="m10.465 3.26l.45-1.675l-1.675.45C3.906 3.463.74 8.946 2.17 14.281c.05.187.163.486.24.684l.113.288l.304.746H8.7l3.3-2.2l3.3 2.2h5.317l.277-.553c.544-1.088.856-2.115.919-3.148l.103-1.711l-1.54.752a7 7 0 0 1-9.841-4.476c-.34-1.267-.37-2.488-.07-3.604"
     id="path1" />
  <path
     fill="currentColor"
     d="M9.303 20H1v-2h7.697L12 15.798L15.303 18H23v2h-8.303L12 18.202z"
     id="path2" />
</svg>
