<?xml version="1.0" encoding="UTF-8" standalone="no"?>
<svg
   width="1em"
   height="1em"
   viewBox="0 0 24 24"
   version="1.1"
   id="svg2"
   sodipodi:docname="tdesign-pyramid-maya.svg"
   xmlns:inkscape="http://www.inkscape.org/namespaces/inkscape"
   xmlns:sodipodi="http://sodipodi.sourceforge.net/DTD/sodipodi-0.dtd"
   xmlns="http://www.w3.org/2000/svg"
   xmlns:svg="http://www.w3.org/2000/svg">
  <defs
     id="defs2" />
  <sodipodi:namedview
     id="namedview2"
     pagecolor="#ffffff"
     bordercolor="#000000"
     borderopacity="0.25"
     inkscape:showpageshadow="2"
     inkscape:pageopacity="0.0"
     inkscape:pagecheckerboard="0"
     inkscape:deskcolor="#d1d1d1" />
  <!-- Icon from TDesign Icons by TDesign - https://github.com/Tencent/tdesign-icons/blob/main/LICENSE -->
  <g
     fill="none"
     id="g2">
    <path
       d="M16 9V3H8v6zM6 12V9h4v13H3v-4h1v-3h1v-3zm12 0V9h-4v13h7v-4h-1v-3h-1v-3z"
       id="path1" />
    <path
       stroke="currentColor"
       stroke-linecap="square"
       stroke-width="2"
       d="M12 5.998h.004v.004H12zM16 3v6m0-6H8m8 0h1M8 3v6m0-6H7m9 6h2v3h1v3h1v3h1v4h-7m2-13h-2M8 9H6v3H5v3H4v3H3v4h7M8 9h2m0 0h4m-4 0v13m0 0h4m0 0V9"
       id="path2" />
  </g>
</svg>
