<?xml version="1.0" encoding="UTF-8" standalone="no"?>
<svg
   width="1em"
   height="1em"
   viewBox="0 0 24 24"
   version="1.1"
   id="svg2"
   sodipodi:docname="tdesign-seal.svg"
   xmlns:inkscape="http://www.inkscape.org/namespaces/inkscape"
   xmlns:sodipodi="http://sodipodi.sourceforge.net/DTD/sodipodi-0.dtd"
   xmlns="http://www.w3.org/2000/svg"
   xmlns:svg="http://www.w3.org/2000/svg">
  <defs
     id="defs2" />
  <sodipodi:namedview
     id="namedview2"
     pagecolor="#ffffff"
     bordercolor="#000000"
     borderopacity="0.25"
     inkscape:showpageshadow="2"
     inkscape:pageopacity="0.0"
     inkscape:pagecheckerboard="0"
     inkscape:deskcolor="#d1d1d1" />
  <!-- Icon from TDesign Icons by TDesign - https://github.com/Tencent/tdesign-icons/blob/main/LICENSE -->
  <g
     fill="none"
     id="g2">
    <path
       d="M16.5 7c0 1.432-.669 3.04-1.711 4.145c-.45.477-.789 1.076-.789 1.731V13a.5.5 0 0 0 .5.5H20a1 1 0 0 1 1 1v4H3v-4a1 1 0 0 1 1-1h5.5a.5.5 0 0 0 .5-.5v-.124c0-.655-.34-1.254-.789-1.73C8.17 10.04 7.5 8.431 7.5 7a4.5 4.5 0 0 1 9 0"
       id="path1" />
    <path
       stroke="currentColor"
       stroke-linecap="square"
       stroke-width="2"
       d="M16.5 7c0 1.432-.669 3.04-1.711 4.145c-.45.477-.789 1.076-.789 1.731V13a.5.5 0 0 0 .5.5H20a1 1 0 0 1 1 1v4H3v-4a1 1 0 0 1 1-1h5.5a.5.5 0 0 0 .5-.5v-.124c0-.655-.34-1.254-.789-1.73C8.17 10.04 7.5 8.431 7.5 7a4.5 4.5 0 0 1 9 0ZM3 21.5h18"
       id="path2" />
  </g>
</svg>
