<?xml version="1.0" encoding="UTF-8" standalone="no"?>
<svg
   width="1em"
   height="1em"
   viewBox="0 0 24 24"
   version="1.1"
   id="svg1"
   sodipodi:docname="tdesign-member-filled.svg"
   xmlns:inkscape="http://www.inkscape.org/namespaces/inkscape"
   xmlns:sodipodi="http://sodipodi.sourceforge.net/DTD/sodipodi-0.dtd"
   xmlns="http://www.w3.org/2000/svg"
   xmlns:svg="http://www.w3.org/2000/svg">
  <defs
     id="defs1" />
  <sodipodi:namedview
     id="namedview1"
     pagecolor="#ffffff"
     bordercolor="#000000"
     borderopacity="0.25"
     inkscape:showpageshadow="2"
     inkscape:pageopacity="0.0"
     inkscape:pagecheckerboard="0"
     inkscape:deskcolor="#d1d1d1" />
  <!-- Icon from TDesign Icons by TDesign - https://github.com/Tencent/tdesign-icons/blob/main/LICENSE -->
  <path
     fill="currentColor"
     d="M3.5 7a5 5 0 1 1 10 0a5 5 0 0 1-10 0M5 14a5 5 0 0 0-5 5v2h17v-2a5 5 0 0 0-5-5zm19 7h-5v-2c0-1.959-.804-3.73-2.1-5H19a5 5 0 0 1 5 5zm-8.5-9a5 5 0 0 1-1.786-.329A6.97 6.97 0 0 0 15.5 7a6.97 6.97 0 0 0-1.787-4.671A5 5 0 1 1 15.5 12"
     id="path1" />
</svg>
