<?xml version="1.0" encoding="UTF-8" standalone="no"?>
<svg
   width="1em"
   height="1em"
   viewBox="0 0 24 24"
   version="1.1"
   id="svg2"
   sodipodi:docname="tdesign-transform.svg"
   xmlns:inkscape="http://www.inkscape.org/namespaces/inkscape"
   xmlns:sodipodi="http://sodipodi.sourceforge.net/DTD/sodipodi-0.dtd"
   xmlns="http://www.w3.org/2000/svg"
   xmlns:svg="http://www.w3.org/2000/svg">
  <defs
     id="defs2" />
  <sodipodi:namedview
     id="namedview2"
     pagecolor="#ffffff"
     bordercolor="#000000"
     borderopacity="0.25"
     inkscape:showpageshadow="2"
     inkscape:pageopacity="0.0"
     inkscape:pagecheckerboard="0"
     inkscape:deskcolor="#d1d1d1" />
  <!-- Icon from TDesign Icons by TDesign - https://github.com/Tencent/tdesign-icons/blob/main/LICENSE -->
  <g
     fill="none"
     id="g2">
    <path
       d="M6 4a2 2 0 1 1-4 0a2 2 0 0 1 4 0m16 0a2 2 0 1 1-4 0a2 2 0 0 1 4 0M6 20a2 2 0 1 1-4 0a2 2 0 0 1 4 0m16 0a2 2 0 1 1-4 0a2 2 0 0 1 4 0"
       id="path1" />
    <path
       stroke="currentColor"
       stroke-width="2"
       d="M18 20H6m12 0a2 2 0 1 0 4 0a2 2 0 0 0-4 0ZM6 20a2 2 0 1 1-2-2m2 2a2 2 0 0 0-2-2M6 4a2 2 0 0 1-2 2m2-2a2 2 0 1 0-2 2m2-2h12M4 6v12M18 4a2 2 0 1 0 4 0a2 2 0 0 0-4 0Zm2 2.286V18"
       id="path2" />
  </g>
</svg>
