<?xml version="1.0" encoding="UTF-8" standalone="no"?>
<svg
   width="1em"
   height="1em"
   viewBox="0 0 24 24"
   version="1.1"
   id="svg2"
   sodipodi:docname="tdesign-gesture-left-slip-filled.svg"
   xmlns:inkscape="http://www.inkscape.org/namespaces/inkscape"
   xmlns:sodipodi="http://sodipodi.sourceforge.net/DTD/sodipodi-0.dtd"
   xmlns="http://www.w3.org/2000/svg"
   xmlns:svg="http://www.w3.org/2000/svg">
  <defs
     id="defs2" />
  <sodipodi:namedview
     id="namedview2"
     pagecolor="#ffffff"
     bordercolor="#000000"
     borderopacity="0.25"
     inkscape:showpageshadow="2"
     inkscape:pageopacity="0.0"
     inkscape:pagecheckerboard="0"
     inkscape:deskcolor="#d1d1d1" />
  <!-- Icon from TDesign Icons by TDesign - https://github.com/Tencent/tdesign-icons/blob/main/LICENSE -->
  <path
     fill="currentColor"
     d="M19.777 6.224C15.855 2.302 9.708 1.961 5.399 5.2h2.1v2H2.513V1.5h2v1.871C9.587-.21 16.65.27 21.191 4.811l.707.706l-1.414 1.414z"
     id="path1" />
  <path
     fill="currentColor"
     d="M12 4.81a2.26 2.26 0 0 0-2.26 2.26v8.064l-2.676-.53a1.88 1.88 0 0 0-1.927.802l-.95 1.425l4.299 5.592a2.76 2.76 0 0 0 2.185 1.076h7.086c1.187 0 2.24-.76 2.615-1.885l1.783-5.35a2.76 2.76 0 0 0-1.226-3.253l-3.625-2.116a2.76 2.76 0 0 0-1.39-.375h-1.653V7.07A2.26 2.26 0 0 0 12 4.81"
     id="path2" />
</svg>
