<?xml version="1.0" encoding="UTF-8" standalone="no"?>
<svg
   width="1em"
   height="1em"
   viewBox="0 0 24 24"
   version="1.1"
   id="svg2"
   sodipodi:docname="tdesign-gesture-left.svg"
   xmlns:inkscape="http://www.inkscape.org/namespaces/inkscape"
   xmlns:sodipodi="http://sodipodi.sourceforge.net/DTD/sodipodi-0.dtd"
   xmlns="http://www.w3.org/2000/svg"
   xmlns:svg="http://www.w3.org/2000/svg">
  <defs
     id="defs2" />
  <sodipodi:namedview
     id="namedview2"
     pagecolor="#ffffff"
     bordercolor="#000000"
     borderopacity="0.25"
     inkscape:showpageshadow="2"
     inkscape:pageopacity="0.0"
     inkscape:pagecheckerboard="0"
     inkscape:deskcolor="#d1d1d1" />
  <!-- Icon from TDesign Icons by TDesign - https://github.com/Tencent/tdesign-icons/blob/main/LICENSE -->
  <g
     fill="none"
     id="g2">
    <path
       d="M9 12.25H4.5a2 2 0 1 1 0-4h10l-.851-3.831a1 1 0 0 1 .421-1.05L15 2.75l5.72 4.4a2 2 0 0 1 .78 1.585v8.073a2 2 0 0 1-1.367 1.898l-6.092 2.03a2 2 0 0 1-2.36-.89l-2.409-4.129A2 2 0 0 1 9 14.709z"
       id="path1" />
    <path
       stroke="currentColor"
       stroke-linecap="square"
       stroke-width="2"
       d="M9 12.25H4.5a2 2 0 1 1 0-4h10l-.851-3.831a1 1 0 0 1 .421-1.05L15 2.75l5.72 4.4a2 2 0 0 1 .78 1.585v8.073a2 2 0 0 1-1.367 1.898l-6.092 2.03a2 2 0 0 1-2.36-.89l-2.409-4.129A2 2 0 0 1 9 14.709z"
       id="path2" />
  </g>
</svg>
