<?xml version="1.0" encoding="UTF-8" standalone="no"?>
<svg
   width="1em"
   height="1em"
   viewBox="0 0 24 24"
   version="1.1"
   id="svg4"
   sodipodi:docname="tdesign-browse.svg"
   xmlns:inkscape="http://www.inkscape.org/namespaces/inkscape"
   xmlns:sodipodi="http://sodipodi.sourceforge.net/DTD/sodipodi-0.dtd"
   xmlns="http://www.w3.org/2000/svg"
   xmlns:svg="http://www.w3.org/2000/svg">
  <defs
     id="defs4" />
  <sodipodi:namedview
     id="namedview4"
     pagecolor="#ffffff"
     bordercolor="#000000"
     borderopacity="0.25"
     inkscape:showpageshadow="2"
     inkscape:pageopacity="0.0"
     inkscape:pagecheckerboard="0"
     inkscape:deskcolor="#d1d1d1" />
  <!-- Icon from TDesign Icons by TDesign - https://github.com/Tencent/tdesign-icons/blob/main/LICENSE -->
  <g
     fill="none"
     id="g4">
    <path
       d="M12 4C6.869 4 2.523 7.36 1.042 12c1.48 4.64 5.827 8 10.958 8c5.13 0 9.477-3.36 10.957-8C21.477 7.36 17.131 4 12 4"
       id="path1" />
    <path
       d="M16 12a4 4 0 1 1-8 0a4 4 0 0 1 8 0"
       id="path2" />
    <path
       stroke="currentColor"
       stroke-linecap="square"
       stroke-width="2"
       d="M12 4C6.869 4 2.523 7.36 1.042 12c1.48 4.64 5.827 8 10.958 8c5.13 0 9.477-3.36 10.957-8C21.477 7.36 17.131 4 12 4Z"
       id="path3" />
    <path
       stroke="currentColor"
       stroke-linecap="square"
       stroke-width="2"
       d="M16 12a4 4 0 1 1-8 0a4 4 0 0 1 8 0Z"
       id="path4" />
  </g>
</svg>
