<?xml version="1.0" encoding="UTF-8" standalone="no"?>
<svg
   width="1em"
   height="1em"
   viewBox="0 0 24 24"
   version="1.1"
   id="svg1"
   sodipodi:docname="tdesign-explore-off.svg"
   xmlns:inkscape="http://www.inkscape.org/namespaces/inkscape"
   xmlns:sodipodi="http://sodipodi.sourceforge.net/DTD/sodipodi-0.dtd"
   xmlns="http://www.w3.org/2000/svg"
   xmlns:svg="http://www.w3.org/2000/svg">
  <defs
     id="defs1" />
  <sodipodi:namedview
     id="namedview1"
     pagecolor="#ffffff"
     bordercolor="#000000"
     borderopacity="0.25"
     inkscape:showpageshadow="2"
     inkscape:pageopacity="0.0"
     inkscape:pagecheckerboard="0"
     inkscape:deskcolor="#d1d1d1" />
  <!-- Icon from TDesign Icons by TDesign - https://github.com/Tencent/tdesign-icons/blob/main/LICENSE -->
  <path
     fill="none"
     stroke="currentColor"
     stroke-linecap="square"
     stroke-width="2"
     d="m13.7 9.07l2.002-.77l-.77 2.002M7.883 2.884A10 10 0 0 1 12 2c5.523 0 10 4.477 10 10c0 1.467-.316 2.86-.884 4.116M4.93 4.93A9.97 9.97 0 0 0 2 12c0 5.523 4.477 10 10 10a9.97 9.97 0 0 0 7.071-2.929m-6.562-2.47l-1.35-3.757L7.4 11.493l2.958-1.138l3.288 3.289zM3 3l18 18"
     id="path1" />
</svg>
