<?xml version="1.0" encoding="UTF-8" standalone="no"?>
<svg
   width="1em"
   height="1em"
   viewBox="0 0 24 24"
   version="1.1"
   id="svg2"
   sodipodi:docname="tdesign-user-talk-filled.svg"
   xmlns:inkscape="http://www.inkscape.org/namespaces/inkscape"
   xmlns:sodipodi="http://sodipodi.sourceforge.net/DTD/sodipodi-0.dtd"
   xmlns="http://www.w3.org/2000/svg"
   xmlns:svg="http://www.w3.org/2000/svg">
  <defs
     id="defs2" />
  <sodipodi:namedview
     id="namedview2"
     pagecolor="#ffffff"
     bordercolor="#000000"
     borderopacity="0.25"
     inkscape:showpageshadow="2"
     inkscape:pageopacity="0.0"
     inkscape:pagecheckerboard="0"
     inkscape:deskcolor="#d1d1d1" />
  <!-- Icon from TDesign Icons by TDesign - https://github.com/Tencent/tdesign-icons/blob/main/LICENSE -->
  <path
     fill="currentColor"
     d="M11.5 2a5.5 5.5 0 1 0 0 11a5.5 5.5 0 0 0 0-11m7.484 10.982l.602.798a7 7 0 0 1-.003 8.441l-.603.797l-1.595-1.206l.603-.797a5 5 0 0 0 .002-6.03l-.602-.798z"
     id="path1" />
  <path
     fill="currentColor"
     d="m16.19 15.091l.604.798a3.5 3.5 0 0 1-.002 4.22l-.603.798l-1.595-1.206l.603-.798a1.5 1.5 0 0 0 0-1.809l-.602-.798zM12.876 14a6.47 6.47 0 0 0-1.376 4c0 1.509.514 2.897 1.376 4H2v-2a6 6 0 0 1 6-6z"
     id="path2" />
</svg>
