<?xml version="1.0" encoding="UTF-8" standalone="no"?>
<svg
   width="1em"
   height="1em"
   viewBox="0 0 24 24"
   version="1.1"
   id="svg1"
   sodipodi:docname="tdesign-dashboard-filled.svg"
   xmlns:inkscape="http://www.inkscape.org/namespaces/inkscape"
   xmlns:sodipodi="http://sodipodi.sourceforge.net/DTD/sodipodi-0.dtd"
   xmlns="http://www.w3.org/2000/svg"
   xmlns:svg="http://www.w3.org/2000/svg">
  <defs
     id="defs1" />
  <sodipodi:namedview
     id="namedview1"
     pagecolor="#ffffff"
     bordercolor="#000000"
     borderopacity="0.25"
     inkscape:showpageshadow="2"
     inkscape:pageopacity="0.0"
     inkscape:pagecheckerboard="0"
     inkscape:deskcolor="#d1d1d1" />
  <!-- Icon from TDesign Icons by TDesign - https://github.com/Tencent/tdesign-icons/blob/main/LICENSE -->
  <path
     fill="currentColor"
     d="M12 3a9 9 0 0 0-4.5 16.796l.865.5l-1.001 1.732l-.866-.5A11 11 0 0 1 1 12C1 5.925 5.925 1 12 1c1.203 0 2.362.193 3.448.552l.95.313l-.627 1.9l-.95-.314A9 9 0 0 0 12 3m8.981 1.414l-5.542 5.542a4 4 0 1 1-1.42-1.41L19.567 3zm1.154 3.188l.313.95C22.807 9.638 23 10.797 23 12c0 4.071-2.212 7.625-5.496 9.526l-.865.5l-1.002-1.73l.865-.501A9 9 0 0 0 21 12a9 9 0 0 0-.45-2.822l-.314-.95z"
     id="path1" />
</svg>
