<?xml version="1.0" encoding="UTF-8" standalone="no"?>
<svg
   width="1em"
   height="1em"
   viewBox="0 0 24 24"
   version="1.1"
   id="svg2"
   sodipodi:docname="tdesign-map-information-2-filled.svg"
   xmlns:inkscape="http://www.inkscape.org/namespaces/inkscape"
   xmlns:sodipodi="http://sodipodi.sourceforge.net/DTD/sodipodi-0.dtd"
   xmlns="http://www.w3.org/2000/svg"
   xmlns:svg="http://www.w3.org/2000/svg">
  <defs
     id="defs2" />
  <sodipodi:namedview
     id="namedview2"
     pagecolor="#ffffff"
     bordercolor="#000000"
     borderopacity="0.25"
     inkscape:showpageshadow="2"
     inkscape:pageopacity="0.0"
     inkscape:pagecheckerboard="0"
     inkscape:deskcolor="#d1d1d1" />
  <!-- Icon from TDesign Icons by TDesign - https://github.com/Tencent/tdesign-icons/blob/main/LICENSE -->
  <path
     fill="currentColor"
     d="m12 14.214l-.016-.011a18 18 0 0 1-1.245-.911c-.4-.33-.937-.808-1.477-1.399C8.218 10.751 7 9.013 7 7a5 5 0 0 1 10 0c0 2.012-1.218 3.752-2.262 4.893a15 15 0 0 1-1.478 1.399c-.398.328-.82.618-1.244.91zM13.5 7a1.5 1.5 0 1 0-3 0a1.5 1.5 0 0 0 3 0"
     id="path1" />
  <path
     fill="currentColor"
     d="M7 10H3.105L1.883 21h20.234l-1.222-11H17v2h2.105l.778 7H4.117l.778-7H7z"
     id="path2" />
</svg>
