<?xml version="1.0" encoding="UTF-8" standalone="no"?>
<svg
   width="1em"
   height="1em"
   viewBox="0 0 24 24"
   version="1.1"
   id="svg1"
   sodipodi:docname="tdesign-bifurcate-filled.svg"
   xmlns:inkscape="http://www.inkscape.org/namespaces/inkscape"
   xmlns:sodipodi="http://sodipodi.sourceforge.net/DTD/sodipodi-0.dtd"
   xmlns="http://www.w3.org/2000/svg"
   xmlns:svg="http://www.w3.org/2000/svg">
  <defs
     id="defs1" />
  <sodipodi:namedview
     id="namedview1"
     pagecolor="#ffffff"
     bordercolor="#000000"
     borderopacity="0.25"
     inkscape:showpageshadow="2"
     inkscape:pageopacity="0.0"
     inkscape:pagecheckerboard="0"
     inkscape:deskcolor="#d1d1d1" />
  <!-- Icon from TDesign Icons by TDesign - https://github.com/Tencent/tdesign-icons/blob/main/LICENSE -->
  <path
     fill="currentColor"
     d="M3 5a3 3 0 1 1 4.086 2.797c.128.667.412 1.506.934 2.256C8.752 11.103 9.958 12 12 12s3.248-.897 3.98-1.947a6 6 0 0 0 .934-2.256a3.001 3.001 0 1 1 2.019.055a8 8 0 0 1-1.312 3.345c-.934 1.34-2.421 2.478-4.621 2.744v2.23a3.001 3.001 0 1 1-2 0v-2.23c-2.2-.266-3.687-1.405-4.62-2.744a8 8 0 0 1-1.313-3.345A3 3 0 0 1 3 5"
     id="path1" />
</svg>
