<?xml version="1.0" encoding="UTF-8" standalone="no"?>
<svg
   width="1em"
   height="1em"
   viewBox="0 0 24 24"
   version="1.1"
   id="svg4"
   sodipodi:docname="tdesign-undertake-hold-up.svg"
   xmlns:inkscape="http://www.inkscape.org/namespaces/inkscape"
   xmlns:sodipodi="http://sodipodi.sourceforge.net/DTD/sodipodi-0.dtd"
   xmlns="http://www.w3.org/2000/svg"
   xmlns:svg="http://www.w3.org/2000/svg">
  <defs
     id="defs4" />
  <sodipodi:namedview
     id="namedview4"
     pagecolor="#ffffff"
     bordercolor="#000000"
     borderopacity="0.25"
     inkscape:showpageshadow="2"
     inkscape:pageopacity="0.0"
     inkscape:pagecheckerboard="0"
     inkscape:deskcolor="#d1d1d1" />
  <!-- Icon from TDesign Icons by TDesign - https://github.com/Tencent/tdesign-icons/blob/main/LICENSE -->
  <g
     fill="none"
     id="g4">
    <path
       d="M9.583 12.25H8.437a2.25 2.25 0 0 0-1.593.656L4.5 15.25v5.25h6.75l6-1.5l3.64-1.552a1.555 1.555 0 0 0-1.109-2.893L13.5 16h-.375q.1 0 .198-.01a1.874 1.874 0 0 0-.198-3.74zm-5.083 3H1v5.25h3.5z"
       id="path1" />
    <path
       d="M8.498 5.003a4.357 4.357 0 0 0 0 6.161l1.085 1.087h3.542a1.875 1.875 0 1 1 0 3.75h.375l4.115-.947l3.89-3.889a4.357 4.357 0 1 0-6.162-6.161l-.341.341l-.343-.342a4.357 4.357 0 0 0-6.161 0"
       id="path2" />
    <path
       stroke="currentColor"
       stroke-linecap="square"
       stroke-width="2"
       d="m9.04 11.707l-.542-.543a4.357 4.357 0 0 1 6.161-6.161l.342.342l.342-.341a4.357 4.357 0 1 1 6.162 6.161L18.25 14.42"
       id="path3" />
    <path
       stroke="currentColor"
       stroke-linecap="square"
       stroke-width="2"
       d="M4.5 20.5h6.75l6-1.5l3.64-1.552a1.555 1.555 0 0 0-1.109-2.893L13.5 16h-.375M4.5 20.5v-5.25m0 5.25H1v-5.25h3.5m0 0l2.344-2.344a2.25 2.25 0 0 1 1.593-.656h4.688a1.875 1.875 0 0 1 0 3.75H11"
       id="path4" />
  </g>
</svg>
