<?xml version="1.0" encoding="UTF-8" standalone="no"?>
<svg
   width="1em"
   height="1em"
   viewBox="0 0 24 24"
   version="1.1"
   id="svg2"
   sodipodi:docname="tdesign-tree-round-dot-vertical.svg"
   xmlns:inkscape="http://www.inkscape.org/namespaces/inkscape"
   xmlns:sodipodi="http://sodipodi.sourceforge.net/DTD/sodipodi-0.dtd"
   xmlns="http://www.w3.org/2000/svg"
   xmlns:svg="http://www.w3.org/2000/svg">
  <defs
     id="defs2" />
  <sodipodi:namedview
     id="namedview2"
     pagecolor="#ffffff"
     bordercolor="#000000"
     borderopacity="0.25"
     inkscape:showpageshadow="2"
     inkscape:pageopacity="0.0"
     inkscape:pagecheckerboard="0"
     inkscape:deskcolor="#d1d1d1" />
  <!-- Icon from TDesign Icons by TDesign - https://github.com/Tencent/tdesign-icons/blob/main/LICENSE -->
  <g
     fill="none"
     id="g2">
    <path
       d="M19 8a3 3 0 1 0 0-6a3 3 0 0 0 0 6m0 14a3 3 0 1 0 0-6a3 3 0 0 0 0 6M5 15a3 3 0 1 0 0-6a3 3 0 0 0 0 6"
       id="path1" />
    <path
       stroke="currentColor"
       stroke-linecap="square"
       stroke-width="2"
       d="M12 12V7a2 2 0 0 1 2-2h2m-4 7v5a2 2 0 0 0 2 2h1.5M12 12H8m8-7a3 3 0 1 1 6 0a3 3 0 0 1-6 0Zm-8 7a3 3 0 1 1-6 0a3 3 0 0 1 6 0Zm11 10a3 3 0 1 0 0-6a3 3 0 0 0 0 6Z"
       id="path2" />
  </g>
</svg>
