<?xml version="1.0" encoding="UTF-8" standalone="no"?>
<svg
   width="1em"
   height="1em"
   viewBox="0 0 24 24"
   version="1.1"
   id="svg1"
   sodipodi:docname="tdesign-hamburger-filled.svg"
   xmlns:inkscape="http://www.inkscape.org/namespaces/inkscape"
   xmlns:sodipodi="http://sodipodi.sourceforge.net/DTD/sodipodi-0.dtd"
   xmlns="http://www.w3.org/2000/svg"
   xmlns:svg="http://www.w3.org/2000/svg">
  <defs
     id="defs1" />
  <sodipodi:namedview
     id="namedview1"
     pagecolor="#ffffff"
     bordercolor="#000000"
     borderopacity="0.25"
     inkscape:showpageshadow="2"
     inkscape:pageopacity="0.0"
     inkscape:pagecheckerboard="0"
     inkscape:deskcolor="#d1d1d1" />
  <!-- Icon from TDesign Icons by TDesign - https://github.com/Tencent/tdesign-icons/blob/main/LICENSE -->
  <path
     fill="currentColor"
     d="M5.706 4.073C7.366 2.7 9.605 2 12 2c2.396 0 4.635.7 6.294 2.073C19.974 5.462 21 7.495 21 10v1H3v-1c0-2.505 1.027-4.538 2.706-5.927M6 11.798l3 2l3-2l3 2l3-2l4.387 2.925l-1.11 1.664L18 14.202l-3 2l-3-2l-3 2l-3-2l-3.277 2.185l-1.11-1.664zM3 17h18v1a5 5 0 0 1-5 5H8a5 5 0 0 1-5-5z"
     id="path1" />
</svg>
