<?xml version="1.0" encoding="UTF-8" standalone="no"?>
<svg
   width="1em"
   height="1em"
   viewBox="0 0 24 24"
   version="1.1"
   id="svg1"
   sodipodi:docname="tdesign-system-3-filled.svg"
   xmlns:inkscape="http://www.inkscape.org/namespaces/inkscape"
   xmlns:sodipodi="http://sodipodi.sourceforge.net/DTD/sodipodi-0.dtd"
   xmlns="http://www.w3.org/2000/svg"
   xmlns:svg="http://www.w3.org/2000/svg">
  <defs
     id="defs1" />
  <sodipodi:namedview
     id="namedview1"
     pagecolor="#ffffff"
     bordercolor="#000000"
     borderopacity="0.25"
     inkscape:showpageshadow="2"
     inkscape:pageopacity="0.0"
     inkscape:pagecheckerboard="0"
     inkscape:deskcolor="#d1d1d1" />
  <!-- Icon from TDesign Icons by TDesign - https://github.com/Tencent/tdesign-icons/blob/main/LICENSE -->
  <path
     fill="currentColor"
     d="M2 2h5.077A3.926 3.926 0 0 1 11 5.923V11H5.923A3.926 3.926 0 0 1 2 7.077zm11 3.923A3.926 3.926 0 0 1 16.923 2H22v5.077A3.926 3.926 0 0 1 18.077 11H13zm-11 11A3.926 3.926 0 0 1 5.923 13H11v5.077A3.926 3.926 0 0 1 7.077 22H2zM13 13h5.077A3.926 3.926 0 0 1 22 16.923V22h-5.077A3.926 3.926 0 0 1 13 18.077z"
     id="path1" />
</svg>
