<?xml version="1.0" encoding="UTF-8" standalone="no"?>
<svg
   width="1em"
   height="1em"
   viewBox="0 0 24 24"
   version="1.1"
   id="svg4"
   sodipodi:docname="tdesign-palace-1.svg"
   xmlns:inkscape="http://www.inkscape.org/namespaces/inkscape"
   xmlns:sodipodi="http://sodipodi.sourceforge.net/DTD/sodipodi-0.dtd"
   xmlns="http://www.w3.org/2000/svg"
   xmlns:svg="http://www.w3.org/2000/svg">
  <defs
     id="defs4" />
  <sodipodi:namedview
     id="namedview4"
     pagecolor="#ffffff"
     bordercolor="#000000"
     borderopacity="0.25"
     inkscape:showpageshadow="2"
     inkscape:pageopacity="0.0"
     inkscape:pagecheckerboard="0"
     inkscape:deskcolor="#d1d1d1" />
  <!-- Icon from TDesign Icons by TDesign - https://github.com/Tencent/tdesign-icons/blob/main/LICENSE -->
  <g
     fill="none"
     id="g4">
    <path
       d="M3 21V10h4V9a5 5 0 0 1 10 0v1h4v11z"
       id="path1" />
    <path
       d="M6 21v-4a2 2 0 1 1 4 0v4zm8 0v-4a2 2 0 1 1 4 0v4z"
       id="path2" />
    <path
       stroke="currentColor"
       stroke-linecap="square"
       stroke-width="2"
       d="M11.998 6.998h.004v.004h-.004zM6 21v-4a2 2 0 1 1 4 0v4zm8 0v-4a2 2 0 1 1 4 0v4z"
       id="path3" />
    <path
       stroke="currentColor"
       stroke-linecap="square"
       stroke-width="2"
       d="M7 10V9a5 5 0 0 1 5-5m-5 6h10M7 10H3v11h18V10h-4m0 0V9a5 5 0 0 0-5-5m0 0l.002-1"
       id="path4" />
  </g>
</svg>
