<?xml version="1.0" encoding="UTF-8" standalone="no"?>
<svg
   width="1em"
   height="1em"
   viewBox="0 0 24 24"
   version="1.1"
   id="svg1"
   sodipodi:docname="tdesign-gesture-wipe-down-filled.svg"
   xmlns:inkscape="http://www.inkscape.org/namespaces/inkscape"
   xmlns:sodipodi="http://sodipodi.sourceforge.net/DTD/sodipodi-0.dtd"
   xmlns="http://www.w3.org/2000/svg"
   xmlns:svg="http://www.w3.org/2000/svg">
  <defs
     id="defs1" />
  <sodipodi:namedview
     id="namedview1"
     pagecolor="#ffffff"
     bordercolor="#000000"
     borderopacity="0.25"
     inkscape:showpageshadow="2"
     inkscape:pageopacity="0.0"
     inkscape:pagecheckerboard="0"
     inkscape:deskcolor="#d1d1d1" />
  <!-- Icon from TDesign Icons by TDesign - https://github.com/Tencent/tdesign-icons/blob/main/LICENSE -->
  <path
     fill="currentColor"
     d="m5.222 3.222l.707-.707l-1.414-1.414l-.707.707c-4.541 4.54-5.02 11.605-1.44 16.678H.499v2h5.7V15.5h-2v2.1C.958 13.29 1.3 7.144 5.222 3.222m2.752 1.416a2.26 2.26 0 0 0-.827 3.087l4.032 6.983l-2.583.88c-.719.246-1.22.9-1.268 1.658l-.11 1.71l6.518 2.692c.792.327 1.69.268 2.431-.16l6.137-3.543a2.76 2.76 0 0 0 1.322-2.94l-1.132-5.526a2.76 2.76 0 0 0-2.687-2.203l-4.197-.02a2.76 2.76 0 0 0-1.392.37l-1.432.826l-1.725-2.987a2.26 2.26 0 0 0-3.087-.827"
     id="path1" />
</svg>
