<?xml version="1.0" encoding="UTF-8" standalone="no"?>
<svg
   width="1.05em"
   height="1em"
   viewBox="0 0 25 24"
   version="1.1"
   id="svg1"
   sodipodi:docname="tdesign-mode-dark-filled.svg"
   xmlns:inkscape="http://www.inkscape.org/namespaces/inkscape"
   xmlns:sodipodi="http://sodipodi.sourceforge.net/DTD/sodipodi-0.dtd"
   xmlns="http://www.w3.org/2000/svg"
   xmlns:svg="http://www.w3.org/2000/svg">
  <defs
     id="defs1" />
  <sodipodi:namedview
     id="namedview1"
     pagecolor="#ffffff"
     bordercolor="#000000"
     borderopacity="0.25"
     inkscape:showpageshadow="2"
     inkscape:pageopacity="0.0"
     inkscape:pagecheckerboard="0"
     inkscape:deskcolor="#d1d1d1" />
  <!-- Icon from TDesign Icons by TDesign - https://github.com/Tencent/tdesign-icons/blob/main/LICENSE -->
  <path
     fill="currentColor"
     d="m16.07 3.344l-1.428.781l1.428.781l.781 1.428l.781-1.428l1.428-.781l-1.428-.781l-.78-1.428zM2.226 12c0-5.523 4.477-10 10-10h1.734l-.868 1.5c-.579 1-.866 2.189-.866 3.5a7 7 0 0 0 8.348 6.87l1.682-.327l-.543 1.626A10 10 0 0 1 12.227 22c-5.523 0-10-4.477-10-10m18.5-5.584l.914 1.67L23.31 9l-1.67.914l-.914 1.67l-.913-1.67L18.143 9l1.67-.914z"
     id="path1" />
</svg>
