<?xml version="1.0" encoding="UTF-8" standalone="no"?>
<svg
   width="1em"
   height="1em"
   viewBox="0 0 24 24"
   version="1.1"
   id="svg1"
   sodipodi:docname="tdesign-setting-1-filled.svg"
   xmlns:inkscape="http://www.inkscape.org/namespaces/inkscape"
   xmlns:sodipodi="http://sodipodi.sourceforge.net/DTD/sodipodi-0.dtd"
   xmlns="http://www.w3.org/2000/svg"
   xmlns:svg="http://www.w3.org/2000/svg">
  <defs
     id="defs1" />
  <sodipodi:namedview
     id="namedview1"
     pagecolor="#ffffff"
     bordercolor="#000000"
     borderopacity="0.25"
     inkscape:showpageshadow="2"
     inkscape:pageopacity="0.0"
     inkscape:pagecheckerboard="0"
     inkscape:deskcolor="#d1d1d1" />
  <!-- Icon from TDesign Icons by TDesign - https://github.com/Tencent/tdesign-icons/blob/main/LICENSE -->
  <path
     fill="currentColor"
     d="M14.82 1H9.18l-.647 3.237a8.5 8.5 0 0 0-1.52.88l-3.13-1.059l-2.819 4.884l2.481 2.18a8.6 8.6 0 0 0 0 1.756l-2.481 2.18l2.82 4.884l3.129-1.058c.472.342.98.638 1.52.879L9.18 23h5.64l.647-3.237a8.5 8.5 0 0 0 1.52-.88l3.13 1.059l2.82-4.884l-2.482-2.18a8.6 8.6 0 0 0 0-1.756l2.481-2.18l-2.82-4.884l-3.128 1.058a8.5 8.5 0 0 0-1.52-.879zM12 16a4 4 0 1 1 0-8a4 4 0 0 1 0 8"
     id="path1" />
</svg>
