<?xml version="1.0" encoding="UTF-8" standalone="no"?>
<svg
   width="1em"
   height="1em"
   viewBox="0 0 24 24"
   version="1.1"
   id="svg2"
   sodipodi:docname="tdesign-peach.svg"
   xmlns:inkscape="http://www.inkscape.org/namespaces/inkscape"
   xmlns:sodipodi="http://sodipodi.sourceforge.net/DTD/sodipodi-0.dtd"
   xmlns="http://www.w3.org/2000/svg"
   xmlns:svg="http://www.w3.org/2000/svg">
  <defs
     id="defs2" />
  <sodipodi:namedview
     id="namedview2"
     pagecolor="#ffffff"
     bordercolor="#000000"
     borderopacity="0.25"
     inkscape:showpageshadow="2"
     inkscape:pageopacity="0.0"
     inkscape:pagecheckerboard="0"
     inkscape:deskcolor="#d1d1d1" />
  <!-- Icon from TDesign Icons by TDesign - https://github.com/Tencent/tdesign-icons/blob/main/LICENSE -->
  <g
     fill="none"
     id="g2">
    <path
       d="M3 12c0 6 6.5 9 9 10q.3-.24.608-.5c1.786-.689 6.585-3.484 7.892-6.5c1.5-3 1-7-2.5-9c-2.224-1.27-4.33-.85-5.496-.526A6.9 6.9 0 0 0 10 5c-2 0-7 1-7 7"
       id="path1" />
    <path
       stroke="currentColor"
       stroke-linecap="square"
       stroke-width="2"
       d="M15 2c-1.588 0-2.327 2.208-2.501 3.383C12.444 2 10 2 10 2m2.608 19.5q-.308.26-.608.5c-2.5-1-9-4-9-10s5-7 7-7c.82 0 1.68.152 2.504.474C13.669 5.149 15.776 4.729 18 6c3.5 2 4 6 2.5 9c-1.307 3.016-6.106 5.811-7.892 6.5Zm0 0c2.35-1.993 4.852-4.9 4.392-9.5c-.323-3.23-1.913-5.217-3.81-6.213"
       id="path2" />
  </g>
</svg>
