<?xml version="1.0" encoding="UTF-8" standalone="no"?>
<svg
   width="1em"
   height="1em"
   viewBox="0 0 24 24"
   version="1.1"
   id="svg2"
   sodipodi:docname="tdesign-tower-clock-filled.svg"
   xmlns:inkscape="http://www.inkscape.org/namespaces/inkscape"
   xmlns:sodipodi="http://sodipodi.sourceforge.net/DTD/sodipodi-0.dtd"
   xmlns="http://www.w3.org/2000/svg"
   xmlns:svg="http://www.w3.org/2000/svg">
  <defs
     id="defs2" />
  <sodipodi:namedview
     id="namedview2"
     pagecolor="#ffffff"
     bordercolor="#000000"
     borderopacity="0.25"
     inkscape:showpageshadow="2"
     inkscape:pageopacity="0.0"
     inkscape:pagecheckerboard="0"
     inkscape:deskcolor="#d1d1d1" />
  <!-- Icon from TDesign Icons by TDesign - https://github.com/Tencent/tdesign-icons/blob/main/LICENSE -->
  <path
     fill="currentColor"
     d="M10.75 11a1.25 1.25 0 1 1 2.5 0a1.25 1.25 0 0 1-2.5 0"
     id="path1" />
  <path
     fill="currentColor"
     d="M17.288 2.914L12 .932L6.713 2.914l.702 1.873l.585-.22V5H5v12h2v6h10v-6h2V5h-3v-.432l.585.22zM11 20v-3h2v3zm1-12.25a3.25 3.25 0 1 1 0 6.5a3.25 3.25 0 0 1 0-6.5"
     id="path2" />
</svg>
