<?xml version="1.0" encoding="UTF-8" standalone="no"?>
<svg
   width="1em"
   height="1em"
   viewBox="0 0 24 24"
   version="1.1"
   id="svg3"
   sodipodi:docname="tdesign-verified.svg"
   xmlns:inkscape="http://www.inkscape.org/namespaces/inkscape"
   xmlns:sodipodi="http://sodipodi.sourceforge.net/DTD/sodipodi-0.dtd"
   xmlns="http://www.w3.org/2000/svg"
   xmlns:svg="http://www.w3.org/2000/svg">
  <defs
     id="defs3" />
  <sodipodi:namedview
     id="namedview3"
     pagecolor="#ffffff"
     bordercolor="#000000"
     borderopacity="0.25"
     inkscape:showpageshadow="2"
     inkscape:pageopacity="0.0"
     inkscape:pagecheckerboard="0"
     inkscape:deskcolor="#d1d1d1" />
  <!-- Icon from TDesign Icons by TDesign - https://github.com/Tencent/tdesign-icons/blob/main/LICENSE -->
  <g
     fill="none"
     id="g3">
    <path
       d="m12 1.5l3.214 2.74l4.21.335l.337 4.21L22.5 12l-2.74 3.214l-.335 4.21l-4.21.337L12 22.5l-3.215-2.74l-4.21-.335l-.336-4.21L1.5 12l2.74-3.215l.335-4.21l4.21-.336z"
       id="path1" />
    <path
       stroke="currentColor"
       stroke-linecap="square"
       stroke-width="2"
       d="m12 1.5l3.214 2.74l4.21.335l.337 4.21L22.5 12l-2.74 3.214l-.335 4.21l-4.21.337L12 22.5l-3.215-2.74l-4.21-.335l-.336-4.21L1.5 12l2.74-3.215l.335-4.21l4.21-.336z"
       id="path2" />
    <path
       stroke="currentColor"
       stroke-linecap="square"
       stroke-width="2"
       d="m8 12l3 3l5.5-5.5"
       id="path3" />
  </g>
</svg>
