<?xml version="1.0" encoding="UTF-8" standalone="no"?>
<svg
   width="1em"
   height="1em"
   viewBox="0 0 24 24"
   version="1.1"
   id="svg1"
   sodipodi:docname="tdesign-uncomfortable-2-filled.svg"
   xmlns:inkscape="http://www.inkscape.org/namespaces/inkscape"
   xmlns:sodipodi="http://sodipodi.sourceforge.net/DTD/sodipodi-0.dtd"
   xmlns="http://www.w3.org/2000/svg"
   xmlns:svg="http://www.w3.org/2000/svg">
  <defs
     id="defs1" />
  <sodipodi:namedview
     id="namedview1"
     pagecolor="#ffffff"
     bordercolor="#000000"
     borderopacity="0.25"
     inkscape:showpageshadow="2"
     inkscape:pageopacity="0.0"
     inkscape:pagecheckerboard="0"
     inkscape:deskcolor="#d1d1d1" />
  <!-- Icon from TDesign Icons by TDesign - https://github.com/Tencent/tdesign-icons/blob/main/LICENSE -->
  <path
     fill="currentColor"
     d="M12 1c6.075 0 11 4.925 11 11s-4.925 11-11 11S1 18.075 1 12S5.925 1 12 1m-1 8.04L7.619 7.138l-.98 1.743l1.82 1.024L6.6 11.3l1.2 1.6l3.2-2.4zm4.54.865l1.822-1.024l-.98-1.743L13 9.04v1.46l3.2 2.4l1.2-1.6zM8.5 16.5a1 1 0 0 1 1.688-.726c.322.306.878.726 1.621.726h.382c.743 0 1.299-.42 1.621-.726a1 1 0 0 1 1.688.726v1h2v-1a3 3 0 0 0-5.065-2.177a1 1 0 0 1-.206.158a.2.2 0 0 1-.044.018h-.37a.2.2 0 0 1-.044-.018a1 1 0 0 1-.207-.158A3 3 0 0 0 6.5 16.5v1h2.001z"
     id="path1" />
</svg>
