<?xml version="1.0" encoding="UTF-8" standalone="no"?>
<svg
   width="1em"
   height="1em"
   viewBox="0 0 24 24"
   version="1.1"
   id="svg2"
   sodipodi:docname="tdesign-delete-time-filled.svg"
   xmlns:inkscape="http://www.inkscape.org/namespaces/inkscape"
   xmlns:sodipodi="http://sodipodi.sourceforge.net/DTD/sodipodi-0.dtd"
   xmlns="http://www.w3.org/2000/svg"
   xmlns:svg="http://www.w3.org/2000/svg">
  <defs
     id="defs2" />
  <sodipodi:namedview
     id="namedview2"
     pagecolor="#ffffff"
     bordercolor="#000000"
     borderopacity="0.25"
     inkscape:showpageshadow="2"
     inkscape:pageopacity="0.0"
     inkscape:pagecheckerboard="0"
     inkscape:deskcolor="#d1d1d1" />
  <!-- Icon from TDesign Icons by TDesign - https://github.com/Tencent/tdesign-icons/blob/main/LICENSE -->
  <path
     fill="currentColor"
     d="M7.5 3h9V1h-9zM22 6V4H2v2h2.029l.5 17h7.97A7.47 7.47 0 0 1 11 18.5V8h2v5.4a7.48 7.48 0 0 1 5.5-2.4q.676.001 1.32.116L19.972 6z"
     id="path1" />
  <path
     fill="currentColor"
     d="M13 18.5a5.5 5.5 0 1 1 11 0a5.5 5.5 0 0 1-11 0m7.914 1L19.5 18.086v-1.834h-2v2.662l2 2z"
     id="path2" />
</svg>
