<?xml version="1.0" encoding="UTF-8" standalone="no"?>
<svg
   width="1em"
   height="1em"
   viewBox="0 0 24 24"
   version="1.1"
   id="svg2"
   sodipodi:docname="tdesign-mode-light.svg"
   xmlns:inkscape="http://www.inkscape.org/namespaces/inkscape"
   xmlns:sodipodi="http://sodipodi.sourceforge.net/DTD/sodipodi-0.dtd"
   xmlns="http://www.w3.org/2000/svg"
   xmlns:svg="http://www.w3.org/2000/svg">
  <defs
     id="defs2" />
  <sodipodi:namedview
     id="namedview2"
     pagecolor="#ffffff"
     bordercolor="#000000"
     borderopacity="0.25"
     inkscape:showpageshadow="2"
     inkscape:pageopacity="0.0"
     inkscape:pagecheckerboard="0"
     inkscape:deskcolor="#d1d1d1" />
  <!-- Icon from TDesign Icons by TDesign - https://github.com/Tencent/tdesign-icons/blob/main/LICENSE -->
  <g
     fill="none"
     id="g2">
    <path
       d="M19 12a7 7 0 1 1-14 0a7 7 0 0 1 14 0"
       id="path1" />
    <path
       stroke="currentColor"
       stroke-linecap="square"
       stroke-width="2"
       d="M19 12a7 7 0 1 1-14 0a7 7 0 0 1 14 0Zm.782 7.776l-.003.003l-.003-.003l.003-.003zm3.221-7.78V12h-.004v-.004zM19.78 4.217l.002.003l-.003.002l-.003-.002zM11.999.996h.004V1h-.004zM4.225 4.22l-.003.002l-.002-.002l.002-.003zm-3.222 7.776V12H.999v-.004zm3.219 7.777l.003.003l-.003.003l-.002-.003zm7.777 3.223h.004V23h-.004z"
       id="path2" />
  </g>
</svg>
