<?xml version="1.0" encoding="UTF-8" standalone="no"?>
<svg
   width="1em"
   height="1em"
   viewBox="0 0 24 24"
   version="1.1"
   id="svg3"
   sodipodi:docname="tdesign-chat-bubble-help.svg"
   xmlns:inkscape="http://www.inkscape.org/namespaces/inkscape"
   xmlns:sodipodi="http://sodipodi.sourceforge.net/DTD/sodipodi-0.dtd"
   xmlns="http://www.w3.org/2000/svg"
   xmlns:svg="http://www.w3.org/2000/svg">
  <defs
     id="defs3" />
  <sodipodi:namedview
     id="namedview3"
     pagecolor="#ffffff"
     bordercolor="#000000"
     borderopacity="0.25"
     inkscape:showpageshadow="2"
     inkscape:pageopacity="0.0"
     inkscape:pagecheckerboard="0"
     inkscape:deskcolor="#d1d1d1" />
  <!-- Icon from TDesign Icons by TDesign - https://github.com/Tencent/tdesign-icons/blob/main/LICENSE -->
  <g
     fill="none"
     id="g3">
    <path
       d="M12 22c5.523 0 10-4.477 10-10S17.523 2 12 2S2 6.477 2 12a9.97 9.97 0 0 0 2.737 6.874L3 22z"
       clip-rule="evenodd"
       id="path1" />
    <path
       stroke="currentColor"
       stroke-linecap="square"
       stroke-width="2"
       d="M12 22c5.523 0 10-4.477 10-10S17.523 2 12 2S2 6.477 2 12a9.97 9.97 0 0 0 2.737 6.874L3 22z"
       clip-rule="evenodd"
       id="path2" />
    <path
       stroke="currentColor"
       stroke-linecap="square"
       stroke-width="2"
       d="M12 14.75v-.25c0-1.105.988-1.959 1.855-2.642A3 3 0 1 0 9.171 8.5M12 17.75h.004v.004H12z"
       id="path3" />
  </g>
</svg>
