<?xml version="1.0" encoding="UTF-8" standalone="no"?>
<svg
   width="1em"
   height="1em"
   viewBox="0 0 24 24"
   version="1.1"
   id="svg3"
   sodipodi:docname="tdesign-angry.svg"
   xmlns:inkscape="http://www.inkscape.org/namespaces/inkscape"
   xmlns:sodipodi="http://sodipodi.sourceforge.net/DTD/sodipodi-0.dtd"
   xmlns="http://www.w3.org/2000/svg"
   xmlns:svg="http://www.w3.org/2000/svg">
  <defs
     id="defs3" />
  <sodipodi:namedview
     id="namedview3"
     pagecolor="#ffffff"
     bordercolor="#000000"
     borderopacity="0.25"
     inkscape:showpageshadow="2"
     inkscape:pageopacity="0.0"
     inkscape:pagecheckerboard="0"
     inkscape:deskcolor="#d1d1d1" />
  <!-- Icon from TDesign Icons by TDesign - https://github.com/Tencent/tdesign-icons/blob/main/LICENSE -->
  <g
     fill="none"
     id="g3">
    <path
       d="M22 12c0 5.523-4.477 10-10 10S2 17.523 2 12S6.477 2 12 2s10 4.477 10 10"
       id="path1" />
    <path
       stroke="currentColor"
       stroke-linecap="square"
       stroke-width="2"
       d="M22 12c0 5.523-4.477 10-10 10S2 17.523 2 12S6.477 2 12 2s10 4.477 10 10Z"
       id="path2" />
    <path
       stroke="currentColor"
       stroke-linecap="square"
       stroke-width="2"
       d="m16.867 9.5l-1.732 1m-6.268 0l-1.732-1m1.4 6.5A4 4 0 0 1 12 14c1.48 0 2.773.804 3.465 2"
       id="path3" />
  </g>
</svg>
