<?xml version="1.0" encoding="UTF-8" standalone="no"?>
<svg
   width="1em"
   height="1em"
   viewBox="0 0 24 24"
   version="1.1"
   id="svg2"
   sodipodi:docname="tdesign-file-attachment-filled.svg"
   xmlns:inkscape="http://www.inkscape.org/namespaces/inkscape"
   xmlns:sodipodi="http://sodipodi.sourceforge.net/DTD/sodipodi-0.dtd"
   xmlns="http://www.w3.org/2000/svg"
   xmlns:svg="http://www.w3.org/2000/svg">
  <defs
     id="defs2" />
  <sodipodi:namedview
     id="namedview2"
     pagecolor="#ffffff"
     bordercolor="#000000"
     borderopacity="0.25"
     inkscape:showpageshadow="2"
     inkscape:pageopacity="0.0"
     inkscape:pagecheckerboard="0"
     inkscape:deskcolor="#d1d1d1" />
  <!-- Icon from TDesign Icons by TDesign - https://github.com/Tencent/tdesign-icons/blob/main/LICENSE -->
  <path
     fill="currentColor"
     d="M3 1h12.414L21 6.586v6.085a4.5 4.5 0 0 0-8 2.829v6c0 .526.09 1.03.256 1.5H3zm11.5 2v4.5H19z"
     id="path1" />
  <path
     fill="currentColor"
     d="M17.5 13a2.5 2.5 0 0 0-2.5 2.5V20a4 4 0 0 0 8 0v-4.5h-2V20a2 2 0 1 1-4 0v-4.5a.5.5 0 0 1 1 0V20h2v-4.5a2.5 2.5 0 0 0-2.5-2.5"
     id="path2" />
</svg>
