<?xml version="1.0" encoding="UTF-8" standalone="no"?>
<svg
   width="1em"
   height="1em"
   viewBox="0 0 24 24"
   version="1.1"
   id="svg1"
   sodipodi:docname="tdesign-castle-6-filled.svg"
   xmlns:inkscape="http://www.inkscape.org/namespaces/inkscape"
   xmlns:sodipodi="http://sodipodi.sourceforge.net/DTD/sodipodi-0.dtd"
   xmlns="http://www.w3.org/2000/svg"
   xmlns:svg="http://www.w3.org/2000/svg">
  <defs
     id="defs1" />
  <sodipodi:namedview
     id="namedview1"
     pagecolor="#ffffff"
     bordercolor="#000000"
     borderopacity="0.25"
     inkscape:showpageshadow="2"
     inkscape:pageopacity="0.0"
     inkscape:pagecheckerboard="0"
     inkscape:deskcolor="#d1d1d1" />
  <!-- Icon from TDesign Icons by TDesign - https://github.com/Tencent/tdesign-icons/blob/main/LICENSE -->
  <path
     fill="currentColor"
     d="M6 2h12v2h-1v4h5v4.836A4.64 4.64 0 0 0 19.333 12a4.66 4.66 0 0 0-3.666 1.78A4.66 4.66 0 0 0 12 12a4.66 4.66 0 0 0-3.667 1.78A4.66 4.66 0 0 0 4.667 12c-.992 0-1.911.31-2.667.836V8h5V4H6zm5.02 6h2.002V6.004H11.02zm8.313 6A2.667 2.667 0 0 1 22 16.667V22h-5.333v-5.333A2.667 2.667 0 0 1 19.333 14m-4.666 2.667V22H9.333v-5.333a2.667 2.667 0 1 1 5.334 0m-7.334 0V22H2v-5.333a2.667 2.667 0 1 1 5.333 0"
     id="path1" />
</svg>
