<?xml version="1.0" encoding="UTF-8" standalone="no"?>
<svg
   width="1em"
   height="1em"
   viewBox="0 0 24 24"
   version="1.1"
   id="svg3"
   sodipodi:docname="tdesign-compass-1.svg"
   xmlns:inkscape="http://www.inkscape.org/namespaces/inkscape"
   xmlns:sodipodi="http://sodipodi.sourceforge.net/DTD/sodipodi-0.dtd"
   xmlns="http://www.w3.org/2000/svg"
   xmlns:svg="http://www.w3.org/2000/svg">
  <defs
     id="defs3" />
  <sodipodi:namedview
     id="namedview3"
     pagecolor="#ffffff"
     bordercolor="#000000"
     borderopacity="0.25"
     inkscape:showpageshadow="2"
     inkscape:pageopacity="0.0"
     inkscape:pagecheckerboard="0"
     inkscape:deskcolor="#d1d1d1" />
  <!-- Icon from TDesign Icons by TDesign - https://github.com/Tencent/tdesign-icons/blob/main/LICENSE -->
  <g
     fill="none"
     id="g3">
    <path
       d="M12 22c5.523 0 10-4.477 10-10S17.523 2 12 2S2 6.477 2 12s4.477 10 10 10"
       id="path1" />
    <path
       d="M14.1 9.9L12 2L9.9 9.9L2 12l7.9 2.1L12 22l2.1-7.9L22 12z"
       id="path2" />
    <path
       stroke="currentColor"
       stroke-width="2"
       d="M22 12c0 5.523-4.477 10-10 10m10-10c0-5.523-4.477-10-10-10m10 10l-7.9-2.1L12 2m10 10l-7.9 2.1L12 22m0 0C6.477 22 2 17.523 2 12m10 10l-2.1-7.9L2 12m0 0C2 6.477 6.477 2 12 2M2 12l7.9-2.1L12 2m1.111 10a1.111 1.111 0 1 1-2.222 0a1.111 1.111 0 0 1 2.222 0Z"
       id="path3" />
  </g>
</svg>
