<?xml version="1.0" encoding="UTF-8" standalone="no"?>
<svg
   width="1em"
   height="1em"
   viewBox="0 0 24 24"
   version="1.1"
   id="svg2"
   sodipodi:docname="tdesign-church-filled.svg"
   xmlns:inkscape="http://www.inkscape.org/namespaces/inkscape"
   xmlns:sodipodi="http://sodipodi.sourceforge.net/DTD/sodipodi-0.dtd"
   xmlns="http://www.w3.org/2000/svg"
   xmlns:svg="http://www.w3.org/2000/svg">
  <defs
     id="defs2" />
  <sodipodi:namedview
     id="namedview2"
     pagecolor="#ffffff"
     bordercolor="#000000"
     borderopacity="0.25"
     inkscape:showpageshadow="2"
     inkscape:pageopacity="0.0"
     inkscape:pagecheckerboard="0"
     inkscape:deskcolor="#d1d1d1" />
  <!-- Icon from TDesign Icons by TDesign - https://github.com/Tencent/tdesign-icons/blob/main/LICENSE -->
  <path
     fill="currentColor"
     d="M11 1v2H9v2h2v.98l-5 3.5V12H2v10h6.5v-4.5a3.5 3.5 0 1 1 7 0V22H22V12h-4V9.48l-5-3.5V5h2V3h-2V1zM6 20H4v-6h2zm12 0v-6h2v6z"
     id="path1" />
  <path
     fill="currentColor"
     d="M12 16a1.5 1.5 0 0 0-1.5 1.5V22h3v-4.5A1.5 1.5 0 0 0 12 16"
     id="path2" />
</svg>
