<?xml version="1.0" encoding="UTF-8" standalone="no"?>
<svg
   width="1em"
   height="1em"
   viewBox="0 0 24 24"
   version="1.1"
   id="svg2"
   sodipodi:docname="tdesign-vehicle.svg"
   xmlns:inkscape="http://www.inkscape.org/namespaces/inkscape"
   xmlns:sodipodi="http://sodipodi.sourceforge.net/DTD/sodipodi-0.dtd"
   xmlns="http://www.w3.org/2000/svg"
   xmlns:svg="http://www.w3.org/2000/svg">
  <defs
     id="defs2" />
  <sodipodi:namedview
     id="namedview2"
     pagecolor="#ffffff"
     bordercolor="#000000"
     borderopacity="0.25"
     inkscape:showpageshadow="2"
     inkscape:pageopacity="0.0"
     inkscape:pagecheckerboard="0"
     inkscape:deskcolor="#d1d1d1" />
  <!-- Icon from TDesign Icons by TDesign - https://github.com/Tencent/tdesign-icons/blob/main/LICENSE -->
  <g
     fill="none"
     id="g2">
    <path
       d="M10 19h13v-5l-.4-1H10.4l-.4 1z"
       id="path1" />
    <path
       stroke="currentColor"
       stroke-linecap="square"
       stroke-width="2"
       d="M23 19H10m13 0v-5l-2-5h-9l-2.05 4.975L10 19m13 0v1.5M10 19v1.5M21.85 13h-10.7M20 16.004h.004V16H20zm-7 0h.004V16H13zM1 13v5a1 1 0 0 0 1 1h5m-6-6V5a1 1 0 0 1 1-1h11a1 1 0 0 1 1 1v1M1 13h6m-2.5 6.5l-1 1m.5-4.496h.004V16H4z"
       id="path2" />
  </g>
</svg>
