<?xml version="1.0" encoding="UTF-8" standalone="no"?>
<svg
   width="1em"
   height="1em"
   viewBox="0 0 24 24"
   version="1.1"
   id="svg4"
   sodipodi:docname="tdesign-microphone-2.svg"
   xmlns:inkscape="http://www.inkscape.org/namespaces/inkscape"
   xmlns:sodipodi="http://sodipodi.sourceforge.net/DTD/sodipodi-0.dtd"
   xmlns="http://www.w3.org/2000/svg"
   xmlns:svg="http://www.w3.org/2000/svg">
  <defs
     id="defs4" />
  <sodipodi:namedview
     id="namedview4"
     pagecolor="#ffffff"
     bordercolor="#000000"
     borderopacity="0.25"
     inkscape:showpageshadow="2"
     inkscape:pageopacity="0.0"
     inkscape:pagecheckerboard="0"
     inkscape:deskcolor="#d1d1d1" />
  <!-- Icon from TDesign Icons by TDesign - https://github.com/Tencent/tdesign-icons/blob/main/LICENSE -->
  <g
     fill="none"
     id="g4">
    <path
       d="M22 8a6 6 0 1 1-12 0a6 6 0 0 1 12 0"
       id="path1" />
    <path
       d="M10 8a6 6 0 0 0 6 6l-9.5 7.5s-1.042.957-3-1s-1-3-1-3z"
       id="path2" />
    <path
       stroke="currentColor"
       stroke-width="2"
       d="M16 14a6 6 0 0 1-6-6m6 6l-9.5 7.5s-1.042.957-3-1s-1-3-1-3L10 8m6 6a6 6 0 1 0-6-6"
       id="path3" />
    <path
       stroke="currentColor"
       stroke-linecap="square"
       stroke-width="2"
       d="m9 15l-1 1"
       id="path4" />
  </g>
</svg>
