<?xml version="1.0" encoding="UTF-8" standalone="no"?>
<svg
   width="1em"
   height="1em"
   viewBox="0 0 24 24"
   version="1.1"
   id="svg2"
   sodipodi:docname="tdesign-brightness.svg"
   xmlns:inkscape="http://www.inkscape.org/namespaces/inkscape"
   xmlns:sodipodi="http://sodipodi.sourceforge.net/DTD/sodipodi-0.dtd"
   xmlns="http://www.w3.org/2000/svg"
   xmlns:svg="http://www.w3.org/2000/svg">
  <defs
     id="defs2" />
  <sodipodi:namedview
     id="namedview2"
     pagecolor="#ffffff"
     bordercolor="#000000"
     borderopacity="0.25"
     inkscape:showpageshadow="2"
     inkscape:pageopacity="0.0"
     inkscape:pagecheckerboard="0"
     inkscape:deskcolor="#d1d1d1" />
  <!-- Icon from TDesign Icons by TDesign - https://github.com/Tencent/tdesign-icons/blob/main/LICENSE -->
  <g
     fill="none"
     id="g2">
    <path
       d="M4.575 8.925L1.5 12l3.075 3.075v4.35h4.35L12 22.5l3.075-3.075h4.35v-4.35L22.5 12l-3.075-3.075v-4.35h-4.35L12 1.5L8.925 4.575h-4.35z"
       id="path1" />
    <path
       id="circle1"
       d="m 17,12 a 5,5 0 0 1 -5,5 5,5 0 0 1 -5,-5 5,5 0 0 1 5,-5 5,5 0 0 1 5,5 z" />
    <path
       stroke="currentColor"
       stroke-width="2"
       d="M4.575 8.925L1.5 12l3.075 3.075v4.35h4.35L12 22.5l3.075-3.075h4.35v-4.35L22.5 12l-3.075-3.075v-4.35h-4.35L12 1.5L8.925 4.575h-4.35z"
       id="path2" />
    <path
       id="circle2"
       style="stroke:currentColor;stroke-width:2"
       d="m 17,12 a 5,5 0 0 1 -5,5 5,5 0 0 1 -5,-5 5,5 0 0 1 5,-5 5,5 0 0 1 5,5 z" />
  </g>
</svg>
