<?xml version="1.0" encoding="UTF-8" standalone="no"?>
<svg
   width="1em"
   height="1em"
   viewBox="0 0 24 24"
   version="1.1"
   id="svg3"
   sodipodi:docname="tdesign-table-split.svg"
   xmlns:inkscape="http://www.inkscape.org/namespaces/inkscape"
   xmlns:sodipodi="http://sodipodi.sourceforge.net/DTD/sodipodi-0.dtd"
   xmlns="http://www.w3.org/2000/svg"
   xmlns:svg="http://www.w3.org/2000/svg">
  <defs
     id="defs3" />
  <sodipodi:namedview
     id="namedview3"
     pagecolor="#ffffff"
     bordercolor="#000000"
     borderopacity="0.25"
     inkscape:showpageshadow="2"
     inkscape:pageopacity="0.0"
     inkscape:pagecheckerboard="0"
     inkscape:deskcolor="#d1d1d1" />
  <!-- Icon from TDesign Icons by TDesign - https://github.com/Tencent/tdesign-icons/blob/main/LICENSE -->
  <g
     fill="none"
     id="g3">
    <path
       d="M21 7H3v14h18zM3 3h18v4H3z"
       id="path1" />
    <path
       stroke="currentColor"
       stroke-linecap="square"
       stroke-width="2"
       d="M21 7h-9m9 0v14H3V7m18 0V3H3v4m18 0H3m9 0H3m9 0V3"
       id="path2" />
    <path
       stroke="currentColor"
       stroke-width="2"
       d="M5.998 13.998h.004v.004h-.004zm3 0h.004v.004h-.004zm3-3h.004v.004h-.004zm0 3h.004v.004h-.004zm3 0h.004v.004h-.004zm3 0h.004v.004h-.004zm-6 3h.004v.004h-.004z"
       id="path3" />
  </g>
</svg>
