<?xml version="1.0" encoding="UTF-8" standalone="no"?>
<svg
   width="1em"
   height="1em"
   viewBox="0 0 24 24"
   version="1.1"
   id="svg4"
   sodipodi:docname="tdesign-shop-1.svg"
   xmlns:inkscape="http://www.inkscape.org/namespaces/inkscape"
   xmlns:sodipodi="http://sodipodi.sourceforge.net/DTD/sodipodi-0.dtd"
   xmlns="http://www.w3.org/2000/svg"
   xmlns:svg="http://www.w3.org/2000/svg">
  <defs
     id="defs4" />
  <sodipodi:namedview
     id="namedview4"
     pagecolor="#ffffff"
     bordercolor="#000000"
     borderopacity="0.25"
     inkscape:showpageshadow="2"
     inkscape:pageopacity="0.0"
     inkscape:pagecheckerboard="0"
     inkscape:deskcolor="#d1d1d1" />
  <!-- Icon from TDesign Icons by TDesign - https://github.com/Tencent/tdesign-icons/blob/main/LICENSE -->
  <g
     fill="none"
     id="g4">
    <path
       d="M21 3H3v18h18z"
       id="path1" />
    <path
       d="M9 6V3H3v3a3 3 0 0 0 6 0m0 0V3h6v3a3 3 0 1 1-6 0m6 0V3h6v3a3 3 0 1 1-6 0m0 8H9v7h6z"
       id="path2" />
    <path
       stroke="currentColor"
       stroke-width="2"
       d="M9 3v3m0-3H3v3a3 3 0 0 0 6 0m0-3h6M9 6a3 3 0 1 0 6 0m0-3v3m0-3h6v3a3 3 0 1 1-6 0m-6 8h6v7H9z"
       id="path3" />
    <path
       stroke="currentColor"
       stroke-width="2"
       d="M21 3H3v18h18z"
       id="path4" />
  </g>
</svg>
