<?xml version="1.0" encoding="UTF-8" standalone="no"?>
<svg
   width="1em"
   height="1em"
   viewBox="0 0 24 24"
   version="1.1"
   id="svg3"
   sodipodi:docname="tdesign-lemon.svg"
   xmlns:inkscape="http://www.inkscape.org/namespaces/inkscape"
   xmlns:sodipodi="http://sodipodi.sourceforge.net/DTD/sodipodi-0.dtd"
   xmlns="http://www.w3.org/2000/svg"
   xmlns:svg="http://www.w3.org/2000/svg">
  <defs
     id="defs3" />
  <sodipodi:namedview
     id="namedview3"
     pagecolor="#ffffff"
     bordercolor="#000000"
     borderopacity="0.25"
     inkscape:showpageshadow="2"
     inkscape:pageopacity="0.0"
     inkscape:pagecheckerboard="0"
     inkscape:deskcolor="#d1d1d1" />
  <!-- Icon from TDesign Icons by TDesign - https://github.com/Tencent/tdesign-icons/blob/main/LICENSE -->
  <g
     fill="none"
     id="g3">
    <path
       d="M20 6.5c2.024 3.033 2.323 7.177-2 11.5s-8.467 4.024-11.5 2l-1.9.51a.95.95 0 0 1-1.1-1.087L4 17.5C1.967 14.466 1.67 10.33 6 6s8.466-4.033 11.5-2l1.923-.5a.95.95 0 0 1 1.086 1.098z"
       id="path1" />
    <path
       stroke="currentColor"
       stroke-linecap="square"
       stroke-width="2"
       d="M20 6.5c2.024 3.033 2.323 7.177-2 11.5s-8.467 4.024-11.5 2l-1.9.51a.95.95 0 0 1-1.1-1.087L4 17.5C1.967 14.466 1.67 10.33 6 6s8.466-4.033 11.5-2l1.923-.5a.95.95 0 0 1 1.086 1.098z"
       id="path2" />
    <path
       stroke="currentColor"
       stroke-linecap="square"
       stroke-width="2"
       d="m8.584 12.83l.003-.003l.003.003l-.003.003zm.707-3.535l.003-.003l.003.003l-.003.003zm3.536-.707l.002-.003l.003.003l-.003.002z"
       id="path3" />
  </g>
</svg>
