<?xml version="1.0" encoding="UTF-8" standalone="no"?>
<svg
   width="1em"
   height="1em"
   viewBox="0 0 24 24"
   version="1.1"
   id="svg3"
   sodipodi:docname="tdesign-tape.svg"
   xmlns:inkscape="http://www.inkscape.org/namespaces/inkscape"
   xmlns:sodipodi="http://sodipodi.sourceforge.net/DTD/sodipodi-0.dtd"
   xmlns="http://www.w3.org/2000/svg"
   xmlns:svg="http://www.w3.org/2000/svg">
  <sodipodi:namedview
     id="namedview3"
     pagecolor="#ffffff"
     bordercolor="#000000"
     borderopacity="0.25"
     inkscape:showpageshadow="2"
     inkscape:pageopacity="0.0"
     inkscape:pagecheckerboard="0"
     inkscape:deskcolor="#d1d1d1" />
  <!-- Icon from TDesign Icons by TDesign - https://github.com/Tencent/tdesign-icons/blob/main/LICENSE -->
  <defs
     id="defs1">
    <path
       id="SVGroernfVu"
       d="M22 4v16H2V4z" />
  </defs>
  <g
     fill="none"
     id="g3">
    <path
       id="use1"
       d="M 22,4 V 20 H 2 V 4 Z" />
    <path
       d="M17 7H7L5 4h14zm-7 6a2 2 0 1 1-4 0a2 2 0 0 1 4 0m8 0a2 2 0 1 1-4 0a2 2 0 0 1 4 0"
       id="path1" />
    <g
       stroke="currentColor"
       stroke-linecap="square"
       stroke-width="2"
       id="g2">
      <path
         id="use2"
         d="M 22,4 V 20 H 2 V 4 Z" />
      <path
         d="M17 7H7L5 4h14z"
         id="path2" />
    </g>
    <path
       stroke="currentColor"
       stroke-linecap="square"
       stroke-width="2"
       d="M10 13a2 2 0 1 1-4 0a2 2 0 0 1 4 0Zm8 0a2 2 0 1 1-4 0a2 2 0 0 1 4 0Z"
       id="path3" />
  </g>
</svg>
