<?xml version="1.0" encoding="UTF-8" standalone="no"?>
<svg
   width="1em"
   height="1em"
   viewBox="0 0 24 24"
   version="1.1"
   id="svg1"
   sodipodi:docname="tdesign-lighthouse-2-filled.svg"
   xmlns:inkscape="http://www.inkscape.org/namespaces/inkscape"
   xmlns:sodipodi="http://sodipodi.sourceforge.net/DTD/sodipodi-0.dtd"
   xmlns="http://www.w3.org/2000/svg"
   xmlns:svg="http://www.w3.org/2000/svg">
  <defs
     id="defs1" />
  <sodipodi:namedview
     id="namedview1"
     pagecolor="#ffffff"
     bordercolor="#000000"
     borderopacity="0.25"
     inkscape:showpageshadow="2"
     inkscape:pageopacity="0.0"
     inkscape:pagecheckerboard="0"
     inkscape:deskcolor="#d1d1d1" />
  <!-- Icon from TDesign Icons by TDesign - https://github.com/Tencent/tdesign-icons/blob/main/LICENSE -->
  <path
     fill="currentColor"
     d="M9 2.002V1H7v4H6v2h1v3c0 .94-.075 1.963-.196 3H5v2h1.522a60 60 0 0 1-.501 2.669a71 71 0 0 1-.9 3.758q-.155.562-.317 1.121l-.13.452h5.606l1-4h1.439l1 4h5.606l-.13-.452a56 56 0 0 1-.54-1.968a71 71 0 0 1-.677-2.911A60 60 0 0 1 17.477 15H19v-2h-1.805A26 26 0 0 1 17 10V7h1V5h-1V1h-2v1.002zM9 5v-.998h6V5zm4.004 3.998v2.004H11V8.998z"
     id="path1" />
</svg>
