<?xml version="1.0" encoding="UTF-8" standalone="no"?>
<svg
   width="1em"
   height="1em"
   viewBox="0 0 24 24"
   version="1.1"
   id="svg1"
   sodipodi:docname="tdesign-attic-1-filled.svg"
   xmlns:inkscape="http://www.inkscape.org/namespaces/inkscape"
   xmlns:sodipodi="http://sodipodi.sourceforge.net/DTD/sodipodi-0.dtd"
   xmlns="http://www.w3.org/2000/svg"
   xmlns:svg="http://www.w3.org/2000/svg">
  <defs
     id="defs1" />
  <sodipodi:namedview
     id="namedview1"
     pagecolor="#ffffff"
     bordercolor="#000000"
     borderopacity="0.25"
     inkscape:showpageshadow="2"
     inkscape:pageopacity="0.0"
     inkscape:pagecheckerboard="0"
     inkscape:deskcolor="#d1d1d1" />
  <!-- Icon from TDesign Icons by TDesign - https://github.com/Tencent/tdesign-icons/blob/main/LICENSE -->
  <path
     fill="currentColor"
     d="m12 .201l-.831 1.243h-.001l-.005.007l-.02.03l-.087.126a28 28 0 0 1-1.6 2.04C8.383 4.887 6.97 6.286 5.498 7.133c-.466.269-.956.367-1.5.367H2.997v2h2L5 17H2.998v2h1v3h2v-3h5v3h2v-3h5v3h2v-3h1v-2h-2V9.5h2v-2h-1c-.545 0-1.035-.098-1.5-.367c-1.471-.848-2.884-2.247-3.955-3.486a28 28 0 0 1-1.6-2.04l-.086-.125l-.021-.03l-.005-.008zM9 14a3 3 0 1 1 6 0v3h-2v-3a1 1 0 1 0-2 0v3H9z"
     id="path1" />
</svg>
