<?xml version="1.0" encoding="UTF-8" standalone="no"?>
<svg
   width="1em"
   height="1em"
   viewBox="0 0 24 24"
   version="1.1"
   id="svg5"
   sodipodi:docname="tdesign-map-information-1.svg"
   xmlns:inkscape="http://www.inkscape.org/namespaces/inkscape"
   xmlns:sodipodi="http://sodipodi.sourceforge.net/DTD/sodipodi-0.dtd"
   xmlns="http://www.w3.org/2000/svg"
   xmlns:svg="http://www.w3.org/2000/svg">
  <defs
     id="defs5" />
  <sodipodi:namedview
     id="namedview5"
     pagecolor="#ffffff"
     bordercolor="#000000"
     borderopacity="0.25"
     inkscape:showpageshadow="2"
     inkscape:pageopacity="0.0"
     inkscape:pagecheckerboard="0"
     inkscape:deskcolor="#d1d1d1" />
  <!-- Icon from TDesign Icons by TDesign - https://github.com/Tencent/tdesign-icons/blob/main/LICENSE -->
  <g
     fill="none"
     id="g5">
    <path
       d="M12 13s4-2.75 4-6a4 4 0 0 0-8 0c0 3.25 4 6 4 6"
       id="path1" />
    <path
       d="M12.75 7a.75.75 0 1 1-1.5 0a.75.75 0 0 1 1.5 0"
       id="path2" />
    <g
       stroke="currentColor"
       stroke-linecap="square"
       stroke-width="2"
       id="g4">
      <path
         d="M12 13s4-2.75 4-6a4 4 0 0 0-8 0c0 3.25 4 6 4 6Z"
         id="path3" />
      <path
         d="M12.75 7a.75.75 0 1 1-1.5 0a.75.75 0 0 1 1.5 0Z"
         id="path4" />
    </g>
    <path
       stroke="currentColor"
       stroke-linecap="square"
       stroke-width="2"
       d="M18 11h3v6.5L15 21l-6-3.505l-6 2.502V11h3"
       id="path5" />
  </g>
</svg>
