<?xml version="1.0" encoding="UTF-8" standalone="no"?>
<svg
   width="1em"
   height="1em"
   viewBox="0 0 24 24"
   version="1.1"
   id="svg3"
   sodipodi:docname="tdesign-logo-apple.svg"
   xmlns:inkscape="http://www.inkscape.org/namespaces/inkscape"
   xmlns:sodipodi="http://sodipodi.sourceforge.net/DTD/sodipodi-0.dtd"
   xmlns="http://www.w3.org/2000/svg"
   xmlns:svg="http://www.w3.org/2000/svg">
  <sodipodi:namedview
     id="namedview3"
     pagecolor="#ffffff"
     bordercolor="#000000"
     borderopacity="0.25"
     inkscape:showpageshadow="2"
     inkscape:pageopacity="0.0"
     inkscape:pagecheckerboard="0"
     inkscape:deskcolor="#d1d1d1" />
  <!-- Icon from TDesign Icons by TDesign - https://github.com/Tencent/tdesign-icons/blob/main/LICENSE -->
  <defs
     id="defs1">
    <path
       id="SVGARWgicsj"
       d="M12.863 3.988h.05a2.5 2.5 0 0 0 2.5-2.5v-.05h-.05a2.5 2.5 0 0 0-2.5 2.5z" />
  </defs>
  <g
     fill="none"
     id="g3">
    <path
       id="use1"
       d="m 12.863,3.988 h 0.05 a 2.5,2.5 0 0 0 2.5,-2.5 v -0.05 h -0.05 a 2.5,2.5 0 0 0 -2.5,2.5 z" />
    <path
       d="M20.287 8.1c-.937-1.309-2.46-1.986-4.046-2.09c-1.107-.08-2.11.284-2.916.587c-.416.156-.871.372-1.324.372c-.474 0-.944-.215-1.38-.38c-.77-.291-1.556-.56-2.39-.53c-1.829.065-3.497 1.07-4.444 2.644c-2.335 3.87-.151 9.684 2.947 12.456c.573.513 1.211.86 1.938.84c1.267-.055 2.337-.868 3.627-.868s2.369.861 3.65.833c2.586-.042 4.196-3.61 4.9-5.623c-1.743-.708-2.932-2.323-2.954-4.235c-.02-1.668.987-3.172 2.392-4.006"
       clip-rule="evenodd"
       id="path1" />
    <g
       stroke="currentColor"
       stroke-width="2"
       id="g2">
      <path
         d="M20.287 8.1c-.937-1.309-2.46-1.986-4.046-2.09c-1.107-.08-2.11.284-2.916.587c-.416.156-.871.372-1.324.372c-.474 0-.944-.214-1.38-.38c-.77-.291-1.556-.56-2.39-.53c-1.829.065-3.497 1.07-4.444 2.644c-2.335 3.87-.151 9.684 2.947 12.456c.573.513 1.211.86 1.938.84c1.267-.055 2.337-.868 3.627-.868s2.369.861 3.65.833c2.586-.042 4.196-3.61 4.9-5.623c-1.743-.708-2.932-2.323-2.954-4.235c-.02-1.668.987-3.172 2.392-4.006Z"
         clip-rule="evenodd"
         id="path2" />
      <path
         id="use2"
         d="m 12.863,3.988 h 0.05 a 2.5,2.5 0 0 0 2.5,-2.5 v -0.05 h -0.05 a 2.5,2.5 0 0 0 -2.5,2.5 z" />
    </g>
  </g>
</svg>
