<?xml version="1.0" encoding="UTF-8" standalone="no"?>
<svg
   width="1em"
   height="1em"
   viewBox="0 0 24 24"
   version="1.1"
   id="svg4"
   sodipodi:docname="tdesign-logo-youtube.svg"
   xmlns:inkscape="http://www.inkscape.org/namespaces/inkscape"
   xmlns:sodipodi="http://sodipodi.sourceforge.net/DTD/sodipodi-0.dtd"
   xmlns="http://www.w3.org/2000/svg"
   xmlns:svg="http://www.w3.org/2000/svg">
  <defs
     id="defs4" />
  <sodipodi:namedview
     id="namedview4"
     pagecolor="#ffffff"
     bordercolor="#000000"
     borderopacity="0.25"
     inkscape:showpageshadow="2"
     inkscape:pageopacity="0.0"
     inkscape:pagecheckerboard="0"
     inkscape:deskcolor="#d1d1d1" />
  <!-- Icon from TDesign Icons by TDesign - https://github.com/Tencent/tdesign-icons/blob/main/LICENSE -->
  <g
     fill="none"
     id="g4">
    <path
       d="M1 11.5c0-3.771 0-5.657 1.172-6.828S5.229 3.5 9 3.5h6c3.771 0 5.657 0 6.828 1.172S23 7.729 23 11.5v1c0 3.771 0 5.657-1.172 6.828S18.771 20.5 15 20.5H9c-3.771 0-5.657 0-6.828-1.172S1 16.271 1 12.5z"
       id="path1" />
    <path
       d="m9.8 15.302l5.701-3.301l-5.7-3.302z"
       id="path2" />
    <path
       stroke="currentColor"
       stroke-width="2"
       d="M1 11.5c0-3.771 0-5.657 1.172-6.828S5.229 3.5 9 3.5h6c3.771 0 5.657 0 6.828 1.172S23 7.729 23 11.5v1c0 3.771 0 5.657-1.172 6.828S18.771 20.5 15 20.5H9c-3.771 0-5.657 0-6.828-1.172S1 16.271 1 12.5z"
       id="path3" />
    <path
       stroke="currentColor"
       stroke-width="2"
       d="m9.8 15.302l5.701-3.301l-5.7-3.302z"
       id="path4" />
  </g>
</svg>
