<?xml version="1.0" encoding="UTF-8" standalone="no"?>
<svg
   width="1em"
   height="1em"
   viewBox="0 0 24 24"
   version="1.1"
   id="svg2"
   sodipodi:docname="tdesign-location-setting.svg"
   xmlns:inkscape="http://www.inkscape.org/namespaces/inkscape"
   xmlns:sodipodi="http://sodipodi.sourceforge.net/DTD/sodipodi-0.dtd"
   xmlns="http://www.w3.org/2000/svg"
   xmlns:svg="http://www.w3.org/2000/svg">
  <defs
     id="defs2" />
  <sodipodi:namedview
     id="namedview2"
     pagecolor="#ffffff"
     bordercolor="#000000"
     borderopacity="0.25"
     inkscape:showpageshadow="2"
     inkscape:pageopacity="0.0"
     inkscape:pagecheckerboard="0"
     inkscape:deskcolor="#d1d1d1" />
  <!-- Icon from TDesign Icons by TDesign - https://github.com/Tencent/tdesign-icons/blob/main/LICENSE -->
  <g
     fill="none"
     id="g2">
    <path
       d="M21 18a3 3 0 1 1-6 0a3 3 0 0 1 6 0"
       id="path1" />
    <path
       stroke="currentColor"
       stroke-linecap="square"
       stroke-width="2"
       d="M11 22s-8-5.5-8-12a8 8 0 1 1 16 0m-5 0a3 3 0 1 1-6 0a3 3 0 0 1 6 0Zm4 5v-1.25M18 15a3 3 0 0 0 0 6m0-6a3 3 0 1 1 0 6m0 0v1.25m-2.598-5.75l-1.083-.625m6.279 3.625l1.083.625M20.598 16.5l1.083-.625M15.4 19.5l-1.082.625"
       id="path2" />
  </g>
</svg>
