<?xml version="1.0" encoding="UTF-8" standalone="no"?>
<svg
   width="1em"
   height="1em"
   viewBox="0 0 24 24"
   version="1.1"
   id="svg2"
   sodipodi:docname="tdesign-apple.svg"
   xmlns:inkscape="http://www.inkscape.org/namespaces/inkscape"
   xmlns:sodipodi="http://sodipodi.sourceforge.net/DTD/sodipodi-0.dtd"
   xmlns="http://www.w3.org/2000/svg"
   xmlns:svg="http://www.w3.org/2000/svg">
  <defs
     id="defs2" />
  <sodipodi:namedview
     id="namedview2"
     pagecolor="#ffffff"
     bordercolor="#000000"
     borderopacity="0.25"
     inkscape:showpageshadow="2"
     inkscape:pageopacity="0.0"
     inkscape:pagecheckerboard="0"
     inkscape:deskcolor="#d1d1d1" />
  <!-- Icon from TDesign Icons by TDesign - https://github.com/Tencent/tdesign-icons/blob/main/LICENSE -->
  <g
     fill="none"
     id="g2">
    <path
       d="M21 12.5c0 3.919-2.496 7.504-5.5 8.488c-1.5.491-1.998-.488-3.5-.488s-2 .981-3.5.488C5.504 20.002 3 16.418 3 12.5C3 9.378 4.25 7 6.5 5.75s3.651-.25 5.5-.25c1.848 0 3.25-.997 5.5.25S21 9.377 21 12.5"
       id="path1" />
    <path
       stroke="currentColor"
       stroke-linecap="square"
       stroke-width="2"
       d="M10 8.465a4.03 4.03 0 0 0 4 0M12 8.5V3m9 9.5c0-3.123-1.25-5.504-3.5-6.75S13.848 5.5 12 5.5c-1.849 0-3.25-1-5.5.25S3 9.378 3 12.5c0 3.919 2.504 7.502 5.5 8.488c1.5.493 1.998-.488 3.5-.488s2 .979 3.5.488c3.004-.984 5.5-4.57 5.5-8.488Z"
       id="path2" />
  </g>
</svg>
