<?xml version="1.0" encoding="UTF-8" standalone="no"?>
<svg
   width="1em"
   height="1em"
   viewBox="0 0 24 24"
   version="1.1"
   id="svg4"
   sodipodi:docname="tdesign-film.svg"
   xmlns:inkscape="http://www.inkscape.org/namespaces/inkscape"
   xmlns:sodipodi="http://sodipodi.sourceforge.net/DTD/sodipodi-0.dtd"
   xmlns="http://www.w3.org/2000/svg"
   xmlns:svg="http://www.w3.org/2000/svg">
  <defs
     id="defs4" />
  <sodipodi:namedview
     id="namedview4"
     pagecolor="#ffffff"
     bordercolor="#000000"
     borderopacity="0.25"
     inkscape:showpageshadow="2"
     inkscape:pageopacity="0.0"
     inkscape:pagecheckerboard="0"
     inkscape:deskcolor="#d1d1d1" />
  <!-- Icon from TDesign Icons by TDesign - https://github.com/Tencent/tdesign-icons/blob/main/LICENSE -->
  <g
     fill="none"
     id="g4">
    <path
       d="M2 12C2 6.477 6.477 2 12 2s10 4.477 10 10s-4.477 10-10 10S2 17.523 2 12"
       id="path1" />
    <path
       d="M10 7a2 2 0 1 1 4 0a2 2 0 0 1-4 0m5 5a2 2 0 1 1 4 0a2 2 0 0 1-4 0M5 12a2 2 0 1 1 4 0a2 2 0 0 1-4 0m5 5a2 2 0 1 1 4 0a2 2 0 0 1-4 0"
       id="path2" />
    <path
       stroke="currentColor"
       stroke-linecap="square"
       stroke-width="2"
       d="M12 22C6.477 22 2 17.523 2 12S6.477 2 12 2s10 4.477 10 10a9.97 9.97 0 0 1-2.859 7A9.97 9.97 0 0 1 12 22Zm0 0h11"
       id="path3" />
    <path
       stroke="currentColor"
       stroke-linecap="square"
       stroke-width="2"
       d="M10 7a2 2 0 1 1 4 0a2 2 0 0 1-4 0Zm5 5a2 2 0 1 1 4 0a2 2 0 0 1-4 0ZM5 12a2 2 0 1 1 4 0a2 2 0 0 1-4 0Zm5 5a2 2 0 1 1 4 0a2 2 0 0 1-4 0Z"
       id="path4" />
  </g>
</svg>
