<?xml version="1.0" encoding="UTF-8" standalone="no"?>
<svg
   width="1em"
   height="1em"
   viewBox="0 0 24 24"
   version="1.1"
   id="svg3"
   sodipodi:docname="tdesign-chart-ring.svg"
   xmlns:inkscape="http://www.inkscape.org/namespaces/inkscape"
   xmlns:sodipodi="http://sodipodi.sourceforge.net/DTD/sodipodi-0.dtd"
   xmlns="http://www.w3.org/2000/svg"
   xmlns:svg="http://www.w3.org/2000/svg">
  <defs
     id="defs3" />
  <sodipodi:namedview
     id="namedview3"
     pagecolor="#ffffff"
     bordercolor="#000000"
     borderopacity="0.25"
     inkscape:showpageshadow="2"
     inkscape:pageopacity="0.0"
     inkscape:pagecheckerboard="0"
     inkscape:deskcolor="#d1d1d1" />
  <!-- Icon from TDesign Icons by TDesign - https://github.com/Tencent/tdesign-icons/blob/main/LICENSE -->
  <g
     fill="none"
     id="g3">
    <path
       d="M12 2c5.523 0 10 4.477 10 10s-4.477 10-10 10S2 17.523 2 12S6.477 2 12 2m0 5a5 5 0 1 0 0 10a5 5 0 0 0 0-10"
       clip-rule="evenodd"
       id="path1" />
    <path
       d="M17 12a5 5 0 0 0-5-5V2c5.523 0 10 4.477 10 10zm5 0h-5a4.98 4.98 0 0 1-1.454 3.525l3.536 3.536A9.97 9.97 0 0 0 22 12"
       id="path2" />
    <path
       stroke="currentColor"
       stroke-width="2"
       d="M17 12a5 5 0 0 0-5-5m5 5h5m-5 0a4.98 4.98 0 0 1-1.454 3.525M12 7a5 5 0 1 0 3.546 8.525M12 7V2m10 10c0-5.523-4.477-10-10-10m10 10a9.97 9.97 0 0 1-2.918 7.06M12 2C6.477 2 2 6.477 2 12s4.477 10 10 10a9.97 9.97 0 0 0 7.082-2.94m-3.536-3.535l3.536 3.536"
       id="path3" />
  </g>
</svg>
