<?xml version="1.0" encoding="UTF-8" standalone="no"?>
<svg
   width="1em"
   height="1em"
   viewBox="0 0 24 24"
   version="1.1"
   id="svg3"
   sodipodi:docname="tdesign-subway-line.svg"
   xmlns:inkscape="http://www.inkscape.org/namespaces/inkscape"
   xmlns:sodipodi="http://sodipodi.sourceforge.net/DTD/sodipodi-0.dtd"
   xmlns="http://www.w3.org/2000/svg"
   xmlns:svg="http://www.w3.org/2000/svg">
  <defs
     id="defs3" />
  <sodipodi:namedview
     id="namedview3"
     pagecolor="#ffffff"
     bordercolor="#000000"
     borderopacity="0.25"
     inkscape:showpageshadow="2"
     inkscape:pageopacity="0.0"
     inkscape:pagecheckerboard="0"
     inkscape:deskcolor="#d1d1d1" />
  <!-- Icon from TDesign Icons by TDesign - https://github.com/Tencent/tdesign-icons/blob/main/LICENSE -->
  <g
     fill="none"
     id="g3">
    <path
       d="M21 6a2 2 0 1 1-4 0a2 2 0 0 1 4 0"
       id="path1" />
    <path
       d="M21 6a2 2 0 1 1-4 0a2 2 0 0 1 4 0M8 18a2 2 0 1 1-4 0a2 2 0 0 1 4 0"
       id="path2" />
    <path
       stroke="currentColor"
       stroke-linecap="square"
       stroke-width="2"
       d="M3 6h14m0 0a2 2 0 0 0 2 2m-2-2a2 2 0 0 1 2-2m0-1v1m0 0a2 2 0 1 1 0 4M8 18h11V8M8 18a2 2 0 0 1-2 2m2-2a2 2 0 0 0-2-2m0 4v1m0-1a2 2 0 0 1-2-2m-1 0h1m0 0a2 2 0 0 1 2-2M6 3v13"
       id="path3" />
  </g>
</svg>
