<?xml version="1.0" encoding="UTF-8" standalone="no"?>
<svg
   width="1em"
   height="1em"
   viewBox="0 0 24 24"
   version="1.1"
   id="svg2"
   sodipodi:docname="tdesign-grid-view.svg"
   xmlns:inkscape="http://www.inkscape.org/namespaces/inkscape"
   xmlns:sodipodi="http://sodipodi.sourceforge.net/DTD/sodipodi-0.dtd"
   xmlns="http://www.w3.org/2000/svg"
   xmlns:svg="http://www.w3.org/2000/svg">
  <sodipodi:namedview
     id="namedview2"
     pagecolor="#ffffff"
     bordercolor="#000000"
     borderopacity="0.25"
     inkscape:showpageshadow="2"
     inkscape:pageopacity="0.0"
     inkscape:pagecheckerboard="0"
     inkscape:deskcolor="#d1d1d1" />
  <!-- Icon from TDesign Icons by TDesign - https://github.com/Tencent/tdesign-icons/blob/main/LICENSE -->
  <defs
     id="defs1">
    <path
       id="SVG2QOyndLd"
       d="M10 3H3v7h7zm4 0h7v7h-7zm7 11h-7v7h7zm-11 0H3v7h7z" />
  </defs>
  <g
     fill="none"
     id="g2">
    <path
       id="use1"
       d="M 10,3 H 3 v 7 h 7 z m 4,0 h 7 v 7 h -7 z m 7,11 h -7 v 7 h 7 z M 10,14 H 3 v 7 h 7 z" />
    <path
       id="use2"
       d="M 10,3 H 3 v 7 h 7 z m 4,0 h 7 v 7 h -7 z m 7,11 h -7 v 7 h 7 z M 10,14 H 3 v 7 h 7 z"
       style="stroke:#000000;stroke-width:2;stroke-linecap:square" />
  </g>
</svg>
