<?xml version="1.0" encoding="UTF-8" standalone="no"?>
<svg
   width="1em"
   height="1em"
   viewBox="0 0 24 24"
   version="1.1"
   id="svg2"
   sodipodi:docname="tdesign-gesture-down.svg"
   xmlns:inkscape="http://www.inkscape.org/namespaces/inkscape"
   xmlns:sodipodi="http://sodipodi.sourceforge.net/DTD/sodipodi-0.dtd"
   xmlns="http://www.w3.org/2000/svg"
   xmlns:svg="http://www.w3.org/2000/svg">
  <defs
     id="defs2" />
  <sodipodi:namedview
     id="namedview2"
     pagecolor="#ffffff"
     bordercolor="#000000"
     borderopacity="0.25"
     inkscape:showpageshadow="2"
     inkscape:pageopacity="0.0"
     inkscape:pagecheckerboard="0"
     inkscape:deskcolor="#d1d1d1" />
  <!-- Icon from TDesign Icons by TDesign - https://github.com/Tencent/tdesign-icons/blob/main/LICENSE -->
  <g
     fill="none"
     id="g2">
    <path
       d="M11.75 15v4.5a2 2 0 1 0 4 0v-10l3.831.851a1 1 0 0 0 1.05-.421l.62-.93l-4.4-5.72a2 2 0 0 0-1.586-.78H7.192a2 2 0 0 0-1.898 1.368l-2.03 6.09a2 2 0 0 0 .89 2.36l4.13 2.41A2 2 0 0 0 9.29 15z"
       id="path1" />
    <path
       stroke="currentColor"
       stroke-linecap="square"
       stroke-width="2"
       d="M11.75 15v4.5a2 2 0 1 0 4 0v-10l3.831.851a1 1 0 0 0 1.05-.421l.62-.93l-4.4-5.72a2 2 0 0 0-1.586-.78H7.192a2 2 0 0 0-1.898 1.368l-2.03 6.09a2 2 0 0 0 .89 2.36l4.13 2.41A2 2 0 0 0 9.29 15z"
       id="path2" />
  </g>
</svg>
