<?xml version="1.0" encoding="UTF-8" standalone="no"?>
<svg
   width="1em"
   height="1em"
   viewBox="0 0 24 24"
   version="1.1"
   id="svg3"
   sodipodi:docname="tdesign-share.svg"
   xmlns:inkscape="http://www.inkscape.org/namespaces/inkscape"
   xmlns:sodipodi="http://sodipodi.sourceforge.net/DTD/sodipodi-0.dtd"
   xmlns="http://www.w3.org/2000/svg"
   xmlns:svg="http://www.w3.org/2000/svg">
  <defs
     id="defs3" />
  <sodipodi:namedview
     id="namedview3"
     pagecolor="#ffffff"
     bordercolor="#000000"
     borderopacity="0.25"
     inkscape:showpageshadow="2"
     inkscape:pageopacity="0.0"
     inkscape:pagecheckerboard="0"
     inkscape:deskcolor="#d1d1d1" />
  <!-- Icon from TDesign Icons by TDesign - https://github.com/Tencent/tdesign-icons/blob/main/LICENSE -->
  <g
     fill="none"
     id="g3">
    <path
       d="M19.49 7.097a3 3 0 1 0-3-5.197a3 3 0 0 0 3 5.197m-3 15.002a3 3 0 1 0 3-5.197a3 3 0 0 0-3 5.197M6.5 14.597a3 3 0 1 0-3-5.197a3 3 0 0 0 3 5.197"
       id="path1" />
    <path
       d="M3.5 14.599a3 3 0 1 0 3-5.197a3 3 0 0 0-3 5.197"
       id="path2" />
    <path
       stroke="currentColor"
       stroke-linecap="square"
       stroke-width="2"
       d="m7.599 13.501l7.794 4.5m-7.794-7.502l7.794-4.5m0 0a3 3 0 1 1 5.196-3a3 3 0 0 1-5.196 3Zm0 12.002a3 3 0 1 1 5.196 3a3 3 0 0 1-5.196-3Zm-7.794-7.503a3 3 0 1 1-5.197 3a3 3 0 0 1 5.197-3Zm0 3.002a3 3 0 1 1-5.197-3a3 3 0 0 1 5.197 3Z"
       id="path3" />
  </g>
</svg>
