<?xml version="1.0" encoding="UTF-8" standalone="no"?>
<svg
   width="1em"
   height="1em"
   viewBox="0 0 24 24"
   version="1.1"
   id="svg4"
   sodipodi:docname="tdesign-mushroom-1.svg"
   xmlns:inkscape="http://www.inkscape.org/namespaces/inkscape"
   xmlns:sodipodi="http://sodipodi.sourceforge.net/DTD/sodipodi-0.dtd"
   xmlns="http://www.w3.org/2000/svg"
   xmlns:svg="http://www.w3.org/2000/svg">
  <defs
     id="defs4" />
  <sodipodi:namedview
     id="namedview4"
     pagecolor="#ffffff"
     bordercolor="#000000"
     borderopacity="0.25"
     inkscape:showpageshadow="2"
     inkscape:pageopacity="0.0"
     inkscape:pagecheckerboard="0"
     inkscape:deskcolor="#d1d1d1" />
  <!-- Icon from TDesign Icons by TDesign - https://github.com/Tencent/tdesign-icons/blob/main/LICENSE -->
  <g
     fill="none"
     id="g4">
    <path
       d="M21.549 15.178c-1.758 1.758-4.97-.728-8.486-4.242c-3.514-3.515-6-6.728-4.242-8.486C10.578.693 15.008.505 19.25 4.748s4.055 8.673 2.298 10.43"
       id="path1" />
    <path
       d="M3.517 20.482c3.536 3.54 5.665 2.815 7.425 1.06c2.095-2.09 3.494-6.248 5.069-7.892c-.939-.767-1.93-1.697-2.948-2.714c-1.017-1.017-1.947-2.01-2.714-2.948c-1.644 1.575-5.8 2.977-7.892 5.07c-1.758 1.756-2.475 3.882 1.06 7.424"
       id="path2" />
    <path
       stroke="currentColor"
       stroke-linecap="square"
       stroke-width="2"
       d="M3.517 20.482c3.536 3.54 5.665 2.815 7.425 1.06c2.095-2.09 3.494-6.248 5.069-7.892c-.939-.767-1.93-1.697-2.948-2.714c-1.017-1.017-1.947-2.01-2.714-2.948c-1.644 1.575-5.8 2.977-7.892 5.07c-1.758 1.756-2.475 3.882 1.06 7.424Z"
       id="path3" />
    <path
       stroke="currentColor"
       stroke-width="2"
       d="M21.549 15.178c-1.758 1.758-4.97-.728-8.486-4.242c-3.514-3.515-6-6.728-4.242-8.486C10.578.693 15.008.505 19.25 4.748s4.055 8.673 2.298 10.43Z"
       id="path4" />
  </g>
</svg>
