<?xml version="1.0" encoding="UTF-8" standalone="no"?>
<svg
   width="1em"
   height="1em"
   viewBox="0 0 24 24"
   version="1.1"
   id="svg1"
   sodipodi:docname="tdesign-sensors.svg"
   xmlns:inkscape="http://www.inkscape.org/namespaces/inkscape"
   xmlns:sodipodi="http://sodipodi.sourceforge.net/DTD/sodipodi-0.dtd"
   xmlns="http://www.w3.org/2000/svg"
   xmlns:svg="http://www.w3.org/2000/svg">
  <defs
     id="defs1" />
  <sodipodi:namedview
     id="namedview1"
     pagecolor="#ffffff"
     bordercolor="#000000"
     borderopacity="0.25"
     inkscape:showpageshadow="2"
     inkscape:pageopacity="0.0"
     inkscape:pagecheckerboard="0"
     inkscape:deskcolor="#d1d1d1" />
  <!-- Icon from TDesign Icons by TDesign - https://github.com/Tencent/tdesign-icons/blob/main/LICENSE -->
  <path
     fill="none"
     stroke="currentColor"
     stroke-linecap="square"
     stroke-width="2"
     d="M3.55 4.957A10.96 10.96 0 0 0 1 11.999c0 2.68.958 5.135 2.55 7.042m3.84-3.2A5.98 5.98 0 0 1 6 11.998c0-1.461.522-2.8 1.39-3.841M20.45 19.04A10.96 10.96 0 0 0 23 12c0-2.679-.958-5.134-2.55-7.042M16.61 15.84A5.98 5.98 0 0 0 18 12a5.98 5.98 0 0 0-1.39-3.842M11.999 13a1 1 0 1 1 0-2a1 1 0 0 1 0 2Z"
     id="path1" />
</svg>
