<?xml version="1.0" encoding="UTF-8" standalone="no"?>
<svg
   width="1em"
   height="1em"
   viewBox="0 0 24 24"
   version="1.1"
   id="svg1"
   sodipodi:docname="tdesign-tree-round-dot-vertical-filled.svg"
   xmlns:inkscape="http://www.inkscape.org/namespaces/inkscape"
   xmlns:sodipodi="http://sodipodi.sourceforge.net/DTD/sodipodi-0.dtd"
   xmlns="http://www.w3.org/2000/svg"
   xmlns:svg="http://www.w3.org/2000/svg">
  <defs
     id="defs1" />
  <sodipodi:namedview
     id="namedview1"
     pagecolor="#ffffff"
     bordercolor="#000000"
     borderopacity="0.25"
     inkscape:showpageshadow="2"
     inkscape:pageopacity="0.0"
     inkscape:pagecheckerboard="0"
     inkscape:deskcolor="#d1d1d1" />
  <!-- Icon from TDesign Icons by TDesign - https://github.com/Tencent/tdesign-icons/blob/main/LICENSE -->
  <path
     fill="currentColor"
     d="M23 4.5a3.5 3.5 0 0 1-6.855 1H14a1 1 0 0 0-1 1v11c0 1.004.408 1.003.925 1h2.22a3.502 3.502 0 0 1 6.855 1a3.5 3.5 0 0 1-6.855 1H14a3 3 0 0 1-3-3V13H7.855A3.502 3.502 0 0 1 1 12a3.5 3.5 0 0 1 6.855-1H11V6.5a3 3 0 0 1 3-3h2.145A3.502 3.502 0 0 1 23 4.5"
     id="path1" />
</svg>
