<?xml version="1.0" encoding="UTF-8" standalone="no"?>
<svg
   width="1em"
   height="1em"
   viewBox="0 0 24 24"
   version="1.1"
   id="svg1"
   sodipodi:docname="tdesign-usercase-filled.svg"
   xmlns:inkscape="http://www.inkscape.org/namespaces/inkscape"
   xmlns:sodipodi="http://sodipodi.sourceforge.net/DTD/sodipodi-0.dtd"
   xmlns="http://www.w3.org/2000/svg"
   xmlns:svg="http://www.w3.org/2000/svg">
  <defs
     id="defs1" />
  <sodipodi:namedview
     id="namedview1"
     pagecolor="#ffffff"
     bordercolor="#000000"
     borderopacity="0.25"
     inkscape:showpageshadow="2"
     inkscape:pageopacity="0.0"
     inkscape:pagecheckerboard="0"
     inkscape:deskcolor="#d1d1d1" />
  <!-- Icon from TDesign Icons by TDesign - https://github.com/Tencent/tdesign-icons/blob/main/LICENSE -->
  <path
     fill="currentColor"
     d="M18 5c.921 0 1.893.232 2.676.754C21.467 6.28 22 7.074 22 8s-.533 1.719-1.324 2.246c-.783.522-1.755.754-2.676.754s-1.893-.232-2.676-.754C14.533 9.72 14 8.926 14 8s.533-1.719 1.324-2.246C16.107 5.232 17.079 5 18 5M6 10.83a3 3 0 1 0-2 0V12H2v2h2v1.586l-2.414 2.413L3 19.413l2-2l2.003 2l1.413-1.415L6 15.585V14h2v-2H6zM9.5 7h3v2h-3zm8.5 6c.921 0 1.893.232 2.676.754C21.467 14.28 22 15.074 22 16s-.533 1.719-1.324 2.246c-.783.522-1.755.754-2.676.754s-1.893-.232-2.676-.754C14.533 17.72 14 16.926 14 16s.533-1.719 1.324-2.246C16.107 13.232 17.079 13 18 13m-8.5 2h3v2h-3z"
     id="path1" />
</svg>
