<?xml version="1.0" encoding="UTF-8" standalone="no"?>
<svg
   width="1em"
   height="1em"
   viewBox="0 0 24 24"
   version="1.1"
   id="svg2"
   sodipodi:docname="tdesign-logo-windows.svg"
   xmlns:inkscape="http://www.inkscape.org/namespaces/inkscape"
   xmlns:sodipodi="http://sodipodi.sourceforge.net/DTD/sodipodi-0.dtd"
   xmlns="http://www.w3.org/2000/svg"
   xmlns:svg="http://www.w3.org/2000/svg">
  <sodipodi:namedview
     id="namedview2"
     pagecolor="#ffffff"
     bordercolor="#000000"
     borderopacity="0.25"
     inkscape:showpageshadow="2"
     inkscape:pageopacity="0.0"
     inkscape:pagecheckerboard="0"
     inkscape:deskcolor="#d1d1d1" />
  <!-- Icon from TDesign Icons by TDesign - https://github.com/Tencent/tdesign-icons/blob/main/LICENSE -->
  <defs
     id="defs1">
    <path
       id="SVGWaehheaV"
       d="M3 11V6.152L10 5v6zm10 0V4.143L21 3v8zm0 8.833V14h8v7zm-10-.5V14h7v6z" />
  </defs>
  <g
     fill="none"
     id="g2">
    <path
       id="use1"
       d="M 3,11 V 6.152 L 10,5 v 6 z m 10,0 V 4.143 L 21,3 v 8 z m 0,8.833 V 14 h 8 v 7 z M 3,19.333 V 14 h 7 v 6 z" />
    <path
       id="use2"
       d="M 3,11 V 6.152 L 10,5 v 6 z m 10,0 V 4.143 L 21,3 v 8 z m 0,8.833 V 14 h 8 v 7 z M 3,19.333 V 14 h 7 v 6 z"
       style="stroke:#000000;stroke-width:2" />
  </g>
</svg>
