<?xml version="1.0" encoding="UTF-8" standalone="no"?>
<svg
   width="1em"
   height="1em"
   viewBox="0 0 24 24"
   version="1.1"
   id="svg1"
   sodipodi:docname="tdesign-wave-right-filled.svg"
   xmlns:inkscape="http://www.inkscape.org/namespaces/inkscape"
   xmlns:sodipodi="http://sodipodi.sourceforge.net/DTD/sodipodi-0.dtd"
   xmlns="http://www.w3.org/2000/svg"
   xmlns:svg="http://www.w3.org/2000/svg">
  <defs
     id="defs1" />
  <sodipodi:namedview
     id="namedview1"
     pagecolor="#ffffff"
     bordercolor="#000000"
     borderopacity="0.25"
     inkscape:showpageshadow="2"
     inkscape:pageopacity="0.0"
     inkscape:pagecheckerboard="0"
     inkscape:deskcolor="#d1d1d1" />
  <!-- Icon from TDesign Icons by TDesign - https://github.com/Tencent/tdesign-icons/blob/main/LICENSE -->
  <path
     fill="currentColor"
     d="m18.047 1.37l.823.568a12.1 12.1 0 0 1 3.085 3.084l.567.823l-1.646 1.135l-.568-.823a10.1 10.1 0 0 0-2.573-2.573l-.823-.567zm-4.295 3.092a1.373 1.373 0 0 0-1.943.003L6.555 9.747l.444-1.096c.56-1.38-1.005-2.65-2.24-1.818a1.5 1.5 0 0 0-.46.49L1.918 11.4a7.19 7.19 0 0 0 1.124 8.709l.845.844a7.19 7.19 0 0 0 10.167 0l5.035-5.036a1.375 1.375 0 0 0-1.945-1.944l-1.604 1.604l-.53-.532l3.69-3.69a1.375 1.375 0 0 0-1.945-1.944l-3.69 3.69l-.53-.53l5.057-5.057a1.375 1.375 0 0 0-1.945-1.945l-5.057 5.057l-.53-.53l3.691-3.691a1.373 1.373 0 0 0 0-1.942"
     id="path1" />
</svg>
