<?xml version="1.0" encoding="UTF-8" standalone="no"?>
<svg
   width="1em"
   height="1em"
   viewBox="0 0 24 24"
   version="1.1"
   id="svg1"
   sodipodi:docname="tdesign-dv-filled.svg"
   xmlns:inkscape="http://www.inkscape.org/namespaces/inkscape"
   xmlns:sodipodi="http://sodipodi.sourceforge.net/DTD/sodipodi-0.dtd"
   xmlns="http://www.w3.org/2000/svg"
   xmlns:svg="http://www.w3.org/2000/svg">
  <defs
     id="defs1" />
  <sodipodi:namedview
     id="namedview1"
     pagecolor="#ffffff"
     bordercolor="#000000"
     borderopacity="0.25"
     inkscape:showpageshadow="2"
     inkscape:pageopacity="0.0"
     inkscape:pagecheckerboard="0"
     inkscape:deskcolor="#d1d1d1" />
  <!-- Icon from TDesign Icons by TDesign - https://github.com/Tencent/tdesign-icons/blob/main/LICENSE -->
  <path
     fill="currentColor"
     d="M2 2h10v6.682c.456.687.775 1.473.917 2.318H14V7h8v10h-8v-4h-1.083A6 6 0 0 1 12 15.318V22H2v-6.682c-.632-.95-1-2.093-1-3.318s.368-2.367 1-3.318zm5 6a4 4 0 0 0-3.2 1.6A3.98 3.98 0 0 0 3 12c0 .902.297 1.731.8 2.4A4 4 0 0 0 7 16a4 4 0 0 0 3.2-1.6c.503-.669.8-1.498.8-2.4s-.297-1.731-.8-2.4A4 4 0 0 0 7 8"
     id="path1" />
</svg>
