<?xml version="1.0" encoding="UTF-8" standalone="no"?>
<svg
   width="1em"
   height="1em"
   viewBox="0 0 24 24"
   version="1.1"
   id="svg2"
   sodipodi:docname="tdesign-face-retouching-filled.svg"
   xmlns:inkscape="http://www.inkscape.org/namespaces/inkscape"
   xmlns:sodipodi="http://sodipodi.sourceforge.net/DTD/sodipodi-0.dtd"
   xmlns="http://www.w3.org/2000/svg"
   xmlns:svg="http://www.w3.org/2000/svg">
  <defs
     id="defs2" />
  <sodipodi:namedview
     id="namedview2"
     pagecolor="#ffffff"
     bordercolor="#000000"
     borderopacity="0.25"
     inkscape:showpageshadow="2"
     inkscape:pageopacity="0.0"
     inkscape:pagecheckerboard="0"
     inkscape:deskcolor="#d1d1d1" />
  <!-- Icon from TDesign Icons by TDesign - https://github.com/Tencent/tdesign-icons/blob/main/LICENSE -->
  <path
     fill="currentColor"
     d="M3.996 7.996a4 4 0 0 0 3.456-6.015A11 11 0 0 1 12 1c6.075 0 11 4.925 11 11s-4.925 11-11 11S1 18.075 1 12c0-1.622.351-3.162.981-4.548a4 4 0 0 0 2.015.544m12.52.938h-2.004v2.003h2.004zm-6.118 5.124l-.489-.872l-1.745.977l.489.872a3.834 3.834 0 0 0 6.696 0l.488-.872l-1.745-.977l-.488.872a1.834 1.834 0 0 1-3.206 0M7.463 8.934v2.004h2.004V8.934z"
     id="path1" />
  <path
     fill="currentColor"
     d="M3.996.695L5.094 2.9l2.204 1.097l-2.204 1.097l-1.098 2.204L2.9 5.093L.695 3.996L2.9 2.9zm16.835 20.124l-1.569.78l1.57.782l.78 1.569l.781-1.57l1.569-.78l-1.569-.781l-.78-1.569z"
     id="path2" />
</svg>
