<?xml version="1.0" encoding="UTF-8" standalone="no"?>
<svg
   width="1em"
   height="1em"
   viewBox="0 0 24 24"
   version="1.1"
   id="svg2"
   sodipodi:docname="tdesign-quote.svg"
   xmlns:inkscape="http://www.inkscape.org/namespaces/inkscape"
   xmlns:sodipodi="http://sodipodi.sourceforge.net/DTD/sodipodi-0.dtd"
   xmlns="http://www.w3.org/2000/svg"
   xmlns:svg="http://www.w3.org/2000/svg">
  <sodipodi:namedview
     id="namedview2"
     pagecolor="#ffffff"
     bordercolor="#000000"
     borderopacity="0.25"
     inkscape:showpageshadow="2"
     inkscape:pageopacity="0.0"
     inkscape:pagecheckerboard="0"
     inkscape:deskcolor="#d1d1d1" />
  <!-- Icon from TDesign Icons by TDesign - https://github.com/Tencent/tdesign-icons/blob/main/LICENSE -->
  <defs
     id="defs1">
    <path
       id="SVGyJlx4d3s"
       d="M10 6H3.5v6H8l-2.667 6H6l4-5.667zm10.5 0H14v6h4.5l-2.667 6h.667l4-5.667z" />
  </defs>
  <g
     fill="none"
     id="g2">
    <path
       id="use1"
       d="M 10,6 H 3.5 v 6 H 8 L 5.333,18 H 6 l 4,-5.667 z M 20.5,6 H 14 v 6 h 4.5 l -2.667,6 H 16.5 l 4,-5.667 z" />
    <path
       id="use2"
       d="M 10,6 H 3.5 v 6 H 8 L 5.333,18 H 6 l 4,-5.667 z M 20.5,6 H 14 v 6 h 4.5 l -2.667,6 H 16.5 l 4,-5.667 z"
       style="stroke:#000000;stroke-width:2;stroke-linecap:square" />
  </g>
</svg>
