<?xml version="1.0" encoding="UTF-8" standalone="no"?>
<svg
   width="1em"
   height="1em"
   viewBox="0 0 24 24"
   version="1.1"
   id="svg2"
   sodipodi:docname="tdesign-chat-setting-filled.svg"
   xmlns:inkscape="http://www.inkscape.org/namespaces/inkscape"
   xmlns:sodipodi="http://sodipodi.sourceforge.net/DTD/sodipodi-0.dtd"
   xmlns="http://www.w3.org/2000/svg"
   xmlns:svg="http://www.w3.org/2000/svg">
  <defs
     id="defs2" />
  <sodipodi:namedview
     id="namedview2"
     pagecolor="#ffffff"
     bordercolor="#000000"
     borderopacity="0.25"
     inkscape:showpageshadow="2"
     inkscape:pageopacity="0.0"
     inkscape:pagecheckerboard="0"
     inkscape:deskcolor="#d1d1d1" />
  <!-- Icon from TDesign Icons by TDesign - https://github.com/Tencent/tdesign-icons/blob/main/LICENSE -->
  <path
     fill="currentColor"
     d="M1.5 2h21v10.126A6 6 0 0 0 13.083 18H6.876L1.5 22.704z"
     id="path1" />
  <path
     fill="currentColor"
     d="M19.999 13.64V12.5h-2v1.14a3.5 3.5 0 0 0-1.407.814l-.988-.571l-1 1.732l.989.571a3.5 3.5 0 0 0 0 1.623l-.99.572l1 1.732l.992-.573c.393.371.872.652 1.404.81v1.145h2V20.35a3.5 3.5 0 0 0 1.403-.81l.992.573l1-1.732l-.99-.572a3.5 3.5 0 0 0 0-1.623l.99-.571l-1-1.732l-.99.57A3.5 3.5 0 0 0 20 13.64m-2.5 3.355a1.5 1.5 0 1 1 3 0a1.5 1.5 0 0 1-3 0"
     id="path2" />
</svg>
