<?xml version="1.0" encoding="UTF-8" standalone="no"?>
<svg
   width="1em"
   height="1em"
   viewBox="0 0 24 24"
   version="1.1"
   id="svg2"
   sodipodi:docname="tdesign-candy.svg"
   xmlns:inkscape="http://www.inkscape.org/namespaces/inkscape"
   xmlns:sodipodi="http://sodipodi.sourceforge.net/DTD/sodipodi-0.dtd"
   xmlns="http://www.w3.org/2000/svg"
   xmlns:svg="http://www.w3.org/2000/svg">
  <sodipodi:namedview
     id="namedview2"
     pagecolor="#ffffff"
     bordercolor="#000000"
     borderopacity="0.25"
     inkscape:showpageshadow="2"
     inkscape:pageopacity="0.0"
     inkscape:pagecheckerboard="0"
     inkscape:deskcolor="#d1d1d1" />
  <!-- Icon from TDesign Icons by TDesign - https://github.com/Tencent/tdesign-icons/blob/main/LICENSE -->
  <defs
     id="defs1">
    <path
       id="SVGgixKbdTo"
       d="M17.01 3.01a1 1 0 0 0-1.704.616l-.222 2.44a2 2 0 0 0 .578 1.596l.675.675a2 2 0 0 0 1.596.578l2.44-.222a1 1 0 0 0 .617-1.703zm-14 14a1 1 0 0 1 .616-1.703L6.999 15l2 2l-.306 3.374a1 1 0 0 1-1.703.616z" />
  </defs>
  <g
     fill="none"
     id="g2">
    <path
       d="M5.914 13.914a2 2 0 0 1 0-2.828l5.172-5.172a2 2 0 0 1 2.828 0l4.172 4.172a2 2 0 0 1 0 2.828l-5.172 5.172a2 2 0 0 1-2.828 0z"
       id="path1" />
    <path
       id="use1"
       d="m 17.01,3.01 a 1,1 0 0 0 -1.704,0.616 l -0.222,2.44 a 2,2 0 0 0 0.578,1.596 l 0.675,0.675 a 2,2 0 0 0 1.596,0.578 l 2.44,-0.222 A 1,1 0 0 0 20.99,6.99 Z m -14,14 A 1,1 0 0 1 3.626,15.307 L 6.999,15 l 2,2 -0.306,3.374 A 1,1 0 0 1 6.99,20.99 Z" />
    <path
       id="use2"
       d="m 17.01,3.01 a 1,1 0 0 0 -1.704,0.616 l -0.222,2.44 a 2,2 0 0 0 0.578,1.596 l 0.675,0.675 a 2,2 0 0 0 1.596,0.578 l 2.44,-0.222 A 1,1 0 0 0 20.99,6.99 Z m -14,14 A 1,1 0 0 1 3.626,15.307 L 6.999,15 l 2,2 -0.306,3.374 A 1,1 0 0 1 6.99,20.99 Z"
       style="stroke:#000000;stroke-width:2;stroke-linecap:square" />
    <path
       stroke="currentColor"
       stroke-linecap="square"
       stroke-width="2"
       d="m8.5 8.5l7 7m-2.586 2.585l5.172-5.171a2 2 0 0 0 0-2.828l-4.172-4.172a2 2 0 0 0-2.828 0l-5.172 5.172a2 2 0 0 0 0 2.828l4.172 4.172a2 2 0 0 0 2.828 0Z"
       id="path2" />
  </g>
</svg>
