<?xml version="1.0" encoding="UTF-8" standalone="no"?>
<svg
   width="1em"
   height="1em"
   viewBox="0 0 24 24"
   version="1.1"
   id="svg1"
   sodipodi:docname="tdesign-lighthouse-filled.svg"
   xmlns:inkscape="http://www.inkscape.org/namespaces/inkscape"
   xmlns:sodipodi="http://sodipodi.sourceforge.net/DTD/sodipodi-0.dtd"
   xmlns="http://www.w3.org/2000/svg"
   xmlns:svg="http://www.w3.org/2000/svg">
  <defs
     id="defs1" />
  <sodipodi:namedview
     id="namedview1"
     pagecolor="#ffffff"
     bordercolor="#000000"
     borderopacity="0.25"
     inkscape:showpageshadow="2"
     inkscape:pageopacity="0.0"
     inkscape:pagecheckerboard="0"
     inkscape:deskcolor="#d1d1d1" />
  <!-- Icon from TDesign Icons by TDesign - https://github.com/Tencent/tdesign-icons/blob/main/LICENSE -->
  <path
     fill="currentColor"
     d="M9 2V1H7v9c0 2.393-.483 5.311-.979 7.669a71 71 0 0 1-.962 3.982l-.016.057l-.004.014l-.001.003L4.674 23h5.606l1-4h1.439l1 4h5.606l-.364-1.275l-.001-.003l-.004-.014l-.016-.057l-.061-.224a71 71 0 0 1-.9-3.758c-.497-2.358-.98-5.276-.98-7.669V1h-2v1zm6 2v1H9V4zm-1.996 4.998v2.004H11V8.998z"
     id="path1" />
</svg>
