<?xml version="1.0" encoding="UTF-8" standalone="no"?>
<svg
   width="1em"
   height="1em"
   viewBox="0 0 24 24"
   version="1.1"
   id="svg2"
   sodipodi:docname="tdesign-bug-filled.svg"
   xmlns:inkscape="http://www.inkscape.org/namespaces/inkscape"
   xmlns:sodipodi="http://sodipodi.sourceforge.net/DTD/sodipodi-0.dtd"
   xmlns="http://www.w3.org/2000/svg"
   xmlns:svg="http://www.w3.org/2000/svg">
  <defs
     id="defs2" />
  <sodipodi:namedview
     id="namedview2"
     pagecolor="#ffffff"
     bordercolor="#000000"
     borderopacity="0.25"
     inkscape:showpageshadow="2"
     inkscape:pageopacity="0.0"
     inkscape:pagecheckerboard="0"
     inkscape:deskcolor="#d1d1d1" />
  <!-- Icon from TDesign Icons by TDesign - https://github.com/Tencent/tdesign-icons/blob/main/LICENSE -->
  <path
     fill="currentColor"
     d="M7 5.998a5 5 0 0 1 10 0z"
     id="path1" />
  <path
     fill="currentColor"
     d="M6.414 8L5 6.586V4H3v3.414l3 3V12H3v2h3v1.586l-3 3V22h2v-2.586l1.36-1.36c.729 2 2.49 3.503 4.64 3.863V8zM13 8v13.917a6.01 6.01 0 0 0 4.64-3.863l1.36 1.36V22h2v-3.414l-3-3V14h3v-2h-3v-1.586l3-3V4h-2v2.586L17.586 8z"
     id="path2" />
</svg>
