<?xml version="1.0" encoding="UTF-8" standalone="no"?>
<svg
   width="1em"
   height="1em"
   viewBox="0 0 24 24"
   version="1.1"
   id="svg1"
   sodipodi:docname="tdesign-undertake-hold-up-filled.svg"
   xmlns:inkscape="http://www.inkscape.org/namespaces/inkscape"
   xmlns:sodipodi="http://sodipodi.sourceforge.net/DTD/sodipodi-0.dtd"
   xmlns="http://www.w3.org/2000/svg"
   xmlns:svg="http://www.w3.org/2000/svg">
  <defs
     id="defs1" />
  <sodipodi:namedview
     id="namedview1"
     pagecolor="#ffffff"
     bordercolor="#000000"
     borderopacity="0.25"
     inkscape:showpageshadow="2"
     inkscape:pageopacity="0.0"
     inkscape:pagecheckerboard="0"
     inkscape:deskcolor="#d1d1d1" />
  <!-- Icon from TDesign Icons by TDesign - https://github.com/Tencent/tdesign-icons/blob/main/LICENSE -->
  <path
     fill="currentColor"
     d="m20.557 13.526l.123.02a2.558 2.558 0 0 1 1.688 3.854c-.25.404-.607.73-1.032.942l-.027.014l-3.74 1.595l-6.196 1.549H0v-7.25h4.086l2.052-2.052a3.25 3.25 0 0 1 1.251-.776a5.358 5.358 0 0 1 7.613-7.46a5.357 5.357 0 0 1 7.21 7.91zM3.5 16.25H2v3.25h1.5zm2 3.25h5.627l5.804-1.45l3.531-1.508a.555.555 0 0 0-.416-1.022l-.02.005L13.614 17H10v-2h3.125a.874.874 0 1 0 0-1.75h-4.69a1.25 1.25 0 0 0-.885.364l-2.05 2.05z"
     id="path1" />
</svg>
