<?xml version="1.0" encoding="UTF-8" standalone="no"?>
<svg
   width="1em"
   height="1em"
   viewBox="0 0 24 24"
   version="1.1"
   id="svg4"
   sodipodi:docname="tdesign-cheese.svg"
   xmlns:inkscape="http://www.inkscape.org/namespaces/inkscape"
   xmlns:sodipodi="http://sodipodi.sourceforge.net/DTD/sodipodi-0.dtd"
   xmlns="http://www.w3.org/2000/svg"
   xmlns:svg="http://www.w3.org/2000/svg">
  <defs
     id="defs4" />
  <sodipodi:namedview
     id="namedview4"
     pagecolor="#ffffff"
     bordercolor="#000000"
     borderopacity="0.25"
     inkscape:showpageshadow="2"
     inkscape:pageopacity="0.0"
     inkscape:pagecheckerboard="0"
     inkscape:deskcolor="#d1d1d1" />
  <!-- Icon from TDesign Icons by TDesign - https://github.com/Tencent/tdesign-icons/blob/main/LICENSE -->
  <g
     fill="none"
     id="g4">
    <path
       d="m2 9l9.08-2.868a2.501 2.501 0 1 0 4.764-1.504L21 3l-3.165 10.022a2.5 2.5 0 0 0-1.484 4.699L15 22l-.757-.18C8.29 20.402 3.606 15.746 2.189 9.793z"
       id="path1" />
    <path
       d="M12 12.5a2.5 2.5 0 1 1-5 0a2.5 2.5 0 0 1 5 0"
       id="path2" />
    <path
       stroke="currentColor"
       stroke-width="2"
       d="m2 9l9.08-2.868a2.501 2.501 0 1 0 4.764-1.504L21 3l-3.165 10.022a2.5 2.5 0 0 0-1.484 4.699L15 22l-.757-.18C8.29 20.402 3.606 15.746 2.189 9.793z"
       id="path3" />
    <path
       stroke="currentColor"
       stroke-width="2"
       d="M12 12.5a2.5 2.5 0 1 1-5 0a2.5 2.5 0 0 1 5 0Z"
       id="path4" />
  </g>
</svg>
