<?xml version="1.0" encoding="UTF-8" standalone="no"?>
<svg
   width="1em"
   height="1em"
   viewBox="0 0 24 24"
   version="1.1"
   id="svg1"
   sodipodi:docname="tdesign-fries-filled.svg"
   xmlns:inkscape="http://www.inkscape.org/namespaces/inkscape"
   xmlns:sodipodi="http://sodipodi.sourceforge.net/DTD/sodipodi-0.dtd"
   xmlns="http://www.w3.org/2000/svg"
   xmlns:svg="http://www.w3.org/2000/svg">
  <defs
     id="defs1" />
  <sodipodi:namedview
     id="namedview1"
     pagecolor="#ffffff"
     bordercolor="#000000"
     borderopacity="0.25"
     inkscape:showpageshadow="2"
     inkscape:pageopacity="0.0"
     inkscape:pagecheckerboard="0"
     inkscape:deskcolor="#d1d1d1" />
  <!-- Icon from TDesign Icons by TDesign - https://github.com/Tencent/tdesign-icons/blob/main/LICENSE -->
  <path
     fill="currentColor"
     d="M21 4.53L17.465.994l-2.122 2.121l-2.121-2.12L9.315 4.9L7.8 3.387l-3 5.003L15.61 19.2l5.002-3.002l-1.398-1.397l3.2-3.2l-2.121-2.122l2.121-2.12l-2.121-2.122zm-7.442 4.614l-.707-.707l4.614-4.614l.707.707zm1.414 1.414l3.907-3.907l.707.707l-3.907 3.907zm2.828 2.828l-.707-.707l1.786-1.785l.707.707zm-6.364-6.364l-.707-.707l2.493-2.492l.707.707zm2.406 13.239L3.74 10.158L.741 15.155l8.104 8.105z"
     id="path1" />
</svg>
