<?xml version="1.0" encoding="UTF-8" standalone="no"?>
<svg
   width="1em"
   height="1em"
   viewBox="0 0 24 24"
   version="1.1"
   id="svg1"
   sodipodi:docname="tdesign-cheese-filled.svg"
   xmlns:inkscape="http://www.inkscape.org/namespaces/inkscape"
   xmlns:sodipodi="http://sodipodi.sourceforge.net/DTD/sodipodi-0.dtd"
   xmlns="http://www.w3.org/2000/svg"
   xmlns:svg="http://www.w3.org/2000/svg">
  <defs
     id="defs1" />
  <sodipodi:namedview
     id="namedview1"
     pagecolor="#ffffff"
     bordercolor="#000000"
     borderopacity="0.25"
     inkscape:showpageshadow="2"
     inkscape:pageopacity="0.0"
     inkscape:pagecheckerboard="0"
     inkscape:deskcolor="#d1d1d1" />
  <!-- Icon from TDesign Icons by TDesign - https://github.com/Tencent/tdesign-icons/blob/main/LICENSE -->
  <path
     fill="currentColor"
     d="M15 15.5a2.5 2.5 0 0 0 2.314 2.493l-1.64 5.195l-1.663-.395c-6.318-1.505-11.29-6.446-12.795-12.769L.812 8.327l10.22-3.228Q11 5.295 11 5.5a2.5 2.5 0 1 0 4.29-1.746l7.243-2.287l-3.754 11.885A2.5 2.5 0 0 0 15 15.5M9.5 15a2.5 2.5 0 1 0 0-5a2.5 2.5 0 0 0 0 5"
     id="path1" />
</svg>
