<?xml version="1.0" encoding="UTF-8" standalone="no"?>
<svg
   width="1em"
   height="1em"
   viewBox="0 0 24 24"
   version="1.1"
   id="svg4"
   sodipodi:docname="tdesign-pyramid.svg"
   xmlns:inkscape="http://www.inkscape.org/namespaces/inkscape"
   xmlns:sodipodi="http://sodipodi.sourceforge.net/DTD/sodipodi-0.dtd"
   xmlns="http://www.w3.org/2000/svg"
   xmlns:svg="http://www.w3.org/2000/svg">
  <defs
     id="defs4" />
  <sodipodi:namedview
     id="namedview4"
     pagecolor="#ffffff"
     bordercolor="#000000"
     borderopacity="0.25"
     inkscape:showpageshadow="2"
     inkscape:pageopacity="0.0"
     inkscape:pagecheckerboard="0"
     inkscape:deskcolor="#d1d1d1" />
  <!-- Icon from TDesign Icons by TDesign - https://github.com/Tencent/tdesign-icons/blob/main/LICENSE -->
  <g
     fill="none"
     id="g4">
    <path
       d="m11 21l5.5-10L22 21z"
       id="path1" />
    <path
       d="M11 21H2l9-16l4.45 7.91z"
       id="path2" />
    <path
       stroke="currentColor"
       stroke-width="2"
       d="M11 21H2l5.063-9M11 21l2.75-5l1.7-3.09l-.512-.91M11 21v-9m-3.937 0L11 5l3.938 7m-7.876 0H11m3.938 0H11"
       id="path3" />
    <path
       stroke="currentColor"
       stroke-width="2"
       d="M13.75 16L11 21h5.5m-2.75-5h2.75m-2.75 0l2.75-5l2.75 5m0 0L22 21h-5.5m2.75-5H16.5m0 0v5"
       id="path4" />
  </g>
</svg>
