<?xml version="1.0" encoding="UTF-8" standalone="no"?>
<svg
   width="1em"
   height="1em"
   viewBox="0 0 24 24"
   version="1.1"
   id="svg4"
   sodipodi:docname="tdesign-tangerinr.svg"
   xmlns:inkscape="http://www.inkscape.org/namespaces/inkscape"
   xmlns:sodipodi="http://sodipodi.sourceforge.net/DTD/sodipodi-0.dtd"
   xmlns="http://www.w3.org/2000/svg"
   xmlns:svg="http://www.w3.org/2000/svg">
  <defs
     id="defs4" />
  <sodipodi:namedview
     id="namedview4"
     pagecolor="#ffffff"
     bordercolor="#000000"
     borderopacity="0.25"
     inkscape:showpageshadow="2"
     inkscape:pageopacity="0.0"
     inkscape:pagecheckerboard="0"
     inkscape:deskcolor="#d1d1d1" />
  <!-- Icon from TDesign Icons by TDesign - https://github.com/Tencent/tdesign-icons/blob/main/LICENSE -->
  <g
     fill="none"
     id="g4">
    <path
       d="M12 6.014s2.556-.763 4-.338c2.817.828 4.998 2.822 5 7.324c.003 5.488-4 7.997-9 7.997S3 18.477 3 13c0-4.497 2.113-6.5 5-7.324c1.447-.414 4 .338 4 .338"
       id="path1" />
    <path
       d="M12 6.013C12 2 7.25 3.25 7.25 3.25z"
       id="path2" />
    <path
       stroke="currentColor"
       stroke-linecap="square"
       stroke-width="2"
       d="M12.562 5.448L14.996 3m-3.053 2.3C11.406 2.156 7.25 3.25 7.25 3.25l3.954 2.3m.796.463s-2.553-.751-4-.338C5.113 6.501 3 8.503 3 13c0 5.477 4 7.997 9 7.997s9.003-2.51 9-7.997c-.002-4.502-2.183-6.496-5-7.325c-1.444-.424-4 .338-4 .338Z"
       id="path3" />
    <path
       stroke="currentColor"
       stroke-linecap="square"
       stroke-width="2"
       d="M9 9.004V9h.004v.004zm-2 3V12h.004v.004zm2 3V15h.004v.004z"
       id="path4" />
  </g>
</svg>
