<?xml version="1.0" encoding="UTF-8" standalone="no"?>
<svg
   width="1em"
   height="1em"
   viewBox="0 0 24 24"
   version="1.1"
   id="svg4"
   sodipodi:docname="tdesign-logo-chrome-filled.svg"
   xmlns:inkscape="http://www.inkscape.org/namespaces/inkscape"
   xmlns:sodipodi="http://sodipodi.sourceforge.net/DTD/sodipodi-0.dtd"
   xmlns="http://www.w3.org/2000/svg"
   xmlns:svg="http://www.w3.org/2000/svg">
  <defs
     id="defs4" />
  <sodipodi:namedview
     id="namedview4"
     pagecolor="#ffffff"
     bordercolor="#000000"
     borderopacity="0.25"
     inkscape:showpageshadow="2"
     inkscape:pageopacity="0.0"
     inkscape:pagecheckerboard="0"
     inkscape:deskcolor="#d1d1d1" />
  <!-- Icon from TDesign Icons by TDesign - https://github.com/Tencent/tdesign-icons/blob/main/LICENSE -->
  <path
     fill="currentColor"
     d="M12 23c6.075 0 11-4.925 11-11c0-1.131-.17-2.223-.488-3.25h-7.048A4.73 4.73 0 0 1 16.75 12a4.73 4.73 0 0 1-.636 2.376l-4.96 8.592Q11.571 23 12 23"
     id="path1" />
  <path
     fill="currentColor"
     d="m9.56 22.728l3.523-6.102q-.523.123-1.083.124a4.75 4.75 0 0 1-4.114-2.374L2.925 5.782A10.95 10.95 0 0 0 1 12c0 5.236 3.659 9.618 8.56 10.728"
     id="path2" />
  <path
     fill="currentColor"
     d="M3.93 4.524A10.97 10.97 0 0 1 12 1a11 11 0 0 1 9.924 6.25H12a4.75 4.75 0 0 0-4.548 3.374z"
     id="path3" />
  <path
     fill="currentColor"
     d="m9.185 13.625l-.004-.006a3.25 3.25 0 1 1 .003.005"
     id="path4" />
</svg>
