<?xml version="1.0" encoding="UTF-8" standalone="no"?>
<svg
   width="1em"
   height="1em"
   viewBox="0 0 24 24"
   version="1.1"
   id="svg5"
   sodipodi:docname="tdesign-liquor.svg"
   xmlns:inkscape="http://www.inkscape.org/namespaces/inkscape"
   xmlns:sodipodi="http://sodipodi.sourceforge.net/DTD/sodipodi-0.dtd"
   xmlns="http://www.w3.org/2000/svg"
   xmlns:svg="http://www.w3.org/2000/svg">
  <sodipodi:namedview
     id="namedview5"
     pagecolor="#ffffff"
     bordercolor="#000000"
     borderopacity="0.25"
     inkscape:showpageshadow="2"
     inkscape:pageopacity="0.0"
     inkscape:pagecheckerboard="0"
     inkscape:deskcolor="#d1d1d1" />
  <!-- Icon from TDesign Icons by TDesign - https://github.com/Tencent/tdesign-icons/blob/main/LICENSE -->
  <defs
     id="defs1">
    <path
       id="SVGEsv40a1I"
       d="m19.5 2.5l2 2L17 9v4l-8.293 8.293a1 1 0 0 1-1.414 0l-4.586-4.586a1 1 0 0 1 0-1.414L11 7h4z" />
    <path
       id="SVGzXZoXT9k"
       d="m9 9l6 6l-4 4l-6-6z" />
  </defs>
  <g
     fill="none"
     id="g5">
    <path
       id="use1"
       d="m 19.5,2.5 2,2 L 17,9 v 4 l -8.293,8.293 a 1,1 0 0 1 -1.414,0 L 2.707,16.707 a 1,1 0 0 1 0,-1.414 L 11,7 h 4 z" />
    <path
       id="use2"
       d="m 9,9 6,6 -4,4 -6,-6 z" />
    <g
       stroke="currentColor"
       stroke-width="2"
       id="g4">
      <path
         id="use3"
         d="m 19.5,2.5 2,2 L 17,9 v 4 l -8.293,8.293 a 1,1 0 0 1 -1.414,0 L 2.707,16.707 a 1,1 0 0 1 0,-1.414 L 11,7 h 4 z" />
      <path
         id="use4"
         d="m 9,9 6,6 -4,4 -6,-6 z" />
    </g>
    <path
       stroke="currentColor"
       stroke-width="2"
       d="M9.998 13.998h.004v.004h-.004z"
       id="path4" />
  </g>
</svg>
