<?xml version="1.0" encoding="UTF-8" standalone="no"?>
<svg
   width="1em"
   height="1em"
   viewBox="0 0 24 24"
   version="1.1"
   id="svg3"
   sodipodi:docname="tdesign-filter-1.svg"
   xmlns:inkscape="http://www.inkscape.org/namespaces/inkscape"
   xmlns:sodipodi="http://sodipodi.sourceforge.net/DTD/sodipodi-0.dtd"
   xmlns="http://www.w3.org/2000/svg"
   xmlns:svg="http://www.w3.org/2000/svg">
  <defs
     id="defs3" />
  <sodipodi:namedview
     id="namedview3"
     pagecolor="#ffffff"
     bordercolor="#000000"
     borderopacity="0.25"
     inkscape:showpageshadow="2"
     inkscape:pageopacity="0.0"
     inkscape:pagecheckerboard="0"
     inkscape:deskcolor="#d1d1d1" />
  <!-- Icon from TDesign Icons by TDesign - https://github.com/Tencent/tdesign-icons/blob/main/LICENSE -->
  <g
     fill="none"
     id="g3">
    <path
       d="M12 8c4.694 0 8.5-1.12 8.5-2.5V6L14 14v3a4 4 0 0 1-4 4v-7L3.5 6v-.5C3.5 6.88 7.306 8 12 8"
       id="path1" />
    <path
       d="M20.5 5.5C20.5 6.88 16.694 8 12 8S3.5 6.88 3.5 5.5S7.306 3 12 3s8.5 1.12 8.5 2.5"
       id="path2" />
    <path
       stroke="currentColor"
       stroke-width="2"
       d="M20.5 5.5C20.5 6.88 16.694 8 12 8S3.5 6.88 3.5 5.5m17 0C20.5 4.12 16.694 3 12 3S3.5 4.12 3.5 5.5m17 0V6L14 14v3a4 4 0 0 1-4 4v-7L3.5 6v-.5"
       id="path3" />
  </g>
</svg>
