<?xml version="1.0" encoding="UTF-8" standalone="no"?>
<svg
   width="1em"
   height="1em"
   viewBox="0 0 24 24"
   version="1.1"
   id="svg4"
   sodipodi:docname="tdesign-gesture-open.svg"
   xmlns:inkscape="http://www.inkscape.org/namespaces/inkscape"
   xmlns:sodipodi="http://sodipodi.sourceforge.net/DTD/sodipodi-0.dtd"
   xmlns="http://www.w3.org/2000/svg"
   xmlns:svg="http://www.w3.org/2000/svg">
  <sodipodi:namedview
     id="namedview4"
     pagecolor="#ffffff"
     bordercolor="#000000"
     borderopacity="0.25"
     inkscape:showpageshadow="2"
     inkscape:pageopacity="0.0"
     inkscape:pagecheckerboard="0"
     inkscape:deskcolor="#d1d1d1" />
  <!-- Icon from TDesign Icons by TDesign - https://github.com/Tencent/tdesign-icons/blob/main/LICENSE -->
  <defs
     id="defs1">
    <path
       id="SVGf774mdXH"
       d="M21 20.146h-7.217l-.532-3.173l5.83-1.784H21zm-18 0h7.217l.532-3.173l-5.83-1.784H3z" />
  </defs>
  <g
     fill="none"
     id="g4">
    <path
       d="M16.256 4.28a1.454 1.454 0 0 1 2.371 1.587c-.067.16-.158.311-.23.47l-1.756 3.59l2.44 5.262l-5.83 1.785l-1.184-7.06c-.121-.48-.013-.48-.134 0l-1.184 7.06l-5.83-1.785l2.44-5.263l-1.757-3.589c-.071-.159-.162-.31-.229-.47a1.454 1.454 0 0 1 2.37-1.588l3.517 3.518c.406.405.661.932.73 1.495c.02.159 0 .159.02 0a2.56 2.56 0 0 1 .73-1.495z"
       id="path1" />
    <path
       id="use1"
       d="m 21,20.146 h -7.217 l -0.532,-3.173 5.83,-1.784 H 21 Z m -18,0 h 7.217 l 0.532,-3.173 -5.83,-1.784 H 3 Z" />
    <g
       stroke="currentColor"
       stroke-linecap="square"
       stroke-width="2"
       id="g3">
      <path
         d="m5.602 6.337l1.757 3.59l-2.44 5.262l5.83 1.785l1.184-7.06c.052-.203.084-.413.058-.622a2.56 2.56 0 0 0-.73-1.495L7.743 4.28a1.454 1.454 0 0 0-2.371 1.588c.067.16.158.311.23.47Z"
         id="path2" />
      <path
         d="m18.398 6.337l-1.757 3.59l2.44 5.262l-5.83 1.785l-1.184-7.06a1.7 1.7 0 0 1-.058-.622a2.56 2.56 0 0 1 .73-1.495l3.517-3.518a1.454 1.454 0 0 1 2.371 1.588c-.067.16-.158.311-.23.47Z"
         id="path3" />
      <path
         id="use3"
         d="m 21,20.146 h -7.217 l -0.532,-3.173 5.83,-1.784 H 21 Z m -18,0 h 7.217 l 0.532,-3.173 -5.83,-1.784 H 3 Z" />
    </g>
  </g>
</svg>
