<?xml version="1.0" encoding="UTF-8" standalone="no"?>
<svg
   width="1em"
   height="1em"
   viewBox="0 0 24 24"
   version="1.1"
   id="svg6"
   sodipodi:docname="tdesign-dvd.svg"
   xmlns:inkscape="http://www.inkscape.org/namespaces/inkscape"
   xmlns:sodipodi="http://sodipodi.sourceforge.net/DTD/sodipodi-0.dtd"
   xmlns="http://www.w3.org/2000/svg"
   xmlns:svg="http://www.w3.org/2000/svg">
  <defs
     id="defs6" />
  <sodipodi:namedview
     id="namedview6"
     pagecolor="#ffffff"
     bordercolor="#000000"
     borderopacity="0.25"
     inkscape:showpageshadow="2"
     inkscape:pageopacity="0.0"
     inkscape:pagecheckerboard="0"
     inkscape:deskcolor="#d1d1d1" />
  <!-- Icon from TDesign Icons by TDesign - https://github.com/Tencent/tdesign-icons/blob/main/LICENSE -->
  <g
     fill="none"
     id="g6">
    <path
       d="M3 3h18v18H3z"
       id="path1" />
    <path
       d="M17 12a5 5 0 1 1-10 0a5 5 0 0 1 10 0"
       id="path2" />
    <path
       stroke="currentColor"
       stroke-width="2"
       d="M3 3h18v18H3z"
       id="path3" />
    <g
       stroke="currentColor"
       stroke-width="2"
       id="g5">
      <path
         d="M17 12a5 5 0 1 1-10 0a5 5 0 0 1 10 0Z"
         id="path4" />
      <path
         d="M13 12a1 1 0 1 1-2 0a1 1 0 0 1 2 0Z"
         id="path5" />
    </g>
  </g>
</svg>
