<?xml version="1.0" encoding="UTF-8" standalone="no"?>
<svg
   width="1em"
   height="1em"
   viewBox="0 0 24 24"
   version="1.1"
   id="svg2"
   sodipodi:docname="tdesign-currency-exchange.svg"
   xmlns:inkscape="http://www.inkscape.org/namespaces/inkscape"
   xmlns:sodipodi="http://sodipodi.sourceforge.net/DTD/sodipodi-0.dtd"
   xmlns="http://www.w3.org/2000/svg"
   xmlns:svg="http://www.w3.org/2000/svg">
  <defs
     id="defs2" />
  <sodipodi:namedview
     id="namedview2"
     pagecolor="#ffffff"
     bordercolor="#000000"
     borderopacity="0.25"
     inkscape:showpageshadow="2"
     inkscape:pageopacity="0.0"
     inkscape:pagecheckerboard="0"
     inkscape:deskcolor="#d1d1d1" />
  <!-- Icon from TDesign Icons by TDesign - https://github.com/Tencent/tdesign-icons/blob/main/LICENSE -->
  <g
     fill="none"
     stroke="currentColor"
     stroke-linecap="square"
     stroke-width="2"
     id="g2">
    <path
       d="M21.448 13c-.5 4.777-4.539 8.5-9.448 8.5A9.5 9.5 0 0 1 3.38 16m-.88 4.5v-5h3M2.552 11C3.052 6.223 7.09 2.5 12 2.5A9.5 9.5 0 0 1 20.62 8m.88-4.5v5h-3"
       id="path1" />
    <path
       d="M14.5 8H12m0 0h-1a2 2 0 1 0 0 4h2a2 2 0 1 1 0 4h-1m0-8V7m0 9H9.5m2.5 0v1"
       id="path2" />
  </g>
</svg>
