<?xml version="1.0" encoding="UTF-8" standalone="no"?>
<svg
   width="1em"
   height="1em"
   viewBox="0 0 24 24"
   version="1.1"
   id="svg2"
   sodipodi:docname="tdesign-thumb-down-2.svg"
   xmlns:inkscape="http://www.inkscape.org/namespaces/inkscape"
   xmlns:sodipodi="http://sodipodi.sourceforge.net/DTD/sodipodi-0.dtd"
   xmlns="http://www.w3.org/2000/svg"
   xmlns:svg="http://www.w3.org/2000/svg">
  <defs
     id="defs2" />
  <sodipodi:namedview
     id="namedview2"
     pagecolor="#ffffff"
     bordercolor="#000000"
     borderopacity="0.25"
     inkscape:showpageshadow="2"
     inkscape:pageopacity="0.0"
     inkscape:pagecheckerboard="0"
     inkscape:deskcolor="#d1d1d1" />
  <!-- Icon from TDesign Icons by TDesign - https://github.com/Tencent/tdesign-icons/blob/main/LICENSE -->
  <g
     fill="none"
     id="g2">
    <path
       d="M16.5 12.9L12.9 21l-.854-.285a2.7 2.7 0 0 1-1.846-2.561V14.7H5.331a2 2 0 0 1-1.976-2.304l1.184-7.7A2 2 0 0 1 6.516 3H16.5zm0 0V3H21v9.9z"
       id="path1" />
    <path
       stroke="currentColor"
       stroke-linecap="square"
       stroke-width="2"
       d="M16.5 3v9.9m0-9.9H21v9.9h-4.5m0-9.9H6.516A2 2 0 0 0 4.54 4.696l-1.184 7.7A2 2 0 0 0 5.33 14.7h4.87v3.454a2.7 2.7 0 0 0 1.845 2.561L12.9 21l3.6-8.1"
       id="path2" />
  </g>
</svg>
