<?xml version="1.0" encoding="UTF-8" standalone="no"?>
<svg
   width="1em"
   height="1em"
   viewBox="0 0 24 24"
   version="1.1"
   id="svg2"
   sodipodi:docname="tdesign-gesture-slide-up.svg"
   xmlns:inkscape="http://www.inkscape.org/namespaces/inkscape"
   xmlns:sodipodi="http://sodipodi.sourceforge.net/DTD/sodipodi-0.dtd"
   xmlns="http://www.w3.org/2000/svg"
   xmlns:svg="http://www.w3.org/2000/svg">
  <defs
     id="defs2" />
  <sodipodi:namedview
     id="namedview2"
     pagecolor="#ffffff"
     bordercolor="#000000"
     borderopacity="0.25"
     inkscape:showpageshadow="2"
     inkscape:pageopacity="0.0"
     inkscape:pagecheckerboard="0"
     inkscape:deskcolor="#d1d1d1" />
  <!-- Icon from TDesign Icons by TDesign - https://github.com/Tencent/tdesign-icons/blob/main/LICENSE -->
  <g
     fill="none"
     id="g2">
    <path
       d="m7.832 7.901l4.393 7.608l-3.286 1.034a.88.88 0 0 0-.613.782l-.063.979l5.856 2.42c.504.207 1.077.17 1.55-.103l6.136-3.543a1.76 1.76 0 0 0 .842-1.874L21.516 9.68a1.76 1.76 0 0 0-1.713-1.404l-4.197-.02a1.76 1.76 0 0 0-.887.236L12.85 9.57l-1.977-3.424A1.756 1.756 0 1 0 7.833 7.9"
       id="path1" />
    <path
       stroke="currentColor"
       stroke-linecap="square"
       stroke-width="2"
       d="m7.832 7.901l4.393 7.608l-3.286 1.034a.88.88 0 0 0-.613.782l-.063.979l5.856 2.42c.504.207 1.077.17 1.55-.103l6.136-3.543a1.76 1.76 0 0 0 .842-1.874L21.516 9.68a1.76 1.76 0 0 0-1.713-1.404l-4.197-.02a1.76 1.76 0 0 0-.887.236L12.85 9.57l-1.977-3.424A1.756 1.756 0 1 0 7.833 7.9Zm-2.634-2.4V2.516l-3.7-.002m3.017 16.972C-.013 14.958-.166 7.712 4.056 3"
       id="path2" />
  </g>
</svg>
