<?xml version="1.0" encoding="UTF-8" standalone="no"?>
<svg
   width="1em"
   height="1em"
   viewBox="0 0 24 24"
   version="1.1"
   id="svg1"
   sodipodi:docname="tdesign-list-numbered.svg"
   xmlns:inkscape="http://www.inkscape.org/namespaces/inkscape"
   xmlns:sodipodi="http://sodipodi.sourceforge.net/DTD/sodipodi-0.dtd"
   xmlns="http://www.w3.org/2000/svg"
   xmlns:svg="http://www.w3.org/2000/svg">
  <defs
     id="defs1" />
  <sodipodi:namedview
     id="namedview1"
     pagecolor="#ffffff"
     bordercolor="#000000"
     borderopacity="0.25"
     inkscape:showpageshadow="2"
     inkscape:pageopacity="0.0"
     inkscape:pagecheckerboard="0"
     inkscape:deskcolor="#d1d1d1" />
  <!-- Icon from TDesign Icons by TDesign - https://github.com/Tencent/tdesign-icons/blob/main/LICENSE -->
  <path
     fill="currentColor"
     d="M4.5 6h1v2h-4V6h1V4h-1V2h1a2 2 0 0 1 2 2zM7 20v-2h15v2zm0-7v-2h15v2zm0-7V4h15v2zM1.5 9.25h2.47a1.53 1.53 0 0 1 1.082 2.612l-.888.888H5.5v2h-4v-1.336A2 2 0 0 1 2.086 12l.75-.75H1.5zm0 6.5v2h2V18H2v2h1.5v.25h-2v2h2a2 2 0 0 0 2-2v-2.5a2 2 0 0 0-2-2z"
     id="path1" />
</svg>
