<?xml version="1.0" encoding="UTF-8" standalone="no"?>
<svg
   width="1em"
   height="1em"
   viewBox="0 0 24 24"
   version="1.1"
   id="svg1"
   sodipodi:docname="tdesign-lightbulb-circle-filled.svg"
   xmlns:inkscape="http://www.inkscape.org/namespaces/inkscape"
   xmlns:sodipodi="http://sodipodi.sourceforge.net/DTD/sodipodi-0.dtd"
   xmlns="http://www.w3.org/2000/svg"
   xmlns:svg="http://www.w3.org/2000/svg">
  <defs
     id="defs1" />
  <sodipodi:namedview
     id="namedview1"
     pagecolor="#ffffff"
     bordercolor="#000000"
     borderopacity="0.25"
     inkscape:showpageshadow="2"
     inkscape:pageopacity="0.0"
     inkscape:pagecheckerboard="0"
     inkscape:deskcolor="#d1d1d1" />
  <!-- Icon from TDesign Icons by TDesign - https://github.com/Tencent/tdesign-icons/blob/main/LICENSE -->
  <path
     fill="currentColor"
     d="M23 12c0 6.075-4.925 11-11 11S1 18.075 1 12S5.925 1 12 1s11 4.925 11 11M12 4.5a4.956 4.956 0 0 0-4.95 4.95c0 .75.164 1.467.487 2.136c.564 1.168 1.184 2.493 1.683 3.914h5.56c.5-1.421 1.12-2.746 1.684-3.914a4.9 4.9 0 0 0 .486-2.136c0-2.73-2.22-4.95-4.95-4.95M9.5 17v2h5v-2z"
     id="path1" />
</svg>
