<?xml version="1.0" encoding="UTF-8" standalone="no"?>
<svg
   width="1em"
   height="1em"
   viewBox="0 0 24 24"
   version="1.1"
   id="svg1"
   sodipodi:docname="tdesign-bridge-2-filled.svg"
   xmlns:inkscape="http://www.inkscape.org/namespaces/inkscape"
   xmlns:sodipodi="http://sodipodi.sourceforge.net/DTD/sodipodi-0.dtd"
   xmlns="http://www.w3.org/2000/svg"
   xmlns:svg="http://www.w3.org/2000/svg">
  <defs
     id="defs1" />
  <sodipodi:namedview
     id="namedview1"
     pagecolor="#ffffff"
     bordercolor="#000000"
     borderopacity="0.25"
     inkscape:showpageshadow="2"
     inkscape:pageopacity="0.0"
     inkscape:pagecheckerboard="0"
     inkscape:deskcolor="#d1d1d1" />
  <!-- Icon from TDesign Icons by TDesign - https://github.com/Tencent/tdesign-icons/blob/main/LICENSE -->
  <path
     fill="currentColor"
     d="M12 3c-1.744 0-3.485.59-5.048 2.01c-1.542 1.402-2.867 3.573-3.9 6.674q-.162.487-.31.969c-.232.743-.458 1.468-.756 2.144c-.428.974-.877 1.523-1.368 1.726L0 16.778V21h9v-7a3 3 0 1 1 6 0v7h9v-4.222l-.618-.255c-.491-.203-.94-.752-1.369-1.726c-.297-.676-.523-1.401-.755-2.144q-.148-.481-.31-.97c-1.033-3.1-2.358-5.27-3.9-6.673C15.485 3.59 13.744 3 12 3"
     id="path1" />
</svg>
