<?xml version="1.0" encoding="UTF-8" standalone="no"?>
<svg
   width="1em"
   height="1em"
   viewBox="0 0 24 24"
   version="1.1"
   id="svg2"
   sodipodi:docname="tdesign-dividers.svg"
   xmlns:inkscape="http://www.inkscape.org/namespaces/inkscape"
   xmlns:sodipodi="http://sodipodi.sourceforge.net/DTD/sodipodi-0.dtd"
   xmlns="http://www.w3.org/2000/svg"
   xmlns:svg="http://www.w3.org/2000/svg">
  <defs
     id="defs2" />
  <sodipodi:namedview
     id="namedview2"
     pagecolor="#ffffff"
     bordercolor="#000000"
     borderopacity="0.25"
     inkscape:showpageshadow="2"
     inkscape:pageopacity="0.0"
     inkscape:pagecheckerboard="0"
     inkscape:deskcolor="#d1d1d1" />
  <!-- Icon from TDesign Icons by TDesign - https://github.com/Tencent/tdesign-icons/blob/main/LICENSE -->
  <g
     fill="none"
     id="g2">
    <path
       d="M12 3.118c-1.864 0-3.375 1.5-3.375 3.353c0 1.851 1.511 3.353 3.375 3.353s3.375-1.502 3.375-3.353S13.864 3.118 12 3.118"
       id="path1" />
    <path
       stroke="currentColor"
       stroke-linecap="square"
       stroke-width="2"
       d="M12 3.118c-1.864 0-3.375 1.5-3.375 3.353c0 1.851 1.511 3.353 3.375 3.353s3.375-1.502 3.375-3.353S13.864 3.118 12 3.118Zm0 0V2M3 16h18m-9-2v4m2.776-8.8L21 21M9.224 9.2L3 21"
       id="path2" />
  </g>
</svg>
