<?xml version="1.0" encoding="UTF-8" standalone="no"?>
<svg
   width="1em"
   height="1em"
   viewBox="0 0 24 24"
   version="1.1"
   id="svg2"
   sodipodi:docname="tdesign-system-components.svg"
   xmlns:inkscape="http://www.inkscape.org/namespaces/inkscape"
   xmlns:sodipodi="http://sodipodi.sourceforge.net/DTD/sodipodi-0.dtd"
   xmlns="http://www.w3.org/2000/svg"
   xmlns:svg="http://www.w3.org/2000/svg">
  <defs
     id="defs2" />
  <sodipodi:namedview
     id="namedview2"
     pagecolor="#ffffff"
     bordercolor="#000000"
     borderopacity="0.25"
     inkscape:showpageshadow="2"
     inkscape:pageopacity="0.0"
     inkscape:pagecheckerboard="0"
     inkscape:deskcolor="#d1d1d1" />
  <!-- Icon from TDesign Icons by TDesign - https://github.com/Tencent/tdesign-icons/blob/main/LICENSE -->
  <g
     fill="none"
     id="g2">
    <path
       d="M12 9.75L15.847 12v4.5L12 18.75L8.15 16.5V12zm2.222-4.5c0 1.243-.995 2.25-2.222 2.25S9.778 6.493 9.778 5.25S10.773 3 12 3s2.222 1.007 2.222 2.25M22 18.75c0 1.243-.995 2.25-2.222 2.25s-2.222-1.007-2.222-2.25s.995-2.25 2.222-2.25S22 17.507 22 18.75m-15.556 0c0 1.243-.994 2.25-2.222 2.25S2 19.993 2 18.75s.995-2.25 2.222-2.25c1.228 0 2.222 1.007 2.222 2.25"
       id="path1" />
    <path
       stroke="currentColor"
       stroke-linecap="square"
       stroke-width="2"
       d="m15.85 16.5l2.058 1.034M12 9.75V7.5m-3.85 9l-2.057 1.035M12 9.75L15.849 12v4.5l-3.85 2.25l-3.848-2.25V12zm2.222-4.5c0 1.243-.995 2.25-2.222 2.25S9.778 6.493 9.778 5.25S10.773 3 12 3s2.222 1.007 2.222 2.25ZM22 18.75c0 1.243-.995 2.25-2.222 2.25s-2.222-1.007-2.222-2.25s.995-2.25 2.222-2.25S22 17.507 22 18.75Zm-15.556 0c0 1.243-.994 2.25-2.222 2.25S2 19.993 2 18.75s.995-2.25 2.222-2.25c1.228 0 2.222 1.007 2.222 2.25Z"
       id="path2" />
  </g>
</svg>
