<?xml version="1.0" encoding="UTF-8" standalone="no"?>
<svg
   width="1em"
   height="1em"
   viewBox="0 0 24 24"
   version="1.1"
   id="svg1"
   sodipodi:docname="tdesign-microphone-2-filled.svg"
   xmlns:inkscape="http://www.inkscape.org/namespaces/inkscape"
   xmlns:sodipodi="http://sodipodi.sourceforge.net/DTD/sodipodi-0.dtd"
   xmlns="http://www.w3.org/2000/svg"
   xmlns:svg="http://www.w3.org/2000/svg">
  <defs
     id="defs1" />
  <sodipodi:namedview
     id="namedview1"
     pagecolor="#ffffff"
     bordercolor="#000000"
     borderopacity="0.25"
     inkscape:showpageshadow="2"
     inkscape:pageopacity="0.0"
     inkscape:pagecheckerboard="0"
     inkscape:deskcolor="#d1d1d1" />
  <!-- Icon from TDesign Icons by TDesign - https://github.com/Tencent/tdesign-icons/blob/main/LICENSE -->
  <path
     fill="currentColor"
     d="M9.009 7.641a7 7 0 1 1 7.35 7.35l-9.224 7.282a1 1 0 0 1-.115.087a2 2 0 0 1-.295.167a2.3 2.3 0 0 1-1.001.207c-.851-.01-1.836-.433-2.93-1.527s-1.52-2.079-1.528-2.93a2.3 2.3 0 0 1 .207-1.002a2 2 0 0 1 .254-.41zm.4 2.722l-6.122 7.754a.4.4 0 0 0-.021.139c.001.16.077.674.94 1.537c.865.863 1.38.94 1.54.941a.4.4 0 0 0 .137-.02l7.754-6.123a7.02 7.02 0 0 1-4.228-4.228M10.414 15L8 17.414L6.586 16L9 13.586z"
     id="path1" />
</svg>
