<?xml version="1.0" encoding="UTF-8" standalone="no"?>
<svg
   width="1.05em"
   height="1em"
   viewBox="0 0 25 24"
   version="1.1"
   id="svg1"
   sodipodi:docname="tdesign-mode-light-filled.svg"
   xmlns:inkscape="http://www.inkscape.org/namespaces/inkscape"
   xmlns:sodipodi="http://sodipodi.sourceforge.net/DTD/sodipodi-0.dtd"
   xmlns="http://www.w3.org/2000/svg"
   xmlns:svg="http://www.w3.org/2000/svg">
  <defs
     id="defs1" />
  <sodipodi:namedview
     id="namedview1"
     pagecolor="#ffffff"
     bordercolor="#000000"
     borderopacity="0.25"
     inkscape:showpageshadow="2"
     inkscape:pageopacity="0.0"
     inkscape:pagecheckerboard="0"
     inkscape:deskcolor="#d1d1d1" />
  <!-- Icon from TDesign Icons by TDesign - https://github.com/Tencent/tdesign-icons/blob/main/LICENSE -->
  <path
     fill="currentColor"
     d="M11.226-.003h2.003V2h-2.003zM4.449 2.803L5.866 4.22L4.45 5.637L3.032 4.22zm15.557 0l1.417 1.417l-1.417 1.417l-1.418-1.417zm-15.78 9.198a8 8 0 1 1 16 0a8 8 0 0 1-16 0m-4-1.004h2.003V13H.226zm22 0h2.004V13h-2.004zM4.449 18.36l1.417 1.416l-1.417 1.418l-1.416-1.418zm15.557 0l1.416 1.416l-1.416 1.418l-1.418-1.418zm-8.78 3.637h2.003V24h-2.003z"
     id="path1" />
</svg>
