<?xml version="1.0" encoding="UTF-8" standalone="no"?>
<svg
   width="1em"
   height="1em"
   viewBox="0 0 24 24"
   version="1.1"
   id="svg1"
   sodipodi:docname="tdesign-map-location-filled.svg"
   xmlns:inkscape="http://www.inkscape.org/namespaces/inkscape"
   xmlns:sodipodi="http://sodipodi.sourceforge.net/DTD/sodipodi-0.dtd"
   xmlns="http://www.w3.org/2000/svg"
   xmlns:svg="http://www.w3.org/2000/svg">
  <defs
     id="defs1" />
  <sodipodi:namedview
     id="namedview1"
     pagecolor="#ffffff"
     bordercolor="#000000"
     borderopacity="0.25"
     inkscape:showpageshadow="2"
     inkscape:pageopacity="0.0"
     inkscape:pagecheckerboard="0"
     inkscape:deskcolor="#d1d1d1" />
  <!-- Icon from TDesign Icons by TDesign - https://github.com/Tencent/tdesign-icons/blob/main/LICENSE -->
  <path
     fill="currentColor"
     d="M7.5 2.717L2 5.926V21.5l5.5-2.267zm2 16.193l1.75 1.033V16.75a6.75 6.75 0 0 1 3.25-5.773V5.091l-5-2.953zM22 2.5v8.812a6.77 6.77 0 0 0-5.5-1.145v-5.4zm-4 21.201l-.203-.134c-.184-.121-.368-.242-.547-.372a13 13 0 0 1-1.865-1.677c-.995-1.094-2.135-2.767-2.135-4.768a4.75 4.75 0 1 1 9.5 0c0 2.001-1.14 3.674-2.135 4.768a13 13 0 0 1-1.865 1.677c-.179.13-.363.25-.547.372zM19.25 16h-2.5v2h2.5z"
     id="path1" />
</svg>
