<?xml version="1.0" encoding="UTF-8" standalone="no"?>
<svg
   width="1em"
   height="1em"
   viewBox="0 0 24 24"
   version="1.1"
   id="svg2"
   sodipodi:docname="tdesign-thunder.svg"
   xmlns:inkscape="http://www.inkscape.org/namespaces/inkscape"
   xmlns:sodipodi="http://sodipodi.sourceforge.net/DTD/sodipodi-0.dtd"
   xmlns="http://www.w3.org/2000/svg"
   xmlns:svg="http://www.w3.org/2000/svg">
  <defs
     id="defs2" />
  <sodipodi:namedview
     id="namedview2"
     pagecolor="#ffffff"
     bordercolor="#000000"
     borderopacity="0.25"
     inkscape:showpageshadow="2"
     inkscape:pageopacity="0.0"
     inkscape:pagecheckerboard="0"
     inkscape:deskcolor="#d1d1d1" />
  <!-- Icon from TDesign Icons by TDesign - https://github.com/Tencent/tdesign-icons/blob/main/LICENSE -->
  <g
     fill="none"
     stroke="currentColor"
     stroke-linecap="square"
     stroke-width="2"
     id="g2">
    <path
       d="M5 16.64c-1.185-.568-2-1.745-2-3.107c0-1.646 1.192-3.025 2.79-3.378Q5.7 9.689 5.7 9.2c0-2.847 2.376-5.16 5.322-5.2a5.7 5.7 0 0 1 1.424.163c2.047.506 3.626 2.138 3.98 4.17h.074a4.6 4.6 0 0 1 2.77.919c1.053.793 1.73 2.028 1.73 3.415c0 1.777-1.11 3.304-2.7 3.973"
       id="path1" />
    <path
       d="m11.5 19l2.522-4h-4l2.478-4"
       id="path2" />
  </g>
</svg>
