<?xml version="1.0" encoding="UTF-8" standalone="no"?>
<svg
   width="1em"
   height="1em"
   viewBox="0 0 24 24"
   version="1.1"
   id="svg1"
   sodipodi:docname="tdesign-fog-sunny-filled.svg"
   xmlns:inkscape="http://www.inkscape.org/namespaces/inkscape"
   xmlns:sodipodi="http://sodipodi.sourceforge.net/DTD/sodipodi-0.dtd"
   xmlns="http://www.w3.org/2000/svg"
   xmlns:svg="http://www.w3.org/2000/svg">
  <defs
     id="defs1" />
  <sodipodi:namedview
     id="namedview1"
     pagecolor="#ffffff"
     bordercolor="#000000"
     borderopacity="0.25"
     inkscape:showpageshadow="2"
     inkscape:pageopacity="0.0"
     inkscape:pagecheckerboard="0"
     inkscape:deskcolor="#d1d1d1" />
  <!-- Icon from TDesign Icons by TDesign - https://github.com/Tencent/tdesign-icons/blob/main/LICENSE -->
  <path
     fill="currentColor"
     d="M13 1v3h-2V1zm7.485 3.928L18.364 7.05L16.95 5.636l2.121-2.122zM4.93 3.514l2.12 2.122L5.636 7.05L3.515 4.929zM6 12a6 6 0 1 1 11.5 2.4l-.262.6H6.762l-.262-.6A6 6 0 0 1 6 12m-5-1h3v2H1zm19 0h3v2h-3zM2 17h6v2H2zm8 0h12v2H10zm7 4h5v2h-5zM2 21h13v2H2z"
     id="path1" />
</svg>
