<?xml version="1.0" encoding="UTF-8" standalone="no"?>
<svg
   width="1em"
   height="1em"
   viewBox="0 0 24 24"
   version="1.1"
   id="svg2"
   sodipodi:docname="tdesign-folder-setting-filled.svg"
   xmlns:inkscape="http://www.inkscape.org/namespaces/inkscape"
   xmlns:sodipodi="http://sodipodi.sourceforge.net/DTD/sodipodi-0.dtd"
   xmlns="http://www.w3.org/2000/svg"
   xmlns:svg="http://www.w3.org/2000/svg">
  <defs
     id="defs2" />
  <sodipodi:namedview
     id="namedview2"
     pagecolor="#ffffff"
     bordercolor="#000000"
     borderopacity="0.25"
     inkscape:showpageshadow="2"
     inkscape:pageopacity="0.0"
     inkscape:pagecheckerboard="0"
     inkscape:deskcolor="#d1d1d1" />
  <!-- Icon from TDesign Icons by TDesign - https://github.com/Tencent/tdesign-icons/blob/main/LICENSE -->
  <path
     fill="currentColor"
     d="M1 2.5h8.48l2 2.5H23v7.846A6.5 6.5 0 0 0 12.876 21H1z"
     id="path1" />
  <path
     fill="currentColor"
     d="M19 13.126V11.75h-2v1.376a4 4 0 0 0-1.854 1.072l-1.193-.689l-1 1.732l1.192.688a4 4 0 0 0 0 2.142l-1.192.688l1 1.732l1.193-.689A4 4 0 0 0 17 20.874v1.376h2v-1.376a4 4 0 0 0 1.854-1.072l1.193.689l1-1.732l-1.192-.688a4 4 0 0 0 0-2.142l1.192-.688l-1-1.732l-1.193.688A4 4 0 0 0 19 13.127m-2.715 2.844a2 2 0 0 1 3.43 0l.036.063c.159.287.249.616.249.967c0 .35-.09.68-.249.967l-.036.063a2 2 0 0 1-3.43 0l-.036-.063a2 2 0 0 1-.25-.967c0-.35.091-.68.25-.967z"
     id="path2" />
</svg>
