<?xml version="1.0" encoding="UTF-8" standalone="no"?>
<svg
   width="1em"
   height="1em"
   viewBox="0 0 24 24"
   version="1.1"
   id="svg2"
   sodipodi:docname="tdesign-call-forwarded-filled.svg"
   xmlns:inkscape="http://www.inkscape.org/namespaces/inkscape"
   xmlns:sodipodi="http://sodipodi.sourceforge.net/DTD/sodipodi-0.dtd"
   xmlns="http://www.w3.org/2000/svg"
   xmlns:svg="http://www.w3.org/2000/svg">
  <defs
     id="defs2" />
  <sodipodi:namedview
     id="namedview2"
     pagecolor="#ffffff"
     bordercolor="#000000"
     borderopacity="0.25"
     inkscape:showpageshadow="2"
     inkscape:pageopacity="0.0"
     inkscape:pagecheckerboard="0"
     inkscape:deskcolor="#d1d1d1" />
  <!-- Icon from TDesign Icons by TDesign - https://github.com/Tencent/tdesign-icons/blob/main/LICENSE -->
  <path
     fill="currentColor"
     d="M9.58 2H1v1a19.9 19.9 0 0 0 3.196 10.85a20.1 20.1 0 0 0 5.954 5.954A19.9 19.9 0 0 0 21 23h1v-8.58l-6.69-1.487l-1.86 1.86a14.1 14.1 0 0 1-4.242-4.243l1.859-1.86z"
     id="path1" />
  <path
     fill="currentColor"
     d="m21.605 2.4l-5.419-.116l-.043 2l2.119.045l-3.293 3.293l1.414 1.414l3.293-3.293l.046 2.119l2-.043z"
     id="path2" />
</svg>
