<?xml version="1.0" encoding="UTF-8" standalone="no"?>
<svg
   width="1em"
   height="1em"
   viewBox="0 0 24 24"
   version="1.1"
   id="svg2"
   sodipodi:docname="tdesign-lightbulb.svg"
   xmlns:inkscape="http://www.inkscape.org/namespaces/inkscape"
   xmlns:sodipodi="http://sodipodi.sourceforge.net/DTD/sodipodi-0.dtd"
   xmlns="http://www.w3.org/2000/svg"
   xmlns:svg="http://www.w3.org/2000/svg">
  <defs
     id="defs2" />
  <sodipodi:namedview
     id="namedview2"
     pagecolor="#ffffff"
     bordercolor="#000000"
     borderopacity="0.25"
     inkscape:showpageshadow="2"
     inkscape:pageopacity="0.0"
     inkscape:pagecheckerboard="0"
     inkscape:deskcolor="#d1d1d1" />
  <!-- Icon from TDesign Icons by TDesign - https://github.com/Tencent/tdesign-icons/blob/main/LICENSE -->
  <g
     fill="none"
     id="g2">
    <path
       d="M12 1c3.97.002 7.2 3.23 7.2 7.2c0 1.09-.217 1.918-.707 3.107c-.491 1.189-1.747 3.697-2.49 5.693H7.997c-.71-2.001-1.992-4.504-2.487-5.693S4.8 9.289 4.8 8.2C4.8 4.23 8.03.998 12 1"
       clip-rule="evenodd"
       id="path1" />
    <path
       stroke="currentColor"
       stroke-linecap="square"
       stroke-width="2"
       d="M8.5 20h7m-5 3h3M12 1c3.97.002 7.2 3.23 7.2 7.2c0 1.09-.217 1.918-.707 3.107c-.491 1.189-1.747 3.697-2.49 5.693H7.997c-.71-2.001-1.992-4.504-2.487-5.693S4.8 9.289 4.8 8.2C4.8 4.23 8.03.998 12 1Z"
       id="path2" />
  </g>
</svg>
