<?xml version="1.0" encoding="UTF-8" standalone="no"?>
<svg
   width="1em"
   height="1em"
   viewBox="0 0 24 24"
   version="1.1"
   id="svg4"
   sodipodi:docname="tdesign-chinese-cabbage.svg"
   xmlns:inkscape="http://www.inkscape.org/namespaces/inkscape"
   xmlns:sodipodi="http://sodipodi.sourceforge.net/DTD/sodipodi-0.dtd"
   xmlns="http://www.w3.org/2000/svg"
   xmlns:svg="http://www.w3.org/2000/svg">
  <defs
     id="defs4" />
  <sodipodi:namedview
     id="namedview4"
     pagecolor="#ffffff"
     bordercolor="#000000"
     borderopacity="0.25"
     inkscape:showpageshadow="2"
     inkscape:pageopacity="0.0"
     inkscape:pagecheckerboard="0"
     inkscape:deskcolor="#d1d1d1" />
  <!-- Icon from TDesign Icons by TDesign - https://github.com/Tencent/tdesign-icons/blob/main/LICENSE -->
  <g
     fill="none"
     id="g4">
    <path
       d="M12 2c2.4 0 3 2 3 3c.524.366 1.369 1.797 1.369 1.797c.003.008 1.128 2.706-.74 4.703c-1.048 1-2.797 2.133-2.797 2.133l.417 1.323c.003.005 1.556 2.958 1.751 3.544s.23 1.688-.419 2.5c-.458.572-1.257 1-2.58 1c-1.325 0-2.124-.428-2.582-1c-.65-.812-.614-1.914-.419-2.5s1.748-3.539 1.75-3.544l.419-1.323c-.007-.004-1.752-1.135-2.797-2.133c-1.87-1.997-.743-4.696-.74-4.703c0 0 .845-1.43 1.368-1.797c0-1 .6-3 3-3"
       id="path1" />
    <path
       d="M8 14.199S2 12.179 2 9c0-4.144 5.632-2.203 5.632-2.203S6.5 9.5 8.372 11.5c1.047 1 2.797 2.133 2.797 2.133l-.418 1.323S9.195 17.914 9 18.5s-.23 1.688.419 2.5C2 21 8 14.198 8 14.198m8 .001s6-2.02 6-5.199c0-4.144-5.632-2.203-5.632-2.203S17.5 9.5 15.628 11.5c-1.047 1-2.796 2.133-2.796 2.133l.417 1.323S14.805 17.914 15 18.5c.196.586.23 1.688-.419 2.5c7.42 0 1.42-6.802 1.42-6.802"
       id="path2" />
    <path
       d="M11.169 13.633L12 12l.832 1.633l.417 1.323L16 14.198S22 21 14.581 21c-.458.572-1.257 1-2.58 1c-1.325 0-2.124-.428-2.582-1C2 21 8 14.198 8 14.198l2.75.758z"
       id="path3" />
    <path
       stroke="currentColor"
       stroke-linecap="square"
       stroke-width="2"
       d="m19 9l-2.634 1.953M5 9l2.634 1.953m8.774 3.747c1.18 1.526 4.176 6.026-1.308 6.288m-2.268-7.355s1.75-1.133 2.796-2.133c1.872-2 .738-4.697.738-4.697S15.522 5.365 15 5c0-1-.6-3-3-3S9 4 9 5c-.523.366-1.368 1.797-1.368 1.797S6.5 9.5 8.372 11.5c1.047 1 2.797 2.133 2.797 2.133l-.418 1.323S9.195 17.914 9 18.5s-.23 1.688.419 2.5c.458.572 1.257 1 2.581 1s2.123-.428 2.581-1c.65-.812.614-1.914.419-2.5s-1.75-3.544-1.75-3.544zm0 0l-.578-1.133m1.683 2.267L16 14.198s6-2.02 6-5.198c0-3.27-3.527-2.74-5-2.377m-6.937 8.144L8 14.198S2 12.179 2 9c0-3.28 3.53-2.748 5-2.383m.592 8.083c-1.18 1.526-4.176 6.026 1.308 6.288M12 6v6m-2-4l1.75 1.75M14 8l-1.75 1.75m-.523 2.75l-.577 1.133"
       id="path4" />
  </g>
</svg>
