<?xml version="1.0" encoding="UTF-8" standalone="no"?>
<svg
   width="1em"
   height="1em"
   viewBox="0 0 24 24"
   version="1.1"
   id="svg1"
   sodipodi:docname="tdesign-cd-filled.svg"
   xmlns:inkscape="http://www.inkscape.org/namespaces/inkscape"
   xmlns:sodipodi="http://sodipodi.sourceforge.net/DTD/sodipodi-0.dtd"
   xmlns="http://www.w3.org/2000/svg"
   xmlns:svg="http://www.w3.org/2000/svg">
  <defs
     id="defs1" />
  <sodipodi:namedview
     id="namedview1"
     pagecolor="#ffffff"
     bordercolor="#000000"
     borderopacity="0.25"
     inkscape:showpageshadow="2"
     inkscape:pageopacity="0.0"
     inkscape:pagecheckerboard="0"
     inkscape:deskcolor="#d1d1d1" />
  <!-- Icon from TDesign Icons by TDesign - https://github.com/Tencent/tdesign-icons/blob/main/LICENSE -->
  <path
     fill="currentColor"
     d="M1 12C1 5.925 5.925 1 12 1s11 4.925 11 11s-4.925 11-11 11S1 18.075 1 12m14.5 0a3.5 3.5 0 1 0-7 0a3.5 3.5 0 0 0 7 0M12 4.5h-.5v1h.5a6.5 6.5 0 0 1 6.5 6.5v.5h1V12A7.5 7.5 0 0 0 12 4.5"
     id="path1" />
</svg>
