<?xml version="1.0" encoding="UTF-8" standalone="no"?>
<svg
   width="1em"
   height="1em"
   viewBox="0 0 24 24"
   version="1.1"
   id="svg1"
   sodipodi:docname="tdesign-subway-line-filled.svg"
   xmlns:inkscape="http://www.inkscape.org/namespaces/inkscape"
   xmlns:sodipodi="http://sodipodi.sourceforge.net/DTD/sodipodi-0.dtd"
   xmlns="http://www.w3.org/2000/svg"
   xmlns:svg="http://www.w3.org/2000/svg">
  <defs
     id="defs1" />
  <sodipodi:namedview
     id="namedview1"
     pagecolor="#ffffff"
     bordercolor="#000000"
     borderopacity="0.25"
     inkscape:showpageshadow="2"
     inkscape:pageopacity="0.0"
     inkscape:pagecheckerboard="0"
     inkscape:deskcolor="#d1d1d1" />
  <!-- Icon from TDesign Icons by TDesign - https://github.com/Tencent/tdesign-icons/blob/main/LICENSE -->
  <path
     fill="currentColor"
     d="M7 2v3h9.17A3 3 0 0 1 18 3.17V2h2v1.17a3.001 3.001 0 0 1 0 5.66V19H8.83A3 3 0 0 1 7 20.83V22H5v-1.17A3 3 0 0 1 3.17 19H2v-2h1.17A3 3 0 0 1 5 15.17V7H2V5h3V2zm0 5v8.17A3 3 0 0 1 8.83 17H18V8.83A3 3 0 0 1 16.17 7z"
     id="path1" />
</svg>
