<?xml version="1.0" encoding="UTF-8" standalone="no"?>
<svg
   width="1em"
   height="1em"
   viewBox="0 0 24 24"
   version="1.1"
   id="svg2"
   sodipodi:docname="tdesign-banana-filled.svg"
   xmlns:inkscape="http://www.inkscape.org/namespaces/inkscape"
   xmlns:sodipodi="http://sodipodi.sourceforge.net/DTD/sodipodi-0.dtd"
   xmlns="http://www.w3.org/2000/svg"
   xmlns:svg="http://www.w3.org/2000/svg">
  <defs
     id="defs2" />
  <sodipodi:namedview
     id="namedview2"
     pagecolor="#ffffff"
     bordercolor="#000000"
     borderopacity="0.25"
     inkscape:showpageshadow="2"
     inkscape:pageopacity="0.0"
     inkscape:pagecheckerboard="0"
     inkscape:deskcolor="#d1d1d1" />
  <!-- Icon from TDesign Icons by TDesign - https://github.com/Tencent/tdesign-icons/blob/main/LICENSE -->
  <path
     fill="currentColor"
     d="m18.6 1.501l3.3 1.5v5.5c3.04 3.828-.448 11.442-7.691 13.122C6.965 23.304 1 19.5 1 15.501C1 14 1.738 13.195 3 14s3.098 1.683 4.86 2.072C13.223 17.253 17.919 14.5 18.6 8.5z"
     id="path1" />
  <path
     fill="currentColor"
     d="M8.237 15.072C13.11 16.253 17.379 13.5 18 7.5c-.678 1.385-2.064 3.703-7 4c-2.883.173-5.449-.803-6.183-1.152c-.734-.35-1.137.152-.921 1.026s1.26 2.727 4.34 3.697"
     id="path2" />
</svg>
