<?xml version="1.0" encoding="UTF-8" standalone="no"?>
<svg
   width="1em"
   height="1em"
   viewBox="0 0 24 24"
   version="1.1"
   id="svg2"
   sodipodi:docname="tdesign-map-collection-filled.svg"
   xmlns:inkscape="http://www.inkscape.org/namespaces/inkscape"
   xmlns:sodipodi="http://sodipodi.sourceforge.net/DTD/sodipodi-0.dtd"
   xmlns="http://www.w3.org/2000/svg"
   xmlns:svg="http://www.w3.org/2000/svg">
  <defs
     id="defs2" />
  <sodipodi:namedview
     id="namedview2"
     pagecolor="#ffffff"
     bordercolor="#000000"
     borderopacity="0.25"
     inkscape:showpageshadow="2"
     inkscape:pageopacity="0.0"
     inkscape:pagecheckerboard="0"
     inkscape:deskcolor="#d1d1d1" />
  <!-- Icon from TDesign Icons by TDesign - https://github.com/Tencent/tdesign-icons/blob/main/LICENSE -->
  <path
     fill="currentColor"
     d="M7.5 2.717L2 5.926V21.5l5.5-2.267zm2 16.193l2.799 1.652A6.97 6.97 0 0 1 11 16.5a7 7 0 0 1 3.5-6.064V5.09l-5-2.953zM22 2.5v8.255a7.03 7.03 0 0 0-5.5-1.094V4.767z"
     id="path1" />
  <path
     fill="currentColor"
     d="m20.211 13.957l-2.21-3.226l-2.212 3.226l-3.75 1.105l2.384 3.1l-.108 3.91L18 20.761l3.685 1.31l-.108-3.91l2.385-3.1z"
     id="path2" />
</svg>
