<?xml version="1.0" encoding="UTF-8" standalone="no"?>
<svg
   width="1em"
   height="1em"
   viewBox="0 0 24 24"
   version="1.1"
   id="svg2"
   sodipodi:docname="tdesign-attic-filled.svg"
   xmlns:inkscape="http://www.inkscape.org/namespaces/inkscape"
   xmlns:sodipodi="http://sodipodi.sourceforge.net/DTD/sodipodi-0.dtd"
   xmlns="http://www.w3.org/2000/svg"
   xmlns:svg="http://www.w3.org/2000/svg">
  <defs
     id="defs2" />
  <sodipodi:namedview
     id="namedview2"
     pagecolor="#ffffff"
     bordercolor="#000000"
     borderopacity="0.25"
     inkscape:showpageshadow="2"
     inkscape:pageopacity="0.0"
     inkscape:pagecheckerboard="0"
     inkscape:deskcolor="#d1d1d1" />
  <!-- Icon from TDesign Icons by TDesign - https://github.com/Tencent/tdesign-icons/blob/main/LICENSE -->
  <path
     fill="currentColor"
     d="m12 .293l.81 1.121l.002.003l.009.011l.033.046l.133.18a55 55 0 0 0 2.214 2.774c.687.803 1.45 1.64 2.206 2.364c.767.735 1.48 1.306 2.067 1.622c.384.206.723.36 1.002.459c.293.104.462.127.524.127h1v2h-1.01a3.4 3.4 0 0 1-.99-.178V11H4v-.178a3.4 3.4 0 0 1-.99.178H2V9h1c.062 0 .23-.023.524-.127c.28-.1.618-.253 1.002-.46c.587-.315 1.3-.886 2.067-1.62a33 33 0 0 0 2.205-2.365a55 55 0 0 0 2.348-2.954l.033-.046l.008-.011l.003-.003zM4 13v7H2v2h7v-3a3 3 0 1 1 6 0v3h7v-2h-2v-7z"
     id="path1" />
  <path
     fill="currentColor"
     d="M12 18a1 1 0 0 0-1 1v3h2v-3a1 1 0 0 0-1-1"
     id="path2" />
</svg>
