<?xml version="1.0" encoding="UTF-8" standalone="no"?>
<svg
   width="1em"
   height="1em"
   viewBox="0 0 24 24"
   version="1.1"
   id="svg2"
   sodipodi:docname="tdesign-radish.svg"
   xmlns:inkscape="http://www.inkscape.org/namespaces/inkscape"
   xmlns:sodipodi="http://sodipodi.sourceforge.net/DTD/sodipodi-0.dtd"
   xmlns="http://www.w3.org/2000/svg"
   xmlns:svg="http://www.w3.org/2000/svg">
  <defs
     id="defs2" />
  <sodipodi:namedview
     id="namedview2"
     pagecolor="#ffffff"
     bordercolor="#000000"
     borderopacity="0.25"
     inkscape:showpageshadow="2"
     inkscape:pageopacity="0.0"
     inkscape:pagecheckerboard="0"
     inkscape:deskcolor="#d1d1d1" />
  <!-- Icon from TDesign Icons by TDesign - https://github.com/Tencent/tdesign-icons/blob/main/LICENSE -->
  <g
     fill="none"
     id="g2">
    <path
       d="M16.3 18.309c3.182-3.182 2.475-6.718-.707-9.9s-6.718-3.889-9.9-.707c-2.545 2.546-3.889 6.718-2.828 13.435c6.718 1.061 10.89-.282 13.435-2.828"
       id="path1" />
    <path
       stroke="currentColor"
       stroke-linecap="square"
       stroke-width="2"
       d="M7.108 6.995L9.582 9.47m2.122 7.071l2.828 2.829M3.218 14.42l2.122 2.121M16 8.001l4-4M21 8.5h-4.5m-1-1V3m.093 5.41c3.182 3.182 3.89 6.717.707 9.899c-2.546 2.546-6.717 3.89-13.435 2.828c-1.06-6.717.283-10.89 2.828-13.435c3.182-3.182 6.718-2.474 9.9.708Z"
       id="path2" />
  </g>
</svg>
