<?xml version="1.0" encoding="UTF-8" standalone="no"?>
<svg
   width="1em"
   height="1em"
   viewBox="0 0 24 24"
   version="1.1"
   id="svg1"
   sodipodi:docname="tdesign-snowflake.svg"
   xmlns:inkscape="http://www.inkscape.org/namespaces/inkscape"
   xmlns:sodipodi="http://sodipodi.sourceforge.net/DTD/sodipodi-0.dtd"
   xmlns="http://www.w3.org/2000/svg"
   xmlns:svg="http://www.w3.org/2000/svg">
  <defs
     id="defs1" />
  <sodipodi:namedview
     id="namedview1"
     pagecolor="#ffffff"
     bordercolor="#000000"
     borderopacity="0.25"
     inkscape:showpageshadow="2"
     inkscape:pageopacity="0.0"
     inkscape:pagecheckerboard="0"
     inkscape:deskcolor="#d1d1d1" />
  <!-- Icon from TDesign Icons by TDesign - https://github.com/Tencent/tdesign-icons/blob/main/LICENSE -->
  <path
     fill="none"
     stroke="currentColor"
     stroke-linecap="square"
     stroke-width="2"
     d="M12 2v3m0 17v-3m2-16l-2 2m0 0l-2-2m2 2v7.048M14 21l-2-2m0 0l-2 2m2-2v-6.952M21 14l-2-2m0 0l2-2m-2 2h3m-3 0l-7 .048M3 14l2-2m0 0l-2-2m2 2H2m3 0l7 .048m4.95-4.998L12 12.048M7.05 16.95L12 12.048m0 0l4.95 4.902M12 12.048L7.05 7.05"
     id="path1" />
</svg>
