<?xml version="1.0" encoding="UTF-8" standalone="no"?>
<svg
   width="1em"
   height="1em"
   viewBox="0 0 24 24"
   version="1.1"
   id="svg1"
   sodipodi:docname="tdesign-bug-report-filled.svg"
   xmlns:inkscape="http://www.inkscape.org/namespaces/inkscape"
   xmlns:sodipodi="http://sodipodi.sourceforge.net/DTD/sodipodi-0.dtd"
   xmlns="http://www.w3.org/2000/svg"
   xmlns:svg="http://www.w3.org/2000/svg">
  <defs
     id="defs1" />
  <sodipodi:namedview
     id="namedview1"
     pagecolor="#ffffff"
     bordercolor="#000000"
     borderopacity="0.25"
     inkscape:showpageshadow="2"
     inkscape:pageopacity="0.0"
     inkscape:pagecheckerboard="0"
     inkscape:deskcolor="#d1d1d1" />
  <!-- Icon from TDesign Icons by TDesign - https://github.com/Tencent/tdesign-icons/blob/main/LICENSE -->
  <path
     fill="currentColor"
     d="M9.493 4.43A7.5 7.5 0 0 1 12 4c.878 0 1.722.151 2.507.43l2.365-2.838l1.536 1.28l-2.083 2.5A7.5 7.5 0 0 1 19.073 9H22v2h-2.516q.015.248.016.5v5q0 .252-.016.5H22v2h-2.927a7.503 7.503 0 0 1-14.146 0H2v-2h2.516a8 8 0 0 1-.016-.5v-5q0-.252.016-.5H2V9h2.927a7.5 7.5 0 0 1 2.748-3.628l-2.083-2.5l1.536-1.28zM15 12v-2H9v2zm0 6v-2H9v2z"
     id="path1" />
</svg>
