<?xml version="1.0" encoding="UTF-8" standalone="no"?>
<svg
   width="1em"
   height="1em"
   viewBox="0 0 24 24"
   version="1.1"
   id="svg2"
   sodipodi:docname="tdesign-chart-ring-1-filled.svg"
   xmlns:inkscape="http://www.inkscape.org/namespaces/inkscape"
   xmlns:sodipodi="http://sodipodi.sourceforge.net/DTD/sodipodi-0.dtd"
   xmlns="http://www.w3.org/2000/svg"
   xmlns:svg="http://www.w3.org/2000/svg">
  <defs
     id="defs2" />
  <sodipodi:namedview
     id="namedview2"
     pagecolor="#ffffff"
     bordercolor="#000000"
     borderopacity="0.25"
     inkscape:showpageshadow="2"
     inkscape:pageopacity="0.0"
     inkscape:pagecheckerboard="0"
     inkscape:deskcolor="#d1d1d1" />
  <!-- Icon from TDesign Icons by TDesign - https://github.com/Tencent/tdesign-icons/blob/main/LICENSE -->
  <path
     fill="currentColor"
     d="M3.184 13.807a9 9 0 0 1 7.011-10.623l.98-.2l-.401-1.96l-.98.2C3.842 2.445.006 8.258 1.224 14.209c1.22 5.952 7.033 9.788 12.985 8.57c4.546-.932 7.855-4.543 8.624-8.845l.176-.985l-1.97-.351l-.175.984a9 9 0 0 1-7.057 7.237a9 9 0 0 1-10.623-7.011"
     id="path1" />
  <path
     fill="currentColor"
     d="m14.289 1.239l-.979-.209l-.416 1.956l.978.209a9 9 0 0 1 6.946 7l.2.98l1.96-.402l-.2-.98a11 11 0 0 0-8.49-8.554M12.001 17a5 5 0 1 0 0-10a5 5 0 0 0 0 10"
     id="path2" />
</svg>
