<?xml version="1.0" encoding="UTF-8" standalone="no"?>
<svg
   width="1em"
   height="1em"
   viewBox="0 0 24 24"
   version="1.1"
   id="svg4"
   sodipodi:docname="tdesign-map-distance.svg"
   xmlns:inkscape="http://www.inkscape.org/namespaces/inkscape"
   xmlns:sodipodi="http://sodipodi.sourceforge.net/DTD/sodipodi-0.dtd"
   xmlns="http://www.w3.org/2000/svg"
   xmlns:svg="http://www.w3.org/2000/svg">
  <defs
     id="defs4" />
  <sodipodi:namedview
     id="namedview4"
     pagecolor="#ffffff"
     bordercolor="#000000"
     borderopacity="0.25"
     inkscape:showpageshadow="2"
     inkscape:pageopacity="0.0"
     inkscape:pagecheckerboard="0"
     inkscape:deskcolor="#d1d1d1" />
  <!-- Icon from TDesign Icons by TDesign - https://github.com/Tencent/tdesign-icons/blob/main/LICENSE -->
  <g
     fill="none"
     id="g4">
    <path
       d="M21 3H3v18h18z"
       id="path1" />
    <path
       d="M18 7.5c0 1.219-1.5 2.25-1.5 2.25S15 8.719 15 7.5a1.5 1.5 0 0 1 3 0m-8 3c0 1.219-1.5 2.25-1.5 2.25S7 11.719 7 10.5a1.5 1.5 0 1 1 3 0"
       id="path2" />
    <path
       stroke="currentColor"
       stroke-linecap="square"
       stroke-width="2"
       d="M21 3H3v18h18z"
       id="path3" />
    <path
       stroke="currentColor"
       stroke-linecap="square"
       stroke-width="2"
       d="m14.5 14.5l4-1.5m-12 4.5l4-1.5M18 7.5c0 1.219-1.5 2.25-1.5 2.25S15 8.719 15 7.5a1.5 1.5 0 0 1 3 0Zm-8 3c0 1.219-1.5 2.25-1.5 2.25S7 11.719 7 10.5a1.5 1.5 0 1 1 3 0Z"
       id="path4" />
  </g>
</svg>
