<?xml version="1.0" encoding="UTF-8" standalone="no"?>
<svg
   width="1em"
   height="1em"
   viewBox="0 0 24 24"
   version="1.1"
   id="svg3"
   sodipodi:docname="tdesign-shop-1-filled.svg"
   xmlns:inkscape="http://www.inkscape.org/namespaces/inkscape"
   xmlns:sodipodi="http://sodipodi.sourceforge.net/DTD/sodipodi-0.dtd"
   xmlns="http://www.w3.org/2000/svg"
   xmlns:svg="http://www.w3.org/2000/svg">
  <defs
     id="defs3" />
  <sodipodi:namedview
     id="namedview3"
     pagecolor="#ffffff"
     bordercolor="#000000"
     borderopacity="0.25"
     inkscape:showpageshadow="2"
     inkscape:pageopacity="0.0"
     inkscape:pagecheckerboard="0"
     inkscape:deskcolor="#d1d1d1" />
  <!-- Icon from TDesign Icons by TDesign - https://github.com/Tencent/tdesign-icons/blob/main/LICENSE -->
  <path
     fill="currentColor"
     d="M22 2H2v3a4 4 0 0 0 7 2.646A4 4 0 0 0 12 9a4 4 0 0 0 3-1.354A4 4 0 0 0 22 5z"
     id="path1" />
  <path
     fill="currentColor"
     d="M2 22V9.473A5.98 5.98 0 0 0 6 11a6 6 0 0 0 3-.803c.882.51 1.907.803 3 .803a6 6 0 0 0 3-.803c.882.51 1.907.803 3 .803a5.98 5.98 0 0 0 4-1.527V22h-5.5v-8h-9v8z"
     id="path2" />
  <path
     fill="currentColor"
     d="M9.5 16v6h5v-6z"
     id="path3" />
</svg>
