<?xml version="1.0" encoding="UTF-8" standalone="no"?>
<svg
   width="1em"
   height="1em"
   viewBox="0 0 24 24"
   version="1.1"
   id="svg1"
   sodipodi:docname="tdesign-user-unlocked-filled.svg"
   xmlns:inkscape="http://www.inkscape.org/namespaces/inkscape"
   xmlns:sodipodi="http://sodipodi.sourceforge.net/DTD/sodipodi-0.dtd"
   xmlns="http://www.w3.org/2000/svg"
   xmlns:svg="http://www.w3.org/2000/svg">
  <defs
     id="defs1" />
  <sodipodi:namedview
     id="namedview1"
     pagecolor="#ffffff"
     bordercolor="#000000"
     borderopacity="0.25"
     inkscape:showpageshadow="2"
     inkscape:pageopacity="0.0"
     inkscape:pagecheckerboard="0"
     inkscape:deskcolor="#d1d1d1" />
  <!-- Icon from TDesign Icons by TDesign - https://github.com/Tencent/tdesign-icons/blob/main/LICENSE -->
  <path
     fill="currentColor"
     d="M6 7.5a5.5 5.5 0 1 1 11 0a5.5 5.5 0 0 1-11 0M18 14c-.69 0-1.25.56-1.25 1.25V16h5.749v6.5h-9V16h1.251v-.75a3.25 3.25 0 0 1 5.541-2.305l.71.705l-1.41 1.418l-.71-.705A1.24 1.24 0 0 0 18 14m-6.5 8H2v-2a6 6 0 0 1 6-6h3.5z"
     id="path1" />
</svg>
