<?xml version="1.0" encoding="UTF-8" standalone="no"?>
<svg
   width="1em"
   height="1em"
   viewBox="0 0 24 24"
   version="1.1"
   id="svg2"
   sodipodi:docname="tdesign-image-error-filled.svg"
   xmlns:inkscape="http://www.inkscape.org/namespaces/inkscape"
   xmlns:sodipodi="http://sodipodi.sourceforge.net/DTD/sodipodi-0.dtd"
   xmlns="http://www.w3.org/2000/svg"
   xmlns:svg="http://www.w3.org/2000/svg">
  <defs
     id="defs2" />
  <sodipodi:namedview
     id="namedview2"
     pagecolor="#ffffff"
     bordercolor="#000000"
     borderopacity="0.25"
     inkscape:showpageshadow="2"
     inkscape:pageopacity="0.0"
     inkscape:pagecheckerboard="0"
     inkscape:deskcolor="#d1d1d1" />
  <!-- Icon from TDesign Icons by TDesign - https://github.com/Tencent/tdesign-icons/blob/main/LICENSE -->
  <path
     fill="currentColor"
     d="M22 2H2v20h11.232a6.5 6.5 0 0 1-.732-3c0-1.9.816-3.61 2.116-4.799L9 8.586l-5 5V4h16v8.576a6.5 6.5 0 0 1 2 .656z"
     id="path1" />
  <path
     fill="currentColor"
     d="M16 5.25a2.75 2.75 0 1 0 0 5.5a2.75 2.75 0 0 0 0-5.5m5.829 17.993l1.414-1.415L20.415 19l2.828-2.828l-1.414-1.415L19 17.586l-2.828-2.829l-1.414 1.415L17.586 19l-2.828 2.828l1.414 1.415L19 20.414z"
     id="path2" />
</svg>
