<?xml version="1.0" encoding="UTF-8" standalone="no"?>
<svg
   width="1em"
   height="1em"
   viewBox="0 0 24 24"
   version="1.1"
   id="svg5"
   sodipodi:docname="tdesign-castle.svg"
   xmlns:inkscape="http://www.inkscape.org/namespaces/inkscape"
   xmlns:sodipodi="http://sodipodi.sourceforge.net/DTD/sodipodi-0.dtd"
   xmlns="http://www.w3.org/2000/svg"
   xmlns:svg="http://www.w3.org/2000/svg">
  <defs
     id="defs5" />
  <sodipodi:namedview
     id="namedview5"
     pagecolor="#ffffff"
     bordercolor="#000000"
     borderopacity="0.25"
     inkscape:showpageshadow="2"
     inkscape:pageopacity="0.0"
     inkscape:pagecheckerboard="0"
     inkscape:deskcolor="#d1d1d1" />
  <!-- Icon from TDesign Icons by TDesign - https://github.com/Tencent/tdesign-icons/blob/main/LICENSE -->
  <g
     fill="none"
     id="g5">
    <path
       d="M6 5h12v16H6z"
       id="path1" />
    <path
       d="M14 14h-4v7h4zM2 21h4v-6H2zm16 0h4v-6h-4z"
       id="path2" />
    <path
       d="M14 14h-4v7h4z"
       id="path3" />
    <path
       stroke="currentColor"
       stroke-linecap="square"
       stroke-width="2"
       d="M2 15v6h4v-6zm0 0v-1m20 1v6h-4v-6zm0 0v-1m-12 0h4v7h-4z"
       id="path4" />
    <path
       stroke="currentColor"
       stroke-linecap="square"
       stroke-width="2"
       d="M18 5V3m0 2h-4m4 0v16H6V5m0 0V3m0 2h4m0-2v2m0 0h4m0-2v2"
       id="path5" />
  </g>
</svg>
