<?xml version="1.0" encoding="UTF-8" standalone="no"?>
<svg
   width="1em"
   height="1em"
   viewBox="0 0 24 24"
   version="1.1"
   id="svg1"
   sodipodi:docname="tdesign-ice-cream-filled.svg"
   xmlns:inkscape="http://www.inkscape.org/namespaces/inkscape"
   xmlns:sodipodi="http://sodipodi.sourceforge.net/DTD/sodipodi-0.dtd"
   xmlns="http://www.w3.org/2000/svg"
   xmlns:svg="http://www.w3.org/2000/svg">
  <defs
     id="defs1" />
  <sodipodi:namedview
     id="namedview1"
     pagecolor="#ffffff"
     bordercolor="#000000"
     borderopacity="0.25"
     inkscape:showpageshadow="2"
     inkscape:pageopacity="0.0"
     inkscape:pagecheckerboard="0"
     inkscape:deskcolor="#d1d1d1" />
  <!-- Icon from TDesign Icons by TDesign - https://github.com/Tencent/tdesign-icons/blob/main/LICENSE -->
  <path
     fill="currentColor"
     d="M15 2.717c-1.757-1.153-4.17-.961-5.708.576a4.55 4.55 0 0 0-1.316 3.531L2.073 19.291l-.008.017c-.711 1.66.967 3.337 2.626 2.626l.018-.007l12.467-5.904a4.55 4.55 0 0 0 3.53-1.316c1.538-1.537 1.73-3.95.576-5.707c1.154-1.756.962-4.17-.575-5.707S16.756 1.563 15 2.717m1.414 1.496c.94-.436 2.113-.272 2.878.494c.976.975.976 2.61 0 3.586c-.765.766-1.937.93-2.878.494a4.59 4.59 0 0 0 0-4.574m3.372 6.202c.437.94.272 2.112-.494 2.878c-.5.5-1.173.752-1.844.74l-7.482-7.48a2.55 2.55 0 0 1 .74-1.846c.976-.975 2.611-.975 3.587 0c.975.975.975 2.61 0 3.586L13.585 9l.707.707c1.476 1.476 3.76 1.712 5.494.708"
     id="path1" />
</svg>
