<?xml version="1.0" encoding="UTF-8" standalone="no"?>
<svg
   width="1em"
   height="1em"
   viewBox="0 0 24 24"
   version="1.1"
   id="svg1"
   sodipodi:docname="tdesign-file-excel-filled.svg"
   xmlns:inkscape="http://www.inkscape.org/namespaces/inkscape"
   xmlns:sodipodi="http://sodipodi.sourceforge.net/DTD/sodipodi-0.dtd"
   xmlns="http://www.w3.org/2000/svg"
   xmlns:svg="http://www.w3.org/2000/svg">
  <defs
     id="defs1" />
  <sodipodi:namedview
     id="namedview1"
     pagecolor="#ffffff"
     bordercolor="#000000"
     borderopacity="0.25"
     inkscape:showpageshadow="2"
     inkscape:pageopacity="0.0"
     inkscape:pagecheckerboard="0"
     inkscape:deskcolor="#d1d1d1" />
  <!-- Icon from TDesign Icons by TDesign - https://github.com/Tencent/tdesign-icons/blob/main/LICENSE -->
  <path
     fill="currentColor"
     d="M15.414 1H3v22h18V6.586zM14.5 7.5V3L19 7.5zm.5 4.147a2 2 0 0 1-.612 1.44l-.947.913l.947.914a2 2 0 0 1 .612 1.44V18h-2v-1.646l-1-.965l-1 .965V18H9v-1.646a2 2 0 0 1 .612-1.44l.947-.914l-.947-.914A2 2 0 0 1 9 11.646V10h2v1.646l1 .965l1-.965V10h2z"
     id="path1" />
</svg>
