<?xml version="1.0" encoding="UTF-8" standalone="no"?>
<svg
   width="1em"
   height="1em"
   viewBox="0 0 24 24"
   version="1.1"
   id="svg3"
   sodipodi:docname="tdesign-attic-1.svg"
   xmlns:inkscape="http://www.inkscape.org/namespaces/inkscape"
   xmlns:sodipodi="http://sodipodi.sourceforge.net/DTD/sodipodi-0.dtd"
   xmlns="http://www.w3.org/2000/svg"
   xmlns:svg="http://www.w3.org/2000/svg">
  <defs
     id="defs3" />
  <sodipodi:namedview
     id="namedview3"
     pagecolor="#ffffff"
     bordercolor="#000000"
     borderopacity="0.25"
     inkscape:showpageshadow="2"
     inkscape:pageopacity="0.0"
     inkscape:pagecheckerboard="0"
     inkscape:deskcolor="#d1d1d1" />
  <!-- Icon from TDesign Icons by TDesign - https://github.com/Tencent/tdesign-icons/blob/main/LICENSE -->
  <g
     fill="none"
     id="g3">
    <path
       d="M12 2c.02.031 2.778 4.144 5.998 6v10H6L5.998 8C9.232 6.138 12 2 12 2"
       id="path1" />
    <path
       d="M10 14.8a2 2 0 0 1 4 0V18h-4z"
       id="path2" />
    <path
       stroke="currentColor"
       stroke-linecap="square"
       stroke-width="2"
       d="M10 14.8a2 2 0 0 1 4 0V18h-4zM4.998 18h-1m1 0v3m0-3h1m14 0h-1m0 0v3m0-3h-1m-6 3v-3m0 0h6m-6 0h-6m-2-9.5c.673 0 1.346-.123 2-.5C9.232 6.138 12 2 12 2s2.766 4.137 5.998 6c.654.376 1.327.5 2 .5m-2 9.5V8.5m-12 9.5V8.5M6.75 8h10.502"
       id="path3" />
  </g>
</svg>
