<?xml version="1.0" encoding="UTF-8" standalone="no"?>
<svg
   width="1em"
   height="1em"
   viewBox="0 0 24 24"
   version="1.1"
   id="svg1"
   sodipodi:docname="tdesign-map-bubble-filled.svg"
   xmlns:inkscape="http://www.inkscape.org/namespaces/inkscape"
   xmlns:sodipodi="http://sodipodi.sourceforge.net/DTD/sodipodi-0.dtd"
   xmlns="http://www.w3.org/2000/svg"
   xmlns:svg="http://www.w3.org/2000/svg">
  <defs
     id="defs1" />
  <sodipodi:namedview
     id="namedview1"
     pagecolor="#ffffff"
     bordercolor="#000000"
     borderopacity="0.25"
     inkscape:showpageshadow="2"
     inkscape:pageopacity="0.0"
     inkscape:pagecheckerboard="0"
     inkscape:deskcolor="#d1d1d1" />
  <!-- Icon from TDesign Icons by TDesign - https://github.com/Tencent/tdesign-icons/blob/main/LICENSE -->
  <path
     fill="currentColor"
     d="M15.074 5.386L22 2.5v15.574l-7 4.084l-6.074-3.544L2 21.5V5.926l7-4.084zM7.5 7.5a1.75 1.75 0 1 0 0 3.5a1.75 1.75 0 0 0 0-3.5m6.5 1a1.75 1.75 0 1 0 0 3.5a1.75 1.75 0 0 0 0-3.5M10 12a1.75 1.75 0 1 0 0 3.5a1.75 1.75 0 0 0 0-3.5m6.5 1a1.75 1.75 0 1 0 0 3.5a1.75 1.75 0 0 0 0-3.5"
     id="path1" />
</svg>
