<?xml version="1.0" encoding="UTF-8" standalone="no"?>
<svg
   width="1em"
   height="1em"
   viewBox="0 0 24 24"
   version="1.1"
   id="svg2"
   sodipodi:docname="tdesign-wealth-filled.svg"
   xmlns:inkscape="http://www.inkscape.org/namespaces/inkscape"
   xmlns:sodipodi="http://sodipodi.sourceforge.net/DTD/sodipodi-0.dtd"
   xmlns="http://www.w3.org/2000/svg"
   xmlns:svg="http://www.w3.org/2000/svg">
  <defs
     id="defs2" />
  <sodipodi:namedview
     id="namedview2"
     pagecolor="#ffffff"
     bordercolor="#000000"
     borderopacity="0.25"
     inkscape:showpageshadow="2"
     inkscape:pageopacity="0.0"
     inkscape:pagecheckerboard="0"
     inkscape:deskcolor="#d1d1d1" />
  <!-- Icon from TDesign Icons by TDesign - https://github.com/Tencent/tdesign-icons/blob/main/LICENSE -->
  <path
     fill="currentColor"
     d="M6.75 2.5h10.5v2.75c0 1.57-.69 2.98-1.783 3.942a9.03 9.03 0 0 1 4.41 3.951l.215.388A5.5 5.5 0 0 0 14.89 22H7a4 4 0 0 1-4-4v-.5a9 9 0 0 1 5.533-8.308A5.24 5.24 0 0 1 6.75 5.25z"
     id="path1" />
  <path
     fill="currentColor"
     d="M23 18v-2h-7v2zm0 4v-2h-7v2z"
     id="path2" />
</svg>
