<?xml version="1.0" encoding="UTF-8" standalone="no"?>
<svg
   width="1em"
   height="1em"
   viewBox="0 0 24 24"
   version="1.1"
   id="svg2"
   sodipodi:docname="tdesign-gesture-typing.svg"
   xmlns:inkscape="http://www.inkscape.org/namespaces/inkscape"
   xmlns:sodipodi="http://sodipodi.sourceforge.net/DTD/sodipodi-0.dtd"
   xmlns="http://www.w3.org/2000/svg"
   xmlns:svg="http://www.w3.org/2000/svg">
  <defs
     id="defs2" />
  <sodipodi:namedview
     id="namedview2"
     pagecolor="#ffffff"
     bordercolor="#000000"
     borderopacity="0.25"
     inkscape:showpageshadow="2"
     inkscape:pageopacity="0.0"
     inkscape:pagecheckerboard="0"
     inkscape:deskcolor="#d1d1d1" />
  <!-- Icon from TDesign Icons by TDesign - https://github.com/Tencent/tdesign-icons/blob/main/LICENSE -->
  <g
     fill="none"
     id="g2">
    <path
       d="M12.756 12.02V8.066a1.756 1.756 0 0 0-3.512 0v8.785l-3.362-.748a.88.88 0 0 0-.922.37l-.544.817l3.862 5.024c.332.432.847.686 1.393.686h7.085c.756 0 1.428-.484 1.667-1.202l1.782-5.35a1.76 1.76 0 0 0-.78-2.073l-3.626-2.115a1.76 1.76 0 0 0-.885-.24zM5 2a1 1 0 1 1-2 0a1 1 0 0 1 2 0m6 1a1 1 0 1 0 0-2a1 1 0 0 0 0 2m8-1a1 1 0 1 1-2 0a1 1 0 0 1 2 0m-1 7a1 1 0 1 0 0-2a1 1 0 0 0 0 2M5 8a1 1 0 1 1-2 0a1 1 0 0 1 2 0"
       id="path1" />
    <path
       stroke="currentColor"
       stroke-linecap="square"
       stroke-width="2"
       d="M9.244 16.85V8.067a1.756 1.756 0 0 1 3.512 0v3.954h2.158a1.76 1.76 0 0 1 .885.24l3.625 2.115a1.76 1.76 0 0 1 .781 2.072l-1.782 5.35A1.76 1.76 0 0 1 16.756 23H9.671c-.546 0-1.06-.253-1.393-.686L4.416 17.29l.544-.817a.88.88 0 0 1 .922-.37zM5 2a1 1 0 1 1-2 0a1 1 0 0 1 2 0Zm6 1a1 1 0 1 0 0-2a1 1 0 0 0 0 2Zm8-1a1 1 0 1 1-2 0a1 1 0 0 1 2 0Zm-1 7a1 1 0 1 0 0-2a1 1 0 0 0 0 2ZM5 8a1 1 0 1 1-2 0a1 1 0 0 1 2 0Z"
       id="path2" />
  </g>
</svg>
