<?xml version="1.0" encoding="UTF-8" standalone="no"?>
<svg
   width="1em"
   height="1em"
   viewBox="0 0 24 24"
   version="1.1"
   id="svg2"
   sodipodi:docname="tdesign-mobile-shortcut-filled.svg"
   xmlns:inkscape="http://www.inkscape.org/namespaces/inkscape"
   xmlns:sodipodi="http://sodipodi.sourceforge.net/DTD/sodipodi-0.dtd"
   xmlns="http://www.w3.org/2000/svg"
   xmlns:svg="http://www.w3.org/2000/svg">
  <defs
     id="defs2" />
  <sodipodi:namedview
     id="namedview2"
     pagecolor="#ffffff"
     bordercolor="#000000"
     borderopacity="0.25"
     inkscape:showpageshadow="2"
     inkscape:pageopacity="0.0"
     inkscape:pagecheckerboard="0"
     inkscape:deskcolor="#d1d1d1" />
  <!-- Icon from TDesign Icons by TDesign - https://github.com/Tencent/tdesign-icons/blob/main/LICENSE -->
  <path
     fill="currentColor"
     d="M4 1h16v4h-2V3H6v14h14v6H4zm9.004 18H11v2.004h2.004z"
     id="path1" />
  <path
     fill="currentColor"
     d="m23.455 14.506l-1.569.78l-.78 1.57l-.782-1.57l-1.568-.78l1.569-.78l.78-1.57l.781 1.57zm-8.495-2.409l1.097 2.204l1.097-2.204l2.204-1.098l-2.204-1.097l-1.097-2.204l-1.097 2.204L12.756 11zm8.495-4.601l-1.569.781l-.78 1.569l-.782-1.569l-1.568-.78l1.569-.782l.78-1.569l.781 1.57z"
     id="path2" />
</svg>
