<?xml version="1.0" encoding="UTF-8" standalone="no"?>
<svg
   width="1em"
   height="1em"
   viewBox="0 0 24 24"
   version="1.1"
   id="svg1"
   sodipodi:docname="tdesign-secured-filled.svg"
   xmlns:inkscape="http://www.inkscape.org/namespaces/inkscape"
   xmlns:sodipodi="http://sodipodi.sourceforge.net/DTD/sodipodi-0.dtd"
   xmlns="http://www.w3.org/2000/svg"
   xmlns:svg="http://www.w3.org/2000/svg">
  <defs
     id="defs1" />
  <sodipodi:namedview
     id="namedview1"
     pagecolor="#ffffff"
     bordercolor="#000000"
     borderopacity="0.25"
     inkscape:showpageshadow="2"
     inkscape:pageopacity="0.0"
     inkscape:pagecheckerboard="0"
     inkscape:deskcolor="#d1d1d1" />
  <!-- Icon from TDesign Icons by TDesign - https://github.com/Tencent/tdesign-icons/blob/main/LICENSE -->
  <path
     fill="currentColor"
     d="M22 3.94L12 .44L2 3.94V12c0 4.127 2.534 7.012 4.896 8.803a19.8 19.8 0 0 0 4.65 2.595q.17.064.342.122l.112.04l.114-.04a14 14 0 0 0 .65-.244a19.7 19.7 0 0 0 4.34-2.473C19.467 19.012 22 16.127 22 12zM11.001 15.415L6.76 11.172l1.414-1.415l2.828 2.829l5.657-5.657l1.415 1.414z"
     id="path1" />
</svg>
