<?xml version="1.0" encoding="UTF-8" standalone="no"?>
<svg
   width="1em"
   height="1em"
   viewBox="0 0 24 24"
   version="1.1"
   id="svg2"
   sodipodi:docname="tdesign-sitemap.svg"
   xmlns:inkscape="http://www.inkscape.org/namespaces/inkscape"
   xmlns:sodipodi="http://sodipodi.sourceforge.net/DTD/sodipodi-0.dtd"
   xmlns="http://www.w3.org/2000/svg"
   xmlns:svg="http://www.w3.org/2000/svg">
  <defs
     id="defs2" />
  <sodipodi:namedview
     id="namedview2"
     pagecolor="#ffffff"
     bordercolor="#000000"
     borderopacity="0.25"
     inkscape:showpageshadow="2"
     inkscape:pageopacity="0.0"
     inkscape:pagecheckerboard="0"
     inkscape:deskcolor="#d1d1d1" />
  <!-- Icon from TDesign Icons by TDesign - https://github.com/Tencent/tdesign-icons/blob/main/LICENSE -->
  <g
     fill="none"
     id="g2">
    <path
       d="M21 5.5a2.5 2.5 0 1 1-5 0a2.5 2.5 0 0 1 5 0m0 13a2.5 2.5 0 1 1-5 0a2.5 2.5 0 0 1 5 0m-13 0a2.5 2.5 0 1 1-5 0a2.5 2.5 0 0 1 5 0m0-13a2.5 2.5 0 1 1-5 0a2.5 2.5 0 0 1 5 0"
       id="path1" />
    <path
       stroke="currentColor"
       stroke-linecap="square"
       stroke-width="2"
       d="M16 5.5a2.5 2.5 0 1 0 5 0a2.5 2.5 0 0 0-5 0Zm0 0H8M5.5 16a2.5 2.5 0 1 0 0 5a2.5 2.5 0 0 0 0-5Zm0 0V8M8 5.5A2.5 2.5 0 0 1 5.5 8M8 5.5A2.5 2.5 0 1 0 5.5 8m11 8.5l-9-9m13.5 11a2.5 2.5 0 1 1-5 0a2.5 2.5 0 0 1 5 0Z"
       id="path2" />
  </g>
</svg>
