<?xml version="1.0" encoding="UTF-8" standalone="no"?>
<svg
   width="1em"
   height="1em"
   viewBox="0 0 24 24"
   version="1.1"
   id="svg1"
   sodipodi:docname="tdesign-moon-fall-filled.svg"
   xmlns:inkscape="http://www.inkscape.org/namespaces/inkscape"
   xmlns:sodipodi="http://sodipodi.sourceforge.net/DTD/sodipodi-0.dtd"
   xmlns="http://www.w3.org/2000/svg"
   xmlns:svg="http://www.w3.org/2000/svg">
  <defs
     id="defs1" />
  <sodipodi:namedview
     id="namedview1"
     pagecolor="#ffffff"
     bordercolor="#000000"
     borderopacity="0.25"
     inkscape:showpageshadow="2"
     inkscape:pageopacity="0.0"
     inkscape:pagecheckerboard="0"
     inkscape:deskcolor="#d1d1d1" />
  <!-- Icon from TDesign Icons by TDesign - https://github.com/Tencent/tdesign-icons/blob/main/LICENSE -->
  <path
     fill="currentColor"
     d="m10.916 1.692l-.45 1.674c-.3 1.116-.27 2.337.07 3.604a7 7 0 0 0 9.84 4.476l1.541-.752l-.104 1.711c-.062 1.034-.374 2.06-.919 3.149l-.276.553h-5.92L12 17.907l-2.697-1.8H2.828l-.304-.746l-.113-.288a8 8 0 0 1-.24-.685C.74 9.053 3.906 3.57 9.24 2.141zM1 18.107h8.303L12 19.905l2.697-1.798H23v2h-7.697L12 22.308l-3.303-2.201H1z"
     id="path1" />
</svg>
