<?xml version="1.0" encoding="UTF-8" standalone="no"?>
<svg
   width="1em"
   height="1em"
   viewBox="0 0 24 24"
   version="1.1"
   id="svg3"
   sodipodi:docname="tdesign-task-location-filled.svg"
   xmlns:inkscape="http://www.inkscape.org/namespaces/inkscape"
   xmlns:sodipodi="http://sodipodi.sourceforge.net/DTD/sodipodi-0.dtd"
   xmlns="http://www.w3.org/2000/svg"
   xmlns:svg="http://www.w3.org/2000/svg">
  <defs
     id="defs3" />
  <sodipodi:namedview
     id="namedview3"
     pagecolor="#ffffff"
     bordercolor="#000000"
     borderopacity="0.25"
     inkscape:showpageshadow="2"
     inkscape:pageopacity="0.0"
     inkscape:pagecheckerboard="0"
     inkscape:deskcolor="#d1d1d1" />
  <!-- Icon from TDesign Icons by TDesign - https://github.com/Tencent/tdesign-icons/blob/main/LICENSE -->
  <path
     fill="currentColor"
     d="M16 1H8v4h8z"
     id="path1" />
  <path
     fill="currentColor"
     d="M3 3h3v4h12V3h3v7.917a6.25 6.25 0 0 0-8.5 5.833c0 2.563 1.445 4.589 2.525 5.777q.229.25.452.473H3z"
     id="path2" />
  <path
     fill="currentColor"
     d="m18.75 23.701l-.203-.134a14 14 0 0 1-.547-.372a13 13 0 0 1-1.865-1.677C15.14 20.424 14 18.75 14 16.75a4.75 4.75 0 1 1 9.5 0c0 2.001-1.14 3.674-2.135 4.768a13 13 0 0 1-1.865 1.677c-.179.13-.363.25-.547.372zM17.5 16v2H20v-2z"
     id="path3" />
</svg>
