<?xml version="1.0" encoding="UTF-8" standalone="no"?>
<svg
   width="1em"
   height="1em"
   viewBox="0 0 24 24"
   version="1.1"
   id="svg2"
   sodipodi:docname="tdesign-thumb-up-2.svg"
   xmlns:inkscape="http://www.inkscape.org/namespaces/inkscape"
   xmlns:sodipodi="http://sodipodi.sourceforge.net/DTD/sodipodi-0.dtd"
   xmlns="http://www.w3.org/2000/svg"
   xmlns:svg="http://www.w3.org/2000/svg">
  <defs
     id="defs2" />
  <sodipodi:namedview
     id="namedview2"
     pagecolor="#ffffff"
     bordercolor="#000000"
     borderopacity="0.25"
     inkscape:showpageshadow="2"
     inkscape:pageopacity="0.0"
     inkscape:pagecheckerboard="0"
     inkscape:deskcolor="#d1d1d1" />
  <!-- Icon from TDesign Icons by TDesign - https://github.com/Tencent/tdesign-icons/blob/main/LICENSE -->
  <g
     fill="none"
     id="g2">
    <path
       d="M7.5 11.1L11.1 3l.854.285A2.7 2.7 0 0 1 13.8 5.846V9.3h4.869a2 2 0 0 1 1.976 2.304l-1.184 7.7A2 2 0 0 1 17.484 21H7.5zm0 0V21H3v-9.9z"
       id="path1" />
    <path
       stroke="currentColor"
       stroke-linecap="square"
       stroke-width="2"
       d="M7.5 11.1V21m0-9.9L11.1 3l.854.285A2.7 2.7 0 0 1 13.8 5.846V9.3h4.869a2 2 0 0 1 1.976 2.304l-1.184 7.7A2 2 0 0 1 17.484 21H7.5m0-9.9H3V21h4.5"
       id="path2" />
  </g>
</svg>
