<?xml version="1.0" encoding="UTF-8" standalone="no"?>
<svg
   width="1em"
   height="1em"
   viewBox="0 0 24 24"
   version="1.1"
   id="svg4"
   sodipodi:docname="tdesign-support.svg"
   xmlns:inkscape="http://www.inkscape.org/namespaces/inkscape"
   xmlns:sodipodi="http://sodipodi.sourceforge.net/DTD/sodipodi-0.dtd"
   xmlns="http://www.w3.org/2000/svg"
   xmlns:svg="http://www.w3.org/2000/svg">
  <sodipodi:namedview
     id="namedview4"
     pagecolor="#ffffff"
     bordercolor="#000000"
     borderopacity="0.25"
     inkscape:showpageshadow="2"
     inkscape:pageopacity="0.0"
     inkscape:pagecheckerboard="0"
     inkscape:deskcolor="#d1d1d1" />
  <!-- Icon from TDesign Icons by TDesign - https://github.com/Tencent/tdesign-icons/blob/main/LICENSE -->
  <defs
     id="defs1">
    <path
       id="SVGeE1Jncjh"
       d="M4.929 4.93c-3.905 3.905-3.905 10.237 0 14.142l4.243-4.243a4 4 0 0 1 0-5.657zm14.142 14.142c3.905-3.905 3.905-10.237 0-14.142l-4.243 4.242a4 4 0 0 1 0 5.657z" />
    <path
       id="SVGyKGHXxZf"
       d="M4.929 19.071c3.905 3.905 10.237 3.905 14.142 0l-4.243-4.243a4 4 0 0 1-5.657 0zM19.07 4.929c-3.904-3.905-10.236-3.905-14.141 0L9.17 9.172a4 4 0 0 1 5.657 0z" />
  </defs>
  <g
     fill="none"
     id="g4">
    <path
       id="use1"
       d="m 4.929,4.93 c -3.905,3.905 -3.905,10.237 0,14.142 l 4.243,-4.243 a 4,4 0 0 1 0,-5.657 z m 14.142,14.142 c 3.905,-3.905 3.905,-10.237 0,-14.142 l -4.243,4.242 a 4,4 0 0 1 0,5.657 z" />
    <path
       id="use2"
       d="m 4.929,19.071 c 3.905,3.905 10.237,3.905 14.142,0 l -4.243,-4.243 a 4,4 0 0 1 -5.657,0 z M 19.07,4.929 C 15.166,1.024 8.834,1.024 4.929,4.929 L 9.17,9.172 a 4,4 0 0 1 5.657,0 z" />
    <path
       id="use3"
       d="m 4.929,19.071 c 3.905,3.905 10.237,3.905 14.142,0 l -4.243,-4.243 a 4,4 0 0 1 -5.657,0 z M 19.07,4.929 C 15.166,1.024 8.834,1.024 4.929,4.929 L 9.17,9.172 a 4,4 0 0 1 5.657,0 z"
       style="stroke:#000000;stroke-width:2" />
    <path
       id="use4"
       d="m 4.929,4.93 c -3.905,3.905 -3.905,10.237 0,14.142 l 4.243,-4.243 a 4,4 0 0 1 0,-5.657 z m 14.142,14.142 c 3.905,-3.905 3.905,-10.237 0,-14.142 l -4.243,4.242 a 4,4 0 0 1 0,5.657 z"
       style="stroke:#000000;stroke-width:2" />
  </g>
</svg>
