<?xml version="1.0" encoding="UTF-8" standalone="no"?>
<svg
   width="1em"
   height="1em"
   viewBox="0 0 24 24"
   version="1.1"
   id="svg2"
   sodipodi:docname="tdesign-mobile-blocked-filled.svg"
   xmlns:inkscape="http://www.inkscape.org/namespaces/inkscape"
   xmlns:sodipodi="http://sodipodi.sourceforge.net/DTD/sodipodi-0.dtd"
   xmlns="http://www.w3.org/2000/svg"
   xmlns:svg="http://www.w3.org/2000/svg">
  <defs
     id="defs2" />
  <sodipodi:namedview
     id="namedview2"
     pagecolor="#ffffff"
     bordercolor="#000000"
     borderopacity="0.25"
     inkscape:showpageshadow="2"
     inkscape:pageopacity="0.0"
     inkscape:pagecheckerboard="0"
     inkscape:deskcolor="#d1d1d1" />
  <!-- Icon from TDesign Icons by TDesign - https://github.com/Tencent/tdesign-icons/blob/main/LICENSE -->
  <path
     fill="currentColor"
     d="M4 1h16v2.29A7 7 0 0 0 18 3H6v14h12c.695 0 1.366-.101 2-.29V23H4zm9.004 18H11v2.004h2.004z"
     id="path1" />
  <path
     fill="currentColor"
     d="M18 4.5a5.5 5.5 0 1 0 0 11a5.5 5.5 0 0 0 0-11M14.5 10a3.5 3.5 0 0 1 5.165-3.08l-4.744 4.745A3.5 3.5 0 0 1 14.5 10m1.835 3.08l4.744-4.745a3.5 3.5 0 0 1-4.745 4.745"
     id="path2" />
</svg>
