<?xml version="1.0" encoding="UTF-8" standalone="no"?>
<svg
   width="1em"
   height="1em"
   viewBox="0 0 24 24"
   version="1.1"
   id="svg2"
   sodipodi:docname="tdesign-palace-3-filled.svg"
   xmlns:inkscape="http://www.inkscape.org/namespaces/inkscape"
   xmlns:sodipodi="http://sodipodi.sourceforge.net/DTD/sodipodi-0.dtd"
   xmlns="http://www.w3.org/2000/svg"
   xmlns:svg="http://www.w3.org/2000/svg">
  <defs
     id="defs2" />
  <sodipodi:namedview
     id="namedview2"
     pagecolor="#ffffff"
     bordercolor="#000000"
     borderopacity="0.25"
     inkscape:showpageshadow="2"
     inkscape:pageopacity="0.0"
     inkscape:pagecheckerboard="0"
     inkscape:deskcolor="#d1d1d1" />
  <!-- Icon from TDesign Icons by TDesign - https://github.com/Tencent/tdesign-icons/blob/main/LICENSE -->
  <path
     fill="currentColor"
     d="m13.002 3.083l.002-1.081l-2-.004l-.002 1.085A6 6 0 0 0 6 9H2v13h5.5v-2.5c0-1.942.97-3.402 1.77-4.283a8.6 8.6 0 0 1 1.508-1.308l.193-.124L12 13.168l1.029.617l.193.124a8.6 8.6 0 0 1 1.508 1.308c.8.88 1.77 2.34 1.77 4.283V22H22V9h-4a6 6 0 0 0-4.998-5.917m0 3.915v2.004h-2.004V6.998z"
     id="path1" />
  <path
     fill="currentColor"
     d="M9.5 19.5c0-2.5 2.5-4 2.5-4s2.5 1.5 2.5 4V22h-5z"
     id="path2" />
</svg>
