<?xml version="1.0" encoding="UTF-8" standalone="no"?>
<svg
   width="1em"
   height="1em"
   viewBox="0 0 24 24"
   version="1.1"
   id="svg2"
   sodipodi:docname="tdesign-flip-to-back-filled.svg"
   xmlns:inkscape="http://www.inkscape.org/namespaces/inkscape"
   xmlns:sodipodi="http://sodipodi.sourceforge.net/DTD/sodipodi-0.dtd"
   xmlns="http://www.w3.org/2000/svg"
   xmlns:svg="http://www.w3.org/2000/svg">
  <defs
     id="defs2" />
  <sodipodi:namedview
     id="namedview2"
     pagecolor="#ffffff"
     bordercolor="#000000"
     borderopacity="0.25"
     inkscape:showpageshadow="2"
     inkscape:pageopacity="0.0"
     inkscape:pagecheckerboard="0"
     inkscape:deskcolor="#d1d1d1" />
  <!-- Icon from TDesign Icons by TDesign - https://github.com/Tencent/tdesign-icons/blob/main/LICENSE -->
  <path
     fill="currentColor"
     d="M10.5 3H7v3.5h2V5h1.5zm5 0h-3v2h3zM21 3h-3.5v2H19v1.5h2zM5 19V7.5H3V21h13.5v-2z"
     id="path1" />
  <path
     fill="currentColor"
     d="M9 11.5v-3H7v3zm12 0v-3h-2v3zM9 15v-1.5H7V17h3.5v-2zm12 2v-3.5h-2V15h-1.5v2zm-5.5-2h-3v2h3zM17 7h-6v6h6z"
     id="path2" />
</svg>
