<?xml version="1.0" encoding="UTF-8" standalone="no"?>
<svg
   width="1em"
   height="1em"
   viewBox="0 0 24 24"
   version="1.1"
   id="svg2"
   sodipodi:docname="tdesign-undertake.svg"
   xmlns:inkscape="http://www.inkscape.org/namespaces/inkscape"
   xmlns:sodipodi="http://sodipodi.sourceforge.net/DTD/sodipodi-0.dtd"
   xmlns="http://www.w3.org/2000/svg"
   xmlns:svg="http://www.w3.org/2000/svg">
  <defs
     id="defs2" />
  <sodipodi:namedview
     id="namedview2"
     pagecolor="#ffffff"
     bordercolor="#000000"
     borderopacity="0.25"
     inkscape:showpageshadow="2"
     inkscape:pageopacity="0.0"
     inkscape:pagecheckerboard="0"
     inkscape:deskcolor="#d1d1d1" />
  <!-- Icon from TDesign Icons by TDesign - https://github.com/Tencent/tdesign-icons/blob/main/LICENSE -->
  <g
     fill="none"
     id="g2">
    <path
       d="m20.858 10.215l-6.64 1.527h-.397a1.983 1.983 0 0 0 0-3.965H8.864a2.38 2.38 0 0 0-1.685.694L4.701 10.95v5.55h7.137l6.344-1.586l3.848-1.641a1.644 1.644 0 0 0-1.172-3.058M4.7 10.95v5.55H1v-5.55z"
       id="path1" />
    <path
       stroke="currentColor"
       stroke-linecap="square"
       stroke-width="2"
       d="M4.7 16.5h7.138l6.344-1.586l3.848-1.641a1.644 1.644 0 0 0-.423-3.086a1.65 1.65 0 0 0-.75.028l-6.64 1.527h-.397M4.7 16.5v-5.55m0 5.55H1v-5.55h3.7m0 0l2.48-2.48a2.38 2.38 0 0 1 1.685-.694h4.956a1.983 1.983 0 0 1 0 3.965h-2.247"
       id="path2" />
  </g>
</svg>
