<?xml version="1.0" encoding="UTF-8" standalone="no"?>
<svg
   width="1em"
   height="1em"
   viewBox="0 0 24 24"
   version="1.1"
   id="svg2"
   sodipodi:docname="tdesign-sensors-1.svg"
   xmlns:inkscape="http://www.inkscape.org/namespaces/inkscape"
   xmlns:sodipodi="http://sodipodi.sourceforge.net/DTD/sodipodi-0.dtd"
   xmlns="http://www.w3.org/2000/svg"
   xmlns:svg="http://www.w3.org/2000/svg">
  <defs
     id="defs2" />
  <sodipodi:namedview
     id="namedview2"
     pagecolor="#ffffff"
     bordercolor="#000000"
     borderopacity="0.25"
     inkscape:showpageshadow="2"
     inkscape:pageopacity="0.0"
     inkscape:pagecheckerboard="0"
     inkscape:deskcolor="#d1d1d1" />
  <!-- Icon from TDesign Icons by TDesign - https://github.com/Tencent/tdesign-icons/blob/main/LICENSE -->
  <g
     fill="none"
     id="g2">
    <path
       d="M15 12a3 3 0 1 1-6 0a3 3 0 0 1 6 0"
       id="path1" />
    <path
       stroke="currentColor"
       stroke-linecap="square"
       stroke-width="2"
       d="M12 15a3 3 0 1 0 0-6a3 3 0 0 0 0 6Zm0 0v4.779M4.222 4.223A10.97 10.97 0 0 0 1 12c0 3.037 1.231 5.787 3.222 7.778M7.05 7.051A6.98 6.98 0 0 0 5 12c0 1.933.784 3.683 2.05 4.95m9.9-9.9A6.98 6.98 0 0 1 19 12a6.98 6.98 0 0 1-2.05 4.95m2.827-12.728A10.97 10.97 0 0 1 23 12c0 3.037-1.231 5.787-3.222 7.778"
       id="path2" />
  </g>
</svg>
