<?xml version="1.0" encoding="UTF-8" standalone="no"?>
<svg
   width="1em"
   height="1em"
   viewBox="0 0 24 24"
   version="1.1"
   id="svg1"
   sodipodi:docname="tdesign-bridge-5-filled.svg"
   xmlns:inkscape="http://www.inkscape.org/namespaces/inkscape"
   xmlns:sodipodi="http://sodipodi.sourceforge.net/DTD/sodipodi-0.dtd"
   xmlns="http://www.w3.org/2000/svg"
   xmlns:svg="http://www.w3.org/2000/svg">
  <defs
     id="defs1" />
  <sodipodi:namedview
     id="namedview1"
     pagecolor="#ffffff"
     bordercolor="#000000"
     borderopacity="0.25"
     inkscape:showpageshadow="2"
     inkscape:pageopacity="0.0"
     inkscape:pagecheckerboard="0"
     inkscape:deskcolor="#d1d1d1" />
  <!-- Icon from TDesign Icons by TDesign - https://github.com/Tencent/tdesign-icons/blob/main/LICENSE -->
  <path
     fill="currentColor"
     d="M0 3h24v18.001h-6v-7.603l-.14-.132a8.4 8.4 0 0 0-1.206-.92A8.64 8.64 0 0 0 12 11c-2.02 0-3.586.671-4.654 1.345A8.4 8.4 0 0 0 6 13.398V21H0zm6 7.836q.134-.09.279-.181A10.64 10.64 0 0 1 12 9a10.64 10.64 0 0 1 6 1.836V5.001L6 5z"
     id="path1" />
</svg>
