<?xml version="1.0" encoding="UTF-8" standalone="no"?>
<svg
   width="1em"
   height="1em"
   viewBox="0 0 24 24"
   version="1.1"
   id="svg1"
   sodipodi:docname="tdesign-gesture-open-filled.svg"
   xmlns:inkscape="http://www.inkscape.org/namespaces/inkscape"
   xmlns:sodipodi="http://sodipodi.sourceforge.net/DTD/sodipodi-0.dtd"
   xmlns="http://www.w3.org/2000/svg"
   xmlns:svg="http://www.w3.org/2000/svg">
  <defs
     id="defs1" />
  <sodipodi:namedview
     id="namedview1"
     pagecolor="#ffffff"
     bordercolor="#000000"
     borderopacity="0.25"
     inkscape:showpageshadow="2"
     inkscape:pageopacity="0.0"
     inkscape:pagecheckerboard="0"
     inkscape:deskcolor="#d1d1d1" />
  <!-- Icon from TDesign Icons by TDesign - https://github.com/Tencent/tdesign-icons/blob/main/LICENSE -->
  <path
     fill="currentColor"
     d="M7.036 4.986a.454.454 0 0 0-.74.496c.061.147.145.284.211.43l1.96 4.003l-2.158 4.653l3.643 1.116l1.002-5.974l.01-.039c.027-.11.035-.179.036-.22v-.013q0-.014-.002-.023a1.56 1.56 0 0 0-.445-.91zM4.28 14.19l1.972-4.25l-1.555-3.177c-.078-.172-.174-.336-.247-.51a2.454 2.454 0 0 1 4-2.68l3.518 3.518l.032.033l.032-.033l3.517-3.518a2.454 2.454 0 0 1 4 2.68c-.072.174-.168.338-.246.51l-1.555 3.176l1.972 4.25l2.28.001v6.957h-9.063L12 15.562l-.937 5.584H2v-6.957zM13 9.45c0 .04.009.11.037.22l.01.039l1.001 5.974l3.644-1.116l-2.159-4.653l1.96-4.004c.066-.145.15-.282.211-.43a.454.454 0 0 0-.74-.495l-3.517 3.518a1.56 1.56 0 0 0-.447.934"
     id="path1" />
</svg>
