<?xml version="1.0" encoding="UTF-8" standalone="no"?>
<svg
   width="1em"
   height="1em"
   viewBox="0 0 24 24"
   version="1.1"
   id="svg1"
   sodipodi:docname="tdesign-peach-filled.svg"
   xmlns:inkscape="http://www.inkscape.org/namespaces/inkscape"
   xmlns:sodipodi="http://sodipodi.sourceforge.net/DTD/sodipodi-0.dtd"
   xmlns="http://www.w3.org/2000/svg"
   xmlns:svg="http://www.w3.org/2000/svg">
  <defs
     id="defs1" />
  <sodipodi:namedview
     id="namedview1"
     pagecolor="#ffffff"
     bordercolor="#000000"
     borderopacity="0.25"
     inkscape:showpageshadow="2"
     inkscape:pageopacity="0.0"
     inkscape:pagecheckerboard="0"
     inkscape:deskcolor="#d1d1d1" />
  <!-- Icon from TDesign Icons by TDesign - https://github.com/Tencent/tdesign-icons/blob/main/LICENSE -->
  <path
     fill="currentColor"
     d="M10 1H9v2h1c.462 0 .847.338 1.157 1.144l.019.049c-2.093-.333-4.646.066-6.729 1.955c-1.755 1.592-2.979 4.629-2.215 7.873c1.117 4.748 5.655 7.44 9.872 9.104c3.744-2.547 6.171-6.44 5.783-11.085c-.228-2.728-1.552-5.292-3.846-6.772c2.89 1.584 4.687 4.598 4.959 7.851c.206 2.46-.355 4.693-1.437 6.663c1.503-1.09 3.084-2.585 3.797-4.434c1.634-4.236-.027-8.333-2.99-10.025c-1.723-.984-3.33-1.262-4.566-1.088l.033-.09C14.148 3.34 14.535 3 15 3h1V1h-1c-1.214 0-2.003.668-2.502 1.404C12 1.668 11.213 1 10 1"
     id="path1" />
</svg>
