<?xml version="1.0" encoding="UTF-8" standalone="no"?>
<svg
   width="1em"
   height="1em"
   viewBox="0 0 24 24"
   version="1.1"
   id="svg1"
   sodipodi:docname="tdesign-alarm-off-filled.svg"
   xmlns:inkscape="http://www.inkscape.org/namespaces/inkscape"
   xmlns:sodipodi="http://sodipodi.sourceforge.net/DTD/sodipodi-0.dtd"
   xmlns="http://www.w3.org/2000/svg"
   xmlns:svg="http://www.w3.org/2000/svg">
  <defs
     id="defs1" />
  <sodipodi:namedview
     id="namedview1"
     pagecolor="#ffffff"
     bordercolor="#000000"
     borderopacity="0.25"
     inkscape:showpageshadow="2"
     inkscape:pageopacity="0.0"
     inkscape:pagecheckerboard="0"
     inkscape:deskcolor="#d1d1d1" />
  <!-- Icon from TDesign Icons by TDesign - https://github.com/Tencent/tdesign-icons/blob/main/LICENSE -->
  <path
     fill="currentColor"
     d="M2.004.59L2 .586L.586 2l2 2l-2.5 2.5L1.5 7.914l2.5-2.5l.725.725A9.97 9.97 0 0 0 2 13c0 5.523 4.477 10 10 10a9.97 9.97 0 0 0 6.861-2.725l3.14 3.14l1.41-1.41L2 .594zm19.184 16.364A10 10 0 0 0 22 13c0-5.523-4.477-10-10-10a10 10 0 0 0-3.954.812zM18.5 1.086L23.914 6.5L22.5 7.914L17.086 2.5z"
     id="path1" />
</svg>
