<?xml version="1.0" encoding="UTF-8" standalone="no"?>
<svg
   width="1em"
   height="1em"
   viewBox="0 0 24 24"
   version="1.1"
   id="svg1"
   sodipodi:docname="tdesign-rain-light-filled.svg"
   xmlns:inkscape="http://www.inkscape.org/namespaces/inkscape"
   xmlns:sodipodi="http://sodipodi.sourceforge.net/DTD/sodipodi-0.dtd"
   xmlns="http://www.w3.org/2000/svg"
   xmlns:svg="http://www.w3.org/2000/svg">
  <defs
     id="defs1" />
  <sodipodi:namedview
     id="namedview1"
     pagecolor="#ffffff"
     bordercolor="#000000"
     borderopacity="0.25"
     inkscape:showpageshadow="2"
     inkscape:pageopacity="0.0"
     inkscape:pagecheckerboard="0"
     inkscape:deskcolor="#d1d1d1" />
  <!-- Icon from TDesign Icons by TDesign - https://github.com/Tencent/tdesign-icons/blob/main/LICENSE -->
  <path
     fill="currentColor"
     d="M11.1 3h-.091C7.55 3.049 4.7 5.77 4.7 9.2q0 .132.006.262C3.125 10.158 2 11.704 2 13.533c0 1.776 1.063 3.288 2.568 4.009l.205.098h13.728l.186-.079C20.618 16.75 22 14.877 22 12.667c0-1.723-.842-3.245-2.127-4.214a5.6 5.6 0 0 0-2.653-1.075c-.655-2.066-2.387-3.655-4.534-4.186A6.6 6.6 0 0 0 11.1 3M6.998 18.998h2.004v2.004H6.998zm8 0h2.004v2.004h-2.004zm-1.996 2h-2.004v2.004h2.004z"
     id="path1" />
</svg>
