<?xml version="1.0" encoding="UTF-8" standalone="no"?>
<svg
   width="1em"
   height="1em"
   viewBox="0 0 24 24"
   version="1.1"
   id="svg1"
   sodipodi:docname="tdesign-explore-off-filled.svg"
   xmlns:inkscape="http://www.inkscape.org/namespaces/inkscape"
   xmlns:sodipodi="http://sodipodi.sourceforge.net/DTD/sodipodi-0.dtd"
   xmlns="http://www.w3.org/2000/svg"
   xmlns:svg="http://www.w3.org/2000/svg">
  <defs
     id="defs1" />
  <sodipodi:namedview
     id="namedview1"
     pagecolor="#ffffff"
     bordercolor="#000000"
     borderopacity="0.25"
     inkscape:showpageshadow="2"
     inkscape:pageopacity="0.0"
     inkscape:pagecheckerboard="0"
     inkscape:deskcolor="#d1d1d1" />
  <!-- Icon from TDesign Icons by TDesign - https://github.com/Tencent/tdesign-icons/blob/main/LICENSE -->
  <path
     fill="currentColor"
     d="M2.004.59L2 .586L.586 2l2.96 2.96A10.96 10.96 0 0 0 1 12c0 6.075 4.925 11 11 11c2.677 0 5.131-.957 7.039-2.547l2.96 2.961l1.41-1.41L2 .595zm3.276 10.8l3.392-1.304l5.242 5.242l-1.305 3.392l-1.938-5.391zm16.323 5.979A10.95 10.95 0 0 0 23 12c0-6.075-4.925-11-11-11c-1.95 0-3.781.507-5.37 1.397l6.121 6.12L17.19 6.81l-1.707 4.439z"
     id="path1" />
</svg>
