<?xml version="1.0" encoding="UTF-8" standalone="no"?>
<svg
   width="1em"
   height="1em"
   viewBox="0 0 24 24"
   version="1.1"
   id="svg4"
   sodipodi:docname="tdesign-guitar.svg"
   xmlns:inkscape="http://www.inkscape.org/namespaces/inkscape"
   xmlns:sodipodi="http://sodipodi.sourceforge.net/DTD/sodipodi-0.dtd"
   xmlns="http://www.w3.org/2000/svg"
   xmlns:svg="http://www.w3.org/2000/svg">
  <defs
     id="defs4" />
  <sodipodi:namedview
     id="namedview4"
     pagecolor="#ffffff"
     bordercolor="#000000"
     borderopacity="0.25"
     inkscape:showpageshadow="2"
     inkscape:pageopacity="0.0"
     inkscape:pagecheckerboard="0"
     inkscape:deskcolor="#d1d1d1" />
  <!-- Icon from TDesign Icons by TDesign - https://github.com/Tencent/tdesign-icons/blob/main/LICENSE -->
  <g
     fill="none"
     id="g4">
    <path
       d="M8 22a6 6 0 0 0 5.9-7.101A4.001 4.001 0 1 0 9.1 10.1A6 6 0 1 0 8 22"
       id="path1" />
    <path
       d="M10 16a2 2 0 1 1-4 0a2 2 0 0 1 4 0"
       id="path2" />
    <path
       stroke="currentColor"
       stroke-linecap="square"
       stroke-width="2"
       d="M15.828 8.172L20 4m-1-1l2 2m-3.5.5l1 1M14 16a6 6 0 1 1-4.899-5.9A4.002 4.002 0 0 1 17 11c0 1.9-1.325 3.49-3.1 3.899q.099.536.1 1.101Z"
       id="path3" />
    <path
       stroke="currentColor"
       stroke-linecap="square"
       stroke-width="2"
       d="M10 16a2 2 0 1 1-4 0a2 2 0 0 1 4 0Z"
       id="path4" />
  </g>
</svg>
