<?xml version="1.0" encoding="UTF-8" standalone="no"?>
<svg
   width="1em"
   height="1em"
   viewBox="0 0 24 24"
   version="1.1"
   id="svg3"
   sodipodi:docname="tdesign-help-circle.svg"
   xmlns:inkscape="http://www.inkscape.org/namespaces/inkscape"
   xmlns:sodipodi="http://sodipodi.sourceforge.net/DTD/sodipodi-0.dtd"
   xmlns="http://www.w3.org/2000/svg"
   xmlns:svg="http://www.w3.org/2000/svg">
  <defs
     id="defs3" />
  <sodipodi:namedview
     id="namedview3"
     pagecolor="#ffffff"
     bordercolor="#000000"
     borderopacity="0.25"
     inkscape:showpageshadow="2"
     inkscape:pageopacity="0.0"
     inkscape:pagecheckerboard="0"
     inkscape:deskcolor="#d1d1d1" />
  <!-- Icon from TDesign Icons by TDesign - https://github.com/Tencent/tdesign-icons/blob/main/LICENSE -->
  <g
     fill="none"
     id="g3">
    <path
       d="M2 12C2 6.477 6.477 2 12 2s10 4.477 10 10s-4.477 10-10 10S2 17.523 2 12"
       id="path1" />
    <path
       stroke="currentColor"
       stroke-linecap="square"
       stroke-width="2"
       d="M2 12C2 6.477 6.477 2 12 2s10 4.477 10 10s-4.477 10-10 10S2 17.523 2 12Z"
       id="path2" />
    <path
       stroke="currentColor"
       stroke-linecap="square"
       stroke-width="2"
       d="M12 14.25V14c0-1.105.988-1.959 1.855-2.642A3 3 0 1 0 9.171 8M12 17.25h.003v.004H12z"
       id="path3" />
  </g>
</svg>
