<?xml version="1.0" encoding="UTF-8" standalone="no"?>
<svg
   width="1em"
   height="1em"
   viewBox="0 0 24 24"
   version="1.1"
   id="svg2"
   sodipodi:docname="tdesign-chart-scatter.svg"
   xmlns:inkscape="http://www.inkscape.org/namespaces/inkscape"
   xmlns:sodipodi="http://sodipodi.sourceforge.net/DTD/sodipodi-0.dtd"
   xmlns="http://www.w3.org/2000/svg"
   xmlns:svg="http://www.w3.org/2000/svg">
  <defs
     id="defs2" />
  <sodipodi:namedview
     id="namedview2"
     pagecolor="#ffffff"
     bordercolor="#000000"
     borderopacity="0.25"
     inkscape:showpageshadow="2"
     inkscape:pageopacity="0.0"
     inkscape:pagecheckerboard="0"
     inkscape:deskcolor="#d1d1d1" />
  <!-- Icon from TDesign Icons by TDesign - https://github.com/Tencent/tdesign-icons/blob/main/LICENSE -->
  <g
     fill="none"
     stroke="currentColor"
     stroke-linecap="square"
     stroke-width="2"
     id="g2">
    <path
       d="M21 21H3V3m16 4a1 1 0 1 1 0-2a1 1 0 0 1 0 2Zm-7.002-1h.004v.004h-.004z"
       id="path1" />
    <path
       d="M6.998 9h.004v.004h-.004zM11 14a1 1 0 1 1 0-2a1 1 0 0 1 0 2Zm4.998-3h.004v.004h-.004zm2 5h.004v.004h-.004zm-11 1h.004v.004h-.004z"
       id="path2" />
  </g>
</svg>
