<?xml version="1.0" encoding="UTF-8" standalone="no"?>
<svg
   width="1em"
   height="1em"
   viewBox="0 0 24 24"
   version="1.1"
   id="svg1"
   sodipodi:docname="tdesign-translate.svg"
   xmlns:inkscape="http://www.inkscape.org/namespaces/inkscape"
   xmlns:sodipodi="http://sodipodi.sourceforge.net/DTD/sodipodi-0.dtd"
   xmlns="http://www.w3.org/2000/svg"
   xmlns:svg="http://www.w3.org/2000/svg">
  <defs
     id="defs1" />
  <sodipodi:namedview
     id="namedview1"
     pagecolor="#ffffff"
     bordercolor="#000000"
     borderopacity="0.25"
     inkscape:showpageshadow="2"
     inkscape:pageopacity="0.0"
     inkscape:pagecheckerboard="0"
     inkscape:deskcolor="#d1d1d1" />
  <!-- Icon from TDesign Icons by TDesign - https://github.com/Tencent/tdesign-icons/blob/main/LICENSE -->
  <path
     fill="none"
     stroke="currentColor"
     stroke-linecap="square"
     stroke-width="2"
     d="M13 14h4m0 0h4m-4 0v-1.5m3 1.5a7 7 0 0 1-7 7m1.674-4A7 7 0 0 0 21 21M9 7.5V5a2 2 0 0 0-2-2H5a2 2 0 0 0-2 2v2.5m6 0V10m0-2.5H3M3 10V7.5m10-3h5a2 2 0 0 1 2 2V8M5 14v5a2 2 0 0 0 2 2h1.5"
     id="path1" />
</svg>
