<?xml version="1.0" encoding="UTF-8" standalone="no"?>
<svg
   width="1em"
   height="1em"
   viewBox="0 0 24 24"
   version="1.1"
   id="svg2"
   sodipodi:docname="tdesign-chart-ring-filled.svg"
   xmlns:inkscape="http://www.inkscape.org/namespaces/inkscape"
   xmlns:sodipodi="http://sodipodi.sourceforge.net/DTD/sodipodi-0.dtd"
   xmlns="http://www.w3.org/2000/svg"
   xmlns:svg="http://www.w3.org/2000/svg">
  <defs
     id="defs2" />
  <sodipodi:namedview
     id="namedview2"
     pagecolor="#ffffff"
     bordercolor="#000000"
     borderopacity="0.25"
     inkscape:showpageshadow="2"
     inkscape:pageopacity="0.0"
     inkscape:pagecheckerboard="0"
     inkscape:deskcolor="#d1d1d1" />
  <!-- Icon from TDesign Icons by TDesign - https://github.com/Tencent/tdesign-icons/blob/main/LICENSE -->
  <path
     fill="currentColor"
     d="M13 1.045v6.567A4.51 4.51 0 0 1 16.389 11h6.566A11 11 0 0 0 13 1.045m10 10.85v.21zM22.955 13H16.39a4.5 4.5 0 0 1-.58 1.396l4.644 4.643A10.95 10.95 0 0 0 22.955 13m-3.105 6.706l-.144.144z"
     id="path1" />
  <path
     fill="currentColor"
     d="m19.039 20.454l-4.644-4.644A4.5 4.5 0 1 1 11 7.612V1.045C5.393 1.55 1 6.262 1 12c0 6.075 4.925 11 11 11c2.677 0 5.131-.956 7.039-2.547"
     id="path2" />
</svg>
