<?xml version="1.0" encoding="UTF-8" standalone="no"?>
<svg
   width="1em"
   height="1em"
   viewBox="0 0 24 24"
   version="1.1"
   id="svg2"
   sodipodi:docname="tdesign-opera.svg"
   xmlns:inkscape="http://www.inkscape.org/namespaces/inkscape"
   xmlns:sodipodi="http://sodipodi.sourceforge.net/DTD/sodipodi-0.dtd"
   xmlns="http://www.w3.org/2000/svg"
   xmlns:svg="http://www.w3.org/2000/svg">
  <defs
     id="defs2" />
  <sodipodi:namedview
     id="namedview2"
     pagecolor="#ffffff"
     bordercolor="#000000"
     borderopacity="0.25"
     inkscape:showpageshadow="2"
     inkscape:pageopacity="0.0"
     inkscape:pagecheckerboard="0"
     inkscape:deskcolor="#d1d1d1" />
  <!-- Icon from TDesign Icons by TDesign - https://github.com/Tencent/tdesign-icons/blob/main/LICENSE -->
  <g
     fill="none"
     id="g2">
    <path
       d="M7.998 6c6.702 0 8.413 5.278 8.85 9c1.726-2.343 5.15-2.999 5.15-2.999l-1 6l-18-.001l-1-3.999c1.428 0 2.694.302 4.048.674l-1.048-3.663c2.497 0 4.926.944 4.933.946l.001.003C9.484 10.138 8.86 8.069 7.998 6"
       id="path1" />
    <path
       stroke="currentColor"
       stroke-width="2"
       d="m6.998 18l-.954-3.325S4.498 14 1.998 14l1 3.999zm0 0l4 .002m-4-.002l-2-6.988c2.5 0 4.933.946 4.933.946c.852 3.47 1.067 6.044 1.067 6.044m0 0l6-.002s0-1.723-.15-2.999C16.412 11.278 14.7 6 7.998 6c2.5 6 3 12.002 3 12.002Zm10-.001l1-6s-3.425.656-5.15 3c.15 1.276.15 2.999.15 2.999z"
       id="path2" />
  </g>
</svg>
