<?xml version="1.0" encoding="UTF-8" standalone="no"?>
<svg
   width="1em"
   height="1em"
   viewBox="0 0 24 24"
   version="1.1"
   id="svg1"
   sodipodi:docname="tdesign-user-circle-filled.svg"
   xmlns:inkscape="http://www.inkscape.org/namespaces/inkscape"
   xmlns:sodipodi="http://sodipodi.sourceforge.net/DTD/sodipodi-0.dtd"
   xmlns="http://www.w3.org/2000/svg"
   xmlns:svg="http://www.w3.org/2000/svg">
  <defs
     id="defs1" />
  <sodipodi:namedview
     id="namedview1"
     pagecolor="#ffffff"
     bordercolor="#000000"
     borderopacity="0.25"
     inkscape:showpageshadow="2"
     inkscape:pageopacity="0.0"
     inkscape:pagecheckerboard="0"
     inkscape:deskcolor="#d1d1d1" />
  <!-- Icon from TDesign Icons by TDesign - https://github.com/Tencent/tdesign-icons/blob/main/LICENSE -->
  <path
     fill="currentColor"
     d="M23 12c0 3.345-1.493 6.342-3.85 8.36A10.96 10.96 0 0 1 12 23c-2.73 0-5.227-.994-7.15-2.64A10.98 10.98 0 0 1 1 12C1 5.925 5.925 1 12 1s11 4.925 11 11m-7-3.5a4 4 0 1 0-8 0a4 4 0 0 0 8 0m2.5 9.725V18a4 4 0 0 0-4-4h-5a4 4 0 0 0-4 4v.225q.31.323.65.615A8.96 8.96 0 0 0 12 21a8.96 8.96 0 0 0 6.5-2.775"
     id="path1" />
</svg>
