<?xml version="1.0" encoding="UTF-8" standalone="no"?>
<svg
   width="1em"
   height="1em"
   viewBox="0 0 24 24"
   version="1.1"
   id="svg5"
   sodipodi:docname="tdesign-money.svg"
   xmlns:inkscape="http://www.inkscape.org/namespaces/inkscape"
   xmlns:sodipodi="http://sodipodi.sourceforge.net/DTD/sodipodi-0.dtd"
   xmlns="http://www.w3.org/2000/svg"
   xmlns:svg="http://www.w3.org/2000/svg">
  <sodipodi:namedview
     id="namedview5"
     pagecolor="#ffffff"
     bordercolor="#000000"
     borderopacity="0.25"
     inkscape:showpageshadow="2"
     inkscape:pageopacity="0.0"
     inkscape:pagecheckerboard="0"
     inkscape:deskcolor="#d1d1d1" />
  <!-- Icon from TDesign Icons by TDesign - https://github.com/Tencent/tdesign-icons/blob/main/LICENSE -->
  <defs
     id="defs1">
    <path
       id="SVGgvnbobcx"
       d="M21.5 11v10h-19V11z" />
  </defs>
  <g
     fill="none"
     id="g5">
    <path
       id="use1"
       d="M 21.5,11 V 21 H 2.5 V 11 Z" />
    <path
       d="M12 13.5a2.5 2.5 0 1 1 0 5a2.5 2.5 0 0 1 0-5m5.136-7.209L19 5.67l1.824 5.333H3.002L3 11.004L14.146 2.1z"
       id="path1" />
    <path
       stroke="currentColor"
       stroke-linecap="square"
       stroke-width="2"
       d="M21 11.003h-.176L19.001 5.67L3.354 11.003L3 11m-.5.004H3L14.146 2.1l2.817 3.95"
       id="path2" />
    <g
       stroke="currentColor"
       stroke-linecap="square"
       stroke-width="2"
       id="g4">
      <path
         d="M14.5 16a2.5 2.5 0 1 1-5 0a2.5 2.5 0 0 1 5 0Z"
         id="path3" />
      <path
         id="use3"
         d="M 21.5,11 V 21 H 2.5 V 11 Z" />
      <path
         d="M2.5 11h2a2 2 0 0 1-2 2zm19 0h-2a2 2 0 0 0 2 2zm-19 10h2.002A2 2 0 0 0 2.5 18.998zm19 0h-2a2 2 0 0 1 2-2z"
         id="path4" />
    </g>
  </g>
</svg>
