<?xml version="1.0" encoding="UTF-8" standalone="no"?>
<svg
   width="1em"
   height="1em"
   viewBox="0 0 24 24"
   version="1.1"
   id="svg4"
   sodipodi:docname="tdesign-cloudy-sunny.svg"
   xmlns:inkscape="http://www.inkscape.org/namespaces/inkscape"
   xmlns:sodipodi="http://sodipodi.sourceforge.net/DTD/sodipodi-0.dtd"
   xmlns="http://www.w3.org/2000/svg"
   xmlns:svg="http://www.w3.org/2000/svg">
  <defs
     id="defs4" />
  <sodipodi:namedview
     id="namedview4"
     pagecolor="#ffffff"
     bordercolor="#000000"
     borderopacity="0.25"
     inkscape:showpageshadow="2"
     inkscape:pageopacity="0.0"
     inkscape:pagecheckerboard="0"
     inkscape:deskcolor="#d1d1d1" />
  <!-- Icon from TDesign Icons by TDesign - https://github.com/Tencent/tdesign-icons/blob/main/LICENSE -->
  <g
     fill="none"
     id="g4">
    <path
       d="M2 16.533C2 18.448 3.612 20 5.6 20h9.9c2.485 0 4.5-1.94 4.5-4.333c0-1.607-.907-3.008-2.256-3.757a4.6 4.6 0 0 0-2.319-.576c-.353-2.033-1.932-3.665-3.98-4.171A5.6 5.6 0 0 0 10.1 7c-2.982 0-5.4 2.328-5.4 5.2q0 .49.09.955C3.193 13.508 2 14.887 2 16.533"
       id="path1" />
    <path
       d="M15.5 11.333h-.074c-.354-2.032-1.932-3.664-3.98-4.17A4 4 0 0 1 19 9a4 4 0 0 1-1.255 2.91a4.6 4.6 0 0 0-2.245-.577"
       id="path2" />
    <path
       stroke="currentColor"
       stroke-linecap="square"
       stroke-width="2"
       d="M15.5 11.333h-.074c-.354-2.032-1.932-3.664-3.98-4.17A4 4 0 0 1 19.002 9a4 4 0 0 1-1.256 2.91a4.6 4.6 0 0 0-2.244-.577Zm-5.444-7.281l-.002.002l-.003-.003l.002-.002zM15 2h.004v.004h-.003zm4.952 2.049l.002.002l-.003.003l-.002-.002zM22.005 9v.004H22V9z"
       id="path3" />
    <path
       stroke="currentColor"
       stroke-linecap="square"
       stroke-width="2"
       d="M2 16.533C2 18.448 3.612 20 5.6 20h9.9c2.485 0 4.5-1.94 4.5-4.333c0-1.607-.907-3.008-2.256-3.757a4.6 4.6 0 0 0-2.319-.576c-.353-2.033-1.932-3.665-3.98-4.171A5.6 5.6 0 0 0 10.1 7c-2.982 0-5.4 2.328-5.4 5.2q0 .49.09.955C3.193 13.508 2 14.887 2 16.533Z"
       id="path4" />
  </g>
</svg>
