<?xml version="1.0" encoding="UTF-8" standalone="no"?>
<svg
   width="1em"
   height="1em"
   viewBox="0 0 24 24"
   version="1.1"
   id="svg1"
   sodipodi:docname="tdesign-rocket-filled.svg"
   xmlns:inkscape="http://www.inkscape.org/namespaces/inkscape"
   xmlns:sodipodi="http://sodipodi.sourceforge.net/DTD/sodipodi-0.dtd"
   xmlns="http://www.w3.org/2000/svg"
   xmlns:svg="http://www.w3.org/2000/svg">
  <defs
     id="defs1" />
  <sodipodi:namedview
     id="namedview1"
     pagecolor="#ffffff"
     bordercolor="#000000"
     borderopacity="0.25"
     inkscape:showpageshadow="2"
     inkscape:pageopacity="0.0"
     inkscape:pagecheckerboard="0"
     inkscape:deskcolor="#d1d1d1" />
  <!-- Icon from TDesign Icons by TDesign - https://github.com/Tencent/tdesign-icons/blob/main/LICENSE -->
  <path
     fill="currentColor"
     d="m18.003 13.068l2.26-2.261A9 9 0 0 0 22.9 4.443V1.1h-3.343a9 9 0 0 0-6.364 2.636l-2.261 2.26l-5.657-.707L1.04 9.524L14.475 22.96l4.235-4.235zm-1.792 1.791l.393 3.143l-2.129 2.129l-1.768-1.768zm-7.07-7.071l-3.505 3.504L3.87 9.524l2.129-2.129zm-3.505 9.16l-3.535 3.536L.687 19.07l3.535-3.535zm2.829 2.83l-3.536 3.535l-1.414-1.414l3.535-3.536z"
     id="path1" />
</svg>
