<?xml version="1.0" encoding="UTF-8" standalone="no"?>
<svg
   width="1em"
   height="1em"
   viewBox="0 0 24 24"
   version="1.1"
   id="svg2"
   sodipodi:docname="tdesign-git-branch.svg"
   xmlns:inkscape="http://www.inkscape.org/namespaces/inkscape"
   xmlns:sodipodi="http://sodipodi.sourceforge.net/DTD/sodipodi-0.dtd"
   xmlns="http://www.w3.org/2000/svg"
   xmlns:svg="http://www.w3.org/2000/svg">
  <defs
     id="defs2" />
  <sodipodi:namedview
     id="namedview2"
     pagecolor="#ffffff"
     bordercolor="#000000"
     borderopacity="0.25"
     inkscape:showpageshadow="2"
     inkscape:pageopacity="0.0"
     inkscape:pagecheckerboard="0"
     inkscape:deskcolor="#d1d1d1" />
  <!-- Icon from TDesign Icons by TDesign - https://github.com/Tencent/tdesign-icons/blob/main/LICENSE -->
  <g
     fill="none"
     id="g2">
    <path
       d="M21 6a2.5 2.5 0 1 0-5 0a2.5 2.5 0 0 0 5 0M8 6a2.5 2.5 0 1 0-5 0a2.5 2.5 0 0 0 5 0m0 12a2.5 2.5 0 1 0-5 0a2.5 2.5 0 0 0 5 0"
       id="path1" />
    <path
       stroke="currentColor"
       stroke-linecap="square"
       stroke-width="2"
       d="M5.5 15V9m13-.5v1a3 3 0 0 1-3 3h-7a3 3 0 0 0-3 3m13-7a2.5 2.5 0 1 1 0-5a2.5 2.5 0 0 1 0 5Zm-13 7a2.5 2.5 0 1 1 0 5a2.5 2.5 0 0 1 0-5ZM8 6a2.5 2.5 0 1 0-5 0a2.5 2.5 0 0 0 5 0Z"
       id="path2" />
  </g>
</svg>
