<?xml version="1.0" encoding="UTF-8" standalone="no"?>
<svg
   width="1em"
   height="1em"
   viewBox="0 0 24 24"
   version="1.1"
   id="svg1"
   sodipodi:docname="tdesign-logo-wechatpay.svg"
   xmlns:inkscape="http://www.inkscape.org/namespaces/inkscape"
   xmlns:sodipodi="http://sodipodi.sourceforge.net/DTD/sodipodi-0.dtd"
   xmlns="http://www.w3.org/2000/svg"
   xmlns:svg="http://www.w3.org/2000/svg">
  <defs
     id="defs1" />
  <sodipodi:namedview
     id="namedview1"
     pagecolor="#ffffff"
     bordercolor="#000000"
     borderopacity="0.25"
     inkscape:showpageshadow="2"
     inkscape:pageopacity="0.0"
     inkscape:pagecheckerboard="0"
     inkscape:deskcolor="#d1d1d1" />
  <!-- Icon from TDesign Icons by TDesign - https://github.com/Tencent/tdesign-icons/blob/main/LICENSE -->
  <path
     fill="currentColor"
     d="M12 2c3.713 0 6.993 1.534 8.985 3.882l.762 1.037C22.546 8.19 23 9.633 23 11.167c0 5.063-4.925 9.167-11 9.167a13 13 0 0 1-3.59-.503a1.1 1.1 0 0 0-.324-.048a1.14 1.14 0 0 0-.584.17l-2.408 1.39a.4.4 0 0 1-.212.068a.367.367 0 0 1-.367-.367c0-.068.02-.136.04-.203l.02-.065l.495-1.85a.73.73 0 0 0-.27-.83c-2.318-1.68-3.8-4.167-3.8-6.93C1 6.105 5.925 2 12 2m8.005 5.926L9.08 14.233l-.08.046a.73.73 0 0 1-.97-.296l-2.05-4.5a.367.367 0 0 1 .551-.448l2.363 1.682a1.1 1.1 0 0 0 .976.112l9.188-4.09C17.445 5.114 14.924 4 12 4c-5.328 0-9 3.534-9 7.167c0 2.006 1.073 3.93 2.97 5.306c.5.36.877.888 1.044 1.505a3.05 3.05 0 0 1 1.96-.065c.943.27 1.965.421 3.026.421c5.327 0 9-3.534 9-7.167c0-1.106-.319-2.164-.91-3.126z"
     id="path1" />
</svg>
