<?xml version="1.0" encoding="UTF-8" standalone="no"?>
<svg
   width="1em"
   height="1em"
   viewBox="0 0 24 24"
   version="1.1"
   id="svg2"
   sodipodi:docname="tdesign-cherry.svg"
   xmlns:inkscape="http://www.inkscape.org/namespaces/inkscape"
   xmlns:sodipodi="http://sodipodi.sourceforge.net/DTD/sodipodi-0.dtd"
   xmlns="http://www.w3.org/2000/svg"
   xmlns:svg="http://www.w3.org/2000/svg">
  <defs
     id="defs2" />
  <sodipodi:namedview
     id="namedview2"
     pagecolor="#ffffff"
     bordercolor="#000000"
     borderopacity="0.25"
     inkscape:showpageshadow="2"
     inkscape:pageopacity="0.0"
     inkscape:pagecheckerboard="0"
     inkscape:deskcolor="#d1d1d1" />
  <!-- Icon from TDesign Icons by TDesign - https://github.com/Tencent/tdesign-icons/blob/main/LICENSE -->
  <g
     fill="none"
     id="g2">
    <path
       d="M15 21c-1.367 1.367-3.633 1.367-5 0s-1.367-3.633 0-5s3.633-1.367 5 0s1.367 3.633 0 5m-7-7c-1.367 1.367-3.633 1.367-5 0s-1.367-3.633 0-5s3.633-1.367 5 0s1.367 3.633 0 5"
       id="path1" />
    <path
       stroke="currentColor"
       stroke-linecap="square"
       stroke-width="2"
       d="M8 9C6.633 7.633 4.367 7.633 3 9s-1.367 3.633 0 5s3.633 1.367 5 0s1.367-3.633 0-5Zm0 0c3.172-3.172 9.152-3.83 11.25-3.966M17 2l5 5m-2.75-1.123c-1.539 1.915-4.112 5.76-4.257 9.373M15 16c-1.367-1.367-3.633-1.367-5 0s-1.367 3.633 0 5s3.633 1.367 5 0s1.367-3.633 0-5Z"
       id="path2" />
  </g>
</svg>
