<?xml version="1.0" encoding="UTF-8" standalone="no"?>
<svg
   width="1em"
   height="1em"
   viewBox="0 0 24 24"
   version="1.1"
   id="svg3"
   sodipodi:docname="tdesign-shop-4.svg"
   xmlns:inkscape="http://www.inkscape.org/namespaces/inkscape"
   xmlns:sodipodi="http://sodipodi.sourceforge.net/DTD/sodipodi-0.dtd"
   xmlns="http://www.w3.org/2000/svg"
   xmlns:svg="http://www.w3.org/2000/svg">
  <defs
     id="defs3" />
  <sodipodi:namedview
     id="namedview3"
     pagecolor="#ffffff"
     bordercolor="#000000"
     borderopacity="0.25"
     inkscape:showpageshadow="2"
     inkscape:pageopacity="0.0"
     inkscape:pagecheckerboard="0"
     inkscape:deskcolor="#d1d1d1" />
  <!-- Icon from TDesign Icons by TDesign - https://github.com/Tencent/tdesign-icons/blob/main/LICENSE -->
  <g
     fill="none"
     id="g3">
    <path
       d="M17 3a3 3 0 0 1 3 3v15H4V6a3 3 0 0 1 3-3z"
       id="path1" />
    <path
       d="M15 21H9v-6a3 3 0 1 1 6 0z"
       id="path2" />
    <path
       stroke="currentColor"
       stroke-linecap="square"
       stroke-width="2"
       d="M15 21H9v-6a3 3 0 1 1 6 0zM4 8V6a3 3 0 0 1 3-3h2M4 8v13M4 8h5M4 8H3m1 13H3m1 0h16m0-13v13m0-13h-5m5 0V6a3 3 0 0 0-3-3h-2m5 5h1m-1 13h1M9 8h6M9 8V3m6 5V3M9 3h6"
       id="path3" />
  </g>
</svg>
