<?xml version="1.0" encoding="UTF-8" standalone="no"?>
<svg
   width="1em"
   height="1em"
   viewBox="0 0 24 24"
   version="1.1"
   id="svg4"
   sodipodi:docname="tdesign-cast-filled.svg"
   xmlns:inkscape="http://www.inkscape.org/namespaces/inkscape"
   xmlns:sodipodi="http://sodipodi.sourceforge.net/DTD/sodipodi-0.dtd"
   xmlns="http://www.w3.org/2000/svg"
   xmlns:svg="http://www.w3.org/2000/svg">
  <defs
     id="defs4" />
  <sodipodi:namedview
     id="namedview4"
     pagecolor="#ffffff"
     bordercolor="#000000"
     borderopacity="0.25"
     inkscape:showpageshadow="2"
     inkscape:pageopacity="0.0"
     inkscape:pagecheckerboard="0"
     inkscape:deskcolor="#d1d1d1" />
  <!-- Icon from TDesign Icons by TDesign - https://github.com/Tencent/tdesign-icons/blob/main/LICENSE -->
  <path
     fill="currentColor"
     d="M1 3h22v18H13v-.996c0-6.075-4.925-11-11-11h-.996L1 9z"
     id="path1" />
  <path
     fill="currentColor"
     d="M1 11h1a9 9 0 0 1 9 9v1H9v-1a7 7 0 0 0-7-7H1z"
     id="path2" />
  <path
     fill="currentColor"
     d="M1 15h1a5 5 0 0 1 5 5v1H5v-1a3 3 0 0 0-3-3H1z"
     id="path3" />
  <path
     fill="currentColor"
     d="M3.004 19H1v2.004h2.004z"
     id="path4" />
</svg>
