<?xml version="1.0" encoding="UTF-8" standalone="no"?>
<svg
   width="1em"
   height="1em"
   viewBox="0 0 24 24"
   version="1.1"
   id="svg2"
   sodipodi:docname="tdesign-call-incoming.svg"
   xmlns:inkscape="http://www.inkscape.org/namespaces/inkscape"
   xmlns:sodipodi="http://sodipodi.sourceforge.net/DTD/sodipodi-0.dtd"
   xmlns="http://www.w3.org/2000/svg"
   xmlns:svg="http://www.w3.org/2000/svg">
  <defs
     id="defs2" />
  <sodipodi:namedview
     id="namedview2"
     pagecolor="#ffffff"
     bordercolor="#000000"
     borderopacity="0.25"
     inkscape:showpageshadow="2"
     inkscape:pageopacity="0.0"
     inkscape:pagecheckerboard="0"
     inkscape:deskcolor="#d1d1d1" />
  <!-- Icon from TDesign Icons by TDesign - https://github.com/Tencent/tdesign-icons/blob/main/LICENSE -->
  <g
     fill="none"
     id="g2">
    <path
       d="M21 22c-3.8 0-7.338-1.115-10.307-3.036a19.1 19.1 0 0 1-5.657-5.657A18.9 18.9 0 0 1 2 3h6.778L9.97 8.372l-2.024 2.024a15.07 15.07 0 0 0 5.657 5.657l2.024-2.025L21 15.223z"
       id="path1" />
    <path
       stroke="currentColor"
       stroke-linecap="square"
       stroke-width="2"
       d="M21 22c-3.8 0-7.338-1.115-10.307-3.036a19.1 19.1 0 0 1-5.657-5.657A18.9 18.9 0 0 1 2 3h6.778L9.97 8.372l-2.024 2.024a15.07 15.07 0 0 0 5.657 5.657l2.024-2.025L21 15.223zM16.3 4.182l.074 3.46l3.461.075m-2.675-.86L20.616 3.4"
       id="path2" />
  </g>
</svg>
