<?xml version="1.0" encoding="UTF-8" standalone="no"?>
<svg
   width="1em"
   height="1em"
   viewBox="0 0 24 24"
   version="1.1"
   id="svg3"
   sodipodi:docname="tdesign-microphone.svg"
   xmlns:inkscape="http://www.inkscape.org/namespaces/inkscape"
   xmlns:sodipodi="http://sodipodi.sourceforge.net/DTD/sodipodi-0.dtd"
   xmlns="http://www.w3.org/2000/svg"
   xmlns:svg="http://www.w3.org/2000/svg">
  <sodipodi:namedview
     id="namedview3"
     pagecolor="#ffffff"
     bordercolor="#000000"
     borderopacity="0.25"
     inkscape:showpageshadow="2"
     inkscape:pageopacity="0.0"
     inkscape:pagecheckerboard="0"
     inkscape:deskcolor="#d1d1d1" />
  <!-- Icon from TDesign Icons by TDesign - https://github.com/Tencent/tdesign-icons/blob/main/LICENSE -->
  <defs
     id="defs1">
    <path
       id="SVGB4bUL2MQ"
       d="M6 7a5 5 0 0 1 5-5h2a5 5 0 0 1 5 5v6q0 .514-.1 1a5 5 0 0 1-4.9 4h-2a5 5 0 0 1-5-5z" />
  </defs>
  <g
     fill="none"
     id="g3">
    <path
       id="use1"
       d="m 6,7 a 5,5 0 0 1 5,-5 h 2 a 5,5 0 0 1 5,5 v 6 q 0,0.514 -0.1,1 A 5,5 0 0 1 13,18 H 11 A 5,5 0 0 1 6,13 Z" />
    <path
       id="use2"
       d="m 6,7 a 5,5 0 0 1 5,-5 h 2 a 5,5 0 0 1 5,5 v 6 q 0,0.514 -0.1,1 A 5,5 0 0 1 13,18 H 11 A 5,5 0 0 1 6,13 Z" />
    <path
       id="use3"
       d="m 6,7 a 5,5 0 0 1 5,-5 h 2 a 5,5 0 0 1 5,5 v 6 q 0,0.514 -0.1,1 A 5,5 0 0 1 13,18 H 11 A 5,5 0 0 1 6,13 Z" />
    <path
       stroke="currentColor"
       stroke-linecap="square"
       stroke-width="2"
       d="M12 18v3m-5 0h10M6.5 14H9M6.5 7H9m-2.5 3.5H9m6 3.5h2.5M15 7h2.5M15 10.5h2.5M6 7v6q0 .514.1 1a5 5 0 0 0 4.9 4h2a5 5 0 0 0 5-5V7a5 5 0 0 0-5-5h-2a5 5 0 0 0-5 5Z"
       id="path3" />
  </g>
</svg>
