<?xml version="1.0" encoding="UTF-8" standalone="no"?>
<svg
   width="1em"
   height="1em"
   viewBox="0 0 24 24"
   version="1.1"
   id="svg1"
   sodipodi:docname="tdesign-undertake-filled.svg"
   xmlns:inkscape="http://www.inkscape.org/namespaces/inkscape"
   xmlns:sodipodi="http://sodipodi.sourceforge.net/DTD/sodipodi-0.dtd"
   xmlns="http://www.w3.org/2000/svg"
   xmlns:svg="http://www.w3.org/2000/svg">
  <defs
     id="defs1" />
  <sodipodi:namedview
     id="namedview1"
     pagecolor="#ffffff"
     bordercolor="#000000"
     borderopacity="0.25"
     inkscape:showpageshadow="2"
     inkscape:pageopacity="0.0"
     inkscape:pagecheckerboard="0"
     inkscape:deskcolor="#d1d1d1" />
  <!-- Icon from TDesign Icons by TDesign - https://github.com/Tencent/tdesign-icons/blob/main/LICENSE -->
  <path
     fill="currentColor"
     d="M8.861 8.777a1.38 1.38 0 0 0-.976.402l-2.184 2.185V15.5h6.014l6.147-1.537l3.741-1.596a.645.645 0 0 0-.48-1.188l-.02.006l-6.773 1.557h-3.757v-2h3.247a.983.983 0 0 0 0-1.965zm7.919 1.35l3.836-.883a2.647 2.647 0 0 1 1.86 4.924l-.027.013l-3.948 1.684l-6.54 1.635H0V9.95h4.286l2.187-2.187a3.38 3.38 0 0 1 2.392-.986h.001h-.002h4.956a2.983 2.983 0 0 1 2.96 3.35"
     id="path1" />
</svg>
