<?xml version="1.0" encoding="UTF-8" standalone="no"?>
<svg
   width="1em"
   height="1em"
   viewBox="0 0 24 24"
   version="1.1"
   id="svg1"
   sodipodi:docname="tdesign-popsicle-filled.svg"
   xmlns:inkscape="http://www.inkscape.org/namespaces/inkscape"
   xmlns:sodipodi="http://sodipodi.sourceforge.net/DTD/sodipodi-0.dtd"
   xmlns="http://www.w3.org/2000/svg"
   xmlns:svg="http://www.w3.org/2000/svg">
  <defs
     id="defs1" />
  <sodipodi:namedview
     id="namedview1"
     pagecolor="#ffffff"
     bordercolor="#000000"
     borderopacity="0.25"
     inkscape:showpageshadow="2"
     inkscape:pageopacity="0.0"
     inkscape:pagecheckerboard="0"
     inkscape:deskcolor="#d1d1d1" />
  <!-- Icon from TDesign Icons by TDesign - https://github.com/Tencent/tdesign-icons/blob/main/LICENSE -->
  <path
     fill="currentColor"
     d="M11.835 2.35a7.001 7.001 0 0 1 10.216 9.24a7 7 0 0 0-.186-.527c-.696-1.734-2.283-3.532-5.587-4.143c-2.614-.483-3.648-1.807-4.094-2.92a5 5 0 0 1-.35-1.65m-1.75 1.668L2.313 11.79l3.18 3.18l-3.535 3.537a2.5 2.5 0 1 0 3.535 3.535l3.536-3.535l3.183 3.183l8.148-8.148l-.006-.158a5 5 0 0 0-.345-1.576c-.447-1.113-1.48-2.437-4.095-2.92c-3.304-.611-4.891-2.409-5.587-4.143q-.148-.373-.243-.726"
     id="path1" />
</svg>
