<?xml version="1.0" encoding="UTF-8" standalone="no"?>
<svg
   width="1em"
   height="1em"
   viewBox="0 0 24 24"
   version="1.1"
   id="svg1"
   sodipodi:docname="tdesign-pearl-of-the-orient-filled.svg"
   xmlns:inkscape="http://www.inkscape.org/namespaces/inkscape"
   xmlns:sodipodi="http://sodipodi.sourceforge.net/DTD/sodipodi-0.dtd"
   xmlns="http://www.w3.org/2000/svg"
   xmlns:svg="http://www.w3.org/2000/svg">
  <defs
     id="defs1" />
  <sodipodi:namedview
     id="namedview1"
     pagecolor="#ffffff"
     bordercolor="#000000"
     borderopacity="0.25"
     inkscape:showpageshadow="2"
     inkscape:pageopacity="0.0"
     inkscape:pagecheckerboard="0"
     inkscape:deskcolor="#d1d1d1" />
  <!-- Icon from TDesign Icons by TDesign - https://github.com/Tencent/tdesign-icons/blob/main/LICENSE -->
  <path
     fill="currentColor"
     d="M12.998.999L13 3.17a3.001 3.001 0 0 1 0 5.66v4.296a4.002 4.002 0 0 1 1.86 6.67L16.754 23H14.43l-1.28-2.168a4 4 0 0 1-2.298 0L9.574 23H7.25l1.89-3.204A3.9 3.9 0 0 1 8 17a4 4 0 0 1 3-3.874V8.829a3.001 3.001 0 0 1 0-5.658L10.998 1z"
     id="path1" />
</svg>
