<?xml version="1.0" encoding="UTF-8" standalone="no"?>
<svg
   width="1em"
   height="1em"
   viewBox="0 0 24 24"
   version="1.1"
   id="svg1"
   sodipodi:docname="tdesign-fill-color-1-filled.svg"
   xmlns:inkscape="http://www.inkscape.org/namespaces/inkscape"
   xmlns:sodipodi="http://sodipodi.sourceforge.net/DTD/sodipodi-0.dtd"
   xmlns="http://www.w3.org/2000/svg"
   xmlns:svg="http://www.w3.org/2000/svg">
  <defs
     id="defs1" />
  <sodipodi:namedview
     id="namedview1"
     pagecolor="#ffffff"
     bordercolor="#000000"
     borderopacity="0.25"
     inkscape:showpageshadow="2"
     inkscape:pageopacity="0.0"
     inkscape:pagecheckerboard="0"
     inkscape:deskcolor="#d1d1d1" />
  <!-- Icon from TDesign Icons by TDesign - https://github.com/Tencent/tdesign-icons/blob/main/LICENSE -->
  <path
     fill="currentColor"
     d="M12 .052L23.948 12L22 13.948V14h-.052l-7.12 7.12a4 4 0 0 1-5.656 0L2.88 14.829a4 4 0 0 1 0-5.657l4.438-4.439L4.586 2L6 .586l2.733 2.733zM8.733 6.148l-4.438 4.438c-.39.39-.586.902-.586 1.414h17.41L12 2.88l-1.852 1.853L13.414 8L12 9.414zm13.017 12.24l1.314 1.661c.581.734.581 1.848 0 2.581a1.68 1.68 0 0 1-1.314.657c-.53 0-1-.26-1.314-.657c-.581-.733-.581-1.847 0-2.581z"
     id="path1" />
</svg>
