<?xml version="1.0" encoding="UTF-8" standalone="no"?>
<svg
   width="1em"
   height="1em"
   viewBox="0 0 24 24"
   version="1.1"
   id="svg4"
   sodipodi:docname="tdesign-watermelon.svg"
   xmlns:inkscape="http://www.inkscape.org/namespaces/inkscape"
   xmlns:sodipodi="http://sodipodi.sourceforge.net/DTD/sodipodi-0.dtd"
   xmlns="http://www.w3.org/2000/svg"
   xmlns:svg="http://www.w3.org/2000/svg">
  <defs
     id="defs4" />
  <sodipodi:namedview
     id="namedview4"
     pagecolor="#ffffff"
     bordercolor="#000000"
     borderopacity="0.25"
     inkscape:showpageshadow="2"
     inkscape:pageopacity="0.0"
     inkscape:pagecheckerboard="0"
     inkscape:deskcolor="#d1d1d1" />
  <!-- Icon from TDesign Icons by TDesign - https://github.com/Tencent/tdesign-icons/blob/main/LICENSE -->
  <g
     fill="none"
     id="g4">
    <path
       d="M21.5 10.988c0 5.806-4.706 10.512-10.512 10.512c-2.93 0-6.582-2.065-8.488-4c2.712 2.134 6.488 2 6.488 2c5.806 0 10.512-4.706 10.512-10.512c-.012.012.135-4.353-2-6.488c1.935 1.906 4 5.557 4 8.488"
       id="path1" />
    <path
       d="m17.5 2.5l-15 15c2.712 2.134 6.488 2 6.488 2c5.806 0 10.512-4.706 10.512-10.512c-.012.012.135-4.353-2-6.488"
       id="path2" />
    <path
       stroke="currentColor"
       stroke-linecap="square"
       stroke-width="2"
       d="M17.5 2.5c1.935 1.906 4 5.557 4 8.488c0 5.806-4.706 10.512-10.512 10.512c-2.93 0-6.582-2.065-8.488-4zm0 0c2.135 2.135 1.988 6.5 2 6.488c0 5.806-4.706 10.512-10.512 10.512c0 0-2.973.106-5.538-1.362"
       id="path3" />
    <path
       stroke="currentColor"
       stroke-linecap="square"
       stroke-width="2"
       d="M9.502 15.498h-.004v.004h.004zm3-3h-.004v.004h.004zm3-3h-.004v.004h.004z"
       id="path4" />
  </g>
</svg>
