<?xml version="1.0" encoding="UTF-8" standalone="no"?>
<svg
   width="1em"
   height="1em"
   viewBox="0 0 24 24"
   version="1.1"
   id="svg1"
   sodipodi:docname="tdesign-sitemap-filled.svg"
   xmlns:inkscape="http://www.inkscape.org/namespaces/inkscape"
   xmlns:sodipodi="http://sodipodi.sourceforge.net/DTD/sodipodi-0.dtd"
   xmlns="http://www.w3.org/2000/svg"
   xmlns:svg="http://www.w3.org/2000/svg">
  <defs
     id="defs1" />
  <sodipodi:namedview
     id="namedview1"
     pagecolor="#ffffff"
     bordercolor="#000000"
     borderopacity="0.25"
     inkscape:showpageshadow="2"
     inkscape:pageopacity="0.0"
     inkscape:pagecheckerboard="0"
     inkscape:deskcolor="#d1d1d1" />
  <!-- Icon from TDesign Icons by TDesign - https://github.com/Tencent/tdesign-icons/blob/main/LICENSE -->
  <path
     fill="currentColor"
     d="M2 5.5a3.5 3.5 0 0 1 6.855-1h6.29A3.502 3.502 0 0 1 22 5.5a3.5 3.5 0 0 1-6.855 1h-6.29q-.105.35-.276.665l8.256 8.256a3.5 3.5 0 1 1-1.414 1.414L7.165 8.579q-.315.172-.665.276v6.29A3.502 3.502 0 0 1 5.5 22a3.5 3.5 0 0 1-1-6.855v-6.29A3.5 3.5 0 0 1 2 5.5"
     id="path1" />
</svg>
