<?xml version="1.0" encoding="UTF-8" standalone="no"?>
<svg
   width="1em"
   height="1em"
   viewBox="0 0 24 24"
   version="1.1"
   id="svg2"
   sodipodi:docname="tdesign-git-repository-commits-filled.svg"
   xmlns:inkscape="http://www.inkscape.org/namespaces/inkscape"
   xmlns:sodipodi="http://sodipodi.sourceforge.net/DTD/sodipodi-0.dtd"
   xmlns="http://www.w3.org/2000/svg"
   xmlns:svg="http://www.w3.org/2000/svg">
  <defs
     id="defs2" />
  <sodipodi:namedview
     id="namedview2"
     pagecolor="#ffffff"
     bordercolor="#000000"
     borderopacity="0.25"
     inkscape:showpageshadow="2"
     inkscape:pageopacity="0.0"
     inkscape:pagecheckerboard="0"
     inkscape:deskcolor="#d1d1d1" />
  <!-- Icon from TDesign Icons by TDesign - https://github.com/Tencent/tdesign-icons/blob/main/LICENSE -->
  <path
     fill="currentColor"
     d="M7 1a4 4 0 0 0-4 4v14a4 4 0 0 0 4 4h3v-2H7.5a2.5 2.5 0 0 1 0-5h1.468a4.5 4.5 0 0 1 8.064 0H19v5h-3v2h5V1zm1 4h2.004v2.004H8zm0 3h2.004v2.004H8z"
     id="path1" />
  <path
     fill="currentColor"
     d="M16.914 18.364L13 14.615l-3.914 3.75l1.383 1.444L12 18.343V23h2v-4.657l1.531 1.466z"
     id="path2" />
</svg>
