<?xml version="1.0" encoding="UTF-8" standalone="no"?>
<svg
   width="1em"
   height="1em"
   viewBox="0 0 24 24"
   version="1.1"
   id="svg1"
   sodipodi:docname="tdesign-adjustment-filled.svg"
   xmlns:inkscape="http://www.inkscape.org/namespaces/inkscape"
   xmlns:sodipodi="http://sodipodi.sourceforge.net/DTD/sodipodi-0.dtd"
   xmlns="http://www.w3.org/2000/svg"
   xmlns:svg="http://www.w3.org/2000/svg">
  <defs
     id="defs1" />
  <sodipodi:namedview
     id="namedview1"
     pagecolor="#ffffff"
     bordercolor="#000000"
     borderopacity="0.25"
     inkscape:showpageshadow="2"
     inkscape:pageopacity="0.0"
     inkscape:pagecheckerboard="0"
     inkscape:deskcolor="#d1d1d1" />
  <!-- Icon from TDesign Icons by TDesign - https://github.com/Tencent/tdesign-icons/blob/main/LICENSE -->
  <path
     fill="currentColor"
     d="M5.17 4a3.001 3.001 0 0 1 5.66 0H22v2H10.83a3.001 3.001 0 0 1-5.66 0H2V4zm8 7a3.001 3.001 0 0 1 5.66 0H22v2h-3.17a3.001 3.001 0 0 1-5.66 0H2v-2zm-8 7a3.001 3.001 0 0 1 5.66 0H22v2H10.83a3.001 3.001 0 0 1-5.66 0H2v-2z"
     id="path1" />
</svg>
