<?xml version="1.0" encoding="UTF-8" standalone="no"?>
<svg
   width="1em"
   height="1em"
   viewBox="0 0 24 24"
   version="1.1"
   id="svg3"
   sodipodi:docname="tdesign-data-base.svg"
   xmlns:inkscape="http://www.inkscape.org/namespaces/inkscape"
   xmlns:sodipodi="http://sodipodi.sourceforge.net/DTD/sodipodi-0.dtd"
   xmlns="http://www.w3.org/2000/svg"
   xmlns:svg="http://www.w3.org/2000/svg">
  <defs
     id="defs3" />
  <sodipodi:namedview
     id="namedview3"
     pagecolor="#ffffff"
     bordercolor="#000000"
     borderopacity="0.25"
     inkscape:showpageshadow="2"
     inkscape:pageopacity="0.0"
     inkscape:pagecheckerboard="0"
     inkscape:deskcolor="#d1d1d1" />
  <!-- Icon from TDesign Icons by TDesign - https://github.com/Tencent/tdesign-icons/blob/main/LICENSE -->
  <g
     fill="none"
     id="g3">
    <path
       d="M21 20h-.514c-1.236 1.165-4.568 2-8.486 2s-7.25-.835-8.486-2H3V5c0 1.657 4.03 3 9 3s9-1.343 9-3z"
       id="path1" />
    <path
       d="M12 8c4.97 0 9-1.343 9-3s-4.03-3-9-3s-9 1.343-9 3s4.03 3 9 3"
       id="path2" />
    <path
       stroke="currentColor"
       stroke-width="2"
       d="M21 12c0 1.657-4.03 3-9 3s-9-1.343-9-3m18 0v7c0 1.657-4.03 3-9 3s-9-1.343-9-3v-7m18 0V5M3 12V5m0 0c0 1.657 4.03 3 9 3s9-1.343 9-3M3 5c0-1.657 4.03-3 9-3s9 1.343 9 3"
       id="path3" />
  </g>
</svg>
