<?xml version="1.0" encoding="UTF-8" standalone="no"?>
<svg
   width="1em"
   height="1em"
   viewBox="0 0 24 24"
   version="1.1"
   id="svg1"
   sodipodi:docname="tdesign-user-unknown-filled.svg"
   xmlns:inkscape="http://www.inkscape.org/namespaces/inkscape"
   xmlns:sodipodi="http://sodipodi.sourceforge.net/DTD/sodipodi-0.dtd"
   xmlns="http://www.w3.org/2000/svg"
   xmlns:svg="http://www.w3.org/2000/svg">
  <defs
     id="defs1" />
  <sodipodi:namedview
     id="namedview1"
     pagecolor="#ffffff"
     bordercolor="#000000"
     borderopacity="0.25"
     inkscape:showpageshadow="2"
     inkscape:pageopacity="0.0"
     inkscape:pagecheckerboard="0"
     inkscape:deskcolor="#d1d1d1" />
  <!-- Icon from TDesign Icons by TDesign - https://github.com/Tencent/tdesign-icons/blob/main/LICENSE -->
  <path
     fill="currentColor"
     d="M11.5 2a5.5 5.5 0 1 0 0 11a5.5 5.5 0 0 0 0-11M18 14c-.93 0-1.5.656-1.5 1.249v1h-2v-1C14.5 13.358 16.17 12 18 12s3.5 1.358 3.5 3.249a3.13 3.13 0 0 1-1.027 2.3L19 18.939v.683h-2v-1.546l2.112-1.993c.256-.235.388-.53.388-.834c0-.593-.57-1.249-1.5-1.249m-1 6.996h2.003V23h-2.004zM12.876 14a6.47 6.47 0 0 0-1.376 4c0 1.509.514 2.897 1.376 4H2v-2a6 6 0 0 1 6-6z"
     id="path1" />
</svg>
