<?xml version="1.0" encoding="UTF-8" standalone="no"?>
<svg
   width="1em"
   height="1em"
   viewBox="0 0 24 24"
   version="1.1"
   id="svg1"
   sodipodi:docname="tdesign-user-search-filled.svg"
   xmlns:inkscape="http://www.inkscape.org/namespaces/inkscape"
   xmlns:sodipodi="http://sodipodi.sourceforge.net/DTD/sodipodi-0.dtd"
   xmlns="http://www.w3.org/2000/svg"
   xmlns:svg="http://www.w3.org/2000/svg">
  <defs
     id="defs1" />
  <sodipodi:namedview
     id="namedview1"
     pagecolor="#ffffff"
     bordercolor="#000000"
     borderopacity="0.25"
     inkscape:showpageshadow="2"
     inkscape:pageopacity="0.0"
     inkscape:pagecheckerboard="0"
     inkscape:deskcolor="#d1d1d1" />
  <!-- Icon from TDesign Icons by TDesign - https://github.com/Tencent/tdesign-icons/blob/main/LICENSE -->
  <path
     fill="currentColor"
     d="M11.5 2a5.5 5.5 0 1 0 0 11a5.5 5.5 0 0 0 0-11M13 17.75a4.75 4.75 0 1 1 8.74 2.578l1.674 1.671l-1.413 1.415l-1.675-1.673A4.75 4.75 0 0 1 13 17.75M17.75 15a2.75 2.75 0 1 0 0 5.5a2.75 2.75 0 0 0 0-5.5m-5-1a6.22 6.22 0 0 0-1.25 3.75c0 1.641.633 3.135 1.667 4.25H2v-2a6 6 0 0 1 6-6z"
     id="path1" />
</svg>
