<?xml version="1.0" encoding="UTF-8" standalone="no"?>
<svg
   width="1em"
   height="1em"
   viewBox="0 0 24 24"
   version="1.1"
   id="svg2"
   sodipodi:docname="tdesign-shop-3-filled.svg"
   xmlns:inkscape="http://www.inkscape.org/namespaces/inkscape"
   xmlns:sodipodi="http://sodipodi.sourceforge.net/DTD/sodipodi-0.dtd"
   xmlns="http://www.w3.org/2000/svg"
   xmlns:svg="http://www.w3.org/2000/svg">
  <defs
     id="defs2" />
  <sodipodi:namedview
     id="namedview2"
     pagecolor="#ffffff"
     bordercolor="#000000"
     borderopacity="0.25"
     inkscape:showpageshadow="2"
     inkscape:pageopacity="0.0"
     inkscape:pagecheckerboard="0"
     inkscape:deskcolor="#d1d1d1" />
  <!-- Icon from TDesign Icons by TDesign - https://github.com/Tencent/tdesign-icons/blob/main/LICENSE -->
  <path
     fill="currentColor"
     d="M2 22V8.625A5.6 5.6 0 0 0 5.375 9.75c1.24 0 2.384-.4 3.313-1.079A5.6 5.6 0 0 0 12 9.75c1.24 0 2.384-.4 3.313-1.079a5.6 5.6 0 0 0 3.312 1.079A5.6 5.6 0 0 0 22 8.625V22h-5.5v-8h-9v8zM5.375 7.75A3.63 3.63 0 0 1 2 5.45V2h20v3.45a3.626 3.626 0 0 1-6.687.15a3.64 3.64 0 0 1-1.397 1.603A3.6 3.6 0 0 1 12 7.75c-.704 0-1.36-.2-1.916-.547A3.64 3.64 0 0 1 8.688 5.6A3.64 3.64 0 0 1 7.29 7.203a3.6 3.6 0 0 1-1.916.547"
     id="path1" />
  <path
     fill="currentColor"
     d="M9.5 22v-6h5v6z"
     id="path2" />
</svg>
