<?xml version="1.0" encoding="UTF-8" standalone="no"?>
<svg
   width="1em"
   height="1em"
   viewBox="0 0 24 24"
   version="1.1"
   id="svg2"
   sodipodi:docname="tdesign-tower.svg"
   xmlns:inkscape="http://www.inkscape.org/namespaces/inkscape"
   xmlns:sodipodi="http://sodipodi.sourceforge.net/DTD/sodipodi-0.dtd"
   xmlns="http://www.w3.org/2000/svg"
   xmlns:svg="http://www.w3.org/2000/svg">
  <defs
     id="defs2" />
  <sodipodi:namedview
     id="namedview2"
     pagecolor="#ffffff"
     bordercolor="#000000"
     borderopacity="0.25"
     inkscape:showpageshadow="2"
     inkscape:pageopacity="0.0"
     inkscape:pagecheckerboard="0"
     inkscape:deskcolor="#d1d1d1" />
  <!-- Icon from TDesign Icons by TDesign - https://github.com/Tencent/tdesign-icons/blob/main/LICENSE -->
  <g
     fill="none"
     id="g2">
    <path
       d="M6.509 21.411C8.946 18.187 10 10.75 10 7h4c0 3.749 1.054 11.187 3.491 14.411c.323.355.509.589.509.589a6 6 0 0 1-.509-.589C16.481 20.3 14.135 18 12 18s-4.481 2.3-5.491 3.411A6 6 0 0 1 6 22s.186-.234.509-.589M9 3h6v4H9z"
       id="path1" />
    <path
       stroke="currentColor"
       stroke-linecap="square"
       stroke-width="2"
       d="M12 2v1m0 0H9v4h6V3zM9 22H5m10 0h4m-1.428-.5C16.61 20.427 14.194 18 12 18c-2.196 0-4.616 2.433-5.575 3.504M14 7c0 3.784 1.074 11.326 3.56 14.5M10 7c0 3.784-1.074 11.326-3.56 14.5"
       id="path2" />
  </g>
</svg>
