<?xml version="1.0" encoding="UTF-8" standalone="no"?>
<svg
   width="1em"
   height="1em"
   viewBox="0 0 24 24"
   version="1.1"
   id="svg2"
   sodipodi:docname="tdesign-transform-1.svg"
   xmlns:inkscape="http://www.inkscape.org/namespaces/inkscape"
   xmlns:sodipodi="http://sodipodi.sourceforge.net/DTD/sodipodi-0.dtd"
   xmlns="http://www.w3.org/2000/svg"
   xmlns:svg="http://www.w3.org/2000/svg">
  <defs
     id="defs2" />
  <sodipodi:namedview
     id="namedview2"
     pagecolor="#ffffff"
     bordercolor="#000000"
     borderopacity="0.25"
     inkscape:showpageshadow="2"
     inkscape:pageopacity="0.0"
     inkscape:pagecheckerboard="0"
     inkscape:deskcolor="#d1d1d1" />
  <!-- Icon from TDesign Icons by TDesign - https://github.com/Tencent/tdesign-icons/blob/main/LICENSE -->
  <g
     fill="none"
     id="g2">
    <path
       d="M21 7h-4V3h4zM7 7H3V3h4zm14 14h-4v-4h4zM7 21H3v-4h4z"
       id="path1" />
    <path
       stroke="currentColor"
       stroke-width="2"
       d="M5 17V7m0 10H3v4h4v-2m-2-2h2v2M5 7H3V3h4v2M5 7h2V5m0 0h10m0 0v2h2m-2-2V3h4v4h-2m0 0v10m0 0h-2v2m2-2h2v4h-4v-2m0 0H7"
       id="path2" />
  </g>
</svg>
