<?xml version="1.0" encoding="UTF-8" standalone="no"?>
<svg
   width="1em"
   height="1em"
   viewBox="0 0 24 24"
   version="1.1"
   id="svg2"
   sodipodi:docname="tdesign-map-information-filled.svg"
   xmlns:inkscape="http://www.inkscape.org/namespaces/inkscape"
   xmlns:sodipodi="http://sodipodi.sourceforge.net/DTD/sodipodi-0.dtd"
   xmlns="http://www.w3.org/2000/svg"
   xmlns:svg="http://www.w3.org/2000/svg">
  <defs
     id="defs2" />
  <sodipodi:namedview
     id="namedview2"
     pagecolor="#ffffff"
     bordercolor="#000000"
     borderopacity="0.25"
     inkscape:showpageshadow="2"
     inkscape:pageopacity="0.0"
     inkscape:pagecheckerboard="0"
     inkscape:deskcolor="#d1d1d1" />
  <!-- Icon from TDesign Icons by TDesign - https://github.com/Tencent/tdesign-icons/blob/main/LICENSE -->
  <path
     fill="currentColor"
     d="m11.433 13.824l.567.39l.568-.39l.001-.002l.004-.002l.012-.009l.041-.03q.053-.036.144-.104a14.6 14.6 0 0 0 1.968-1.784C15.782 10.752 17 9.014 17 7A5 5 0 0 0 7 7c0 2.012 1.218 3.751 2.262 4.893a14.6 14.6 0 0 0 2.112 1.889l.04.029l.013.008l.004.003zM12 8.5a1.5 1.5 0 1 1 0-3a1.5 1.5 0 0 1 0 3"
     id="path1" />
  <path
     fill="currentColor"
     d="M7 10H2v12h20V10h-5v2h1.586l-4.604 4.604l-.888-1.015l-1.505 1.317L14.296 20H5.273l4.64-5.061l-1.474-1.352L4 18.43V12h3zm8.302 8.112L20 13.414V20h-3.046z"
     id="path2" />
</svg>
