<?xml version="1.0" encoding="UTF-8" standalone="no"?>
<svg
   width="1em"
   height="1em"
   viewBox="0 0 24 24"
   version="1.1"
   id="svg1"
   sodipodi:docname="tdesign-filter-1-filled.svg"
   xmlns:inkscape="http://www.inkscape.org/namespaces/inkscape"
   xmlns:sodipodi="http://sodipodi.sourceforge.net/DTD/sodipodi-0.dtd"
   xmlns="http://www.w3.org/2000/svg"
   xmlns:svg="http://www.w3.org/2000/svg">
  <defs
     id="defs1" />
  <sodipodi:namedview
     id="namedview1"
     pagecolor="#ffffff"
     bordercolor="#000000"
     borderopacity="0.25"
     inkscape:showpageshadow="2"
     inkscape:pageopacity="0.0"
     inkscape:pagecheckerboard="0"
     inkscape:deskcolor="#d1d1d1" />
  <!-- Icon from TDesign Icons by TDesign - https://github.com/Tencent/tdesign-icons/blob/main/LICENSE -->
  <path
     fill="currentColor"
     d="M4.55 5.5c.039.038.098.089.189.152c.306.213.815.445 1.533.656C7.695 6.727 9.72 7 12 7s4.305-.273 5.728-.692c.718-.21 1.227-.443 1.533-.656c.091-.063.15-.114.188-.152a1.4 1.4 0 0 0-.188-.152c-.306-.213-.814-.445-1.533-.656C16.305 4.273 14.28 4 12 4s-4.305.273-5.728.692c-.718.21-1.227.443-1.533.656c-.091.063-.15.114-.188.152m16.95 0v.855l-6.5 8V17a5 5 0 0 1-5 5H9v-7.645l-6.5-8V5.5c0-.84.572-1.43 1.097-1.794c.554-.385 1.29-.692 2.11-.933C7.36 2.287 9.585 2 12 2s4.64.287 6.293.773c.82.241 1.556.548 2.11.933c.524.365 1.097.955 1.097 1.794"
     id="path1" />
</svg>
