<?xml version="1.0" encoding="UTF-8" standalone="no"?>
<svg
   width="1em"
   height="1em"
   viewBox="0 0 24 24"
   version="1.1"
   id="svg4"
   sodipodi:docname="tdesign-traffic.svg"
   xmlns:inkscape="http://www.inkscape.org/namespaces/inkscape"
   xmlns:sodipodi="http://sodipodi.sourceforge.net/DTD/sodipodi-0.dtd"
   xmlns="http://www.w3.org/2000/svg"
   xmlns:svg="http://www.w3.org/2000/svg">
  <defs
     id="defs4" />
  <sodipodi:namedview
     id="namedview4"
     pagecolor="#ffffff"
     bordercolor="#000000"
     borderopacity="0.25"
     inkscape:showpageshadow="2"
     inkscape:pageopacity="0.0"
     inkscape:pagecheckerboard="0"
     inkscape:deskcolor="#d1d1d1" />
  <!-- Icon from TDesign Icons by TDesign - https://github.com/Tencent/tdesign-icons/blob/main/LICENSE -->
  <g
     fill="none"
     id="g4">
    <path
       d="M7 3h10v18H7z"
       id="path1" />
    <path
       d="M13 7a1 1 0 1 1-2 0a1 1 0 0 1 2 0m0 5a1 1 0 1 1-2 0a1 1 0 0 1 2 0m0 5a1 1 0 1 1-2 0a1 1 0 0 1 2 0"
       id="path2" />
    <path
       stroke="currentColor"
       stroke-linecap="square"
       stroke-width="2"
       d="M17 7h2m-2 5h2m-2 5h2M7 7H4m3 5H4m3 5H4M7 3h10v18H7z"
       id="path3" />
    <path
       stroke="currentColor"
       stroke-linecap="square"
       stroke-width="2"
       d="M13 7a1 1 0 1 1-2 0a1 1 0 0 1 2 0Zm0 5a1 1 0 1 1-2 0a1 1 0 0 1 2 0Zm0 5a1 1 0 1 1-2 0a1 1 0 0 1 2 0Z"
       id="path4" />
  </g>
</svg>
