<?xml version="1.0" encoding="UTF-8" standalone="no"?>
<svg
   width="1em"
   height="1em"
   viewBox="0 0 24 24"
   version="1.1"
   id="svg3"
   sodipodi:docname="tdesign-thunderstorm-sunny.svg"
   xmlns:inkscape="http://www.inkscape.org/namespaces/inkscape"
   xmlns:sodipodi="http://sodipodi.sourceforge.net/DTD/sodipodi-0.dtd"
   xmlns="http://www.w3.org/2000/svg"
   xmlns:svg="http://www.w3.org/2000/svg">
  <defs
     id="defs3" />
  <sodipodi:namedview
     id="namedview3"
     pagecolor="#ffffff"
     bordercolor="#000000"
     borderopacity="0.25"
     inkscape:showpageshadow="2"
     inkscape:pageopacity="0.0"
     inkscape:pagecheckerboard="0"
     inkscape:deskcolor="#d1d1d1" />
  <!-- Icon from TDesign Icons by TDesign - https://github.com/Tencent/tdesign-icons/blob/main/LICENSE -->
  <g
     fill="none"
     id="g3">
    <path
       d="M15.5 11.333h-.075c-.354-2.032-1.932-3.664-3.98-4.17a4 4 0 1 1 6.299 4.747a4.6 4.6 0 0 0-2.245-.577"
       id="path1" />
    <path
       stroke="currentColor"
       stroke-linecap="square"
       stroke-width="2"
       d="m10.5 22l2.522-4h-4l2.478-4m3.925-2.666h.074c.818 0 1.584.21 2.245.576a4 4 0 1 0-6.299-4.747c2.048.506 3.626 2.138 3.98 4.17ZM15 2h.004v.004H15zm4.952 2.049l.002.002l-.002.003l-.003-.002zM22.004 9v.004H22V9zM10.056 4.052l-.002.002l-.003-.003l.002-.002z"
       id="path2" />
    <path
       stroke="currentColor"
       stroke-linecap="square"
       stroke-width="2"
       d="M4 19.64c-1.185-.568-2-1.745-2-3.107c0-1.646 1.192-3.025 2.79-3.378q-.09-.466-.09-.955C4.7 9.328 7.118 7 10.1 7c2.676 0 4.897 1.874 5.325 4.334h.075c2.485 0 4.5 1.94 4.5 4.333c0 1.777-1.11 3.304-2.7 3.973"
       id="path3" />
  </g>
</svg>
