<?xml version="1.0" encoding="UTF-8" standalone="no"?>
<svg
   width="1em"
   height="1em"
   viewBox="0 0 24 24"
   version="1.1"
   id="svg1"
   sodipodi:docname="tdesign-tree-round-dot-filled.svg"
   xmlns:inkscape="http://www.inkscape.org/namespaces/inkscape"
   xmlns:sodipodi="http://sodipodi.sourceforge.net/DTD/sodipodi-0.dtd"
   xmlns="http://www.w3.org/2000/svg"
   xmlns:svg="http://www.w3.org/2000/svg">
  <defs
     id="defs1" />
  <sodipodi:namedview
     id="namedview1"
     pagecolor="#ffffff"
     bordercolor="#000000"
     borderopacity="0.25"
     inkscape:showpageshadow="2"
     inkscape:pageopacity="0.0"
     inkscape:pagecheckerboard="0"
     inkscape:deskcolor="#d1d1d1" />
  <!-- Icon from TDesign Icons by TDesign - https://github.com/Tencent/tdesign-icons/blob/main/LICENSE -->
  <path
     fill="currentColor"
     d="M19.5 23a3.5 3.5 0 0 1-1-6.855V14a1 1 0 0 0-1-1h-11a1 1 0 0 0-1 1v2.145A3.502 3.502 0 0 1 4.5 23a3.5 3.5 0 0 1-1-6.855V14a3 3 0 0 1 3-3H11V7.855A3.502 3.502 0 0 1 12 1a3.5 3.5 0 0 1 1 6.855V11h4.5a3 3 0 0 1 3 3v2.145a3.502 3.502 0 0 1-1 6.855"
     id="path1" />
</svg>
