<?xml version="1.0" encoding="UTF-8" standalone="no"?>
<svg
   width="1em"
   height="1em"
   viewBox="0 0 24 24"
   version="1.1"
   id="svg2"
   sodipodi:docname="tdesign-user-invisible-filled.svg"
   xmlns:inkscape="http://www.inkscape.org/namespaces/inkscape"
   xmlns:sodipodi="http://sodipodi.sourceforge.net/DTD/sodipodi-0.dtd"
   xmlns="http://www.w3.org/2000/svg"
   xmlns:svg="http://www.w3.org/2000/svg">
  <defs
     id="defs2" />
  <sodipodi:namedview
     id="namedview2"
     pagecolor="#ffffff"
     bordercolor="#000000"
     borderopacity="0.25"
     inkscape:showpageshadow="2"
     inkscape:pageopacity="0.0"
     inkscape:pagecheckerboard="0"
     inkscape:deskcolor="#d1d1d1" />
  <!-- Icon from TDesign Icons by TDesign - https://github.com/Tencent/tdesign-icons/blob/main/LICENSE -->
  <path
     fill="currentColor"
     d="M11.5 2a5.5 5.5 0 1 0 0 11a5.5 5.5 0 0 0 0-11m12.09 16s-1.671 4.5-6.09 4.5a5.84 5.84 0 0 1-2.528-.557l-.971.971l-1.415-1.414l.718-.718C11.972 19.512 11.41 18 11.41 18s1.674-4.5 6.09-4.5c.972 0 1.811.218 2.529.558l.972-.972l1.414 1.414l-.718.718C23.028 16.49 23.59 18 23.59 18m-3.303-1.372l-3.753 3.753c.298.075.62.119.965.119c2.615 0 3.87-2.5 3.87-2.5s-.355-.71-1.082-1.372m-1.82-1.008a4 4 0 0 0-.968-.12c-2.621 0-3.87 2.5-3.87 2.5s.356.71 1.084 1.373z"
     id="path1" />
  <path
     fill="currentColor"
     d="M9.536 18.698L9.276 18l.26-.699V17.3l.002-.003l.004-.01l.008-.022a4 4 0 0 1 .111-.266a10.6 10.6 0 0 1 1.623-2.555a10 10 0 0 1 .408-.443H8a6 6 0 0 0-6 6v2h9.691a10 10 0 0 1-.407-.444a10.6 10.6 0 0 1-1.623-2.555a7 7 0 0 1-.111-.266l-.009-.023l-.003-.008l-.002-.004z"
     id="path2" />
</svg>
