<?xml version="1.0" encoding="UTF-8" standalone="no"?>
<svg
   width="1em"
   height="1em"
   viewBox="0 0 24 24"
   version="1.1"
   id="svg3"
   sodipodi:docname="tdesign-sound-high-filled.svg"
   xmlns:inkscape="http://www.inkscape.org/namespaces/inkscape"
   xmlns:sodipodi="http://sodipodi.sourceforge.net/DTD/sodipodi-0.dtd"
   xmlns="http://www.w3.org/2000/svg"
   xmlns:svg="http://www.w3.org/2000/svg">
  <defs
     id="defs3" />
  <sodipodi:namedview
     id="namedview3"
     pagecolor="#ffffff"
     bordercolor="#000000"
     borderopacity="0.25"
     inkscape:showpageshadow="2"
     inkscape:pageopacity="0.0"
     inkscape:pagecheckerboard="0"
     inkscape:deskcolor="#d1d1d1" />
  <!-- Icon from TDesign Icons by TDesign - https://github.com/Tencent/tdesign-icons/blob/main/LICENSE -->
  <path
     fill="currentColor"
     d="M5 6.5v11H1v-11zm2 11.71l8 4.5V1.29l-8 4.5zM21.157 6.343l-.707-.707l-1.415 1.414l.708.707a6 6 0 0 1 0 8.485l-.707.707l1.414 1.415l.707-.707a8 8 0 0 0 0-11.314"
     id="path1" />
  <path
     fill="currentColor"
     d="m18.682 7.404l-1.414 1.414l.707.707a3.5 3.5 0 0 1 0 4.95l-.707.707l1.414 1.414l.707-.707a5.5 5.5 0 0 0 0-7.778z"
     id="path2" />
  <path
     fill="currentColor"
     d="M17.621 14.121a3 3 0 0 0 0-4.243l-.707-.707l-1.414 1.415l.707.707a1 1 0 0 1 0 1.414l-.707.707l1.414 1.414z"
     id="path3" />
</svg>
