<?xml version="1.0" encoding="UTF-8" standalone="no"?>
<svg
   width="1em"
   height="1em"
   viewBox="0 0 24 24"
   version="1.1"
   id="svg2"
   sodipodi:docname="tdesign-architecture-hui-style-filled.svg"
   xmlns:inkscape="http://www.inkscape.org/namespaces/inkscape"
   xmlns:sodipodi="http://sodipodi.sourceforge.net/DTD/sodipodi-0.dtd"
   xmlns="http://www.w3.org/2000/svg"
   xmlns:svg="http://www.w3.org/2000/svg">
  <defs
     id="defs2" />
  <sodipodi:namedview
     id="namedview2"
     pagecolor="#ffffff"
     bordercolor="#000000"
     borderopacity="0.25"
     inkscape:showpageshadow="2"
     inkscape:pageopacity="0.0"
     inkscape:pagecheckerboard="0"
     inkscape:deskcolor="#d1d1d1" />
  <!-- Icon from TDesign Icons by TDesign - https://github.com/Tencent/tdesign-icons/blob/main/LICENSE -->
  <path
     fill="currentColor"
     d="m12 .333l.803 1.072l.012.016l.05.065q.064.086.19.249a78 78 0 0 0 2.947 3.607c.865.988 1.77 1.952 2.568 2.66c.4.356.75.627 1.036.803c.238.147.362.183.393.192V8h2v1c0 .407-.104.91-.456 1.33c-.378.451-.93.67-1.544.67H4c-.614 0-1.165-.22-1.543-.669c-.352-.419-.457-.922-.458-1.327l-.004-1l2-.008l.004 1v.002H4c.03-.01.154-.046.393-.193a8 8 0 0 0 1.036-.802c.797-.71 1.703-1.673 2.568-2.661a74 74 0 0 0 3.138-3.856l.049-.065l.012-.016zM4 13v7H2v2h7v-3a3 3 0 0 1 6 0v3h7v-2h-2v-7z"
     id="path1" />
  <path
     fill="currentColor"
     d="M12 18a1 1 0 0 0-1 1v3h2v-3a1 1 0 0 0-1-1"
     id="path2" />
</svg>
