<?xml version="1.0" encoding="UTF-8" standalone="no"?>
<svg
   width="1em"
   height="1em"
   viewBox="0 0 24 24"
   version="1.1"
   id="svg3"
   sodipodi:docname="tdesign-drink.svg"
   xmlns:inkscape="http://www.inkscape.org/namespaces/inkscape"
   xmlns:sodipodi="http://sodipodi.sourceforge.net/DTD/sodipodi-0.dtd"
   xmlns="http://www.w3.org/2000/svg"
   xmlns:svg="http://www.w3.org/2000/svg">
  <defs
     id="defs3" />
  <sodipodi:namedview
     id="namedview3"
     pagecolor="#ffffff"
     bordercolor="#000000"
     borderopacity="0.25"
     inkscape:showpageshadow="2"
     inkscape:pageopacity="0.0"
     inkscape:pagecheckerboard="0"
     inkscape:deskcolor="#d1d1d1" />
  <!-- Icon from TDesign Icons by TDesign - https://github.com/Tencent/tdesign-icons/blob/main/LICENSE -->
  <g
     fill="none"
     id="g3">
    <path
       d="M7.152 22h10.77l.578-8.454l-6.34-1.052l-5.722-.93zM3 6.222c0 1.75 1.5 3.159 3.29 3.159l-.216-3.159h3.389c0-1.749-1.447-3.166-3.232-3.166C4.447 3.056 3 4.473 3 6.222"
       id="path1" />
    <path
       stroke="currentColor"
       stroke-linecap="square"
       stroke-width="2"
       d="M3 6.222c0 1.75 1.5 3.159 3.29 3.159l-.216-3.159h3.389c0-1.749-1.447-3.166-3.232-3.166C4.447 3.056 3 4.473 3 6.222Z"
       id="path2" />
    <path
       stroke="currentColor"
       stroke-linecap="square"
       stroke-width="2"
       d="M19 2h-3.77L12.5 12M6.074 6.223H19L17.923 22H7.15zM17.923 22H7.152l-.715-10.436l5.722.93l6.341 1.052z"
       id="path3" />
  </g>
</svg>
