<?xml version="1.0" encoding="UTF-8" standalone="no"?>
<svg
   width="1em"
   height="1em"
   viewBox="0 0 24 24"
   version="1.1"
   id="svg4"
   sodipodi:docname="tdesign-markup.svg"
   xmlns:inkscape="http://www.inkscape.org/namespaces/inkscape"
   xmlns:sodipodi="http://sodipodi.sourceforge.net/DTD/sodipodi-0.dtd"
   xmlns="http://www.w3.org/2000/svg"
   xmlns:svg="http://www.w3.org/2000/svg">
  <defs
     id="defs4" />
  <sodipodi:namedview
     id="namedview4"
     pagecolor="#ffffff"
     bordercolor="#000000"
     borderopacity="0.25"
     inkscape:showpageshadow="2"
     inkscape:pageopacity="0.0"
     inkscape:pagecheckerboard="0"
     inkscape:deskcolor="#d1d1d1" />
  <!-- Icon from TDesign Icons by TDesign - https://github.com/Tencent/tdesign-icons/blob/main/LICENSE -->
  <g
     fill="none"
     id="g4">
    <path
       d="M22 12a9.99 9.99 0 0 1-5 8.662A9.96 9.96 0 0 1 12 22a9.96 9.96 0 0 1-5.465-1.624A9.99 9.99 0 0 1 2 12C2 6.477 6.477 2 12 2s10 4.477 10 10"
       id="path1" />
    <path
       d="M7 20.662A9.96 9.96 0 0 0 12 22c1.821 0 3.53-.487 5-1.338L15 13H9zM11 9v4h2V9l-1-1z"
       id="path2" />
    <path
       stroke="currentColor"
       stroke-width="2"
       d="M7 20.662A9.96 9.96 0 0 0 12 22c1.822 0 3.53-.487 5-1.338m-10 0a10 10 0 0 1-.465-.286m.466.286L9 13h6l2 7.662m.465-.286q-.229.15-.465.286M11 13V9l1-1l1 1v4"
       id="path3" />
    <path
       stroke="currentColor"
       stroke-width="2"
       d="M22 12a9.99 9.99 0 0 1-5 8.662A9.96 9.96 0 0 1 12 22a9.96 9.96 0 0 1-5.465-1.624A9.99 9.99 0 0 1 2 12C2 6.477 6.477 2 12 2s10 4.477 10 10Z"
       id="path4" />
  </g>
</svg>
