<?xml version="1.0" encoding="UTF-8" standalone="no"?>
<svg
   width="1em"
   height="1em"
   viewBox="0 0 24 24"
   version="1.1"
   id="svg2"
   sodipodi:docname="tdesign-building-1-filled.svg"
   xmlns:inkscape="http://www.inkscape.org/namespaces/inkscape"
   xmlns:sodipodi="http://sodipodi.sourceforge.net/DTD/sodipodi-0.dtd"
   xmlns="http://www.w3.org/2000/svg"
   xmlns:svg="http://www.w3.org/2000/svg">
  <defs
     id="defs2" />
  <sodipodi:namedview
     id="namedview2"
     pagecolor="#ffffff"
     bordercolor="#000000"
     borderopacity="0.25"
     inkscape:showpageshadow="2"
     inkscape:pageopacity="0.0"
     inkscape:pagecheckerboard="0"
     inkscape:deskcolor="#d1d1d1" />
  <!-- Icon from TDesign Icons by TDesign - https://github.com/Tencent/tdesign-icons/blob/main/LICENSE -->
  <path
     fill="currentColor"
     d="M7.5 1.5v1.625q.595.16 1.065.51c.549.407.897.951 1.113 1.494c.247.615.344 1.277.364 1.871H11.5v2H10v1h12v12h-3.5v-6h-7v6H3V9H1.5V7h1.458c.02-.594.117-1.256.363-1.871c.217-.543.565-1.087 1.114-1.494q.47-.35 1.065-.51V1.5zM4.96 7h3.08c-.018-.389-.083-.789-.219-1.129c-.116-.29-.268-.497-.449-.63C7.201 5.112 6.937 5 6.5 5s-.7.113-.873.24c-.18.134-.332.34-.449.631c-.135.34-.2.74-.219 1.129M5 9v11h3V9z"
     id="path1" />
  <path
     fill="currentColor"
     d="M16.5 22h-3v-4h3z"
     id="path2" />
</svg>
