<?xml version="1.0" encoding="UTF-8" standalone="no"?>
<svg
   width="1em"
   height="1em"
   viewBox="0 0 24 24"
   version="1.1"
   id="svg1"
   sodipodi:docname="tdesign-git-pull-request-filled.svg"
   xmlns:inkscape="http://www.inkscape.org/namespaces/inkscape"
   xmlns:sodipodi="http://sodipodi.sourceforge.net/DTD/sodipodi-0.dtd"
   xmlns="http://www.w3.org/2000/svg"
   xmlns:svg="http://www.w3.org/2000/svg">
  <defs
     id="defs1" />
  <sodipodi:namedview
     id="namedview1"
     pagecolor="#ffffff"
     bordercolor="#000000"
     borderopacity="0.25"
     inkscape:showpageshadow="2"
     inkscape:pageopacity="0.0"
     inkscape:pagecheckerboard="0"
     inkscape:deskcolor="#d1d1d1" />
  <!-- Icon from TDesign Icons by TDesign - https://github.com/Tencent/tdesign-icons/blob/main/LICENSE -->
  <path
     fill="currentColor"
     d="m16.414 3l-2 2H19.5v9.645a3.501 3.501 0 0 1-1 6.855a3.5 3.5 0 0 1-1-6.855V7h-3.086l2 2L15 10.414L10.586 6L15 1.586zM2 6a3.5 3.5 0 1 1 4.5 3.355v5.29a3.501 3.501 0 0 1-1 6.855a3.5 3.5 0 0 1-1-6.855v-5.29A3.5 3.5 0 0 1 2 6"
     id="path1" />
</svg>
