<?xml version="1.0" encoding="UTF-8" standalone="no"?>
<svg
   width="1em"
   height="1em"
   viewBox="0 0 24 24"
   version="1.1"
   id="svg2"
   sodipodi:docname="tdesign-tree-round-dot.svg"
   xmlns:inkscape="http://www.inkscape.org/namespaces/inkscape"
   xmlns:sodipodi="http://sodipodi.sourceforge.net/DTD/sodipodi-0.dtd"
   xmlns="http://www.w3.org/2000/svg"
   xmlns:svg="http://www.w3.org/2000/svg">
  <defs
     id="defs2" />
  <sodipodi:namedview
     id="namedview2"
     pagecolor="#ffffff"
     bordercolor="#000000"
     borderopacity="0.25"
     inkscape:showpageshadow="2"
     inkscape:pageopacity="0.0"
     inkscape:pagecheckerboard="0"
     inkscape:deskcolor="#d1d1d1" />
  <!-- Icon from TDesign Icons by TDesign - https://github.com/Tencent/tdesign-icons/blob/main/LICENSE -->
  <g
     fill="none"
     id="g2">
    <path
       d="M9 5a3 3 0 1 0 6 0a3 3 0 0 0-6 0m7 14a3 3 0 1 0 6 0a3 3 0 0 0-6 0M2 19a3 3 0 1 0 6 0a3 3 0 0 0-6 0"
       id="path1" />
    <path
       stroke="currentColor"
       stroke-linecap="square"
       stroke-width="2"
       d="M12 12h5a2 2 0 0 1 2 2v2m-7-4H7a2 2 0 0 0-2 2v2m7-4V8m-7 8a3 3 0 1 1 0 6a3 3 0 0 1 0-6Zm14 0a3 3 0 1 1 0 6a3 3 0 0 1 0-6Zm-7-8a3 3 0 1 1 0-6a3 3 0 0 1 0 6Z"
       id="path2" />
  </g>
</svg>
