<?xml version="1.0" encoding="UTF-8" standalone="no"?>
<svg
   width="1em"
   height="1em"
   viewBox="0 0 24 24"
   version="1.1"
   id="svg1"
   sodipodi:docname="tdesign-map-locked-filled.svg"
   xmlns:inkscape="http://www.inkscape.org/namespaces/inkscape"
   xmlns:sodipodi="http://sodipodi.sourceforge.net/DTD/sodipodi-0.dtd"
   xmlns="http://www.w3.org/2000/svg"
   xmlns:svg="http://www.w3.org/2000/svg">
  <defs
     id="defs1" />
  <sodipodi:namedview
     id="namedview1"
     pagecolor="#ffffff"
     bordercolor="#000000"
     borderopacity="0.25"
     inkscape:showpageshadow="2"
     inkscape:pageopacity="0.0"
     inkscape:pagecheckerboard="0"
     inkscape:deskcolor="#d1d1d1" />
  <!-- Icon from TDesign Icons by TDesign - https://github.com/Tencent/tdesign-icons/blob/main/LICENSE -->
  <path
     fill="currentColor"
     d="M7.5 2.717L2 5.926V21.5l5.5-2.267zm2 16.193l2 1.18V16.5a6.5 6.5 0 0 1 3-5.478V5.09l-5-2.953zM22 2.5v8.876a6.52 6.52 0 0 0-5.5-1.202V4.767zm-.75 12.75V16h1.249v6.5h-9V16h1.251v-.75a3.25 3.25 0 0 1 6.5 0m-2 0a1.25 1.25 0 1 0-2.5 0V16h2.5z"
     id="path1" />
</svg>
