<?xml version="1.0" encoding="UTF-8" standalone="no"?>
<svg
   width="1em"
   height="1em"
   viewBox="0 0 24 24"
   version="1.1"
   id="svg4"
   sodipodi:docname="tdesign-screenshot.svg"
   xmlns:inkscape="http://www.inkscape.org/namespaces/inkscape"
   xmlns:sodipodi="http://sodipodi.sourceforge.net/DTD/sodipodi-0.dtd"
   xmlns="http://www.w3.org/2000/svg"
   xmlns:svg="http://www.w3.org/2000/svg">
  <defs
     id="defs4" />
  <sodipodi:namedview
     id="namedview4"
     pagecolor="#ffffff"
     bordercolor="#000000"
     borderopacity="0.25"
     inkscape:showpageshadow="2"
     inkscape:pageopacity="0.0"
     inkscape:pagecheckerboard="0"
     inkscape:deskcolor="#d1d1d1" />
  <!-- Icon from TDesign Icons by TDesign - https://github.com/Tencent/tdesign-icons/blob/main/LICENSE -->
  <g
     fill="none"
     stroke="currentColor"
     stroke-width="2"
     id="g4">
    <path
       d="M7.807 10h.002l8.202 8.25z"
       id="path1" />
    <path
       d="M17.714 17.5c1.263 0 2.286 1.007 2.286 2.25S18.977 22 17.714 22c-1.262 0-2.285-1.007-2.285-2.25s1.023-2.25 2.285-2.25ZM16.193 10h-.002L7.99 18.25z"
       id="path2" />
    <path
       d="M6.286 17.5C5.023 17.5 4 18.507 4 19.75S5.023 22 6.286 22c1.262 0 2.285-1.007 2.285-2.25S7.548 17.5 6.286 17.5Z"
       id="path3" />
    <path
       stroke-linecap="square"
       d="M21 15V3H3v12"
       id="path4" />
  </g>
</svg>
