<?xml version="1.0" encoding="UTF-8" standalone="no"?>
<svg
   width="1em"
   height="1em"
   viewBox="0 0 24 24"
   version="1.1"
   id="svg1"
   sodipodi:docname="tdesign-gesture-applause-filled.svg"
   xmlns:inkscape="http://www.inkscape.org/namespaces/inkscape"
   xmlns:sodipodi="http://sodipodi.sourceforge.net/DTD/sodipodi-0.dtd"
   xmlns="http://www.w3.org/2000/svg"
   xmlns:svg="http://www.w3.org/2000/svg">
  <defs
     id="defs1" />
  <sodipodi:namedview
     id="namedview1"
     pagecolor="#ffffff"
     bordercolor="#000000"
     borderopacity="0.25"
     inkscape:showpageshadow="2"
     inkscape:pageopacity="0.0"
     inkscape:pagecheckerboard="0"
     inkscape:deskcolor="#d1d1d1" />
  <!-- Icon from TDesign Icons by TDesign - https://github.com/Tencent/tdesign-icons/blob/main/LICENSE -->
  <path
     fill="currentColor"
     d="M3 .586L5.414 3L4 4.414L1.586 2zM22.414 2L20 4.414L18.586 3L21 .586zM10.357 3.303a.65.65 0 0 0-.651.516l-2.28 10.674l-1.218 1.217l2.702 2.701l1.527-1.527a1.9 1.9 0 0 0 .56-1.35V3.954a.653.653 0 0 0-.64-.652M7.75 3.4A2.653 2.653 0 0 1 12 1.882a2.652 2.652 0 0 1 4.25 1.519l2.156 10.096l4.27 4.27l-5.53 5.53l-4.999-4.999q-.075-.076-.148-.156a4 4 0 0 1-.148.156l-4.999 5l-5.53-5.53l4.27-4.27zm6.543.418a.652.652 0 0 0-1.291.136v11.579c0 .506.201.992.56 1.35l1.527 1.527l2.7-2.701l-1.216-1.217zM5.414 7L3 9.414L1.586 8L4 5.586zM20 5.586L22.414 8L21 9.414L18.586 7z"
     id="path1" />
</svg>
