<?xml version="1.0" encoding="UTF-8" standalone="no"?>
<svg
   width="1em"
   height="1em"
   viewBox="0 0 24 24"
   version="1.1"
   id="svg3"
   sodipodi:docname="tdesign-backup.svg"
   xmlns:inkscape="http://www.inkscape.org/namespaces/inkscape"
   xmlns:sodipodi="http://sodipodi.sourceforge.net/DTD/sodipodi-0.dtd"
   xmlns="http://www.w3.org/2000/svg"
   xmlns:svg="http://www.w3.org/2000/svg">
  <defs
     id="defs3" />
  <sodipodi:namedview
     id="namedview3"
     pagecolor="#ffffff"
     bordercolor="#000000"
     borderopacity="0.25"
     inkscape:showpageshadow="2"
     inkscape:pageopacity="0.0"
     inkscape:pagecheckerboard="0"
     inkscape:deskcolor="#d1d1d1" />
  <!-- Icon from TDesign Icons by TDesign - https://github.com/Tencent/tdesign-icons/blob/main/LICENSE -->
  <g
     fill="none"
     id="g3">
    <path
       d="M1 14.5A5.5 5.5 0 0 0 6.5 20h11a5.5 5.5 0 0 0 .987-10.912a6.5 6.5 0 0 0-12.974 0A5.5 5.5 0 0 0 1 14.5"
       clip-rule="evenodd"
       id="path1" />
    <path
       stroke="currentColor"
       stroke-linecap="square"
       stroke-width="2"
       d="M1 14.5A5.5 5.5 0 0 0 6.5 20h11a5.5 5.5 0 0 0 .987-10.912a6.5 6.5 0 0 0-12.974 0A5.5 5.5 0 0 0 1 14.5Z"
       clip-rule="evenodd"
       id="path2" />
    <path
       stroke="currentColor"
       stroke-linecap="square"
       stroke-width="2"
       d="m15 11.5l-3-3l-3 3m3 4.5v-3m0 0V9z"
       id="path3" />
  </g>
</svg>
