<?xml version="1.0" encoding="UTF-8" standalone="no"?>
<svg
   width="1em"
   height="1em"
   viewBox="0 0 24 24"
   version="1.1"
   id="svg2"
   sodipodi:docname="tdesign-map-checked-filled.svg"
   xmlns:inkscape="http://www.inkscape.org/namespaces/inkscape"
   xmlns:sodipodi="http://sodipodi.sourceforge.net/DTD/sodipodi-0.dtd"
   xmlns="http://www.w3.org/2000/svg"
   xmlns:svg="http://www.w3.org/2000/svg">
  <defs
     id="defs2" />
  <sodipodi:namedview
     id="namedview2"
     pagecolor="#ffffff"
     bordercolor="#000000"
     borderopacity="0.25"
     inkscape:showpageshadow="2"
     inkscape:pageopacity="0.0"
     inkscape:pagecheckerboard="0"
     inkscape:deskcolor="#d1d1d1" />
  <!-- Icon from TDesign Icons by TDesign - https://github.com/Tencent/tdesign-icons/blob/main/LICENSE -->
  <path
     fill="currentColor"
     d="M6.5 2.717L1 5.926V21.5l5.5-2.267zm2 16.193l5 2.953v-.173a6.48 6.48 0 0 1-2-4.69a6.48 6.48 0 0 1 2-4.69V5.09l-5-2.952zM21 2.5v8.732a6.5 6.5 0 0 0-3-.732a6.5 6.5 0 0 0-2.5.498v-6.23z"
     id="path1" />
  <path
     fill="currentColor"
     d="m16.586 21.657l7.072-7.07l-1.415-1.415l-5.657 5.657L13.758 16l-1.414 1.415z"
     id="path2" />
</svg>
