<?xml version="1.0" encoding="UTF-8" standalone="no"?>
<svg
   width="1em"
   height="1em"
   viewBox="0 0 24 24"
   version="1.1"
   id="svg2"
   sodipodi:docname="tdesign-undertake-environment-protection.svg"
   xmlns:inkscape="http://www.inkscape.org/namespaces/inkscape"
   xmlns:sodipodi="http://sodipodi.sourceforge.net/DTD/sodipodi-0.dtd"
   xmlns="http://www.w3.org/2000/svg"
   xmlns:svg="http://www.w3.org/2000/svg">
  <defs
     id="defs2" />
  <sodipodi:namedview
     id="namedview2"
     pagecolor="#ffffff"
     bordercolor="#000000"
     borderopacity="0.25"
     inkscape:showpageshadow="2"
     inkscape:pageopacity="0.0"
     inkscape:pagecheckerboard="0"
     inkscape:deskcolor="#d1d1d1" />
  <!-- Icon from TDesign Icons by TDesign - https://github.com/Tencent/tdesign-icons/blob/main/LICENSE -->
  <g
     fill="none"
     id="g2">
    <path
       d="M19.781 14.555L13.5 16h-.375a1.875 1.875 0 0 0 0-3.75H8.438a2.25 2.25 0 0 0-1.594.656L4.5 15.25v5.25h6.75l6-1.5l3.64-1.552a1.555 1.555 0 0 0-1.109-2.893M4.5 15.25v5.25H1v-5.25zM14 7.5C14 5.063 17 2 17 2s3 3.063 3 5.5a3 3 0 1 1-6 0"
       id="path1" />
    <path
       stroke="currentColor"
       stroke-linecap="square"
       stroke-width="2"
       d="M4.5 20.5h6.75l6-1.5l3.64-1.552a1.555 1.555 0 0 0-1.109-2.893L13.5 16h-.375M4.5 20.5v-5.25m0 5.25H1v-5.25h3.5m0 0l2.344-2.344a2.25 2.25 0 0 1 1.593-.656h4.688a1.875 1.875 0 0 1 0 3.75H11m3-8.5C14 5.063 17 2 17 2s3 3.063 3 5.5a3 3 0 1 1-6 0Z"
       id="path2" />
  </g>
</svg>
