<?xml version="1.0" encoding="UTF-8" standalone="no"?>
<svg
   width="1em"
   height="1em"
   viewBox="0 0 24 24"
   version="1.1"
   id="svg4"
   sodipodi:docname="tdesign-filter-2.svg"
   xmlns:inkscape="http://www.inkscape.org/namespaces/inkscape"
   xmlns:sodipodi="http://sodipodi.sourceforge.net/DTD/sodipodi-0.dtd"
   xmlns="http://www.w3.org/2000/svg"
   xmlns:svg="http://www.w3.org/2000/svg">
  <defs
     id="defs4" />
  <sodipodi:namedview
     id="namedview4"
     pagecolor="#ffffff"
     bordercolor="#000000"
     borderopacity="0.25"
     inkscape:showpageshadow="2"
     inkscape:pageopacity="0.0"
     inkscape:pagecheckerboard="0"
     inkscape:deskcolor="#d1d1d1" />
  <!-- Icon from TDesign Icons by TDesign - https://github.com/Tencent/tdesign-icons/blob/main/LICENSE -->
  <g
     fill="none"
     id="g4">
    <path
       d="m3.563 18.491l3.735 3.735L17.554 11.97L13.82 8.235z"
       id="path1" />
    <path
       d="m20.973 8.55l-3.735-3.734l-3.418 3.42l3.734 3.734z"
       id="path2" />
    <path
       stroke="currentColor"
       stroke-linecap="square"
       stroke-width="2"
       d="m17.238 4.816l3.735 3.735m-3.735-3.735L3.563 18.491l3.735 3.735L20.973 8.55m-3.735-3.735l-3.418 3.42l3.734 3.734l3.419-3.42"
       id="path3" />
    <path
       stroke="currentColor"
       stroke-width="2"
       d="m7.75 3.5l.415.835L9 4.75l-.835.415L7.75 6l-.415-.835L6.5 4.75l.835-.415zM21.625 3l.041.083l.084.042l-.084.042l-.041.083l-.041-.083l-.084-.042l.084-.042z"
       id="path4" />
  </g>
</svg>
