<?xml version="1.0" encoding="UTF-8" standalone="no"?>
<svg
   width="1em"
   height="1em"
   viewBox="0 0 24 24"
   version="1.1"
   id="svg2"
   sodipodi:docname="tdesign-patio-filled.svg"
   xmlns:inkscape="http://www.inkscape.org/namespaces/inkscape"
   xmlns:sodipodi="http://sodipodi.sourceforge.net/DTD/sodipodi-0.dtd"
   xmlns="http://www.w3.org/2000/svg"
   xmlns:svg="http://www.w3.org/2000/svg">
  <defs
     id="defs2" />
  <sodipodi:namedview
     id="namedview2"
     pagecolor="#ffffff"
     bordercolor="#000000"
     borderopacity="0.25"
     inkscape:showpageshadow="2"
     inkscape:pageopacity="0.0"
     inkscape:pagecheckerboard="0"
     inkscape:deskcolor="#d1d1d1" />
  <!-- Icon from TDesign Icons by TDesign - https://github.com/Tencent/tdesign-icons/blob/main/LICENSE -->
  <path
     fill="currentColor"
     d="M12 1c-2.635 0-4.75.527-6.217 1.06c-.733.267-1.304.535-1.699.74a9 9 0 0 0-.62.356l-.011.007l-.005.003l-.001.001L3 3.465V20H2v2h5V9h2v2h2V9h2v13h9v-2h-1V3.465l-.447-.298l-.001-.001l-.005-.003l-.011-.007l-.163-.101a9 9 0 0 0-.457-.254a14 14 0 0 0-1.7-.74C16.75 1.526 14.635 1 12 1"
     id="path1" />
  <path
     fill="currentColor"
     d="M11 22v-2H9v2zm0-4H9v-1.5h2zm0-3.5H9V13h2z"
     id="path2" />
</svg>
