<?xml version="1.0" encoding="UTF-8" standalone="no"?>
<svg
   width="1em"
   height="1em"
   viewBox="0 0 24 24"
   version="1.1"
   id="svg1"
   sodipodi:docname="tdesign-usercase-link-filled.svg"
   xmlns:inkscape="http://www.inkscape.org/namespaces/inkscape"
   xmlns:sodipodi="http://sodipodi.sourceforge.net/DTD/sodipodi-0.dtd"
   xmlns="http://www.w3.org/2000/svg"
   xmlns:svg="http://www.w3.org/2000/svg">
  <defs
     id="defs1" />
  <sodipodi:namedview
     id="namedview1"
     pagecolor="#ffffff"
     bordercolor="#000000"
     borderopacity="0.25"
     inkscape:showpageshadow="2"
     inkscape:pageopacity="0.0"
     inkscape:pagecheckerboard="0"
     inkscape:deskcolor="#d1d1d1" />
  <!-- Icon from TDesign Icons by TDesign - https://github.com/Tencent/tdesign-icons/blob/main/LICENSE -->
  <path
     fill="currentColor"
     d="M6 9c.921 0 1.893.232 2.676.754C9.467 10.28 10 11.074 10 12s-.533 1.719-1.324 2.246C7.893 14.768 6.921 15 6 15s-1.893-.232-2.676-.754C2.533 13.72 2 12.926 2 12s.533-1.719 1.324-2.246C4.107 9.232 5.079 9 6 9m12 0c.921 0 1.893.232 2.676.754C21.467 10.28 22 11.074 22 12s-.533 1.719-1.324 2.246c-.783.522-1.755.754-2.676.754s-1.893-.232-2.676-.754C14.533 13.72 14 12.926 14 12s.533-1.719 1.324-2.246C16.107 9.232 17.079 9 18 9m-7.002 1.996h2.004V13h-2.004z"
     id="path1" />
</svg>
