<?xml version="1.0" encoding="UTF-8" standalone="no"?>
<svg
   width="1.05em"
   height="1em"
   viewBox="0 0 25 24"
   version="1.1"
   id="svg1"
   sodipodi:docname="tdesign-film-filled.svg"
   xmlns:inkscape="http://www.inkscape.org/namespaces/inkscape"
   xmlns:sodipodi="http://sodipodi.sourceforge.net/DTD/sodipodi-0.dtd"
   xmlns="http://www.w3.org/2000/svg"
   xmlns:svg="http://www.w3.org/2000/svg">
  <defs
     id="defs1" />
  <sodipodi:namedview
     id="namedview1"
     pagecolor="#ffffff"
     bordercolor="#000000"
     borderopacity="0.25"
     inkscape:showpageshadow="2"
     inkscape:pageopacity="0.0"
     inkscape:pagecheckerboard="0"
     inkscape:deskcolor="#d1d1d1" />
  <!-- Icon from TDesign Icons by TDesign - https://github.com/Tencent/tdesign-icons/blob/main/LICENSE -->
  <path
     fill="currentColor"
     d="M20.082 19.7q-.704.718-1.53 1.3h5.674v2h-12c-6.075 0-11-4.925-11-11s4.925-11 11-11s11 4.925 11 11c0 2.998-1.2 5.717-3.144 7.7M12.226 5a2 2 0 1 0 0 4a2 2 0 0 0 0-4m5 5a2 2 0 1 0 0 4a2 2 0 0 0 0-4m-12 2a2 2 0 1 0 4 0a2 2 0 0 0-4 0m7 3a2 2 0 1 0 0 4a2 2 0 0 0 0-4"
     id="path1" />
</svg>
