<?xml version="1.0" encoding="UTF-8" standalone="no"?>
<svg
   width="1em"
   height="1em"
   viewBox="0 0 24 24"
   version="1.1"
   id="svg3"
   sodipodi:docname="tdesign-nut.svg"
   xmlns:inkscape="http://www.inkscape.org/namespaces/inkscape"
   xmlns:sodipodi="http://sodipodi.sourceforge.net/DTD/sodipodi-0.dtd"
   xmlns="http://www.w3.org/2000/svg"
   xmlns:svg="http://www.w3.org/2000/svg">
  <defs
     id="defs3" />
  <sodipodi:namedview
     id="namedview3"
     pagecolor="#ffffff"
     bordercolor="#000000"
     borderopacity="0.25"
     inkscape:showpageshadow="2"
     inkscape:pageopacity="0.0"
     inkscape:pagecheckerboard="0"
     inkscape:deskcolor="#d1d1d1" />
  <!-- Icon from TDesign Icons by TDesign - https://github.com/Tencent/tdesign-icons/blob/main/LICENSE -->
  <g
     fill="none"
     id="g3">
    <path
       d="M4.5 19.5c3.125 3.124 8.545 1.355 12.45-2.55l-1.414-1.415v-2.828h-2.828L7.05 7.05C3.145 10.955 1.376 16.375 4.5 19.5"
       id="path1" />
    <path
       d="M7.757 4.93c2.806-2.806 7.734-.933 9.852 1.366c2.396 2.217 4.287 7.122 1.462 9.947l-1.414 1.414l-2.121-2.121v-2.829h-2.829L6.343 6.343z"
       id="path2" />
    <path
       stroke="currentColor"
       stroke-linecap="square"
       stroke-width="2"
       d="M6.71 7.4c-3.665 3.873-5.242 9.068-2.21 12.1c3.034 3.033 8.233 1.453 12.108-2.218M17.6 6.287c-.044-.04.029.029.015.015m-.015-.015l.009.009m-.01-.009l.016.015m0 0l-.006-.006m.006.006q.003.003 0 0Zm0 0C18.207 5.578 19.068 4.295 19.5 3m-1.885 3.302c-.378.461-.822.905-1.373 1.455m1.367-1.461c-2.118-2.3-7.047-4.172-9.852-1.367L6.343 6.343l6.364 6.364h2.828v2.828l2.122 2.122l1.414-1.414c2.824-2.825.934-7.73-1.462-9.947Z"
       id="path3" />
  </g>
</svg>
