<?xml version="1.0" encoding="UTF-8" standalone="no"?>
<svg
   width="1em"
   height="1em"
   viewBox="0 0 24 24"
   version="1.1"
   id="svg1"
   sodipodi:docname="tdesign-fog-filled.svg"
   xmlns:inkscape="http://www.inkscape.org/namespaces/inkscape"
   xmlns:sodipodi="http://sodipodi.sourceforge.net/DTD/sodipodi-0.dtd"
   xmlns="http://www.w3.org/2000/svg"
   xmlns:svg="http://www.w3.org/2000/svg">
  <defs
     id="defs1" />
  <sodipodi:namedview
     id="namedview1"
     pagecolor="#ffffff"
     bordercolor="#000000"
     borderopacity="0.25"
     inkscape:showpageshadow="2"
     inkscape:pageopacity="0.0"
     inkscape:pagecheckerboard="0"
     inkscape:deskcolor="#d1d1d1" />
  <!-- Icon from TDesign Icons by TDesign - https://github.com/Tencent/tdesign-icons/blob/main/LICENSE -->
  <path
     fill="currentColor"
     d="M2 13c0-1.657 1.124-3.185 2.701-3.68L4.7 9.2C4.7 5.74 7.601 3 11.1 3c.546 0 1.078.066 1.586.192c2.147.53 3.88 2.12 4.533 4.187a5.6 5.6 0 0 1 2.01.657C20.942 8.986 22 11.086 22 13zm0 2h6v2H2zm8 0h12v2H10zm7 4h5v2h-5zM2 21v-2h13v2z"
     id="path1" />
</svg>
