<?xml version="1.0" encoding="UTF-8" standalone="no"?>
<svg
   width="1em"
   height="1em"
   viewBox="0 0 24 24"
   version="1.1"
   id="svg4"
   sodipodi:docname="tdesign-lightbulb-circle.svg"
   xmlns:inkscape="http://www.inkscape.org/namespaces/inkscape"
   xmlns:sodipodi="http://sodipodi.sourceforge.net/DTD/sodipodi-0.dtd"
   xmlns="http://www.w3.org/2000/svg"
   xmlns:svg="http://www.w3.org/2000/svg">
  <defs
     id="defs4" />
  <sodipodi:namedview
     id="namedview4"
     pagecolor="#ffffff"
     bordercolor="#000000"
     borderopacity="0.25"
     inkscape:showpageshadow="2"
     inkscape:pageopacity="0.0"
     inkscape:pagecheckerboard="0"
     inkscape:deskcolor="#d1d1d1" />
  <!-- Icon from TDesign Icons by TDesign - https://github.com/Tencent/tdesign-icons/blob/main/LICENSE -->
  <g
     fill="none"
     id="g4">
    <path
       d="M12 2C6.477 2 2 6.477 2 12s4.477 10 10 10s10-4.477 10-10S17.523 2 12 2"
       id="path1" />
    <path
       d="M12 5c2.482 0 4.5 2.019 4.5 4.5c0 .681-.148 1.334-.442 1.942c-.513 1.062-1.076 2.266-1.531 3.558H9.473c-.454-1.292-1.018-2.496-1.53-3.558A4.4 4.4 0 0 1 7.5 9.5C7.5 7.019 9.519 5 12 5"
       clip-rule="evenodd"
       id="path2" />
    <path
       stroke="currentColor"
       stroke-linecap="square"
       stroke-width="2"
       d="M12 2C6.477 2 2 6.477 2 12s4.477 10 10 10s10-4.477 10-10S17.523 2 12 2Z"
       id="path3" />
    <path
       stroke="currentColor"
       stroke-linecap="square"
       stroke-width="2"
       d="M10.5 18h3M12 5c2.482 0 4.5 2.019 4.5 4.5c0 .681-.148 1.334-.442 1.942c-.513 1.062-1.076 2.266-1.531 3.558H9.473c-.454-1.292-1.018-2.496-1.53-3.558A4.4 4.4 0 0 1 7.5 9.5C7.5 7.019 9.519 5 12 5Z"
       id="path4" />
  </g>
</svg>
