<?xml version="1.0" encoding="UTF-8" standalone="no"?>
<svg
   width="1em"
   height="1em"
   viewBox="0 0 24 24"
   version="1.1"
   id="svg2"
   sodipodi:docname="tdesign-guitar-filled.svg"
   xmlns:inkscape="http://www.inkscape.org/namespaces/inkscape"
   xmlns:sodipodi="http://sodipodi.sourceforge.net/DTD/sodipodi-0.dtd"
   xmlns="http://www.w3.org/2000/svg"
   xmlns:svg="http://www.w3.org/2000/svg">
  <defs
     id="defs2" />
  <sodipodi:namedview
     id="namedview2"
     pagecolor="#ffffff"
     bordercolor="#000000"
     borderopacity="0.25"
     inkscape:showpageshadow="2"
     inkscape:pageopacity="0.0"
     inkscape:pagecheckerboard="0"
     inkscape:deskcolor="#d1d1d1" />
  <!-- Icon from TDesign Icons by TDesign - https://github.com/Tencent/tdesign-icons/blob/main/LICENSE -->
  <path
     fill="currentColor"
     d="M6.5 16a1.5 1.5 0 1 1 3 0a1.5 1.5 0 0 1-3 0"
     id="path1" />
  <path
     fill="currentColor"
     d="M22.414 5L21 6.414l-1-1l-.586.586l.5.5L18.5 7.914l-.5-.5l-.828.829a5 5 0 0 1-2.183 7.346q.01.204.011.411a7 7 0 1 1-6.589-6.988a5 5 0 0 1 7.346-2.183L16.586 6l-.5-.5L17.5 4.086l.5.5l.586-.586l-1-1L19 1.586zM8 12.5a3.5 3.5 0 1 0 0 7a3.5 3.5 0 0 0 0-7"
     id="path2" />
</svg>
