<?xml version="1.0" encoding="UTF-8" standalone="no"?>
<svg
   width="1em"
   height="1em"
   viewBox="0 0 24 24"
   version="1.1"
   id="svg1"
   sodipodi:docname="tdesign-transform-filled.svg"
   xmlns:inkscape="http://www.inkscape.org/namespaces/inkscape"
   xmlns:sodipodi="http://sodipodi.sourceforge.net/DTD/sodipodi-0.dtd"
   xmlns="http://www.w3.org/2000/svg"
   xmlns:svg="http://www.w3.org/2000/svg">
  <defs
     id="defs1" />
  <sodipodi:namedview
     id="namedview1"
     pagecolor="#ffffff"
     bordercolor="#000000"
     borderopacity="0.25"
     inkscape:showpageshadow="2"
     inkscape:pageopacity="0.0"
     inkscape:pagecheckerboard="0"
     inkscape:deskcolor="#d1d1d1" />
  <!-- Icon from TDesign Icons by TDesign - https://github.com/Tencent/tdesign-icons/blob/main/LICENSE -->
  <path
     fill="currentColor"
     d="M1 4a3 3 0 0 1 5.83-1h10.34A3.001 3.001 0 1 1 21 6.83v10.34A3.001 3.001 0 1 1 17.17 21H6.83A3.001 3.001 0 1 1 3 17.17V6.83A3 3 0 0 1 1 4m4 2.83v10.34A3 3 0 0 1 6.83 19h10.34A3 3 0 0 1 19 17.17V6.83A3 3 0 0 1 17.17 5H6.83A3 3 0 0 1 5 6.83"
     id="path1" />
</svg>
