<?xml version="1.0" encoding="UTF-8" standalone="no"?>
<svg
   width="1em"
   height="1em"
   viewBox="0 0 24 24"
   version="1.1"
   id="svg2"
   sodipodi:docname="tdesign-shimen.svg"
   xmlns:inkscape="http://www.inkscape.org/namespaces/inkscape"
   xmlns:sodipodi="http://sodipodi.sourceforge.net/DTD/sodipodi-0.dtd"
   xmlns="http://www.w3.org/2000/svg"
   xmlns:svg="http://www.w3.org/2000/svg">
  <sodipodi:namedview
     id="namedview2"
     pagecolor="#ffffff"
     bordercolor="#000000"
     borderopacity="0.25"
     inkscape:showpageshadow="2"
     inkscape:pageopacity="0.0"
     inkscape:pagecheckerboard="0"
     inkscape:deskcolor="#d1d1d1" />
  <!-- Icon from TDesign Icons by TDesign - https://github.com/Tencent/tdesign-icons/blob/main/LICENSE -->
  <defs
     id="defs1">
    <path
       id="SVGsWjwhd3e"
       d="m3.999 21l1-13.7l3 .3l1 13.4zm16 0l-1-13.7c-1.038.105-1.895.2-2.895.3L14.999 21z" />
  </defs>
  <g
     fill="none"
     id="g2">
    <path
       d="m1.999 4.001l10-1l10 1v3l-10 1l-10-1z"
       id="path1" />
    <path
       id="use1"
       d="m 3.999,21 1,-13.7 3,0.3 1,13.4 z m 16,0 -1,-13.7 C 17.961,7.405 17.104,7.5 16.104,7.6 L 14.999,21 Z" />
    <path
       id="use2"
       d="m 3.999,21 1,-13.7 3,0.3 1,13.4 z m 16,0 -1,-13.7 C 17.961,7.405 17.104,7.5 16.104,7.6 L 14.999,21 Z"
       style="stroke:#000000;stroke-width:2" />
    <path
       stroke="currentColor"
       stroke-width="2"
       d="m1.999 4.001l10-1l10 1v3l-10 1l-10-1z"
       id="path2" />
  </g>
</svg>
