<?xml version="1.0" encoding="UTF-8" standalone="no"?>
<svg
   width="1em"
   height="1em"
   viewBox="0 0 24 24"
   version="1.1"
   id="svg2"
   sodipodi:docname="tdesign-usercase-link.svg"
   xmlns:inkscape="http://www.inkscape.org/namespaces/inkscape"
   xmlns:sodipodi="http://sodipodi.sourceforge.net/DTD/sodipodi-0.dtd"
   xmlns="http://www.w3.org/2000/svg"
   xmlns:svg="http://www.w3.org/2000/svg">
  <defs
     id="defs2" />
  <sodipodi:namedview
     id="namedview2"
     pagecolor="#ffffff"
     bordercolor="#000000"
     borderopacity="0.25"
     inkscape:showpageshadow="2"
     inkscape:pageopacity="0.0"
     inkscape:pagecheckerboard="0"
     inkscape:deskcolor="#d1d1d1" />
  <!-- Icon from TDesign Icons by TDesign - https://github.com/Tencent/tdesign-icons/blob/main/LICENSE -->
  <g
     fill="none"
     id="g2">
    <path
       d="M8.121 13.414c-1.171.781-3.07.781-4.242 0c-1.172-.78-1.172-2.047 0-2.828s3.07-.781 4.242 0c1.172.78 1.172 2.047 0 2.828m12 0c-1.171.781-3.07.781-4.242 0c-1.172-.78-1.172-2.047 0-2.828s3.07-.781 4.242 0c1.172.78 1.172 2.047 0 2.828"
       id="path1" />
    <path
       stroke="currentColor"
       stroke-linecap="square"
       stroke-width="2"
       d="M8.121 13.414c-1.171.781-3.07.781-4.242 0c-1.172-.78-1.172-2.047 0-2.828s3.07-.781 4.242 0c1.172.78 1.172 2.047 0 2.828Zm3.877-1.418h.004V12h-.004zm8.123 1.418c-1.171.781-3.07.781-4.242 0c-1.172-.78-1.172-2.047 0-2.828s3.07-.781 4.242 0c1.172.78 1.172 2.047 0 2.828Z"
       id="path2" />
  </g>
</svg>
