<?xml version="1.0" encoding="UTF-8" standalone="no"?>
<svg
   width="1em"
   height="1em"
   viewBox="0 0 24 24"
   version="1.1"
   id="svg6"
   sodipodi:docname="tdesign-user-circle.svg"
   xmlns:inkscape="http://www.inkscape.org/namespaces/inkscape"
   xmlns:sodipodi="http://sodipodi.sourceforge.net/DTD/sodipodi-0.dtd"
   xmlns="http://www.w3.org/2000/svg"
   xmlns:svg="http://www.w3.org/2000/svg">
  <defs
     id="defs6" />
  <sodipodi:namedview
     id="namedview6"
     pagecolor="#ffffff"
     bordercolor="#000000"
     borderopacity="0.25"
     inkscape:showpageshadow="2"
     inkscape:pageopacity="0.0"
     inkscape:pagecheckerboard="0"
     inkscape:deskcolor="#d1d1d1" />
  <!-- Icon from TDesign Icons by TDesign - https://github.com/Tencent/tdesign-icons/blob/main/LICENSE -->
  <g
     fill="none"
     id="g6">
    <path
       d="M22 12c0-5.523-4.477-10-10-10S2 6.477 2 12s4.477 10 10 10s10-4.477 10-10"
       id="path1" />
    <path
       d="M15.5 8.5a3.5 3.5 0 1 1-7 0a3.5 3.5 0 0 1 7 0"
       id="path2" />
    <path
       d="M18.5 19.6V19a4 4 0 0 0-4-4h-5a4 4 0 0 0-4 4v.6A9.96 9.96 0 0 0 12 22a9.96 9.96 0 0 0 6.5-2.4"
       clip-rule="evenodd"
       id="path3" />
    <g
       stroke="currentColor"
       stroke-linecap="square"
       stroke-width="2"
       id="g5">
      <path
         d="M15.5 8.5a3.5 3.5 0 1 1-7 0a3.5 3.5 0 0 1 7 0Z"
         id="path4" />
      <path
         d="M18.5 19.6V19a4 4 0 0 0-4-4h-5a4 4 0 0 0-4 4v.6A9.96 9.96 0 0 0 12 22a9.96 9.96 0 0 0 6.5-2.4Z"
         clip-rule="evenodd"
         id="path5" />
    </g>
    <path
       stroke="currentColor"
       stroke-linecap="square"
       stroke-width="2"
       d="M22 12c0-5.523-4.477-10-10-10S2 6.477 2 12s4.477 10 10 10s10-4.477 10-10Z"
       id="path6" />
  </g>
</svg>
