<?xml version="1.0" encoding="UTF-8" standalone="no"?>
<svg
   width="1em"
   height="1em"
   viewBox="0 0 24 24"
   version="1.1"
   id="svg1"
   sodipodi:docname="tdesign-git-merge-filled.svg"
   xmlns:inkscape="http://www.inkscape.org/namespaces/inkscape"
   xmlns:sodipodi="http://sodipodi.sourceforge.net/DTD/sodipodi-0.dtd"
   xmlns="http://www.w3.org/2000/svg"
   xmlns:svg="http://www.w3.org/2000/svg">
  <defs
     id="defs1" />
  <sodipodi:namedview
     id="namedview1"
     pagecolor="#ffffff"
     bordercolor="#000000"
     borderopacity="0.25"
     inkscape:showpageshadow="2"
     inkscape:pageopacity="0.0"
     inkscape:pagecheckerboard="0"
     inkscape:deskcolor="#d1d1d1" />
  <!-- Icon from TDesign Icons by TDesign - https://github.com/Tencent/tdesign-icons/blob/main/LICENSE -->
  <path
     fill="currentColor"
     d="M2 6a3.5 3.5 0 1 1 4.667 3.3A2 2 0 0 0 8.5 10.5h7a4 4 0 0 1 4 4v.145a3.502 3.502 0 0 1-1 6.855a3.5 3.5 0 0 1-1-6.855V14.5a2 2 0 0 0-2-2h-7a4 4 0 0 1-2-.535v2.68a3.502 3.502 0 0 1-1 6.855a3.5 3.5 0 0 1-1-6.855v-5.29A3.5 3.5 0 0 1 2 6"
     id="path1" />
</svg>
