<?xml version="1.0" encoding="UTF-8" standalone="no"?>
<svg
   width="1em"
   height="1em"
   viewBox="0 0 24 24"
   version="1.1"
   id="svg2"
   sodipodi:docname="tdesign-logo-adobe-photoshop-filled.svg"
   xmlns:inkscape="http://www.inkscape.org/namespaces/inkscape"
   xmlns:sodipodi="http://sodipodi.sourceforge.net/DTD/sodipodi-0.dtd"
   xmlns="http://www.w3.org/2000/svg"
   xmlns:svg="http://www.w3.org/2000/svg">
  <defs
     id="defs2" />
  <sodipodi:namedview
     id="namedview2"
     pagecolor="#ffffff"
     bordercolor="#000000"
     borderopacity="0.25"
     inkscape:showpageshadow="2"
     inkscape:pageopacity="0.0"
     inkscape:pagecheckerboard="0"
     inkscape:deskcolor="#d1d1d1" />
  <!-- Icon from TDesign Icons by TDesign - https://github.com/Tencent/tdesign-icons/blob/main/LICENSE -->
  <path
     fill="currentColor"
     d="M8 8v3h1.5a1.5 1.5 0 0 0 0-3z"
     id="path1" />
  <path
     fill="currentColor"
     d="M22 2H2v20h20zM8 13v5H6V6h3.5a3.5 3.5 0 1 1 0 7zm5.5-.547A2.453 2.453 0 0 1 15.953 10H18v2h-2.047a.453.453 0 0 0-.143.883l1.013.337a2.453 2.453 0 0 1-.776 4.78H13.5v-2h2.547a.453.453 0 0 0 .143-.883l-1.013-.337a2.45 2.45 0 0 1-1.677-2.327"
     id="path2" />
</svg>
