<?xml version="1.0" encoding="UTF-8" standalone="no"?>
<svg
   width="1em"
   height="1em"
   viewBox="0 0 24 24"
   version="1.1"
   id="svg4"
   sodipodi:docname="tdesign-setting-1.svg"
   xmlns:inkscape="http://www.inkscape.org/namespaces/inkscape"
   xmlns:sodipodi="http://sodipodi.sourceforge.net/DTD/sodipodi-0.dtd"
   xmlns="http://www.w3.org/2000/svg"
   xmlns:svg="http://www.w3.org/2000/svg">
  <defs
     id="defs4" />
  <sodipodi:namedview
     id="namedview4"
     pagecolor="#ffffff"
     bordercolor="#000000"
     borderopacity="0.25"
     inkscape:showpageshadow="2"
     inkscape:pageopacity="0.0"
     inkscape:pagecheckerboard="0"
     inkscape:deskcolor="#d1d1d1" />
  <!-- Icon from TDesign Icons by TDesign - https://github.com/Tencent/tdesign-icons/blob/main/LICENSE -->
  <g
     fill="none"
     id="g4">
    <path
       d="M9.408 4.96L10 2h4l.592 2.96c.81.299 1.556.733 2.207 1.276l2.861-.968l2 3.464l-2.268 1.993a7.5 7.5 0 0 1 0 2.55l2.268 1.993l-2 3.464l-2.861-.968a7.5 7.5 0 0 1-2.207 1.276L14 22h-4l-.592-2.96a7.5 7.5 0 0 1-2.207-1.276l-2.861.968l-2-3.464l2.268-1.993a7.6 7.6 0 0 1 0-2.55L2.34 8.732l2-3.464l2.861.968A7.5 7.5 0 0 1 9.408 4.96"
       clip-rule="evenodd"
       id="path1" />
    <path
       d="M16 12a4 4 0 1 1-8 0a4 4 0 0 1 8 0"
       id="path2" />
    <path
       stroke="currentColor"
       stroke-linecap="square"
       stroke-width="2"
       d="M9.408 4.96L10 2h4l.592 2.96c.81.299 1.556.733 2.207 1.276l2.861-.968l2 3.464l-2.268 1.993a7.5 7.5 0 0 1 0 2.55l2.268 1.993l-2 3.464l-2.861-.968a7.5 7.5 0 0 1-2.207 1.276L14 22h-4l-.592-2.96a7.5 7.5 0 0 1-2.207-1.276l-2.861.968l-2-3.464l2.268-1.993a7.6 7.6 0 0 1 0-2.55L2.34 8.732l2-3.464l2.861.968A7.5 7.5 0 0 1 9.408 4.96Z"
       clip-rule="evenodd"
       id="path3" />
    <path
       stroke="currentColor"
       stroke-linecap="square"
       stroke-width="2"
       d="M16 12a4 4 0 1 1-8 0a4 4 0 0 1 8 0Z"
       id="path4" />
  </g>
</svg>
