<?xml version="1.0" encoding="UTF-8" standalone="no"?>
<svg
   width="1em"
   height="1em"
   viewBox="0 0 24 24"
   version="1.1"
   id="svg2"
   sodipodi:docname="tdesign-dividers-1.svg"
   xmlns:inkscape="http://www.inkscape.org/namespaces/inkscape"
   xmlns:sodipodi="http://sodipodi.sourceforge.net/DTD/sodipodi-0.dtd"
   xmlns="http://www.w3.org/2000/svg"
   xmlns:svg="http://www.w3.org/2000/svg">
  <defs
     id="defs2" />
  <sodipodi:namedview
     id="namedview2"
     pagecolor="#ffffff"
     bordercolor="#000000"
     borderopacity="0.25"
     inkscape:showpageshadow="2"
     inkscape:pageopacity="0.0"
     inkscape:pagecheckerboard="0"
     inkscape:deskcolor="#d1d1d1" />
  <!-- Icon from TDesign Icons by TDesign - https://github.com/Tencent/tdesign-icons/blob/main/LICENSE -->
  <g
     fill="none"
     id="g2">
    <path
       d="M15.428 8.737c0 1.83-1.535 3.316-3.428 3.316c-1.892 0-3.427-1.485-3.427-3.316c0-1.832 1.535-3.316 3.427-3.316s3.428 1.484 3.428 3.316"
       id="path1" />
    <path
       stroke="currentColor"
       stroke-linecap="square"
       stroke-width="2"
       d="M12 5.421c-1.892 0-3.427 1.485-3.427 3.316s1.535 3.316 3.427 3.316s3.428-1.485 3.428-3.316S13.893 5.42 12 5.42Zm0 0V2m8.302 14.302a20.06 20.06 0 0 1-16.604 0m5.872-5.227L4.004 22H4zm4.86 0L19.997 22H20z"
       id="path2" />
  </g>
</svg>
