<?xml version="1.0" encoding="UTF-8" standalone="no"?>
<svg
   width="1em"
   height="1em"
   viewBox="0 0 24 24"
   version="1.1"
   id="svg1"
   sodipodi:docname="tdesign-map-setting-filled.svg"
   xmlns:inkscape="http://www.inkscape.org/namespaces/inkscape"
   xmlns:sodipodi="http://sodipodi.sourceforge.net/DTD/sodipodi-0.dtd"
   xmlns="http://www.w3.org/2000/svg"
   xmlns:svg="http://www.w3.org/2000/svg">
  <defs
     id="defs1" />
  <sodipodi:namedview
     id="namedview1"
     pagecolor="#ffffff"
     bordercolor="#000000"
     borderopacity="0.25"
     inkscape:showpageshadow="2"
     inkscape:pageopacity="0.0"
     inkscape:pagecheckerboard="0"
     inkscape:deskcolor="#d1d1d1" />
  <!-- Icon from TDesign Icons by TDesign - https://github.com/Tencent/tdesign-icons/blob/main/LICENSE -->
  <path
     fill="currentColor"
     d="M7.5 2.717L2 5.926V21.5l5.5-2.267zm2 16.193l1.75 1.033V18a6.75 6.75 0 0 1 3.25-5.773V5.091l-5-2.953zM22 2.5v10.062a6.77 6.77 0 0 0-5.5-1.145v-6.65zm-3 11.626V12.75h-2v1.376a4 4 0 0 0-1.854 1.072l-1.193-.689l-1 1.732l1.192.688a4 4 0 0 0 0 2.142l-1.192.688l1 1.732l1.193-.689A4 4 0 0 0 17 21.874v1.376h2v-1.376a4 4 0 0 0 1.854-1.072l1.192.689l1-1.732l-1.191-.688a4 4 0 0 0 0-2.142l1.191-.688l-1-1.732l-1.192.688A4 4 0 0 0 19 14.127m-2.715 2.844a2 2 0 0 1 3.43 0l.036.063c.159.287.249.616.249.967c0 .35-.09.68-.249.967l-.037.063a2 2 0 0 1-3.429 0l-.037-.063A2 2 0 0 1 16 18a2 2 0 0 1 .248-.967z"
     id="path1" />
</svg>
