<?xml version="1.0" encoding="UTF-8" standalone="no"?>
<svg
   width="1em"
   height="1em"
   viewBox="0 0 24 24"
   version="1.1"
   id="svg2"
   sodipodi:docname="tdesign-meat-pepper.svg"
   xmlns:inkscape="http://www.inkscape.org/namespaces/inkscape"
   xmlns:sodipodi="http://sodipodi.sourceforge.net/DTD/sodipodi-0.dtd"
   xmlns="http://www.w3.org/2000/svg"
   xmlns:svg="http://www.w3.org/2000/svg">
  <defs
     id="defs2" />
  <sodipodi:namedview
     id="namedview2"
     pagecolor="#ffffff"
     bordercolor="#000000"
     borderopacity="0.25"
     inkscape:showpageshadow="2"
     inkscape:pageopacity="0.0"
     inkscape:pagecheckerboard="0"
     inkscape:deskcolor="#d1d1d1" />
  <!-- Icon from TDesign Icons by TDesign - https://github.com/Tencent/tdesign-icons/blob/main/LICENSE -->
  <g
     fill="none"
     id="g2">
    <path
       d="M2.367 15.4c0-4 5.007-14.382 10.333-12.35C15.5 4 16 6.444 16 8c1.555 0 3.849 1.174 4.95 3.3c2.62 5.061-8.583 10.1-12.583 10.1c-2.215.13-3.221-1.11-3.416-2.585c-1.474-.194-2.714-1.201-2.584-3.416"
       id="path1" />
    <path
       stroke="currentColor"
       stroke-linecap="square"
       stroke-width="2"
       d="M16 9.65V8m0 0c0-1.556-.5-4-3.3-4.95C7.374 1.018 2.367 11.4 2.367 15.4c-.13 2.214 1.11 3.22 2.584 3.415c.195 1.475 1.201 2.715 3.416 2.585c4 0 15.203-5.038 12.582-10.1C19.85 9.173 17.555 8 16 8Zm.45-.692C17.16 6.407 18.425 5.394 20 5"
       id="path2" />
  </g>
</svg>
