<?xml version="1.0" encoding="UTF-8" standalone="no"?>
<svg
   width="1em"
   height="1em"
   viewBox="0 0 24 24"
   version="1.1"
   id="svg2"
   sodipodi:docname="tdesign-gesture-expansion.svg"
   xmlns:inkscape="http://www.inkscape.org/namespaces/inkscape"
   xmlns:sodipodi="http://sodipodi.sourceforge.net/DTD/sodipodi-0.dtd"
   xmlns="http://www.w3.org/2000/svg"
   xmlns:svg="http://www.w3.org/2000/svg">
  <defs
     id="defs2" />
  <sodipodi:namedview
     id="namedview2"
     pagecolor="#ffffff"
     bordercolor="#000000"
     borderopacity="0.25"
     inkscape:showpageshadow="2"
     inkscape:pageopacity="0.0"
     inkscape:pagecheckerboard="0"
     inkscape:deskcolor="#d1d1d1" />
  <!-- Icon from TDesign Icons by TDesign - https://github.com/Tencent/tdesign-icons/blob/main/LICENSE -->
  <g
     fill="none"
     id="g2">
    <path
       d="M14.756 11.52V7.566a1.756 1.756 0 0 0-3.512 0v8.785l-3.362-.748a.88.88 0 0 0-.922.37l-.544.817l3.862 5.024c.332.432.847.686 1.393.686h7.085c.756 0 1.428-.484 1.667-1.202l1.782-5.35a1.76 1.76 0 0 0-.78-2.073l-3.626-2.115a1.76 1.76 0 0 0-.885-.24z"
       id="path1" />
    <path
       stroke="currentColor"
       stroke-linecap="square"
       stroke-width="2"
       d="M11.244 16.351V7.566a1.756 1.756 0 0 1 3.512 0v3.954h2.158a1.76 1.76 0 0 1 .885.24l3.625 2.115a1.76 1.76 0 0 1 .781 2.073l-1.782 5.35a1.76 1.76 0 0 1-1.667 1.202h-7.085c-.546 0-1.06-.254-1.393-.686L6.416 16.79l.544-.816a.88.88 0 0 1 .922-.37zM7 1h3v3M3 5v3h3m3.399-6.399L3.742 7.258"
       id="path2" />
  </g>
</svg>
