<?xml version="1.0" encoding="UTF-8" standalone="no"?>
<svg
   width="1em"
   height="1em"
   viewBox="0 0 24 24"
   version="1.1"
   id="svg1"
   sodipodi:docname="tdesign-user-talk-1-filled.svg"
   xmlns:inkscape="http://www.inkscape.org/namespaces/inkscape"
   xmlns:sodipodi="http://sodipodi.sourceforge.net/DTD/sodipodi-0.dtd"
   xmlns="http://www.w3.org/2000/svg"
   xmlns:svg="http://www.w3.org/2000/svg">
  <defs
     id="defs1" />
  <sodipodi:namedview
     id="namedview1"
     pagecolor="#ffffff"
     bordercolor="#000000"
     borderopacity="0.25"
     inkscape:showpageshadow="2"
     inkscape:pageopacity="0.0"
     inkscape:pagecheckerboard="0"
     inkscape:deskcolor="#d1d1d1" />
  <!-- Icon from TDesign Icons by TDesign - https://github.com/Tencent/tdesign-icons/blob/main/LICENSE -->
  <path
     fill="currentColor"
     d="M3.5 7a5 5 0 1 1 10 0a5 5 0 0 1-10 0m17.073-1.352l.497.867a7 7 0 0 1-.002 6.975l-.499.867l-1.733-.997l.498-.867a5 5 0 0 0 .002-4.982l-.498-.867zM17.538 7.39l.497.868a3.5 3.5 0 0 1 0 3.487l-.5.867l-1.733-.997l.498-.867a1.5 1.5 0 0 0 0-1.495l-.497-.867zM0 19a5 5 0 0 1 5-5h7a5 5 0 0 1 5 5v2H0z"
     id="path1" />
</svg>
