<?xml version="1.0" encoding="UTF-8" standalone="no"?>
<svg
   width="1em"
   height="1em"
   viewBox="0 0 24 24"
   version="1.1"
   id="svg2"
   sodipodi:docname="tdesign-pear.svg"
   xmlns:inkscape="http://www.inkscape.org/namespaces/inkscape"
   xmlns:sodipodi="http://sodipodi.sourceforge.net/DTD/sodipodi-0.dtd"
   xmlns="http://www.w3.org/2000/svg"
   xmlns:svg="http://www.w3.org/2000/svg">
  <defs
     id="defs2" />
  <sodipodi:namedview
     id="namedview2"
     pagecolor="#ffffff"
     bordercolor="#000000"
     borderopacity="0.25"
     inkscape:showpageshadow="2"
     inkscape:pageopacity="0.0"
     inkscape:pagecheckerboard="0"
     inkscape:deskcolor="#d1d1d1" />
  <!-- Icon from TDesign Icons by TDesign - https://github.com/Tencent/tdesign-icons/blob/main/LICENSE -->
  <g
     fill="none"
     id="g2">
    <path
       d="M18.587 12.487c2.475-2.475 2.121-4.95 0-7.07c-2.121-2.122-4.596-2.476-7.071 0c-4.243 4.242-4.95.706-8.132 3.888c-2.208 2.208-2.121 7.071 2.829 8.485c1.414 4.95 6.277 5.037 8.485 2.829c3.182-3.182-.354-3.89 3.889-8.132"
       id="path1" />
    <path
       stroke="currentColor"
       stroke-linecap="square"
       stroke-width="2"
       d="M19.982 2.981c-.734 1.467-1.645 2.682-3.112 4.15m1.717-1.715c2.121 2.121 2.475 4.596 0 7.071c-4.243 4.243-.707 4.95-3.89 8.132c-2.207 2.208-7.07 2.121-8.484-2.828c-4.95-1.415-5.037-6.278-2.829-8.486c3.182-3.182 3.89.354 8.132-3.889c2.475-2.475 4.95-2.121 7.07 0Z"
       id="path2" />
  </g>
</svg>
