<?xml version="1.0" encoding="UTF-8" standalone="no"?>
<svg
   width="1em"
   height="1em"
   viewBox="0 0 24 24"
   version="1.1"
   id="svg1"
   sodipodi:docname="tdesign-tomato-filled.svg"
   xmlns:inkscape="http://www.inkscape.org/namespaces/inkscape"
   xmlns:sodipodi="http://sodipodi.sourceforge.net/DTD/sodipodi-0.dtd"
   xmlns="http://www.w3.org/2000/svg"
   xmlns:svg="http://www.w3.org/2000/svg">
  <defs
     id="defs1" />
  <sodipodi:namedview
     id="namedview1"
     pagecolor="#ffffff"
     bordercolor="#000000"
     borderopacity="0.25"
     inkscape:showpageshadow="2"
     inkscape:pageopacity="0.0"
     inkscape:pagecheckerboard="0"
     inkscape:deskcolor="#d1d1d1" />
  <!-- Icon from TDesign Icons by TDesign - https://github.com/Tencent/tdesign-icons/blob/main/LICENSE -->
  <path
     fill="currentColor"
     d="M12.025 4.121L9.504 1.586l-1.418 1.41l1.05 1.056c-.482-.005-.972.037-1.41.162c-1.588.454-3.049 1.257-4.104 2.64C2.567 8.24 2 10.096 2 12.5c0 2.524 1.112 5.063 2.693 6.863c1.557 1.771 3.796 3.055 6.094 2.51c.356-.084.612-.16.765-.205l.112-.033h.002c.076-.021.123-.034.334-.034s.258.013.334.034h.002l.112.033c.152.045.41.12.765.205c2.305.547 4.545-.734 6.101-2.507c1.58-1.8 2.687-4.34 2.686-6.866c-.001-2.415-.59-4.27-1.652-5.65c-1.062-1.377-2.517-2.178-4.066-2.634a4.7 4.7 0 0 0-1.25-.168l1.07-1l-1.365-1.461zM12 8C9.742 8 9 6 9 6s1.875.636 3 .636S15 6 15 6s-.742 2-3 2"
     id="path1" />
</svg>
