<?xml version="1.0" encoding="UTF-8" standalone="no"?>
<svg
   width="1em"
   height="1em"
   viewBox="0 0 24 24"
   version="1.1"
   id="svg2"
   sodipodi:docname="tdesign-accessibility.svg"
   xmlns:inkscape="http://www.inkscape.org/namespaces/inkscape"
   xmlns:sodipodi="http://sodipodi.sourceforge.net/DTD/sodipodi-0.dtd"
   xmlns="http://www.w3.org/2000/svg"
   xmlns:svg="http://www.w3.org/2000/svg">
  <defs
     id="defs2" />
  <sodipodi:namedview
     id="namedview2"
     pagecolor="#ffffff"
     bordercolor="#000000"
     borderopacity="0.25"
     inkscape:showpageshadow="2"
     inkscape:pageopacity="0.0"
     inkscape:pagecheckerboard="0"
     inkscape:deskcolor="#d1d1d1" />
  <!-- Icon from TDesign Icons by TDesign - https://github.com/Tencent/tdesign-icons/blob/main/LICENSE -->
  <g
     fill="none"
     id="g2">
    <path
       d="M12 5.5A2.25 2.25 0 1 0 12 1a2.25 2.25 0 0 0 0 4.5M3.25 9.625C3.25 8.728 3.978 8 4.875 8h14.25a1.625 1.625 0 1 1 0 3.25H15.25l2.094 9.425A1.5 1.5 0 0 1 15.88 22.5H14.5l-2-7.25h-1l-2 7.25H8.12a1.5 1.5 0 0 1-1.464-1.825L8.75 11.25H4.875A1.625 1.625 0 0 1 3.25 9.625"
       id="path1" />
    <path
       stroke="currentColor"
       stroke-linecap="square"
       stroke-width="2"
       d="M12 5.5A2.25 2.25 0 1 0 12 1a2.25 2.25 0 0 0 0 4.5ZM3.25 9.625C3.25 8.728 3.978 8 4.875 8h14.25a1.625 1.625 0 1 1 0 3.25H15.25l2.094 9.425A1.5 1.5 0 0 1 15.88 22.5H14.5l-2-7.25h-1l-2 7.25H8.12a1.5 1.5 0 0 1-1.464-1.825L8.75 11.25H4.875A1.625 1.625 0 0 1 3.25 9.625Z"
       id="path2" />
  </g>
</svg>
