<?xml version="1.0" encoding="UTF-8" standalone="no"?>
<svg
   width="1em"
   height="1em"
   viewBox="0 0 24 24"
   version="1.1"
   id="svg2"
   sodipodi:docname="tdesign-bridge-2.svg"
   xmlns:inkscape="http://www.inkscape.org/namespaces/inkscape"
   xmlns:sodipodi="http://sodipodi.sourceforge.net/DTD/sodipodi-0.dtd"
   xmlns="http://www.w3.org/2000/svg"
   xmlns:svg="http://www.w3.org/2000/svg">
  <defs
     id="defs2" />
  <sodipodi:namedview
     id="namedview2"
     pagecolor="#ffffff"
     bordercolor="#000000"
     borderopacity="0.25"
     inkscape:showpageshadow="2"
     inkscape:pageopacity="0.0"
     inkscape:pagecheckerboard="0"
     inkscape:deskcolor="#d1d1d1" />
  <!-- Icon from TDesign Icons by TDesign - https://github.com/Tencent/tdesign-icons/blob/main/LICENSE -->
  <g
     fill="none"
     id="g2">
    <path
       d="M1 17.447c1.734-.716 2.338-3.46 3-5.447c2-6 5-8 8-8s6 2 8 8c.662 1.987 1.266 4.73 3 5.447V20h-8v-6a3 3 0 1 0-6 0v6H1z"
       id="path1" />
    <path
       stroke="currentColor"
       stroke-width="2"
       d="M1 17.447c1.734-.716 2.338-3.46 3-5.447c2-6 5-8 8-8s6 2 8 8c.662 1.987 1.266 4.73 3 5.447V20h-8v-6a3 3 0 1 0-6 0v6H1z"
       id="path2" />
  </g>
</svg>
