<?xml version="1.0" encoding="UTF-8" standalone="no"?>
<svg
   width="1em"
   height="1em"
   viewBox="0 0 24 24"
   version="1.1"
   id="svg3"
   sodipodi:docname="tdesign-museum-1.svg"
   xmlns:inkscape="http://www.inkscape.org/namespaces/inkscape"
   xmlns:sodipodi="http://sodipodi.sourceforge.net/DTD/sodipodi-0.dtd"
   xmlns="http://www.w3.org/2000/svg"
   xmlns:svg="http://www.w3.org/2000/svg">
  <defs
     id="defs3" />
  <sodipodi:namedview
     id="namedview3"
     pagecolor="#ffffff"
     bordercolor="#000000"
     borderopacity="0.25"
     inkscape:showpageshadow="2"
     inkscape:pageopacity="0.0"
     inkscape:pagecheckerboard="0"
     inkscape:deskcolor="#d1d1d1" />
  <!-- Icon from TDesign Icons by TDesign - https://github.com/Tencent/tdesign-icons/blob/main/LICENSE -->
  <g
     fill="none"
     id="g3">
    <path
       d="M12 3a7.2 7.2 0 0 0-4 1.202V21h8V4.202A7.2 7.2 0 0 0 12 3M2 9a6 6 0 0 1 6 6v6H2zm20 0a6 6 0 0 0-6 6v6h6z"
       id="path1" />
    <path
       stroke="currentColor"
       stroke-linecap="square"
       stroke-width="2"
       d="M12 21v-5m4 5v-6a6 6 0 0 1 6-6v12zm-8 0v-6a6 6 0 0 0-6-6v12zm4-13.002h.004v.004H12z"
       id="path2" />
    <path
       stroke="currentColor"
       stroke-linecap="square"
       stroke-width="2"
       d="M8 4.7V21h8V4.7m-8.998.298q.463-.44.998-.796A7.2 7.2 0 0 1 12 3a7.22 7.22 0 0 1 5 2"
       id="path3" />
  </g>
</svg>
