<?xml version="1.0" encoding="UTF-8" standalone="no"?>
<svg
   width="1em"
   height="1em"
   viewBox="0 0 24 24"
   version="1.1"
   id="svg1"
   sodipodi:docname="tdesign-service-filled.svg"
   xmlns:inkscape="http://www.inkscape.org/namespaces/inkscape"
   xmlns:sodipodi="http://sodipodi.sourceforge.net/DTD/sodipodi-0.dtd"
   xmlns="http://www.w3.org/2000/svg"
   xmlns:svg="http://www.w3.org/2000/svg">
  <defs
     id="defs1" />
  <sodipodi:namedview
     id="namedview1"
     pagecolor="#ffffff"
     bordercolor="#000000"
     borderopacity="0.25"
     inkscape:showpageshadow="2"
     inkscape:pageopacity="0.0"
     inkscape:pagecheckerboard="0"
     inkscape:deskcolor="#d1d1d1" />
  <!-- Icon from TDesign Icons by TDesign - https://github.com/Tencent/tdesign-icons/blob/main/LICENSE -->
  <path
     fill="currentColor"
     d="M2 11C2 5.477 6.477 1 12 1s10 4.477 10 10v5.154C22 17.8 20.58 19 19 19h-3v-8h4a8 8 0 1 0-16 0h4v8H6.063A2 2 0 0 0 8 20.5h1.564c.316-.453.841-.75 1.436-.75h2a1.75 1.75 0 1 1 0 3.5h-2c-.595 0-1.12-.297-1.436-.75H8a4 4 0 0 1-3.986-3.66C2.874 18.463 2 17.446 2 16.155z"
     id="path1" />
</svg>
