<?xml version="1.0" encoding="UTF-8" standalone="no"?>
<svg
   width="1em"
   height="1em"
   viewBox="0 0 24 24"
   version="1.1"
   id="svg2"
   sodipodi:docname="tdesign-usergroup-add-filled.svg"
   xmlns:inkscape="http://www.inkscape.org/namespaces/inkscape"
   xmlns:sodipodi="http://sodipodi.sourceforge.net/DTD/sodipodi-0.dtd"
   xmlns="http://www.w3.org/2000/svg"
   xmlns:svg="http://www.w3.org/2000/svg">
  <defs
     id="defs2" />
  <sodipodi:namedview
     id="namedview2"
     pagecolor="#ffffff"
     bordercolor="#000000"
     borderopacity="0.25"
     inkscape:showpageshadow="2"
     inkscape:pageopacity="0.0"
     inkscape:pagecheckerboard="0"
     inkscape:deskcolor="#d1d1d1" />
  <!-- Icon from TDesign Icons by TDesign - https://github.com/Tencent/tdesign-icons/blob/main/LICENSE -->
  <path
     fill="currentColor"
     d="M9 5a3 3 0 0 0 0 6v2a5 5 0 0 0-5 5v4H2v-4a7 7 0 0 1 3.75-6.2A5 5 0 0 1 9 3h1v2zm1 3a5 5 0 1 1 10 0a5 5 0 0 1-10 0m6.225 6a5.5 5.5 0 0 0-1.725 4c0 1.576.663 2.997 1.725 4H7v-3a5 5 0 0 1 5-5z"
     id="path1" />
  <path
     fill="currentColor"
     d="M24 19v-2h-3v-3h-2v3h-3v2h3v3h2v-3z"
     id="path2" />
</svg>
