<?xml version="1.0" encoding="UTF-8" standalone="no"?>
<svg
   width="1em"
   height="1em"
   viewBox="0 0 24 24"
   version="1.1"
   id="svg2"
   sodipodi:docname="tdesign-camera-1-filled.svg"
   xmlns:inkscape="http://www.inkscape.org/namespaces/inkscape"
   xmlns:sodipodi="http://sodipodi.sourceforge.net/DTD/sodipodi-0.dtd"
   xmlns="http://www.w3.org/2000/svg"
   xmlns:svg="http://www.w3.org/2000/svg">
  <defs
     id="defs2" />
  <sodipodi:namedview
     id="namedview2"
     pagecolor="#ffffff"
     bordercolor="#000000"
     borderopacity="0.25"
     inkscape:showpageshadow="2"
     inkscape:pageopacity="0.0"
     inkscape:pagecheckerboard="0"
     inkscape:deskcolor="#d1d1d1" />
  <!-- Icon from TDesign Icons by TDesign - https://github.com/Tencent/tdesign-icons/blob/main/LICENSE -->
  <path
     fill="currentColor"
     d="M9.5 10a2.5 2.5 0 1 1 5 0a2.5 2.5 0 0 1-5 0"
     id="path1" />
  <path
     fill="currentColor"
     d="M3 10c0 3.476 1.97 6.49 4.852 7.989L7.195 21H5v2h14v-2h-2.195l-.657-3.011A9 9 0 1 0 3 10m6.74 8.714a9.06 9.06 0 0 0 4.52 0L14.757 21H9.242zM7.5 10a4.5 4.5 0 1 1 9 0a4.5 4.5 0 0 1-9 0"
     id="path2" />
</svg>
