<?xml version="1.0" encoding="UTF-8" standalone="no"?>
<svg
   width="1em"
   height="1em"
   viewBox="0 0 24 24"
   version="1.1"
   id="svg2"
   sodipodi:docname="tdesign-gesture-ranslation.svg"
   xmlns:inkscape="http://www.inkscape.org/namespaces/inkscape"
   xmlns:sodipodi="http://sodipodi.sourceforge.net/DTD/sodipodi-0.dtd"
   xmlns="http://www.w3.org/2000/svg"
   xmlns:svg="http://www.w3.org/2000/svg">
  <defs
     id="defs2" />
  <sodipodi:namedview
     id="namedview2"
     pagecolor="#ffffff"
     bordercolor="#000000"
     borderopacity="0.25"
     inkscape:showpageshadow="2"
     inkscape:pageopacity="0.0"
     inkscape:pagecheckerboard="0"
     inkscape:deskcolor="#d1d1d1" />
  <!-- Icon from TDesign Icons by TDesign - https://github.com/Tencent/tdesign-icons/blob/main/LICENSE -->
  <g
     fill="none"
     id="g2">
    <path
       d="M20.25 8.09a1.567 1.567 0 1 0-3.135 0V4.755a1.57 1.57 0 0 0-3.139 0V2.57a1.57 1.57 0 1 0-3.138 0v2.186a1.57 1.57 0 1 0-3.14 0v8.75l-.002-.002l-1.46-2.53a1.296 1.296 0 0 0-2.376.976l1.269 4.83a7 7 0 0 0 6.77 5.22h1.35a7 7 0 0 0 7-7z"
       id="path1" />
    <path
       stroke="currentColor"
       stroke-linecap="square"
       stroke-width="2"
       d="M17.115 8.09V11m0-2.91V4.755a1.57 1.57 0 0 0-3.139 0m3.14 3.335a1.567 1.567 0 1 1 3.133 0V15a7 7 0 0 1-7 7H11.9a7 7 0 0 1-6.77-5.222L3.86 11.95a1.296 1.296 0 0 1 2.375-.977l1.462 2.532h.001v0q0 0 0 0v-8.75a1.57 1.57 0 0 1 3.14 0m3.138 0V11m0-6.245V2.57a1.57 1.57 0 1 0-3.138 0v2.186m0 0V11"
       id="path2" />
  </g>
</svg>
