<?xml version="1.0" encoding="UTF-8" standalone="no"?>
<svg
   width="1em"
   height="1em"
   viewBox="0 0 24 24"
   version="1.1"
   id="svg3"
   sodipodi:docname="tdesign-curtain.svg"
   xmlns:inkscape="http://www.inkscape.org/namespaces/inkscape"
   xmlns:sodipodi="http://sodipodi.sourceforge.net/DTD/sodipodi-0.dtd"
   xmlns="http://www.w3.org/2000/svg"
   xmlns:svg="http://www.w3.org/2000/svg">
  <defs
     id="defs3" />
  <sodipodi:namedview
     id="namedview3"
     pagecolor="#ffffff"
     bordercolor="#000000"
     borderopacity="0.25"
     inkscape:showpageshadow="2"
     inkscape:pageopacity="0.0"
     inkscape:pagecheckerboard="0"
     inkscape:deskcolor="#d1d1d1" />
  <!-- Icon from TDesign Icons by TDesign - https://github.com/Tencent/tdesign-icons/blob/main/LICENSE -->
  <g
     fill="none"
     id="g3">
    <path
       d="M21 3v18h-5l1-12.17l-.054-.02A3 3 0 0 1 15 6a3 3 0 1 1-6 0a3 3 0 0 1-1.946 2.81L7 8.83L8 21H3V3z"
       id="path1" />
    <path
       stroke="currentColor"
       stroke-width="2"
       d="M21 6a3 3 0 0 1-4 2.83M21 6v15h-5l1-12.17M21 6V3H3v3m14 2.83A3 3 0 0 1 15 6a3 3 0 1 1-6 0a3 3 0 0 1-2 2.83M3 6a3 3 0 0 0 4 2.83M3 6v15h5L7 8.83"
       id="path2" />
    <path
       stroke="currentColor"
       stroke-width="2"
       d="M9 3H3v18h18V3z"
       id="path3" />
  </g>
</svg>
