<?xml version="1.0" encoding="UTF-8" standalone="no"?>
<svg
   width="1em"
   height="1em"
   viewBox="0 0 24 24"
   version="1.1"
   id="svg1"
   sodipodi:docname="tdesign-sensors-off.svg"
   xmlns:inkscape="http://www.inkscape.org/namespaces/inkscape"
   xmlns:sodipodi="http://sodipodi.sourceforge.net/DTD/sodipodi-0.dtd"
   xmlns="http://www.w3.org/2000/svg"
   xmlns:svg="http://www.w3.org/2000/svg">
  <defs
     id="defs1" />
  <sodipodi:namedview
     id="namedview1"
     pagecolor="#ffffff"
     bordercolor="#000000"
     borderopacity="0.25"
     inkscape:showpageshadow="2"
     inkscape:pageopacity="0.0"
     inkscape:pagecheckerboard="0"
     inkscape:deskcolor="#d1d1d1" />
  <!-- Icon from TDesign Icons by TDesign - https://github.com/Tencent/tdesign-icons/blob/main/LICENSE -->
  <path
     fill="none"
     stroke="currentColor"
     stroke-linecap="square"
     stroke-width="2"
     d="M16.243 16.243A5.98 5.98 0 0 0 18 12c0-1.461-.522-2.8-1.39-3.841m3.84-3.201A10.96 10.96 0 0 1 23 12c0 3.038-1.231 5.788-3.222 7.778M7.758 7.758A5.98 5.98 0 0 0 6.001 12c0 1.461.522 2.8 1.39 3.841m-3.17-11.62A10.96 10.96 0 0 0 1 12a10.96 10.96 0 0 0 2.55 7.043M12 13a1 1 0 1 1 0-2a1 1 0 0 1 0 2Zm9 8L3 3"
     id="path1" />
</svg>
