<?xml version="1.0" encoding="UTF-8" standalone="no"?>
<svg
   width="1em"
   height="1em"
   viewBox="0 0 24 24"
   version="1.1"
   id="svg2"
   sodipodi:docname="tdesign-bread.svg"
   xmlns:inkscape="http://www.inkscape.org/namespaces/inkscape"
   xmlns:sodipodi="http://sodipodi.sourceforge.net/DTD/sodipodi-0.dtd"
   xmlns="http://www.w3.org/2000/svg"
   xmlns:svg="http://www.w3.org/2000/svg">
  <defs
     id="defs2" />
  <sodipodi:namedview
     id="namedview2"
     pagecolor="#ffffff"
     bordercolor="#000000"
     borderopacity="0.25"
     inkscape:showpageshadow="2"
     inkscape:pageopacity="0.0"
     inkscape:pagecheckerboard="0"
     inkscape:deskcolor="#d1d1d1" />
  <!-- Icon from TDesign Icons by TDesign - https://github.com/Tencent/tdesign-icons/blob/main/LICENSE -->
  <g
     fill="none"
     id="g2">
    <path
       d="M13.188 4.683c-.723-.723-.815-1.012.594-1.528c3.933-1.44 8.42 2.84 7.39 6.9c-.598 2.357-2.214 4.812-4.208 6.889c-2.077 1.994-4.532 3.61-6.89 4.209c-4.06 1.03-8.34-3.458-6.899-7.39c.516-1.41.805-1.318 1.527-.595c-2.278-2.278 1.624-6.862 3.776-4.71c-2.152-2.152 2.431-6.054 4.71-3.775"
       id="path1" />
    <path
       stroke="currentColor"
       stroke-linecap="square"
       stroke-width="2"
       d="m13.188 4.683l3.068 3.069m-3.068-3.07c-.723-.722-.815-1.01.593-1.527c3.934-1.44 8.422 2.84 7.391 6.9c-.598 2.357-2.214 4.812-4.209 6.889c-2.076 1.994-4.531 3.61-6.889 4.209c-4.06 1.03-8.34-3.458-6.899-7.391c.516-1.408.804-1.317 1.527-.594m8.486-8.485c-2.28-2.279-6.862 1.623-4.71 3.776m0 0l3.536 3.535M8.478 8.46c-2.152-2.153-6.054 2.43-3.776 4.709m0 0l3.07 3.069"
       id="path2" />
  </g>
</svg>
