<?xml version="1.0" encoding="UTF-8" standalone="no"?>
<svg
   width="1em"
   height="1em"
   viewBox="0 0 24 24"
   version="1.1"
   id="svg4"
   sodipodi:docname="tdesign-castle-4.svg"
   xmlns:inkscape="http://www.inkscape.org/namespaces/inkscape"
   xmlns:sodipodi="http://sodipodi.sourceforge.net/DTD/sodipodi-0.dtd"
   xmlns="http://www.w3.org/2000/svg"
   xmlns:svg="http://www.w3.org/2000/svg">
  <defs
     id="defs4" />
  <sodipodi:namedview
     id="namedview4"
     pagecolor="#ffffff"
     bordercolor="#000000"
     borderopacity="0.25"
     inkscape:showpageshadow="2"
     inkscape:pageopacity="0.0"
     inkscape:pagecheckerboard="0"
     inkscape:deskcolor="#d1d1d1" />
  <!-- Icon from TDesign Icons by TDesign - https://github.com/Tencent/tdesign-icons/blob/main/LICENSE -->
  <g
     fill="none"
     id="g4">
    <path
       d="M12 9a5 5 0 0 1 5 5v7H7v-7a5 5 0 0 1 5-5"
       id="path1" />
    <path
       d="M21 21V3h-6v7c1.214.912 2 2.364 2 4v7zM3 21h4v-7c0-1.636.786-3.088 2-4V3H3z"
       id="path2" />
    <path
       stroke="currentColor"
       stroke-linecap="square"
       stroke-width="2"
       d="M12 21v-2.657M3 21h4v-7c0-1.636.786-3.088 2-4V3H3zM21 3v18h-4v-7a5 5 0 0 0-2-4V3z"
       id="path3" />
    <path
       stroke="currentColor"
       stroke-linecap="square"
       stroke-width="2"
       d="M17 14.8V21H7v-6.2M12 9a5 5 0 0 1 5 5H7a5 5 0 0 1 5-5Zm0 0V8"
       id="path4" />
  </g>
</svg>
