<?xml version="1.0" encoding="UTF-8" standalone="no"?>
<svg
   width="1em"
   height="1em"
   viewBox="0 0 24 24"
   version="1.1"
   id="svg2"
   sodipodi:docname="tdesign-city-ancient-filled.svg"
   xmlns:inkscape="http://www.inkscape.org/namespaces/inkscape"
   xmlns:sodipodi="http://sodipodi.sourceforge.net/DTD/sodipodi-0.dtd"
   xmlns="http://www.w3.org/2000/svg"
   xmlns:svg="http://www.w3.org/2000/svg">
  <defs
     id="defs2" />
  <sodipodi:namedview
     id="namedview2"
     pagecolor="#ffffff"
     bordercolor="#000000"
     borderopacity="0.25"
     inkscape:showpageshadow="2"
     inkscape:pageopacity="0.0"
     inkscape:pagecheckerboard="0"
     inkscape:deskcolor="#d1d1d1" />
  <!-- Icon from TDesign Icons by TDesign - https://github.com/Tencent/tdesign-icons/blob/main/LICENSE -->
  <path
     fill="currentColor"
     d="m12.002.066l-.856 1.417l-.002.002l-.005.01l-.024.038l-.096.155a36 36 0 0 1-1.59 2.332c-.49.66-1.025 1.32-1.542 1.852c-.543.559-.969.87-1.233.968C6.316 6.965 6.098 7 6 7H5v2h1.002v2H18V9h1V7h-1c-.098 0-.315-.035-.652-.16c-.264-.098-.689-.408-1.232-.967c-.517-.531-1.052-1.192-1.542-1.852a36 36 0 0 1-1.685-2.487l-.024-.04l-.006-.009zM2 13h20v2h-1v7h-5v-5H8v5H3v-7H2z"
     id="path1" />
  <path
     fill="currentColor"
     d="M10 22v-3h4v3z"
     id="path2" />
</svg>
