<?xml version="1.0" encoding="UTF-8" standalone="no"?>
<svg
   width="1em"
   height="1em"
   viewBox="0 0 24 24"
   version="1.1"
   id="svg2"
   sodipodi:docname="tdesign-user-time-filled.svg"
   xmlns:inkscape="http://www.inkscape.org/namespaces/inkscape"
   xmlns:sodipodi="http://sodipodi.sourceforge.net/DTD/sodipodi-0.dtd"
   xmlns="http://www.w3.org/2000/svg"
   xmlns:svg="http://www.w3.org/2000/svg">
  <defs
     id="defs2" />
  <sodipodi:namedview
     id="namedview2"
     pagecolor="#ffffff"
     bordercolor="#000000"
     borderopacity="0.25"
     inkscape:showpageshadow="2"
     inkscape:pageopacity="0.0"
     inkscape:pagecheckerboard="0"
     inkscape:deskcolor="#d1d1d1" />
  <!-- Icon from TDesign Icons by TDesign - https://github.com/Tencent/tdesign-icons/blob/main/LICENSE -->
  <path
     fill="currentColor"
     d="M11.5 2a5.5 5.5 0 1 0 0 11a5.5 5.5 0 0 0 0-11M18 12.5a5.5 5.5 0 1 0 0 11a5.5 5.5 0 0 0 0-11m1 7.914l-2-2v-2.662h2v1.834L20.414 19z"
     id="path1" />
  <path
     fill="currentColor"
     d="M12.255 14A6.97 6.97 0 0 0 11 18c0 1.487.464 2.866 1.255 4H2v-2a6 6 0 0 1 6-6z"
     id="path2" />
</svg>
