<?xml version="1.0" encoding="UTF-8" standalone="no"?>
<svg
   width="1em"
   height="1em"
   viewBox="0 0 24 24"
   version="1.1"
   id="svg4"
   sodipodi:docname="tdesign-notification-circle.svg"
   xmlns:inkscape="http://www.inkscape.org/namespaces/inkscape"
   xmlns:sodipodi="http://sodipodi.sourceforge.net/DTD/sodipodi-0.dtd"
   xmlns="http://www.w3.org/2000/svg"
   xmlns:svg="http://www.w3.org/2000/svg">
  <defs
     id="defs4" />
  <sodipodi:namedview
     id="namedview4"
     pagecolor="#ffffff"
     bordercolor="#000000"
     borderopacity="0.25"
     inkscape:showpageshadow="2"
     inkscape:pageopacity="0.0"
     inkscape:pagecheckerboard="0"
     inkscape:deskcolor="#d1d1d1" />
  <!-- Icon from TDesign Icons by TDesign - https://github.com/Tencent/tdesign-icons/blob/main/LICENSE -->
  <g
     fill="none"
     id="g4">
    <path
       d="M2 12C2 6.477 6.477 2 12 2s10 4.477 10 10s-4.477 10-10 10S2 17.523 2 12"
       id="path1" />
    <path
       d="M12 6a4 4 0 0 0-4 4v2.5l-1 2V16h4a1 1 0 1 0 2 0h4v-1.5l-1-2V10a4 4 0 0 0-4-4"
       clip-rule="evenodd"
       id="path2" />
    <path
       stroke="currentColor"
       stroke-linecap="square"
       stroke-width="2"
       d="M2 12C2 6.477 6.477 2 12 2s10 4.477 10 10s-4.477 10-10 10S2 17.523 2 12Z"
       id="path3" />
    <path
       stroke="currentColor"
       stroke-linecap="square"
       stroke-width="2"
       d="M12 6a4 4 0 0 0-4 4v2.5l-1 2V16h4a1 1 0 1 0 2 0h4v-1.5l-1-2V10a4 4 0 0 0-4-4Z"
       clip-rule="evenodd"
       id="path4" />
  </g>
</svg>
