<?xml version="1.0" encoding="UTF-8" standalone="no"?>
<svg
   width="1em"
   height="1em"
   viewBox="0 0 24 24"
   version="1.1"
   id="svg1"
   sodipodi:docname="tdesign-logo-cnb-filled.svg"
   xmlns:inkscape="http://www.inkscape.org/namespaces/inkscape"
   xmlns:sodipodi="http://sodipodi.sourceforge.net/DTD/sodipodi-0.dtd"
   xmlns="http://www.w3.org/2000/svg"
   xmlns:svg="http://www.w3.org/2000/svg">
  <defs
     id="defs1" />
  <sodipodi:namedview
     id="namedview1"
     pagecolor="#ffffff"
     bordercolor="#000000"
     borderopacity="0.25"
     inkscape:showpageshadow="2"
     inkscape:pageopacity="0.0"
     inkscape:pagecheckerboard="0"
     inkscape:deskcolor="#d1d1d1" />
  <!-- Icon from TDesign Icons by TDesign - https://github.com/Tencent/tdesign-icons/blob/main/LICENSE -->
  <path
     fill="currentColor"
     d="M17.293 2.807a.55.55 0 0 0-.158-.595A7.08 7.08 0 0 0 13.003.51c-2.397-.174-3.882.468-4.632.945a.555.555 0 0 0-.039.906l6.109 4.748a.992.992 0 0 0 1.547-.464zM2.235 16.9a.7.7 0 0 0-.282.766c.233.835.925 2.572 2.89 4.152c1.964 1.58 4.288 1.751 5.281 1.727a.69.69 0 0 0 .646-.486l3.915-12.393c.283-.895-.72-1.645-1.498-1.122zM5.097 3.822a.7.7 0 0 0-.589.036c-.724.394-2.58 1.61-3.538 4.106c-.738 1.924-.478 4.052-.275 5.093c.067.34.426.536.748.41L13.192 8.88c.839-.327.842-1.513.005-1.845zm17.428 8.881c.34.23.804.027.863-.38c.156-1.075.29-2.947-.332-4.359c-.83-1.882-2.238-3.042-2.907-3.514a.56.56 0 0 0-.69.039l-2.965 2.63a.992.992 0 0 0 .101 1.562zM14.24 22.74c-.03.35.267.64.616.602c1.123-.12 3.432-.566 5.16-2.218a8.47 8.47 0 0 0 2.391-4.276a.7.7 0 0 0-.14-.582L17.083 9.87c-.562-.693-1.681-.351-1.759.537z"
     id="path1" />
</svg>
