<?xml version="1.0" encoding="UTF-8" standalone="no"?>
<svg
   width="1em"
   height="1em"
   viewBox="0 0 24 24"
   version="1.1"
   id="svg2"
   sodipodi:docname="tdesign-browse-filled.svg"
   xmlns:inkscape="http://www.inkscape.org/namespaces/inkscape"
   xmlns:sodipodi="http://sodipodi.sourceforge.net/DTD/sodipodi-0.dtd"
   xmlns="http://www.w3.org/2000/svg"
   xmlns:svg="http://www.w3.org/2000/svg">
  <defs
     id="defs2" />
  <sodipodi:namedview
     id="namedview2"
     pagecolor="#ffffff"
     bordercolor="#000000"
     borderopacity="0.25"
     inkscape:showpageshadow="2"
     inkscape:pageopacity="0.0"
     inkscape:pagecheckerboard="0"
     inkscape:deskcolor="#d1d1d1" />
  <!-- Icon from TDesign Icons by TDesign - https://github.com/Tencent/tdesign-icons/blob/main/LICENSE -->
  <path
     fill="currentColor"
     d="M9 12a3 3 0 1 1 6 0a3 3 0 0 1-6 0"
     id="path1" />
  <path
     fill="currentColor"
     d="M12 3C6.42 3 1.698 6.654.09 11.696L-.009 12l.097.304C1.7 17.346 6.421 21 12 21s10.302-3.654 11.91-8.696l.098-.304l-.097-.304C22.3 6.654 17.578 3 12 3m0 4a5 5 0 1 1 0 10a5 5 0 0 1 0-10"
     id="path2" />
</svg>
