<?xml version="1.0" encoding="UTF-8" standalone="no"?>
<svg
   width="1.05em"
   height="1em"
   viewBox="0 0 25 24"
   version="1.1"
   id="svg1"
   sodipodi:docname="tdesign-gps-filled.svg"
   xmlns:inkscape="http://www.inkscape.org/namespaces/inkscape"
   xmlns:sodipodi="http://sodipodi.sourceforge.net/DTD/sodipodi-0.dtd"
   xmlns="http://www.w3.org/2000/svg"
   xmlns:svg="http://www.w3.org/2000/svg">
  <defs
     id="defs1" />
  <sodipodi:namedview
     id="namedview1"
     pagecolor="#ffffff"
     bordercolor="#000000"
     borderopacity="0.25"
     inkscape:showpageshadow="2"
     inkscape:pageopacity="0.0"
     inkscape:pagecheckerboard="0"
     inkscape:deskcolor="#d1d1d1" />
  <!-- Icon from TDesign Icons by TDesign - https://github.com/Tencent/tdesign-icons/blob/main/LICENSE -->
  <path
     fill="currentColor"
     d="M12.226 3.001a8.98 8.98 0 0 0-8.981 8.98c0 2.35.901 4.488 2.378 6.09l.678.734l-1.47 1.356l-.678-.735a10.95 10.95 0 0 1-2.908-7.444C1.245 5.917 6.16 1 12.225 1s10.982 4.916 10.982 10.98c0 2.873-1.104 5.49-2.909 7.445l-.678.735l-1.47-1.356l.678-.735a8.95 8.95 0 0 0 2.379-6.088A8.98 8.98 0 0 0 12.226 3m0 4.5a4.5 4.5 0 0 0-3.308 7.55l.678.735l-1.47 1.356l-.678-.735a6.5 6.5 0 1 1 9.557 0l-.679.735l-1.47-1.356l.679-.735a4.5 4.5 0 0 0-3.308-7.55m-2 4.5a2 2 0 1 1 4 0a2 2 0 0 1-4 0m1.947 3.966L17.163 23H7.184z"
     id="path1" />
</svg>
