<?xml version="1.0" encoding="UTF-8" standalone="no"?>
<svg
   width="1em"
   height="1em"
   viewBox="0 0 24 24"
   version="1.1"
   id="svg4"
   sodipodi:docname="tdesign-building-1.svg"
   xmlns:inkscape="http://www.inkscape.org/namespaces/inkscape"
   xmlns:sodipodi="http://sodipodi.sourceforge.net/DTD/sodipodi-0.dtd"
   xmlns="http://www.w3.org/2000/svg"
   xmlns:svg="http://www.w3.org/2000/svg">
  <defs
     id="defs4" />
  <sodipodi:namedview
     id="namedview4"
     pagecolor="#ffffff"
     bordercolor="#000000"
     borderopacity="0.25"
     inkscape:showpageshadow="2"
     inkscape:pageopacity="0.0"
     inkscape:pagecheckerboard="0"
     inkscape:deskcolor="#d1d1d1" />
  <!-- Icon from TDesign Icons by TDesign - https://github.com/Tencent/tdesign-icons/blob/main/LICENSE -->
  <g
     fill="none"
     id="g4">
    <path
       d="M6.5 4C9 4 9.167 6.667 9 8v3h12v10H4V8c-.166-1.333 0-4 2.5-4"
       id="path1" />
    <path
       d="M13 16v5h4v-5z"
       id="path2" />
    <path
       stroke="currentColor"
       stroke-width="2"
       d="M13 16h4v5h-4z"
       id="path3" />
    <path
       stroke="currentColor"
       stroke-linecap="square"
       stroke-width="2"
       d="M2.5 8H4m0 0h5M4 8v13h5M4 8c-.167-1.333 0-4 2.5-4M9 8h1.5M9 8v13M9 8c.167-1.333 0-4-2.5-4M9 21h12V11H9zM6.5 4V2.5"
       id="path4" />
  </g>
</svg>
