<?xml version="1.0" encoding="UTF-8" standalone="no"?>
<svg
   width="1em"
   height="1em"
   viewBox="0 0 24 24"
   version="1.1"
   id="svg1"
   sodipodi:docname="tdesign-remote-wave-filled.svg"
   xmlns:inkscape="http://www.inkscape.org/namespaces/inkscape"
   xmlns:sodipodi="http://sodipodi.sourceforge.net/DTD/sodipodi-0.dtd"
   xmlns="http://www.w3.org/2000/svg"
   xmlns:svg="http://www.w3.org/2000/svg">
  <defs
     id="defs1" />
  <sodipodi:namedview
     id="namedview1"
     pagecolor="#ffffff"
     bordercolor="#000000"
     borderopacity="0.25"
     inkscape:showpageshadow="2"
     inkscape:pageopacity="0.0"
     inkscape:pagecheckerboard="0"
     inkscape:deskcolor="#d1d1d1" />
  <!-- Icon from TDesign Icons by TDesign - https://github.com/Tencent/tdesign-icons/blob/main/LICENSE -->
  <path
     fill="currentColor"
     d="M12.004 3a9.99 9.99 0 0 0-8.426 4.612l-.54.841l-1.683-1.079l.54-.842A11.99 11.99 0 0 1 12.005 1c4.246 0 7.977 2.207 10.109 5.532l.54.842l-1.685 1.08l-.54-.842A9.99 9.99 0 0 0 12.005 3m-.011 3.988A5 5 0 0 0 7.78 9.294l-.54.842l-1.684-1.079l.54-.842a7 7 0 0 1 5.897-3.227a7 7 0 0 1 5.897 3.227l.54.842l-1.684 1.08l-.54-.843a5 5 0 0 0-4.213-2.306M5 11h14v12H5zm6 4v2.004h2.004V15z"
     id="path1" />
</svg>
