<?xml version="1.0" encoding="UTF-8" standalone="no"?>
<svg
   width="1em"
   height="1em"
   viewBox="0 0 24 24"
   version="1.1"
   id="svg2"
   sodipodi:docname="tdesign-map-aiming-filled.svg"
   xmlns:inkscape="http://www.inkscape.org/namespaces/inkscape"
   xmlns:sodipodi="http://sodipodi.sourceforge.net/DTD/sodipodi-0.dtd"
   xmlns="http://www.w3.org/2000/svg"
   xmlns:svg="http://www.w3.org/2000/svg">
  <defs
     id="defs2" />
  <sodipodi:namedview
     id="namedview2"
     pagecolor="#ffffff"
     bordercolor="#000000"
     borderopacity="0.25"
     inkscape:showpageshadow="2"
     inkscape:pageopacity="0.0"
     inkscape:pagecheckerboard="0"
     inkscape:deskcolor="#d1d1d1" />
  <!-- Icon from TDesign Icons by TDesign - https://github.com/Tencent/tdesign-icons/blob/main/LICENSE -->
  <path
     fill="currentColor"
     d="M7.444 12a4.556 4.556 0 1 1 9.111 0a4.556 4.556 0 0 1-9.11 0M12 9.89a2.111 2.111 0 1 0 0 4.222a2.111 2.111 0 0 0 0-4.222"
     id="path1" />
  <path
     fill="currentColor"
     d="M12 23C5.925 23 1 18.075 1 12S5.925 1 12 1s11 4.925 11 11s-4.925 11-11 11m1-17.48V4.334h-2V5.52A6.56 6.56 0 0 0 5.52 11H4.333v2H5.52A6.56 6.56 0 0 0 11 18.48v1.187h2V18.48A6.56 6.56 0 0 0 18.48 13h1.186v-2H18.48A6.56 6.56 0 0 0 13 5.52"
     id="path2" />
</svg>
