<?xml version="1.0" encoding="UTF-8" standalone="no"?>
<svg
   width="1em"
   height="1em"
   viewBox="0 0 24 24"
   version="1.1"
   id="svg2"
   sodipodi:docname="tdesign-swear-2-filled.svg"
   xmlns:inkscape="http://www.inkscape.org/namespaces/inkscape"
   xmlns:sodipodi="http://sodipodi.sourceforge.net/DTD/sodipodi-0.dtd"
   xmlns="http://www.w3.org/2000/svg"
   xmlns:svg="http://www.w3.org/2000/svg">
  <defs
     id="defs2" />
  <sodipodi:namedview
     id="namedview2"
     pagecolor="#ffffff"
     bordercolor="#000000"
     borderopacity="0.25"
     inkscape:showpageshadow="2"
     inkscape:pageopacity="0.0"
     inkscape:pagecheckerboard="0"
     inkscape:deskcolor="#d1d1d1" />
  <!-- Icon from TDesign Icons by TDesign - https://github.com/Tencent/tdesign-icons/blob/main/LICENSE -->
  <path
     fill="currentColor"
     d="M11 15.5c0-1.048.644-1.5 1-1.5c.355 0 1 .452 1 1.5s-.645 1.5-1 1.5c-.356 0-1-.452-1-1.5"
     id="path1" />
  <path
     fill="currentColor"
     d="M12 23C5.925 23 1 18.075 1 12S5.925 1 12 1s11 4.925 11 11s-4.925 11-11 11m-1.767-12.866l-3.464-2l-1 1.732l3.464 2zm4.536 1.732l3.464-2l-1-1.732l-3.464 2zm-2.77.134c-1.853 0-3 1.787-3 3.5s1.147 3.5 3 3.5c1.854 0 3-1.787 3-3.5S13.854 12 12 12"
     id="path2" />
</svg>
