<?xml version="1.0" encoding="UTF-8" standalone="no"?>
<svg
   width="1em"
   height="1em"
   viewBox="0 0 24 24"
   version="1.1"
   id="svg3"
   sodipodi:docname="tdesign-saving-pot.svg"
   xmlns:inkscape="http://www.inkscape.org/namespaces/inkscape"
   xmlns:sodipodi="http://sodipodi.sourceforge.net/DTD/sodipodi-0.dtd"
   xmlns="http://www.w3.org/2000/svg"
   xmlns:svg="http://www.w3.org/2000/svg">
  <defs
     id="defs3" />
  <sodipodi:namedview
     id="namedview3"
     pagecolor="#ffffff"
     bordercolor="#000000"
     borderopacity="0.25"
     inkscape:showpageshadow="2"
     inkscape:pageopacity="0.0"
     inkscape:pagecheckerboard="0"
     inkscape:deskcolor="#d1d1d1" />
  <!-- Icon from TDesign Icons by TDesign - https://github.com/Tencent/tdesign-icons/blob/main/LICENSE -->
  <g
     fill="none"
     id="g3">
    <path
       d="M21 5a4 4 0 1 0-8 0a4 4 0 0 0 8 0"
       id="path1" />
    <path
       stroke="currentColor"
       stroke-linecap="square"
       stroke-width="2"
       d="M7.786 6.2C6.161 4.413 4.267 4.205 3 4.5L4 7L2.5 9.5H1v6c1.187 1.181 3 2.243 4.274 2.732L6 21.5h4l.444-2h4.112l.444 2h4l.534-2.401A9 9 0 0 0 21.24 6.65M9.378 3.884c1.2-.508 2.444-.799 3.672-.877M17 1a4 4 0 1 1 0 8a4 4 0 0 1 0-8Z"
       id="path2" />
    <path
       stroke="currentColor"
       stroke-linecap="square"
       stroke-width="2"
       d="M6.5 10.5h.004v-.005H6.5z"
       id="path3" />
  </g>
</svg>
