<?xml version="1.0" encoding="UTF-8" standalone="no"?>
<svg
   width="1em"
   height="1em"
   viewBox="0 0 24 24"
   version="1.1"
   id="svg2"
   sodipodi:docname="tdesign-palace-1-filled.svg"
   xmlns:inkscape="http://www.inkscape.org/namespaces/inkscape"
   xmlns:sodipodi="http://sodipodi.sourceforge.net/DTD/sodipodi-0.dtd"
   xmlns="http://www.w3.org/2000/svg"
   xmlns:svg="http://www.w3.org/2000/svg">
  <defs
     id="defs2" />
  <sodipodi:namedview
     id="namedview2"
     pagecolor="#ffffff"
     bordercolor="#000000"
     borderopacity="0.25"
     inkscape:showpageshadow="2"
     inkscape:pageopacity="0.0"
     inkscape:pagecheckerboard="0"
     inkscape:deskcolor="#d1d1d1" />
  <!-- Icon from TDesign Icons by TDesign - https://github.com/Tencent/tdesign-icons/blob/main/LICENSE -->
  <path
     fill="currentColor"
     d="m13.004 2.002l-.002 1.081A6 6 0 0 1 18 9h4v13h-2v-4.5a3.5 3.5 0 1 0-7 0V22h-2v-4.5a3.5 3.5 0 1 0-7 0V22H2V9h4a6 6 0 0 1 5.002-5.917l.002-1.085zm-2.006 3.996v2.004h2.004V5.998z"
     id="path1" />
  <path
     fill="currentColor"
     d="M7.5 16A1.5 1.5 0 0 0 6 17.5V22h3v-4.5A1.5 1.5 0 0 0 7.5 16m9 0a1.5 1.5 0 0 0-1.5 1.5V22h3v-4.5a1.5 1.5 0 0 0-1.5-1.5"
     id="path2" />
</svg>
