<?xml version="1.0" encoding="UTF-8" standalone="no"?>
<svg
   width="1em"
   height="1em"
   viewBox="0 0 24 24"
   version="1.1"
   id="svg1"
   sodipodi:docname="tdesign-data-display.svg"
   xmlns:inkscape="http://www.inkscape.org/namespaces/inkscape"
   xmlns:sodipodi="http://sodipodi.sourceforge.net/DTD/sodipodi-0.dtd"
   xmlns="http://www.w3.org/2000/svg"
   xmlns:svg="http://www.w3.org/2000/svg">
  <defs
     id="defs1" />
  <sodipodi:namedview
     id="namedview1"
     pagecolor="#ffffff"
     bordercolor="#000000"
     borderopacity="0.25"
     inkscape:showpageshadow="2"
     inkscape:pageopacity="0.0"
     inkscape:pagecheckerboard="0"
     inkscape:deskcolor="#d1d1d1" />
  <!-- Icon from TDesign Icons by TDesign - https://github.com/Tencent/tdesign-icons/blob/main/LICENSE -->
  <path
     fill="none"
     stroke="currentColor"
     stroke-linecap="square"
     stroke-width="2"
     d="M4 5h.5a1 1 0 0 1 1 1v9m0 0H4m1.5 0H7m3-10h3a1 1 0 0 1 1 1v3a1 1 0 0 1-1 1h-2a1 1 0 0 0-1 1v4h4m3 0h3a1 1 0 0 0 1-1v-4m-4-5h3a1 1 0 0 1 1 1v4m0 0h-3.5m3.5 9H4"
     id="path1" />
</svg>
