<?xml version="1.0" encoding="UTF-8" standalone="no"?>
<svg
   width="1em"
   height="1em"
   viewBox="0 0 24 24"
   version="1.1"
   id="svg2"
   sodipodi:docname="tdesign-bifurcate.svg"
   xmlns:inkscape="http://www.inkscape.org/namespaces/inkscape"
   xmlns:sodipodi="http://sodipodi.sourceforge.net/DTD/sodipodi-0.dtd"
   xmlns="http://www.w3.org/2000/svg"
   xmlns:svg="http://www.w3.org/2000/svg">
  <defs
     id="defs2" />
  <sodipodi:namedview
     id="namedview2"
     pagecolor="#ffffff"
     bordercolor="#000000"
     borderopacity="0.25"
     inkscape:showpageshadow="2"
     inkscape:pageopacity="0.0"
     inkscape:pagecheckerboard="0"
     inkscape:deskcolor="#d1d1d1" />
  <!-- Icon from TDesign Icons by TDesign - https://github.com/Tencent/tdesign-icons/blob/main/LICENSE -->
  <g
     fill="none"
     id="g2">
    <path
       d="M20 5a2 2 0 1 1-4 0a2 2 0 0 1 4 0M8 5a2 2 0 1 1-4 0a2 2 0 0 1 4 0m6 14a2 2 0 1 1-4 0a2 2 0 0 1 4 0"
       id="path1" />
    <path
       stroke="currentColor"
       stroke-linecap="square"
       stroke-width="2"
       d="M6 7c0 1.667 1.2 6 6 6M6 7a2 2 0 1 0 0-4a2 2 0 0 0 0 4Zm6 6v4m0-4c4.8 0 6-4.333 6-6m-6 10a2 2 0 1 0 0 4a2 2 0 0 0 0-4Zm6-10a2 2 0 1 0 0-4a2 2 0 0 0 0 4Z"
       id="path2" />
  </g>
</svg>
