<?xml version="1.0" encoding="UTF-8" standalone="no"?>
<svg
   width="1em"
   height="1em"
   viewBox="0 0 24 24"
   version="1.1"
   id="svg1"
   sodipodi:docname="tdesign-gesture-expansion-filled.svg"
   xmlns:inkscape="http://www.inkscape.org/namespaces/inkscape"
   xmlns:sodipodi="http://sodipodi.sourceforge.net/DTD/sodipodi-0.dtd"
   xmlns="http://www.w3.org/2000/svg"
   xmlns:svg="http://www.w3.org/2000/svg">
  <defs
     id="defs1" />
  <sodipodi:namedview
     id="namedview1"
     pagecolor="#ffffff"
     bordercolor="#000000"
     borderopacity="0.25"
     inkscape:showpageshadow="2"
     inkscape:pageopacity="0.0"
     inkscape:pagecheckerboard="0"
     inkscape:deskcolor="#d1d1d1" />
  <!-- Icon from TDesign Icons by TDesign - https://github.com/Tencent/tdesign-icons/blob/main/LICENSE -->
  <path
     fill="currentColor"
     d="M10.74 7.07a2.26 2.26 0 1 1 4.52 0v3.45h1.654c.488 0 .968.13 1.39.375l3.624 2.116a2.76 2.76 0 0 1 1.226 3.252l-1.782 5.35a2.76 2.76 0 0 1-2.616 1.886h-7.085a2.76 2.76 0 0 1-2.186-1.076L5.187 16.83l.95-1.425a1.88 1.88 0 0 1 1.926-.801l2.677.529zM6 0h5v5H9V3.414L5.414 7H7v2H2V4h2v1.586L7.586 2H6z"
     id="path1" />
</svg>
