<?xml version="1.0" encoding="UTF-8" standalone="no"?>
<svg
   width="1em"
   height="1em"
   viewBox="0 0 24 24"
   version="1.1"
   id="svg2"
   sodipodi:docname="tdesign-system-3.svg"
   xmlns:inkscape="http://www.inkscape.org/namespaces/inkscape"
   xmlns:sodipodi="http://sodipodi.sourceforge.net/DTD/sodipodi-0.dtd"
   xmlns="http://www.w3.org/2000/svg"
   xmlns:svg="http://www.w3.org/2000/svg">
  <defs
     id="defs2" />
  <sodipodi:namedview
     id="namedview2"
     pagecolor="#ffffff"
     bordercolor="#000000"
     borderopacity="0.25"
     inkscape:showpageshadow="2"
     inkscape:pageopacity="0.0"
     inkscape:pagecheckerboard="0"
     inkscape:deskcolor="#d1d1d1" />
  <!-- Icon from TDesign Icons by TDesign - https://github.com/Tencent/tdesign-icons/blob/main/LICENSE -->
  <g
     fill="none"
     id="g2">
    <path
       d="M16.923 21H21v-4.077A2.926 2.926 0 0 0 18.077 14H14v4.077A2.926 2.926 0 0 0 16.923 21m-9.846 0H3v-4.077A2.926 2.926 0 0 1 5.923 14H10v4.077A2.926 2.926 0 0 1 7.077 21m9.846-18H21v4.077A2.926 2.926 0 0 1 18.077 10H14V5.923A2.926 2.926 0 0 1 16.923 3M7.077 3H3v4.077A2.926 2.926 0 0 0 5.923 10H10V5.923A2.926 2.926 0 0 0 7.077 3"
       id="path1" />
    <path
       stroke="currentColor"
       stroke-width="2"
       d="M16.923 21H21v-4.077A2.926 2.926 0 0 0 18.077 14H14v4.077A2.926 2.926 0 0 0 16.923 21Zm-9.846 0H3v-4.077A2.926 2.926 0 0 1 5.923 14H10v4.077A2.926 2.926 0 0 1 7.077 21Zm9.846-18H21v4.077A2.926 2.926 0 0 1 18.077 10H14V5.923A2.926 2.926 0 0 1 16.923 3ZM7.077 3H3v4.077A2.926 2.926 0 0 0 5.923 10H10V5.923A2.926 2.926 0 0 0 7.077 3Z"
       id="path2" />
  </g>
</svg>
