<?xml version="1.0" encoding="UTF-8" standalone="no"?>
<svg
   width="1em"
   height="1em"
   viewBox="0 0 24 24"
   version="1.1"
   id="svg2"
   sodipodi:docname="tdesign-chicken.svg"
   xmlns:inkscape="http://www.inkscape.org/namespaces/inkscape"
   xmlns:sodipodi="http://sodipodi.sourceforge.net/DTD/sodipodi-0.dtd"
   xmlns="http://www.w3.org/2000/svg"
   xmlns:svg="http://www.w3.org/2000/svg">
  <defs
     id="defs2" />
  <sodipodi:namedview
     id="namedview2"
     pagecolor="#ffffff"
     bordercolor="#000000"
     borderopacity="0.25"
     inkscape:showpageshadow="2"
     inkscape:pageopacity="0.0"
     inkscape:pagecheckerboard="0"
     inkscape:deskcolor="#d1d1d1" />
  <!-- Icon from TDesign Icons by TDesign - https://github.com/Tencent/tdesign-icons/blob/main/LICENSE -->
  <g
     fill="none"
     id="g2">
    <path
       d="M17.429 2.936c1.477-.437 1.966 1.544 1.966 1.544s1.956-.559 2.32.93c.365 1.49-1.455 1.944-2.51 2.226l-1.74 3.011a5 5 0 0 0-2.9-.629l2.191-3.796c-.284-1.062-.804-2.85.673-3.286"
       id="path1" />
    <path
       stroke="currentColor"
       stroke-linecap="square"
       stroke-width="2"
       d="M3 19.999h18m-9-14h-1.999a7 7 0 0 0-.001 14h5a5 5 0 0 0 5-5c0-2.917-2.575-5.216-5.436-4.98l-.092.008c-2.527.25-4.472 2.38-4.472 4.972m9.395-10.52s-.49-1.98-1.967-1.543s-.957 2.224-.672 3.286l-2.192 3.796a5 5 0 0 1 2.9.629l1.741-3.01c1.054-.283 2.875-.736 2.51-2.226s-2.32-.931-2.32-.931Z"
       id="path2" />
  </g>
</svg>
