<?xml version="1.0" encoding="UTF-8" standalone="no"?>
<svg
   width="1em"
   height="1em"
   viewBox="0 0 24 24"
   version="1.1"
   id="svg1"
   sodipodi:docname="tdesign-undertake-transaction-filled.svg"
   xmlns:inkscape="http://www.inkscape.org/namespaces/inkscape"
   xmlns:sodipodi="http://sodipodi.sourceforge.net/DTD/sodipodi-0.dtd"
   xmlns="http://www.w3.org/2000/svg"
   xmlns:svg="http://www.w3.org/2000/svg">
  <defs
     id="defs1" />
  <sodipodi:namedview
     id="namedview1"
     pagecolor="#ffffff"
     bordercolor="#000000"
     borderopacity="0.25"
     inkscape:showpageshadow="2"
     inkscape:pageopacity="0.0"
     inkscape:pagecheckerboard="0"
     inkscape:deskcolor="#d1d1d1" />
  <!-- Icon from TDesign Icons by TDesign - https://github.com/Tencent/tdesign-icons/blob/main/LICENSE -->
  <path
     fill="currentColor"
     d="M10 5.5a4.5 4.5 0 0 1 6.5-4.032a4.5 4.5 0 1 1 0 8.064A4.5 4.5 0 0 1 10 5.5m8.25 2.488q.123.012.25.012a2.5 2.5 0 1 0-.25-4.988A4.5 4.5 0 0 1 19 5.5a4.5 4.5 0 0 1-.75 2.488M8.435 13.25a1.25 1.25 0 0 0-.885.364l-2.05 2.05V19.5h5.627l5.803-1.45l3.532-1.508a.555.555 0 0 0-.416-1.022l-.02.005L13.614 17H10v-2h3.125a.875.875 0 1 0 0-1.75zm7.552 1.152l3.552-.817a2.56 2.56 0 0 1 3.211 2.47a2.56 2.56 0 0 1-1.414 2.287l-.027.014l-3.74 1.595l-6.196 1.549H0v-7.25h4.086l2.052-2.052a3.25 3.25 0 0 1 2.3-.948h4.687a2.875 2.875 0 0 1 2.862 3.152M3.5 16.25H2v3.25h1.5z"
     id="path1" />
</svg>
