<?xml version="1.0" encoding="UTF-8" standalone="no"?>
<svg
   width="1em"
   height="1em"
   viewBox="0 0 24 24"
   version="1.1"
   id="svg1"
   sodipodi:docname="tdesign-fingerprint-3.svg"
   xmlns:inkscape="http://www.inkscape.org/namespaces/inkscape"
   xmlns:sodipodi="http://sodipodi.sourceforge.net/DTD/sodipodi-0.dtd"
   xmlns="http://www.w3.org/2000/svg"
   xmlns:svg="http://www.w3.org/2000/svg">
  <defs
     id="defs1" />
  <sodipodi:namedview
     id="namedview1"
     pagecolor="#ffffff"
     bordercolor="#000000"
     borderopacity="0.25"
     inkscape:showpageshadow="2"
     inkscape:pageopacity="0.0"
     inkscape:pagecheckerboard="0"
     inkscape:deskcolor="#d1d1d1" />
  <!-- Icon from TDesign Icons by TDesign - https://github.com/Tencent/tdesign-icons/blob/main/LICENSE -->
  <path
     fill="none"
     stroke="currentColor"
     stroke-linecap="square"
     stroke-width="2"
     d="M3 13v-2a9 9 0 0 1 12.746-8.186M19.496 21A16.9 16.9 0 0 0 21 14v-3c0-2.23-.811-4.27-2.154-5.843M8.427 8.264A4.48 4.48 0 0 0 7.5 11v1m9-1A4.5 4.5 0 0 0 12 6.5m-9 11h1c1.273 0 2.388-.68 3-1.696M14.358 21a12.43 12.43 0 0 0 2.103-6M12 11v3a8 8 0 0 1-4.124 7"
     id="path1" />
</svg>
