<?xml version="1.0" encoding="UTF-8" standalone="no"?>
<svg
   width="1em"
   height="1em"
   viewBox="0 0 24 24"
   version="1.1"
   id="svg1"
   sodipodi:docname="tdesign-edit-off-filled.svg"
   xmlns:inkscape="http://www.inkscape.org/namespaces/inkscape"
   xmlns:sodipodi="http://sodipodi.sourceforge.net/DTD/sodipodi-0.dtd"
   xmlns="http://www.w3.org/2000/svg"
   xmlns:svg="http://www.w3.org/2000/svg">
  <defs
     id="defs1" />
  <sodipodi:namedview
     id="namedview1"
     pagecolor="#ffffff"
     bordercolor="#000000"
     borderopacity="0.25"
     inkscape:showpageshadow="2"
     inkscape:pageopacity="0.0"
     inkscape:pagecheckerboard="0"
     inkscape:deskcolor="#d1d1d1" />
  <!-- Icon from TDesign Icons by TDesign - https://github.com/Tencent/tdesign-icons/blob/main/LICENSE -->
  <path
     fill="currentColor"
     d="M15.748 2.947a2 2 0 0 1 2.828 0l2.475 2.475a2 2 0 0 1 0 2.828l-4.553 4.553l-1.414-1.414l1.496-1.496l-2.475-2.475l-1.496 1.496L11.195 7.5zM4 2.586L21.414 20L20 21.414l-6.056-6.056l-4.786 4.785l-6.38 1.077l1.076-6.38l4.786-4.786L2.586 4zm6.054 8.883L5.72 15.803l-.502 2.977l2.977-.502l4.334-4.334z"
     id="path1" />
</svg>
