<?xml version="1.0" encoding="UTF-8" standalone="no"?>
<svg
   width="1em"
   height="1em"
   viewBox="0 0 24 24"
   version="1.1"
   id="svg1"
   sodipodi:docname="tdesign-logo-github.svg"
   xmlns:inkscape="http://www.inkscape.org/namespaces/inkscape"
   xmlns:sodipodi="http://sodipodi.sourceforge.net/DTD/sodipodi-0.dtd"
   xmlns="http://www.w3.org/2000/svg"
   xmlns:svg="http://www.w3.org/2000/svg">
  <defs
     id="defs1" />
  <sodipodi:namedview
     id="namedview1"
     pagecolor="#ffffff"
     bordercolor="#000000"
     borderopacity="0.25"
     inkscape:showpageshadow="2"
     inkscape:pageopacity="0.0"
     inkscape:pagecheckerboard="0"
     inkscape:deskcolor="#d1d1d1" />
  <!-- Icon from TDesign Icons by TDesign - https://github.com/Tencent/tdesign-icons/blob/main/LICENSE -->
  <path
     fill="none"
     stroke="currentColor"
     stroke-linecap="square"
     stroke-width="2"
     d="M8.508 23c0-.16-.002-.394-.005-.761c-.005-.73-.013-1.824-.013-3.081c0-1.324.441-2.172.953-2.613C6.301 16.192 3 14.992 3 9.572c0-1.553.547-2.807 1.448-3.795c-.142-.353-.636-1.8.14-3.743c0 0 1.184-.388 3.884 1.448a13.13 13.13 0 0 1 7.056 0c2.7-1.836 3.883-1.448 3.883-1.448c.777 1.942.283 3.39.141 3.743c.9.988 1.448 2.242 1.448 3.795c0 5.42-3.301 6.62-6.443 6.973c.512.441.953 1.289.953 2.613c0 1.257-.008 2.35-.013 3.08c-.003.368-.005.602-.005.762M2.5 17.5l.214.107a4 4 0 0 1 1.335 1.079l.55.688A3 3 0 0 0 6.942 20.5H8.5"
     id="path1" />
</svg>
