<?xml version="1.0" encoding="UTF-8" standalone="no"?>
<svg
   width="1em"
   height="1em"
   viewBox="0 0 24 24"
   version="1.1"
   id="svg4"
   sodipodi:docname="tdesign-drumstick.svg"
   xmlns:inkscape="http://www.inkscape.org/namespaces/inkscape"
   xmlns:sodipodi="http://sodipodi.sourceforge.net/DTD/sodipodi-0.dtd"
   xmlns="http://www.w3.org/2000/svg"
   xmlns:svg="http://www.w3.org/2000/svg">
  <defs
     id="defs4" />
  <sodipodi:namedview
     id="namedview4"
     pagecolor="#ffffff"
     bordercolor="#000000"
     borderopacity="0.25"
     inkscape:showpageshadow="2"
     inkscape:pageopacity="0.0"
     inkscape:pagecheckerboard="0"
     inkscape:deskcolor="#d1d1d1" />
  <!-- Icon from TDesign Icons by TDesign - https://github.com/Tencent/tdesign-icons/blob/main/LICENSE -->
  <g
     fill="none"
     id="g4">
    <path
       d="M15 16a7 7 0 1 0-6.861-5.61L6.5 12c-.594.593-.383 1.815.444 3.06a7.8 7.8 0 0 0 1.97 2.03c1.306.926 2.62 1.189 3.242.567l1.77-1.739Q14.452 16 15 16"
       id="path1" />
    <path
       d="M5.5 22c-1.54.04-1.5-2-1.5-2s-2.033.033-2-1.5c.034-1.534 1.91-1.5 3-1.5l1.945-1.94a7.8 7.8 0 0 0 1.97 2.03L7 19c0 1.1.04 2.96-1.5 3"
       id="path2" />
    <path
       stroke="currentColor"
       stroke-linecap="square"
       stroke-width="2"
       d="M5.5 22c-1.54.04-1.5-2-1.5-2s-2.033.033-2-1.5c.034-1.534 1.91-1.5 3-1.5l1.945-1.94a7.8 7.8 0 0 0 1.97 2.03L7 19c0 1.1.04 2.96-1.5 3Z"
       id="path3" />
    <path
       stroke="currentColor"
       stroke-linecap="square"
       stroke-width="2"
       d="M10.1 14a7 7 0 0 1-1.84-3.1m.655 6.19a7.8 7.8 0 0 1-1.971-2.029C6.117 13.814 5.906 12.593 6.5 12l1.638-1.61a7 7 0 1 1 5.788 5.528l-1.77 1.739c-.621.622-1.936.358-3.241-.568Z"
       id="path4" />
  </g>
</svg>
