<?xml version="1.0" encoding="UTF-8" standalone="no"?>
<svg
   width="1em"
   height="1em"
   viewBox="0 0 24 24"
   version="1.1"
   id="svg1"
   sodipodi:docname="tdesign-apple-filled.svg"
   xmlns:inkscape="http://www.inkscape.org/namespaces/inkscape"
   xmlns:sodipodi="http://sodipodi.sourceforge.net/DTD/sodipodi-0.dtd"
   xmlns="http://www.w3.org/2000/svg"
   xmlns:svg="http://www.w3.org/2000/svg">
  <defs
     id="defs1" />
  <sodipodi:namedview
     id="namedview1"
     pagecolor="#ffffff"
     bordercolor="#000000"
     borderopacity="0.25"
     inkscape:showpageshadow="2"
     inkscape:pageopacity="0.0"
     inkscape:pagecheckerboard="0"
     inkscape:deskcolor="#d1d1d1" />
  <!-- Icon from TDesign Icons by TDesign - https://github.com/Tencent/tdesign-icons/blob/main/LICENSE -->
  <path
     fill="currentColor"
     d="M13 4.404V2h-2v2.404l-.152-.026l-.275-.05c-.328-.059-.698-.126-1.064-.166c-1.026-.111-2.155-.03-3.494.714C3.378 6.339 2 9.1 2 12.5c0 4.282 2.719 8.297 6.187 9.438c1.041.343 1.787.158 2.407-.07q.146-.054.272-.103c.416-.159.695-.265 1.134-.265c.44 0 .719.106 1.135.265h.001l.27.102c.62.227 1.365.412 2.405.072C19.291 20.799 22 16.78 22 12.5c0-3.4-1.38-6.165-4.015-7.625c-1.34-.742-2.468-.822-3.493-.712c-.367.04-.737.107-1.065.166zM9 6s1.875.636 3 .636S15 6 15 6s-.742 2-3 2s-3-2-3-2"
     id="path1" />
</svg>
