<?xml version="1.0" encoding="UTF-8" standalone="no"?>
<svg
   width="1em"
   height="1em"
   viewBox="0 0 24 24"
   version="1.1"
   id="svg1"
   sodipodi:docname="tdesign-user-talk-off-1-filled.svg"
   xmlns:inkscape="http://www.inkscape.org/namespaces/inkscape"
   xmlns:sodipodi="http://sodipodi.sourceforge.net/DTD/sodipodi-0.dtd"
   xmlns="http://www.w3.org/2000/svg"
   xmlns:svg="http://www.w3.org/2000/svg">
  <defs
     id="defs1" />
  <sodipodi:namedview
     id="namedview1"
     pagecolor="#ffffff"
     bordercolor="#000000"
     borderopacity="0.25"
     inkscape:showpageshadow="2"
     inkscape:pageopacity="0.0"
     inkscape:pagecheckerboard="0"
     inkscape:deskcolor="#d1d1d1" />
  <!-- Icon from TDesign Icons by TDesign - https://github.com/Tencent/tdesign-icons/blob/main/LICENSE -->
  <path
     fill="currentColor"
     d="M2.004.59L2 .586L.586 2L3.82 5.235a5 5 0 0 0 6.445 6.445l2.358 2.359A5 5 0 0 0 12 14H5a5 5 0 0 0-5 5v2h17v-2q0-.318-.039-.624l5.04 5.038l1.41-1.41L2 .595zm13.909 11.089l-.094-.094l.481-.837a1.5 1.5 0 0 0 0-1.495l-.497-.867l1.734-.996l.498.868a3.5 3.5 0 0 1-.001 3.487l-.498.867zm-2.784-2.784L6.605 2.37a5 5 0 0 1 6.523 6.523m7.942-2.378l-.498-.867l-1.734.996l.498.867a5 5 0 0 1-.002 4.982l-.498.867l1.733.997l.499-.867a7 7 0 0 0 .002-6.975"
     id="path1" />
</svg>
