<?xml version="1.0" encoding="UTF-8" standalone="no"?>
<svg
   width="1em"
   height="1em"
   viewBox="0 0 25 25"
   version="1.1"
   id="svg3"
   sodipodi:docname="tdesign-task-setting-filled.svg"
   xmlns:inkscape="http://www.inkscape.org/namespaces/inkscape"
   xmlns:sodipodi="http://sodipodi.sourceforge.net/DTD/sodipodi-0.dtd"
   xmlns="http://www.w3.org/2000/svg"
   xmlns:svg="http://www.w3.org/2000/svg">
  <defs
     id="defs3" />
  <sodipodi:namedview
     id="namedview3"
     pagecolor="#ffffff"
     bordercolor="#000000"
     borderopacity="0.25"
     inkscape:showpageshadow="2"
     inkscape:pageopacity="0.0"
     inkscape:pagecheckerboard="0"
     inkscape:deskcolor="#d1d1d1" />
  <!-- Icon from TDesign Icons by TDesign - https://github.com/Tencent/tdesign-icons/blob/main/LICENSE -->
  <path
     fill="currentColor"
     d="M16 1H8v4h8z"
     id="path1" />
  <path
     fill="currentColor"
     d="M6 3H3v20h10.876A6.5 6.5 0 0 1 21 12.814V3h-3v4H6z"
     id="path2" />
  <path
     fill="currentColor"
     d="M20 13.75v1.376c.715.184 1.352.56 1.854 1.072l1.192-.689l1 1.732l-1.191.688a4 4 0 0 1 0 2.142l1.191.688l-1 1.732l-1.192-.689A4 4 0 0 1 20 22.874v1.376h-2v-1.376a4 4 0 0 1-1.854-1.072l-1.193.689l-1-1.732l1.192-.688a4 4 0 0 1 0-2.142l-1.192-.688l1-1.732l1.193.689A4 4 0 0 1 18 15.126V13.75zm-2.751 4.283a2 2 0 0 0-.25.967c0 .35.091.68.25.967l.036.063a2 2 0 0 0 3.43 0l.036-.063A2 2 0 0 0 21 19c0-.35-.09-.68-.249-.967l-.037-.063a2 2 0 0 0-3.429 0z"
     id="path3" />
</svg>
