<?xml version="1.0" encoding="UTF-8" standalone="no"?>
<svg
   width="1em"
   height="1em"
   viewBox="0 0 24 24"
   version="1.1"
   id="svg2"
   sodipodi:docname="tdesign-image-search-filled.svg"
   xmlns:inkscape="http://www.inkscape.org/namespaces/inkscape"
   xmlns:sodipodi="http://sodipodi.sourceforge.net/DTD/sodipodi-0.dtd"
   xmlns="http://www.w3.org/2000/svg"
   xmlns:svg="http://www.w3.org/2000/svg">
  <defs
     id="defs2" />
  <sodipodi:namedview
     id="namedview2"
     pagecolor="#ffffff"
     bordercolor="#000000"
     borderopacity="0.25"
     inkscape:showpageshadow="2"
     inkscape:pageopacity="0.0"
     inkscape:pagecheckerboard="0"
     inkscape:deskcolor="#d1d1d1" />
  <!-- Icon from TDesign Icons by TDesign - https://github.com/Tencent/tdesign-icons/blob/main/LICENSE -->
  <path
     fill="currentColor"
     d="M22 2H2v20h10.506A6.72 6.72 0 0 1 11 17.75a6.73 6.73 0 0 1 2.189-4.976L9 8.586l-5 5V4h16v7.384c.733.26 1.408.641 2 1.122z"
     id="path1" />
  <path
     fill="currentColor"
     d="M16 5.25a2.75 2.75 0 1 0 0 5.5a2.75 2.75 0 0 0 0-5.5m1.654 7.25a5.154 5.154 0 1 0 2.87 9.436l1.975 1.978l1.415-1.413l-1.977-1.98a5.154 5.154 0 0 0-4.283-8.021M14.5 17.654a3.154 3.154 0 1 1 6.308 0a3.154 3.154 0 0 1-6.308 0"
     id="path2" />
</svg>
