<?xml version="1.0" encoding="UTF-8" standalone="no"?>
<svg
   width="1em"
   height="1em"
   viewBox="0 0 24 24"
   version="1.1"
   id="svg2"
   sodipodi:docname="tdesign-shop-3.svg"
   xmlns:inkscape="http://www.inkscape.org/namespaces/inkscape"
   xmlns:sodipodi="http://sodipodi.sourceforge.net/DTD/sodipodi-0.dtd"
   xmlns="http://www.w3.org/2000/svg"
   xmlns:svg="http://www.w3.org/2000/svg">
  <sodipodi:namedview
     id="namedview2"
     pagecolor="#ffffff"
     bordercolor="#000000"
     borderopacity="0.25"
     inkscape:showpageshadow="2"
     inkscape:pageopacity="0.0"
     inkscape:pagecheckerboard="0"
     inkscape:deskcolor="#d1d1d1" />
  <!-- Icon from TDesign Icons by TDesign - https://github.com/Tencent/tdesign-icons/blob/main/LICENSE -->
  <defs
     id="defs1">
    <path
       id="SVGbLuxBzMM"
       d="M15 14H9v7h6zM3 6a3 3 0 0 0 6 0a3 3 0 1 0 6 0a3 3 0 1 0 6 0V3H3z" />
  </defs>
  <g
     fill="none"
     id="g2">
    <path
       d="M3 3h18v18H3z"
       id="path1" />
    <path
       id="use1"
       d="M 15,14 H 9 v 7 h 6 z M 3,6 a 3,3 0 0 0 6,0 3,3 0 1 0 6,0 3,3 0 1 0 6,0 V 3 H 3 Z" />
    <path
       id="use2"
       d="M 15,14 H 9 v 7 h 6 z M 3,6 a 3,3 0 0 0 6,0 3,3 0 1 0 6,0 3,3 0 1 0 6,0 V 3 H 3 Z"
       style="stroke:#000000;stroke-width:2" />
    <path
       stroke="currentColor"
       stroke-width="2"
       d="M3 3h18v18H3z"
       id="path2" />
  </g>
</svg>
