<svg xmlns="http://www.w3.org/2000/svg" width="1em" height="1em" viewBox="0 0 24 24"><!-- Icon from TDesign Icons by TDesign - https://github.com/Tencent/tdesign-icons/blob/main/LICENSE --><g fill="none"><path d="M7 12a2.5 2.5 0 1 0-5 0a2.5 2.5 0 0 0 5 0m7.5 0a2.5 2.5 0 1 0-5 0a2.5 2.5 0 0 0 5 0m7.5 0a2.5 2.5 0 1 0-5 0a2.5 2.5 0 0 0 5 0"/><path stroke="currentColor" stroke-width="2" d="M7 12a2.5 2.5 0 1 0-5 0a2.5 2.5 0 0 0 5 0Zm0 0h2.5m0 0a2.5 2.5 0 0 1 5 0m-5 0a2.5 2.5 0 0 0 5 0m0 0H17m0 0a2.5 2.5 0 1 1 5 0a2.5 2.5 0 0 1-5 0Z"/></g></svg>