<svg xmlns="http://www.w3.org/2000/svg" width="1em" height="1em" viewBox="0 0 24 24"><!-- Icon from TDesign Icons by TDesign - https://github.com/Tencent/tdesign-icons/blob/main/LICENSE --><defs><path id="SVGroernfVu" d="M22 4v16H2V4z"/></defs><g fill="none"><use href="#SVGroernfVu"/><path d="M17 7H7L5 4h14zm-7 6a2 2 0 1 1-4 0a2 2 0 0 1 4 0m8 0a2 2 0 1 1-4 0a2 2 0 0 1 4 0"/><g stroke="currentColor" stroke-linecap="square" stroke-width="2"><use href="#SVGroernfVu"/><path d="M17 7H7L5 4h14z"/></g><path stroke="currentColor" stroke-linecap="square" stroke-width="2" d="M10 13a2 2 0 1 1-4 0a2 2 0 0 1 4 0Zm8 0a2 2 0 1 1-4 0a2 2 0 0 1 4 0Z"/></g></svg>