<svg xmlns="http://www.w3.org/2000/svg" width="1em" height="1em" viewBox="0 0 24 24"><!-- Icon from TDesign Icons by TDesign - https://github.com/Tencent/tdesign-icons/blob/main/LICENSE --><g fill="none"><path d="M4 2h11l5 5v15H4z"/><path d="M14.5 10.5a2.5 2.5 0 1 1-5 0a2.5 2.5 0 0 1 5 0"/><path stroke="currentColor" stroke-linecap="square" stroke-width="2" d="M4 2h11l5 5v15H4z"/><path stroke="currentColor" stroke-linecap="square" stroke-width="2" d="M17 19a3 3 0 0 0-3-3h-4a3 3 0 0 0-3 3m7.5-8.5a2.5 2.5 0 1 1-5 0a2.5 2.5 0 0 1 5 0Z"/></g></svg>