<svg xmlns="http://www.w3.org/2000/svg" width="1em" height="1em" viewBox="0 0 24 24"><!-- Icon from TDesign Icons by TDesign - https://github.com/Tencent/tdesign-icons/blob/main/LICENSE --><g fill="none" fill-rule="evenodd" clip-rule="evenodd"><path d="M9 4a2 2 0 1 1 4 0v1h6v6h1a2 2 0 1 1 0 4h-1v6h-4.535a3.501 3.501 0 0 0-6.93 0H3v-4.535a3.5 3.5 0 0 0 0-6.93V5h6z"/><path stroke="currentColor" stroke-linecap="square" stroke-width="2" d="M9 4a2 2 0 1 1 4 0v1h6v6h1a2 2 0 1 1 0 4h-1v6h-4.535a3.501 3.501 0 0 0-6.93 0H3v-4.535a3.5 3.5 0 0 0 0-6.93V5h6z"/></g></svg>